# Blender v2.74 (sub 0) OBJ File: ''
# www.blender.org
mtllib curve2_mesh.mtl
o Cylinder_Cylinder.002
v 0.000000 -0.025000 -0.650000
v 0.000000 0.025000 -0.650000
v 0.063711 0.025000 -0.646870
v 0.063711 -0.025000 -0.646870
v -0.339496 -0.025000 -0.553417
v -0.306409 -0.025000 -0.573248
v -0.248746 -0.025000 -0.600521
v -0.188687 -0.025000 -0.622011
v -0.126811 -0.025000 -0.637510
v -0.063713 -0.025000 -0.646870
v 0.126809 -0.025000 -0.637510
v 0.188685 -0.025000 -0.622011
v 0.248744 -0.025000 -0.600522
v 0.306408 -0.025000 -0.573249
v 0.339496 -0.025000 -0.553417
v 0.320068 -0.025000 -0.553417
v 0.301694 -0.025000 -0.564430
v 0.244917 -0.025000 -0.591283
v 0.185782 -0.025000 -0.612442
v 0.124858 -0.025000 -0.627703
v 0.062731 -0.025000 -0.636918
v 0.000000 -0.025000 -0.640000
v -0.062733 -0.025000 -0.636918
v -0.124860 -0.025000 -0.627702
v -0.185784 -0.025000 -0.612441
v -0.244919 -0.025000 -0.591282
v -0.301695 -0.025000 -0.564429
v -0.320068 -0.025000 -0.553417
v -0.063713 0.025000 -0.646870
v 0.339496 0.025000 -0.553417
v 0.306408 0.025000 -0.573249
v 0.248744 0.025000 -0.600522
v 0.188685 0.025000 -0.622011
v 0.126809 0.025000 -0.637510
v -0.126811 0.025000 -0.637510
v -0.188687 0.025000 -0.622011
v -0.248746 0.025000 -0.600521
v -0.306409 0.025000 -0.573248
v -0.339496 0.025000 -0.553417
v -0.320068 0.025000 -0.553417
v -0.301695 0.025000 -0.564429
v -0.244919 0.025000 -0.591282
v -0.185784 0.025000 -0.612441
v -0.124860 0.025000 -0.627702
v -0.062733 0.025000 -0.636918
v 0.000000 0.025000 -0.640000
v 0.062731 0.025000 -0.636918
v 0.124858 0.025000 -0.627703
v 0.185782 0.025000 -0.612442
v 0.244917 0.025000 -0.591283
v 0.301694 0.025000 -0.564430
v 0.320068 0.025000 -0.553417
vn 0.049100 0.000000 -0.998800
vn 0.000000 -1.000000 -0.000000
vn -0.049100 0.000000 -0.998800
vn 0.000000 1.000000 -0.000000
vn 0.146700 0.000000 -0.989200
vn 0.000000 0.000000 1.000000
vn -0.514100 0.000000 -0.857700
vn -0.427600 0.000000 -0.904000
vn -0.336900 0.000000 -0.941500
vn -0.243000 0.000000 -0.970000
vn -0.146700 0.000000 -0.989200
vn 0.243000 0.000000 -0.970000
vn 0.336900 0.000000 -0.941500
vn 0.427600 0.000000 -0.904000
vn 0.514100 0.000000 -0.857700
vn -0.049100 0.000000 0.998800
vn 0.049100 0.000000 0.998800
vn -0.146700 0.000000 0.989200
vn 0.146700 0.000000 0.989200
vn -0.243000 0.000000 0.970000
vn 0.243000 0.000000 0.970000
vn -0.336900 0.000000 0.941500
vn 0.336900 0.000000 0.941500
vn -0.427600 0.000000 0.904000
vn 0.427600 0.000000 0.904000
vn -0.514100 0.000000 0.857700
vn 0.514100 0.000000 0.857700
usemtl None
s off
f 1//1 2//1 3//1 4//1
f 5//2 6//2 7//2 8//2 9//2 10//2 1//2 4//2 11//2 12//2 13//2 14//2 15//2 16//2 17//2 18//2 19//2 20//2 21//2 22//2 23//2 24//2 25//2 26//2 27//2 28//2
f 10//3 29//3 2//3 1//3
f 30//4 31//4 32//4 33//4 34//4 3//4 2//4 29//4 35//4 36//4 37//4 38//4 39//4 40//4 41//4 42//4 43//4 44//4 45//4 46//4 47//4 48//4 49//4 50//4 51//4 52//4
f 4//5 3//5 34//5 11//5
f 40//6 39//6 5//6 28//6
f 39//7 38//7 6//7 5//7
f 6//8 38//8 37//8 7//8
f 7//9 37//9 36//9 8//9
f 8//10 36//10 35//10 9//10
f 9//11 35//11 29//11 10//11
f 11//12 34//12 33//12 12//12
f 12//13 33//13 32//13 13//13
f 13//14 32//14 31//14 14//14
f 15//15 14//15 31//15 30//15
f 15//6 30//6 52//6 16//6
f 22//16 21//16 47//16 46//16
f 23//17 22//17 46//17 45//17
f 21//18 20//18 48//18 47//18
f 24//19 23//19 45//19 44//19
f 20//20 19//20 49//20 48//20
f 25//21 24//21 44//21 43//21
f 19//22 18//22 50//22 49//22
f 26//23 25//23 43//23 42//23
f 18//24 17//24 51//24 50//24
f 27//25 26//25 42//25 41//25
f 17//26 16//26 52//26 51//26
f 41//27 40//27 28//27 27//27
