# Blender v2.74 (sub 0) OBJ File: ''
# www.blender.org
mtllib curve1_mesh.mtl
o Cylinder
v 0.000000 -0.025000 -0.300000
v 0.000000 0.025000 -0.300000
v 0.029405 0.025000 -0.298555
v 0.029405 -0.025000 -0.298555
v -0.248839 -0.025000 -0.167483
v -0.231903 -0.025000 -0.190318
v -0.212132 -0.025000 -0.212132
v -0.190319 -0.025000 -0.231903
v -0.166672 -0.025000 -0.249440
v -0.141420 -0.025000 -0.264576
v -0.114806 -0.025000 -0.277164
v -0.087086 -0.025000 -0.287082
v -0.058528 -0.025000 -0.294235
v -0.029406 -0.025000 -0.298555
v 0.058527 -0.025000 -0.294236
v 0.087085 -0.025000 -0.287082
v 0.114805 -0.025000 -0.277164
v 0.141419 -0.025000 -0.264576
v 0.166671 -0.025000 -0.249441
v 0.190318 -0.025000 -0.231903
v 0.212132 -0.025000 -0.212132
v 0.231903 -0.025000 -0.190318
v 0.248839 -0.025000 -0.167483
v 0.236404 -0.025000 -0.167483
v 0.224173 -0.025000 -0.183974
v 0.205061 -0.025000 -0.205061
v 0.183974 -0.025000 -0.224173
v 0.161115 -0.025000 -0.241126
v 0.136705 -0.025000 -0.255757
v 0.110978 -0.025000 -0.267925
v 0.084183 -0.025000 -0.277513
v 0.056576 -0.025000 -0.284428
v 0.028425 -0.025000 -0.288604
v 0.000000 -0.025000 -0.290000
v -0.028426 -0.025000 -0.288603
v -0.056577 -0.025000 -0.284428
v -0.084183 -0.025000 -0.277512
v -0.110979 -0.025000 -0.267925
v -0.136706 -0.025000 -0.255757
v -0.161116 -0.025000 -0.241126
v -0.183975 -0.025000 -0.224173
v -0.205061 -0.025000 -0.205061
v -0.224173 -0.025000 -0.183974
v -0.236404 -0.025000 -0.167483
v -0.029406 0.025000 -0.298555
v 0.248839 0.025000 -0.167483
v 0.231903 0.025000 -0.190318
v 0.212132 0.025000 -0.212132
v 0.190318 0.025000 -0.231903
v 0.166671 0.025000 -0.249441
v 0.141419 0.025000 -0.264576
v 0.114805 0.025000 -0.277164
v 0.087085 0.025000 -0.287082
v 0.058527 0.025000 -0.294236
v -0.058528 0.025000 -0.294235
v -0.087086 0.025000 -0.287082
v -0.114806 0.025000 -0.277164
v -0.141420 0.025000 -0.264576
v -0.166672 0.025000 -0.249440
v -0.190319 0.025000 -0.231903
v -0.212132 0.025000 -0.212132
v -0.231903 0.025000 -0.190318
v -0.248839 0.025000 -0.167483
v -0.236404 0.025000 -0.167483
v -0.224173 0.025000 -0.183974
v -0.205061 0.025000 -0.205061
v -0.183975 0.025000 -0.224173
v -0.161116 0.025000 -0.241126
v -0.136706 0.025000 -0.255757
v -0.110979 0.025000 -0.267925
v -0.084183 0.025000 -0.277512
v -0.056577 0.025000 -0.284428
v -0.028426 0.025000 -0.288603
v 0.000000 0.025000 -0.290000
v 0.028425 0.025000 -0.288604
v 0.056576 0.025000 -0.284428
v 0.084183 0.025000 -0.277513
v 0.110978 0.025000 -0.267925
v 0.136705 0.025000 -0.255757
v 0.161115 0.025000 -0.241126
v 0.183974 0.025000 -0.224173
v 0.205061 0.025000 -0.205061
v 0.224173 0.025000 -0.183974
v 0.236404 0.025000 -0.167483
vn 0.049100 0.000000 -0.998800
vn 0.000000 -1.000000 0.000000
vn -0.049100 0.000000 -0.998800
vn 0.000000 1.000000 -0.000000
vn 0.146700 0.000000 -0.989200
vn 0.000000 0.000000 1.000000
vn -0.803200 0.000000 -0.595700
vn -0.741000 0.000000 -0.671600
vn -0.671600 0.000000 -0.740900
vn -0.595700 0.000000 -0.803200
vn -0.514100 0.000000 -0.857700
vn -0.427600 0.000000 -0.904000
vn -0.336900 0.000000 -0.941500
vn -0.243000 0.000000 -0.970000
vn -0.146700 0.000000 -0.989200
vn 0.243000 0.000000 -0.970000
vn 0.336900 0.000000 -0.941500
vn 0.427600 0.000000 -0.904000
vn 0.514100 0.000000 -0.857700
vn 0.595700 0.000000 -0.803200
vn 0.671600 0.000000 -0.741000
vn 0.741000 0.000000 -0.671600
vn 0.803200 0.000000 -0.595700
vn -0.049100 0.000000 0.998800
vn 0.049100 0.000000 0.998800
vn -0.146700 0.000000 0.989200
vn 0.146700 0.000000 0.989200
vn -0.243000 0.000000 0.970000
vn 0.243000 0.000000 0.970000
vn -0.336900 0.000000 0.941500
vn 0.336900 0.000000 0.941500
vn -0.427600 0.000000 0.904000
vn 0.427600 0.000000 0.904000
vn -0.514100 0.000000 0.857700
vn 0.514100 0.000000 0.857700
vn -0.595700 0.000000 0.803200
vn 0.595700 0.000000 0.803200
vn -0.671600 0.000000 0.741000
vn 0.671600 0.000000 0.741000
vn -0.741000 0.000000 0.671600
vn 0.741000 0.000000 0.671600
vn -0.803200 0.000000 0.595700
vn 0.803200 0.000000 0.595700
usemtl None
s off
f 1//1 2//1 3//1 4//1
f 5//2 6//2 7//2 8//2 9//2 10//2 11//2 12//2 13//2 14//2 1//2 4//2 15//2 16//2 17//2 18//2 19//2 20//2 21//2 22//2 23//2 24//2 25//2 26//2 27//2 28//2 29//2 30//2 31//2 32//2 33//2 34//2 35//2 36//2 37//2 38//2 39//2 40//2 41//2 42//2 43//2 44//2
f 14//3 45//3 2//3 1//3
f 46//4 47//4 48//4 49//4 50//4 51//4 52//4 53//4 54//4 3//4 2//4 45//4 55//4 56//4 57//4 58//4 59//4 60//4 61//4 62//4 63//4 64//4 65//4 66//4 67//4 68//4 69//4 70//4 71//4 72//4 73//4 74//4 75//4 76//4 77//4 78//4 79//4 80//4 81//4 82//4 83//4 84//4
f 4//5 3//5 54//5 15//5
f 63//6 5//6 44//6 64//6
f 63//7 62//7 6//7 5//7
f 6//8 62//8 61//8 7//8
f 7//9 61//9 60//9 8//9
f 8//10 60//10 59//10 9//10
f 9//11 59//11 58//11 10//11
f 10//12 58//12 57//12 11//12
f 11//13 57//13 56//13 12//13
f 12//14 56//14 55//14 13//14
f 13//15 55//15 45//15 14//15
f 15//16 54//16 53//16 16//16
f 16//17 53//17 52//17 17//17
f 17//18 52//18 51//18 18//18
f 18//19 51//19 50//19 19//19
f 19//20 50//20 49//20 20//20
f 20//21 49//21 48//21 21//21
f 21//22 48//22 47//22 22//22
f 23//23 22//23 47//23 46//23
f 24//6 23//6 46//6 84//6
f 34//24 33//24 75//24 74//24
f 35//25 34//25 74//25 73//25
f 33//26 32//26 76//26 75//26
f 36//27 35//27 73//27 72//27
f 32//28 31//28 77//28 76//28
f 37//29 36//29 72//29 71//29
f 31//30 30//30 78//30 77//30
f 38//31 37//31 71//31 70//31
f 30//32 29//32 79//32 78//32
f 39//33 38//33 70//33 69//33
f 29//34 28//34 80//34 79//34
f 40//35 39//35 69//35 68//35
f 28//36 27//36 81//36 80//36
f 41//37 40//37 68//37 67//37
f 27//38 26//38 82//38 81//38
f 42//39 41//39 67//39 66//39
f 26//40 25//40 83//40 82//40
f 43//41 42//41 66//41 65//41
f 25//42 24//42 84//42 83//42
f 65//43 64//43 44//43 43//43
