<?xml version="1.0" encoding="utf-8" standalone="no"?>
<!DOCTYPE svg PUBLIC "-//W3C//DTD SVG 1.1//EN"
  "http://www.w3.org/Graphics/SVG/1.1/DTD/svg11.dtd">
<!-- Created with matplotlib (http://matplotlib.org/) -->
<svg height="261pt" version="1.1" viewBox="0 0 369 261" width="369pt" xmlns="http://www.w3.org/2000/svg" xmlns:xlink="http://www.w3.org/1999/xlink">
 <defs>
  <style type="text/css">
*{stroke-linecap:square;stroke-linejoin:round;}
  </style>
 </defs>
 <g id="figure_1">
  <g id="patch_1">
   <path d="
M0 261
L369 261
L369 0
L0 0
z
" style="fill:#ffffff;"/>
  </g>
  <g id="axes_1">
   <g id="patch_2">
    <path d="
M46.125 234.9
L332.1 234.9
L332.1 26.1
L46.125 26.1
z
" style="fill:#ffffff;"/>
   </g>
   <g id="line2d_1">
    <path clip-path="url(#pff6a7181dc)" d="
M144.786 53.988
L146.216 66.6765
L147.646 70.8775
L156.225 70.8804
L157.655 72.4804
L159.085 81.4947
L160.515 79.4186
L161.945 79.4276
L164.805 80.3678
L166.234 79.567
L167.664 78.41
L170.524 78.41
L174.814 78.8707
L176.244 78.8707
L180.533 79.5691
L181.963 79.5691
L183.393 79.7898
L184.823 81.2309
L186.253 86.8328
L187.683 76.8848
L189.112 77.6436
L190.542 77.8727
L191.972 77.9808
L193.402 81.0935
L194.832 84.7672
L196.262 91.4511
L197.692 96.3502
L199.122 97.6418
L201.981 102.866
L203.411 102.894
L207.701 103.327
L209.131 103.338
L211.99 107.803
L213.42 108.439
L216.28 108.541
L217.71 109.694
L220.57 113.145
L223.429 115.981
L224.859 118.223
L227.719 130.37
L229.149 134.697
L232.009 134.778
L237.728 134.878
L239.158 135.142
L240.588 135.851
L242.018 137.056
L243.448 137.839
L244.878 135.569
L246.307 136.095
L252.027 136.179
L253.457 137.527
L256.317 143.198
L257.746 144.849
L262.036 145.548
L264.896 145.753
L266.326 146.128
L270.615 148.798
L272.045 149.176
L276.335 151.302
L280.624 151.579
L286.344 152.668
L289.204 152.927
L296.353 152.999
L299.213 153.537
L302.073 155.735
L303.502 157.248
L304.932 158.988
L306.362 160.086
L307.792 161.044
L310.652 161.361
L313.512 161.425
L314.942 161.791
L317.801 162.88
L319.231 163.579
L320.661 163.993
L323.521 164.335
L326.381 164.395
L330.67 164.395
L330.67 164.395" style="fill:none;stroke:#0000ff;"/>
   </g>
   <g id="line2d_2">
    <path clip-path="url(#pff6a7181dc)" d="
M80.442 155.767
L81.8719 156.373
L83.3018 156.877
L84.7316 163.617
L86.1615 166.133
L87.5914 166.973
L89.0213 167.216
L90.4511 168.166
L91.881 168.455
L93.3109 169.349
L94.7408 152.225
L96.1706 155.994
L97.6005 156.778
L99.0304 157.697
L100.46 157.699
L103.32 160.797
L104.75 161.411
L106.18 161.618
L107.61 161.654
L109.04 165.051
L110.469 170.278
L111.899 170.799
L113.329 170.822
L116.189 171.788
L117.619 172.112
L124.768 173.146
L126.198 173.493
L127.628 174.909
L129.058 177.38
L130.488 179.171
L131.917 179.964
L133.347 180.608
L136.207 181.015
L137.637 181.86
L139.067 183.82
L140.497 184.57
L141.927 187.427
L143.356 188.781
L144.786 189.143
L146.216 189.2
L151.936 192.824
L154.795 192.879
L156.225 190.121
L157.655 190.249
L161.945 190.993
L166.234 191.228
L167.664 191.419
L169.094 192.115
L170.524 192.95
L171.954 193.304
L173.384 193.789
L174.814 194.031
L179.103 194.031
L180.533 194.148
L181.963 194.528
L183.393 194.773
L186.253 194.773
L189.112 194.964
L194.832 195.015
L199.122 195.266
L206.271 195.37
L207.701 195.381
L209.131 195.55
L210.561 196.033
L211.99 196.395
L214.85 196.771
L217.71 196.97
L222 197.337
L223.429 197.337
L227.719 197.73
L234.868 197.815
L237.728 197.9
L239.158 198.059
L240.588 199.438
L242.018 201.833
L243.448 203.713
L257.746 203.816
L260.606 203.995
L266.326 204.069
L273.475 204.418
L274.905 204.665
L276.335 205.088
L279.195 206.349
L282.054 206.597
L287.774 206.774
L292.063 207.383
L299.213 207.497
L302.073 207.76
L306.362 208.597
L309.222 208.925
L312.082 209.569
L323.521 209.771
L326.381 209.878
L330.67 209.878
L330.67 209.878" style="fill:none;stroke:#008000;stroke-dasharray:8.000000,8.000000;stroke-dashoffset:0.0;stroke-linecap:butt;"/>
   </g>
   <g id="line2d_3">
    <path clip-path="url(#pff6a7181dc)" d="
M89.0213 128.922
L90.4511 144.676
L91.881 150.486
L93.3109 152.827
L96.1706 152.827
L97.6005 153.696
L99.0304 155.15
L100.46 160.785
L101.89 154.704
L103.32 154.818
L104.75 155.383
L106.18 158.842
L107.61 163.082
L109.04 164.67
L110.469 165.257
L113.329 165.323
L114.759 165.747
L116.189 167.518
L117.619 167.853
L119.049 171.356
L120.478 176.095
L121.908 179.564
L123.338 180.691
L124.768 180.977
L130.488 181.053
L133.347 181.926
L134.777 181.94
L139.067 182.687
L140.497 183.056
L141.927 185.413
L143.356 187.378
L147.646 187.378
L150.506 187.592
L154.795 187.592
L160.515 188.585
L163.375 190.055
L164.805 190.691
L167.664 190.802
L171.954 191.544
L173.384 192.176
L174.814 192.453
L176.244 193.088
L177.673 193.496
L180.533 193.496
L183.393 193.898
L184.823 194.082
L190.542 194.233
L191.972 194.386
L193.402 194.901
L194.832 195.553
L197.692 196.146
L200.551 196.381
L201.981 196.552
L206.271 196.6
L209.131 196.638
L211.99 197.128
L214.85 197.167
L217.71 197.682
L219.14 197.939
L222 199.38
L227.719 199.655
L229.149 200.162
L232.009 201.463
L234.868 201.57
L239.158 201.739
L240.588 202.034
L242.018 202.463
L243.448 202.632
L259.176 202.85
L263.466 202.941
L266.326 203.307
L273.475 203.419
L277.765 203.678
L282.054 205.326
L284.914 205.752
L297.783 206.132
L300.643 206.474
L306.362 206.69
L312.082 207.438
L313.512 207.868
L314.942 208.091
L319.231 208.166
L323.521 208.215
L327.81 208.319
L330.67 208.653
L330.67 208.653" style="fill:none;stroke:#ff0000;stroke-dasharray:4.000000,4.000000;stroke-dashoffset:0.0;stroke-linecap:butt;"/>
   </g>
   <g id="line2d_4">
    <path clip-path="url(#pff6a7181dc)" d="
M70.4329 168.535
L71.8628 158.707
L74.7225 159.716
L76.1524 159.832
L77.5823 159.122
L79.0121 165.398
L80.442 173.073
L81.8719 174.747
L83.3018 175.55
L84.7316 178.433
L86.1615 178.638
L89.0213 178.69
L90.4511 181.121
L91.881 181.491
L94.7408 187.999
L96.1706 187.999
L99.0304 189.325
L103.32 189.325
L104.75 189.479
L106.18 190.065
L107.61 190.23
L121.908 190.304
L123.338 190.642
L124.768 192.164
L130.488 192.17
L131.917 192.363
L133.347 193.416
L140.497 193.747
L144.786 193.755
L147.646 194.393
L150.506 195.255
L151.936 194.556
L156.225 195.354
L160.515 195.48
L163.375 196.924
L167.664 197.013
L170.524 197.958
L173.384 198.037
L174.814 198.037
L177.673 198.542
L180.533 198.624
L181.963 198.864
L184.823 199.681
L189.112 199.795
L191.972 199.844
L193.402 200.103
L194.832 200.496
L199.122 200.674
L211.99 200.762
L216.28 201.146
L219.14 201.248
L239.158 201.39
L246.307 201.575
L249.167 201.71
L250.597 201.94
L252.027 202.308
L253.457 202.87
L254.887 203.141
L257.746 203.274
L260.606 203.472
L263.466 203.684
L287.774 203.789
L292.063 203.829
L296.353 204.224
L324.951 204.258
L329.24 204.834
L330.67 204.834
L330.67 204.834" style="fill:none;stroke:#00bfbf;stroke-dasharray:2.000000,2.000000;stroke-dashoffset:0.0;stroke-linecap:butt;"/>
   </g>
   <g id="line2d_5">
    <path clip-path="url(#pff6a7181dc)" d="
M81.8719 135.853
L83.3018 139.988
L84.7316 145.402
L86.1615 137.927
L87.5914 140.165
L89.0213 143.837
L90.4511 146.2
L91.881 130.782
L93.3109 131.035
L94.7408 131.581
L96.1706 133.438
L97.6005 134.865
L99.0304 137.057
L100.46 139.839
L101.89 144.186
L103.32 155.538
L104.75 156.331
L106.18 158.497
L107.61 156.627
L109.04 158.414
L110.469 141.255
L111.899 142.59
L114.759 149.424
L116.189 152.131
L117.619 154.005
L119.049 155.356
L120.478 156.982
L121.908 157.7
L123.338 158.081
L126.198 162.256
L127.628 164.684
L129.058 165.791
L130.488 166.107
L131.917 166.125
L133.347 167.966
L134.777 174.225
L136.207 175.882
L137.637 176.179
L139.067 176.798
L140.497 177.666
L141.927 178.191
L143.356 180.182
L147.646 188.154
L149.076 189.692
L150.506 190.698
L151.936 192.624
L153.366 193.762
L154.795 194.087
L157.655 194.517
L159.085 194.907
L160.515 195.503
L161.945 196.461
L163.375 197.199
L166.234 197.616
L171.954 198.149
L174.814 198.6
L176.244 200.305
L177.673 201.74
L180.533 201.954
L181.963 202.935
L184.823 204.586
L186.253 204.933
L190.542 205.226
L191.972 205.716
L197.692 206.619
L199.122 206.882
L203.411 207.118
L206.271 208.337
L209.131 208.615
L210.561 208.653
L211.99 208.825
L220.57 210.593
L222 210.741
L223.429 210.741
L230.579 211.761
L233.439 212.475
L239.158 213.059
L240.588 213.146
L243.448 213.657
L244.878 213.965
L247.737 214.811
L252.027 214.913
L259.176 215.087
L262.036 215.384
L266.326 215.629
L279.195 216.148
L286.344 216.775
L289.204 216.841
L293.493 217.492
L300.643 217.734
L304.932 218.125
L312.082 218.801
L320.661 219.085
L326.381 219.626
L329.24 219.739
L330.67 219.739
L330.67 219.739" style="fill:none;stroke:#bf00bf;stroke-dasharray:1.000000,1.000000;stroke-dashoffset:0.0;stroke-linecap:butt;"/>
   </g>
   <g id="line2d_6">
    <path clip-path="url(#pff6a7181dc)" d="
M76.1524 92.9895
L77.5823 73.2497
L79.0121 73.6101
L80.442 73.7697
L81.8719 74.2889
L83.3018 57.3847
L84.7316 62.5421
L86.1615 62.5792
L87.5914 65.0811
L89.0213 69.9851
L90.4511 75.5304
L91.881 84.971
L93.3109 93.1176
L94.7408 96.4492
L96.1706 97.2776
L97.6005 98.533
L100.46 107.632
L103.32 111.348
L104.75 114.36
L106.18 120.401
L107.61 127.495
L109.04 133.741
L110.469 141.749
L113.329 151.547
L114.759 152.586
L116.189 153.161
L117.619 111.822
L119.049 113.75
L120.478 120.704
L121.908 131.129
L123.338 133.359
L124.768 136.268
L126.198 142.368
L127.628 145.425
L129.058 147.081
L130.488 151.457
L131.917 154.507
L133.347 154.878
L134.777 163.522
L136.207 168.348
L139.067 176.645
L140.497 177.562
L141.927 178.832
L143.356 179.887
L144.786 181.432
L146.216 184.67
L147.646 186.216
L149.076 187.109
L150.506 192.341
L151.936 194.61
L154.795 194.623
L156.225 194.815
L157.655 195.251
L159.085 195.366
L164.805 196.346
L169.094 196.578
L170.524 197.474
L171.954 198.694
L173.384 199.13
L174.814 199.42
L177.673 200.647
L179.103 201.313
L180.533 201.61
L187.683 201.944
L190.542 202.732
L191.972 203.335
L194.832 203.949
L196.262 204.258
L199.122 204.443
L206.271 205.008
L207.701 205.438
L210.561 206.022
L211.99 206.679
L213.42 207.089
L223.429 207.79
L233.439 208.171
L236.298 208.513
L239.158 208.681
L242.018 209.129
L244.878 209.694
L249.167 209.931
L252.027 209.944
L254.887 210.392
L257.746 210.537
L260.606 211.033
L262.036 211.475
L263.466 211.782
L267.756 211.868
L273.475 211.917
L276.335 212.312
L280.624 212.414
L284.914 212.603
L294.923 212.877
L299.213 213.231
L302.073 213.548
L304.932 213.938
L309.222 213.98
L312.082 213.983
L316.371 214.288
L330.67 214.334
L330.67 214.334" style="fill:none;stroke:#bfbf00;stroke-dasharray:12.000000,6.000000;stroke-dashoffset:0.0;stroke-linecap:butt;"/>
   </g>
   <g id="matplotlib.axis_1">
    <g id="xtick_1">
     <g id="line2d_7">
      <defs>
       <path d="
M0 0
L0 -4" id="mcb557df647" style="stroke:#000000;stroke-linecap:butt;stroke-width:0.5;"/>
      </defs>
      <g>
       <use style="stroke:#000000;stroke-linecap:butt;stroke-width:0.5;" x="46.125" xlink:href="#mcb557df647" y="234.9"/>
      </g>
     </g>
     <g id="line2d_8">
      <defs>
       <path d="
M0 0
L0 4" id="mdad270ee8e" style="stroke:#000000;stroke-linecap:butt;stroke-width:0.5;"/>
      </defs>
      <g>
       <use style="stroke:#000000;stroke-linecap:butt;stroke-width:0.5;" x="46.125" xlink:href="#mdad270ee8e" y="26.1"/>
      </g>
     </g>
     <g id="text_1">
      <!-- 0 -->
      <defs>
       <path d="
M31.7812 66.4062
Q24.1719 66.4062 20.3281 58.9062
Q16.5 51.4219 16.5 36.375
Q16.5 21.3906 20.3281 13.8906
Q24.1719 6.39062 31.7812 6.39062
Q39.4531 6.39062 43.2812 13.8906
Q47.125 21.3906 47.125 36.375
Q47.125 51.4219 43.2812 58.9062
Q39.4531 66.4062 31.7812 66.4062
M31.7812 74.2188
Q44.0469 74.2188 50.5156 64.5156
Q56.9844 54.8281 56.9844 36.375
Q56.9844 17.9688 50.5156 8.26562
Q44.0469 -1.42188 31.7812 -1.42188
Q19.5312 -1.42188 13.0625 8.26562
Q6.59375 17.9688 6.59375 36.375
Q6.59375 54.8281 13.0625 64.5156
Q19.5312 74.2188 31.7812 74.2188" id="BitstreamVeraSans-Roman-30"/>
      </defs>
      <g transform="translate(43.857421875 245.5796875)scale(0.09 -0.09)">
       <use xlink:href="#BitstreamVeraSans-Roman-30"/>
      </g>
     </g>
    </g>
    <g id="xtick_2">
     <g id="line2d_9">
      <g>
       <use style="stroke:#000000;stroke-linecap:butt;stroke-width:0.5;" x="117.61875" xlink:href="#mcb557df647" y="234.9"/>
      </g>
     </g>
     <g id="line2d_10">
      <g>
       <use style="stroke:#000000;stroke-linecap:butt;stroke-width:0.5;" x="117.61875" xlink:href="#mdad270ee8e" y="26.1"/>
      </g>
     </g>
     <g id="text_2">
      <!-- 5 -->
      <defs>
       <path d="
M10.7969 72.9062
L49.5156 72.9062
L49.5156 64.5938
L19.8281 64.5938
L19.8281 46.7344
Q21.9688 47.4688 24.1094 47.8281
Q26.2656 48.1875 28.4219 48.1875
Q40.625 48.1875 47.75 41.5
Q54.8906 34.8125 54.8906 23.3906
Q54.8906 11.625 47.5625 5.09375
Q40.2344 -1.42188 26.9062 -1.42188
Q22.3125 -1.42188 17.5469 -0.640625
Q12.7969 0.140625 7.71875 1.70312
L7.71875 11.625
Q12.1094 9.23438 16.7969 8.0625
Q21.4844 6.89062 26.7031 6.89062
Q35.1562 6.89062 40.0781 11.3281
Q45.0156 15.7656 45.0156 23.3906
Q45.0156 31 40.0781 35.4375
Q35.1562 39.8906 26.7031 39.8906
Q22.75 39.8906 18.8125 39.0156
Q14.8906 38.1406 10.7969 36.2812
z
" id="BitstreamVeraSans-Roman-35"/>
      </defs>
      <g transform="translate(115.496015625 245.4615625)scale(0.09 -0.09)">
       <use xlink:href="#BitstreamVeraSans-Roman-35"/>
      </g>
     </g>
    </g>
    <g id="xtick_3">
     <g id="line2d_11">
      <g>
       <use style="stroke:#000000;stroke-linecap:butt;stroke-width:0.5;" x="189.1125" xlink:href="#mcb557df647" y="234.9"/>
      </g>
     </g>
     <g id="line2d_12">
      <g>
       <use style="stroke:#000000;stroke-linecap:butt;stroke-width:0.5;" x="189.1125" xlink:href="#mdad270ee8e" y="26.1"/>
      </g>
     </g>
     <g id="text_3">
      <!-- 10 -->
      <defs>
       <path d="
M12.4062 8.29688
L28.5156 8.29688
L28.5156 63.9219
L10.9844 60.4062
L10.9844 69.3906
L28.4219 72.9062
L38.2812 72.9062
L38.2812 8.29688
L54.3906 8.29688
L54.3906 0
L12.4062 0
z
" id="BitstreamVeraSans-Roman-31"/>
      </defs>
      <g transform="translate(184.179375 245.5796875)scale(0.09 -0.09)">
       <use xlink:href="#BitstreamVeraSans-Roman-31"/>
       <use x="63.623046875" xlink:href="#BitstreamVeraSans-Roman-30"/>
      </g>
     </g>
    </g>
    <g id="xtick_4">
     <g id="line2d_13">
      <g>
       <use style="stroke:#000000;stroke-linecap:butt;stroke-width:0.5;" x="260.60625" xlink:href="#mcb557df647" y="234.9"/>
      </g>
     </g>
     <g id="line2d_14">
      <g>
       <use style="stroke:#000000;stroke-linecap:butt;stroke-width:0.5;" x="260.60625" xlink:href="#mdad270ee8e" y="26.1"/>
      </g>
     </g>
     <g id="text_4">
      <!-- 15 -->
      <g transform="translate(255.76734375 245.4615625)scale(0.09 -0.09)">
       <use xlink:href="#BitstreamVeraSans-Roman-31"/>
       <use x="63.623046875" xlink:href="#BitstreamVeraSans-Roman-35"/>
      </g>
     </g>
    </g>
    <g id="xtick_5">
     <g id="line2d_15">
      <g>
       <use style="stroke:#000000;stroke-linecap:butt;stroke-width:0.5;" x="332.1" xlink:href="#mcb557df647" y="234.9"/>
      </g>
     </g>
     <g id="line2d_16">
      <g>
       <use style="stroke:#000000;stroke-linecap:butt;stroke-width:0.5;" x="332.1" xlink:href="#mdad270ee8e" y="26.1"/>
      </g>
     </g>
     <g id="text_5">
      <!-- 20 -->
      <defs>
       <path d="
M19.1875 8.29688
L53.6094 8.29688
L53.6094 0
L7.32812 0
L7.32812 8.29688
Q12.9375 14.1094 22.625 23.8906
Q32.3281 33.6875 34.8125 36.5312
Q39.5469 41.8438 41.4219 45.5312
Q43.3125 49.2188 43.3125 52.7812
Q43.3125 58.5938 39.2344 62.25
Q35.1562 65.9219 28.6094 65.9219
Q23.9688 65.9219 18.8125 64.3125
Q13.6719 62.7031 7.8125 59.4219
L7.8125 69.3906
Q13.7656 71.7812 18.9375 73
Q24.125 74.2188 28.4219 74.2188
Q39.75 74.2188 46.4844 68.5469
Q53.2188 62.8906 53.2188 53.4219
Q53.2188 48.9219 51.5312 44.8906
Q49.8594 40.875 45.4062 35.4062
Q44.1875 33.9844 37.6406 27.2188
Q31.1094 20.4531 19.1875 8.29688" id="BitstreamVeraSans-Roman-32"/>
      </defs>
      <g transform="translate(327.00234375 245.5796875)scale(0.09 -0.09)">
       <use xlink:href="#BitstreamVeraSans-Roman-32"/>
       <use x="63.623046875" xlink:href="#BitstreamVeraSans-Roman-30"/>
      </g>
     </g>
    </g>
    <g id="text_6">
     <!-- Time (s) -->
     <defs>
      <path id="BitstreamVeraSans-Roman-20"/>
      <path d="
M8.01562 75.875
L15.8281 75.875
Q23.1406 64.3594 26.7812 53.3125
Q30.4219 42.2812 30.4219 31.3906
Q30.4219 20.4531 26.7812 9.375
Q23.1406 -1.70312 15.8281 -13.1875
L8.01562 -13.1875
Q14.5 -2 17.7031 9.0625
Q20.9062 20.125 20.9062 31.3906
Q20.9062 42.6719 17.7031 53.6562
Q14.5 64.6562 8.01562 75.875" id="BitstreamVeraSans-Roman-29"/>
      <path d="
M31 75.875
Q24.4688 64.6562 21.2812 53.6562
Q18.1094 42.6719 18.1094 31.3906
Q18.1094 20.125 21.3125 9.0625
Q24.5156 -2 31 -13.1875
L23.1875 -13.1875
Q15.875 -1.70312 12.2344 9.375
Q8.59375 20.4531 8.59375 31.3906
Q8.59375 42.2812 12.2031 53.3125
Q15.8281 64.3594 23.1875 75.875
z
" id="BitstreamVeraSans-Roman-28"/>
      <path d="
M9.42188 54.6875
L18.4062 54.6875
L18.4062 0
L9.42188 0
z

M9.42188 75.9844
L18.4062 75.9844
L18.4062 64.5938
L9.42188 64.5938
z
" id="BitstreamVeraSans-Roman-69"/>
      <path d="
M52 44.1875
Q55.375 50.25 60.0625 53.125
Q64.75 56 71.0938 56
Q79.6406 56 84.2812 50.0156
Q88.9219 44.0469 88.9219 33.0156
L88.9219 0
L79.8906 0
L79.8906 32.7188
Q79.8906 40.5781 77.0938 44.375
Q74.3125 48.1875 68.6094 48.1875
Q61.625 48.1875 57.5625 43.5469
Q53.5156 38.9219 53.5156 30.9062
L53.5156 0
L44.4844 0
L44.4844 32.7188
Q44.4844 40.625 41.7031 44.4062
Q38.9219 48.1875 33.1094 48.1875
Q26.2188 48.1875 22.1562 43.5312
Q18.1094 38.875 18.1094 30.9062
L18.1094 0
L9.07812 0
L9.07812 54.6875
L18.1094 54.6875
L18.1094 46.1875
Q21.1875 51.2188 25.4844 53.6094
Q29.7812 56 35.6875 56
Q41.6562 56 45.8281 52.9688
Q50 49.9531 52 44.1875" id="BitstreamVeraSans-Roman-6d"/>
      <path d="
M56.2031 29.5938
L56.2031 25.2031
L14.8906 25.2031
Q15.4844 15.9219 20.4844 11.0625
Q25.4844 6.20312 34.4219 6.20312
Q39.5938 6.20312 44.4531 7.46875
Q49.3125 8.73438 54.1094 11.2812
L54.1094 2.78125
Q49.2656 0.734375 44.1875 -0.34375
Q39.1094 -1.42188 33.8906 -1.42188
Q20.7969 -1.42188 13.1562 6.1875
Q5.51562 13.8125 5.51562 26.8125
Q5.51562 40.2344 12.7656 48.1094
Q20.0156 56 32.3281 56
Q43.3594 56 49.7812 48.8906
Q56.2031 41.7969 56.2031 29.5938
M47.2188 32.2344
Q47.125 39.5938 43.0938 43.9844
Q39.0625 48.3906 32.4219 48.3906
Q24.9062 48.3906 20.3906 44.1406
Q15.875 39.8906 15.1875 32.1719
z
" id="BitstreamVeraSans-Roman-65"/>
      <path d="
M-0.296875 72.9062
L61.375 72.9062
L61.375 64.5938
L35.5 64.5938
L35.5 0
L25.5938 0
L25.5938 64.5938
L-0.296875 64.5938
z
" id="BitstreamVeraSans-Roman-54"/>
      <path d="
M44.2812 53.0781
L44.2812 44.5781
Q40.4844 46.5312 36.375 47.5
Q32.2812 48.4844 27.875 48.4844
Q21.1875 48.4844 17.8438 46.4375
Q14.5 44.3906 14.5 40.2812
Q14.5 37.1562 16.8906 35.375
Q19.2812 33.5938 26.5156 31.9844
L29.5938 31.2969
Q39.1562 29.25 43.1875 25.5156
Q47.2188 21.7812 47.2188 15.0938
Q47.2188 7.46875 41.1875 3.01562
Q35.1562 -1.42188 24.6094 -1.42188
Q20.2188 -1.42188 15.4531 -0.5625
Q10.6875 0.296875 5.42188 2
L5.42188 11.2812
Q10.4062 8.6875 15.2344 7.39062
Q20.0625 6.10938 24.8125 6.10938
Q31.1562 6.10938 34.5625 8.28125
Q37.9844 10.4531 37.9844 14.4062
Q37.9844 18.0625 35.5156 20.0156
Q33.0625 21.9688 24.7031 23.7812
L21.5781 24.5156
Q13.2344 26.2656 9.51562 29.9062
Q5.8125 33.5469 5.8125 39.8906
Q5.8125 47.6094 11.2812 51.7969
Q16.75 56 26.8125 56
Q31.7812 56 36.1719 55.2656
Q40.5781 54.5469 44.2812 53.0781" id="BitstreamVeraSans-Roman-73"/>
     </defs>
     <g transform="translate(165.215625 259.82578125)scale(0.12 -0.12)">
      <use xlink:href="#BitstreamVeraSans-Roman-54"/>
      <use x="57.958984375" xlink:href="#BitstreamVeraSans-Roman-69"/>
      <use x="85.7421875" xlink:href="#BitstreamVeraSans-Roman-6d"/>
      <use x="183.154296875" xlink:href="#BitstreamVeraSans-Roman-65"/>
      <use x="244.677734375" xlink:href="#BitstreamVeraSans-Roman-20"/>
      <use x="276.46484375" xlink:href="#BitstreamVeraSans-Roman-28"/>
      <use x="315.478515625" xlink:href="#BitstreamVeraSans-Roman-73"/>
      <use x="367.578125" xlink:href="#BitstreamVeraSans-Roman-29"/>
     </g>
    </g>
   </g>
   <g id="matplotlib.axis_2">
    <g id="ytick_1">
     <g id="line2d_17">
      <defs>
       <path d="
M0 0
L4 0" id="mc8fcea1516" style="stroke:#000000;stroke-linecap:butt;stroke-width:0.5;"/>
      </defs>
      <g>
       <use style="stroke:#000000;stroke-linecap:butt;stroke-width:0.5;" x="46.125" xlink:href="#mc8fcea1516" y="234.9"/>
      </g>
     </g>
     <g id="line2d_18">
      <defs>
       <path d="
M0 0
L-4 0" id="m0d5b0a6425" style="stroke:#000000;stroke-linecap:butt;stroke-width:0.5;"/>
      </defs>
      <g>
       <use style="stroke:#000000;stroke-linecap:butt;stroke-width:0.5;" x="332.1" xlink:href="#m0d5b0a6425" y="234.9"/>
      </g>
     </g>
     <g id="text_7">
      <!-- 1.5 -->
      <defs>
       <path d="
M10.6875 12.4062
L21 12.4062
L21 0
L10.6875 0
z
" id="BitstreamVeraSans-Roman-2e"/>
      </defs>
      <g transform="translate(29.586875 238.116796875)scale(0.09 -0.09)">
       <use xlink:href="#BitstreamVeraSans-Roman-31"/>
       <use x="63.623046875" xlink:href="#BitstreamVeraSans-Roman-2e"/>
       <use x="95.41015625" xlink:href="#BitstreamVeraSans-Roman-35"/>
      </g>
     </g>
    </g>
    <g id="ytick_2">
     <g id="line2d_19">
      <g>
       <use style="stroke:#000000;stroke-linecap:butt;stroke-width:0.5;" x="46.125" xlink:href="#mc8fcea1516" y="200.1"/>
      </g>
     </g>
     <g id="line2d_20">
      <g>
       <use style="stroke:#000000;stroke-linecap:butt;stroke-width:0.5;" x="332.1" xlink:href="#m0d5b0a6425" y="200.1"/>
      </g>
     </g>
     <g id="text_8">
      <!-- 2.0 -->
      <g transform="translate(29.069375 203.375859375)scale(0.09 -0.09)">
       <use xlink:href="#BitstreamVeraSans-Roman-32"/>
       <use x="63.623046875" xlink:href="#BitstreamVeraSans-Roman-2e"/>
       <use x="95.41015625" xlink:href="#BitstreamVeraSans-Roman-30"/>
      </g>
     </g>
    </g>
    <g id="ytick_3">
     <g id="line2d_21">
      <g>
       <use style="stroke:#000000;stroke-linecap:butt;stroke-width:0.5;" x="46.125" xlink:href="#mc8fcea1516" y="165.3"/>
      </g>
     </g>
     <g id="line2d_22">
      <g>
       <use style="stroke:#000000;stroke-linecap:butt;stroke-width:0.5;" x="332.1" xlink:href="#m0d5b0a6425" y="165.3"/>
      </g>
     </g>
     <g id="text_9">
      <!-- 2.5 -->
      <g transform="translate(29.2578125 168.575859375)scale(0.09 -0.09)">
       <use xlink:href="#BitstreamVeraSans-Roman-32"/>
       <use x="63.623046875" xlink:href="#BitstreamVeraSans-Roman-2e"/>
       <use x="95.41015625" xlink:href="#BitstreamVeraSans-Roman-35"/>
      </g>
     </g>
    </g>
    <g id="ytick_4">
     <g id="line2d_23">
      <g>
       <use style="stroke:#000000;stroke-linecap:butt;stroke-width:0.5;" x="46.125" xlink:href="#mc8fcea1516" y="130.5"/>
      </g>
     </g>
     <g id="line2d_24">
      <g>
       <use style="stroke:#000000;stroke-linecap:butt;stroke-width:0.5;" x="332.1" xlink:href="#m0d5b0a6425" y="130.5"/>
      </g>
     </g>
     <g id="text_10">
      <!-- 3.0 -->
      <defs>
       <path d="
M40.5781 39.3125
Q47.6562 37.7969 51.625 33
Q55.6094 28.2188 55.6094 21.1875
Q55.6094 10.4062 48.1875 4.48438
Q40.7656 -1.42188 27.0938 -1.42188
Q22.5156 -1.42188 17.6562 -0.515625
Q12.7969 0.390625 7.625 2.20312
L7.625 11.7188
Q11.7188 9.32812 16.5938 8.10938
Q21.4844 6.89062 26.8125 6.89062
Q36.0781 6.89062 40.9375 10.5469
Q45.7969 14.2031 45.7969 21.1875
Q45.7969 27.6406 41.2812 31.2656
Q36.7656 34.9062 28.7188 34.9062
L20.2188 34.9062
L20.2188 43.0156
L29.1094 43.0156
Q36.375 43.0156 40.2344 45.9219
Q44.0938 48.8281 44.0938 54.2969
Q44.0938 59.9062 40.1094 62.9062
Q36.1406 65.9219 28.7188 65.9219
Q24.6562 65.9219 20.0156 65.0312
Q15.375 64.1562 9.8125 62.3125
L9.8125 71.0938
Q15.4375 72.6562 20.3438 73.4375
Q25.25 74.2188 29.5938 74.2188
Q40.8281 74.2188 47.3594 69.1094
Q53.9062 64.0156 53.9062 55.3281
Q53.9062 49.2656 50.4375 45.0938
Q46.9688 40.9219 40.5781 39.3125" id="BitstreamVeraSans-Roman-33"/>
      </defs>
      <g transform="translate(29.09609375 133.775859375)scale(0.09 -0.09)">
       <use xlink:href="#BitstreamVeraSans-Roman-33"/>
       <use x="63.623046875" xlink:href="#BitstreamVeraSans-Roman-2e"/>
       <use x="95.41015625" xlink:href="#BitstreamVeraSans-Roman-30"/>
      </g>
     </g>
    </g>
    <g id="ytick_5">
     <g id="line2d_25">
      <g>
       <use style="stroke:#000000;stroke-linecap:butt;stroke-width:0.5;" x="46.125" xlink:href="#mc8fcea1516" y="95.7"/>
      </g>
     </g>
     <g id="line2d_26">
      <g>
       <use style="stroke:#000000;stroke-linecap:butt;stroke-width:0.5;" x="332.1" xlink:href="#m0d5b0a6425" y="95.7"/>
      </g>
     </g>
     <g id="text_11">
      <!-- 3.5 -->
      <g transform="translate(29.28453125 98.975859375)scale(0.09 -0.09)">
       <use xlink:href="#BitstreamVeraSans-Roman-33"/>
       <use x="63.623046875" xlink:href="#BitstreamVeraSans-Roman-2e"/>
       <use x="95.41015625" xlink:href="#BitstreamVeraSans-Roman-35"/>
      </g>
     </g>
    </g>
    <g id="ytick_6">
     <g id="line2d_27">
      <g>
       <use style="stroke:#000000;stroke-linecap:butt;stroke-width:0.5;" x="46.125" xlink:href="#mc8fcea1516" y="60.9"/>
      </g>
     </g>
     <g id="line2d_28">
      <g>
       <use style="stroke:#000000;stroke-linecap:butt;stroke-width:0.5;" x="332.1" xlink:href="#m0d5b0a6425" y="60.9"/>
      </g>
     </g>
     <g id="text_12">
      <!-- 4.0 -->
      <defs>
       <path d="
M37.7969 64.3125
L12.8906 25.3906
L37.7969 25.3906
z

M35.2031 72.9062
L47.6094 72.9062
L47.6094 25.3906
L58.0156 25.3906
L58.0156 17.1875
L47.6094 17.1875
L47.6094 0
L37.7969 0
L37.7969 17.1875
L4.89062 17.1875
L4.89062 26.7031
z
" id="BitstreamVeraSans-Roman-34"/>
      </defs>
      <g transform="translate(28.85 64.175859375)scale(0.09 -0.09)">
       <use xlink:href="#BitstreamVeraSans-Roman-34"/>
       <use x="63.623046875" xlink:href="#BitstreamVeraSans-Roman-2e"/>
       <use x="95.41015625" xlink:href="#BitstreamVeraSans-Roman-30"/>
      </g>
     </g>
    </g>
    <g id="ytick_7">
     <g id="line2d_29">
      <g>
       <use style="stroke:#000000;stroke-linecap:butt;stroke-width:0.5;" x="46.125" xlink:href="#mc8fcea1516" y="26.1"/>
      </g>
     </g>
     <g id="line2d_30">
      <g>
       <use style="stroke:#000000;stroke-linecap:butt;stroke-width:0.5;" x="332.1" xlink:href="#m0d5b0a6425" y="26.1"/>
      </g>
     </g>
     <g id="text_13">
      <!-- 4.5 -->
      <g transform="translate(29.0384375 29.316796875)scale(0.09 -0.09)">
       <use xlink:href="#BitstreamVeraSans-Roman-34"/>
       <use x="63.623046875" xlink:href="#BitstreamVeraSans-Roman-2e"/>
       <use x="95.41015625" xlink:href="#BitstreamVeraSans-Roman-35"/>
      </g>
     </g>
    </g>
    <g id="text_14">
     <!-- Path length -->
     <defs>
      <path d="
M54.8906 33.0156
L54.8906 0
L45.9062 0
L45.9062 32.7188
Q45.9062 40.4844 42.875 44.3281
Q39.8438 48.1875 33.7969 48.1875
Q26.5156 48.1875 22.3125 43.5469
Q18.1094 38.9219 18.1094 30.9062
L18.1094 0
L9.07812 0
L9.07812 54.6875
L18.1094 54.6875
L18.1094 46.1875
Q21.3438 51.125 25.7031 53.5625
Q30.0781 56 35.7969 56
Q45.2188 56 50.0469 50.1719
Q54.8906 44.3438 54.8906 33.0156" id="BitstreamVeraSans-Roman-6e"/>
      <path d="
M9.42188 75.9844
L18.4062 75.9844
L18.4062 0
L9.42188 0
z
" id="BitstreamVeraSans-Roman-6c"/>
      <path d="
M19.6719 64.7969
L19.6719 37.4062
L32.0781 37.4062
Q38.9688 37.4062 42.7188 40.9688
Q46.4844 44.5312 46.4844 51.125
Q46.4844 57.6719 42.7188 61.2344
Q38.9688 64.7969 32.0781 64.7969
z

M9.8125 72.9062
L32.0781 72.9062
Q44.3438 72.9062 50.6094 67.3594
Q56.8906 61.8125 56.8906 51.125
Q56.8906 40.3281 50.6094 34.8125
Q44.3438 29.2969 32.0781 29.2969
L19.6719 29.2969
L19.6719 0
L9.8125 0
z
" id="BitstreamVeraSans-Roman-50"/>
      <path d="
M54.8906 33.0156
L54.8906 0
L45.9062 0
L45.9062 32.7188
Q45.9062 40.4844 42.875 44.3281
Q39.8438 48.1875 33.7969 48.1875
Q26.5156 48.1875 22.3125 43.5469
Q18.1094 38.9219 18.1094 30.9062
L18.1094 0
L9.07812 0
L9.07812 75.9844
L18.1094 75.9844
L18.1094 46.1875
Q21.3438 51.125 25.7031 53.5625
Q30.0781 56 35.7969 56
Q45.2188 56 50.0469 50.1719
Q54.8906 44.3438 54.8906 33.0156" id="BitstreamVeraSans-Roman-68"/>
      <path d="
M18.3125 70.2188
L18.3125 54.6875
L36.8125 54.6875
L36.8125 47.7031
L18.3125 47.7031
L18.3125 18.0156
Q18.3125 11.3281 20.1406 9.42188
Q21.9688 7.51562 27.5938 7.51562
L36.8125 7.51562
L36.8125 0
L27.5938 0
Q17.1875 0 13.2344 3.875
Q9.28125 7.76562 9.28125 18.0156
L9.28125 47.7031
L2.6875 47.7031
L2.6875 54.6875
L9.28125 54.6875
L9.28125 70.2188
z
" id="BitstreamVeraSans-Roman-74"/>
      <path d="
M34.2812 27.4844
Q23.3906 27.4844 19.1875 25
Q14.9844 22.5156 14.9844 16.5
Q14.9844 11.7188 18.1406 8.90625
Q21.2969 6.10938 26.7031 6.10938
Q34.1875 6.10938 38.7031 11.4062
Q43.2188 16.7031 43.2188 25.4844
L43.2188 27.4844
z

M52.2031 31.2031
L52.2031 0
L43.2188 0
L43.2188 8.29688
Q40.1406 3.32812 35.5469 0.953125
Q30.9531 -1.42188 24.3125 -1.42188
Q15.9219 -1.42188 10.9531 3.29688
Q6 8.01562 6 15.9219
Q6 25.1406 12.1719 29.8281
Q18.3594 34.5156 30.6094 34.5156
L43.2188 34.5156
L43.2188 35.4062
Q43.2188 41.6094 39.1406 45
Q35.0625 48.3906 27.6875 48.3906
Q23 48.3906 18.5469 47.2656
Q14.1094 46.1406 10.0156 43.8906
L10.0156 52.2031
Q14.9375 54.1094 19.5781 55.0469
Q24.2188 56 28.6094 56
Q40.4844 56 46.3438 49.8438
Q52.2031 43.7031 52.2031 31.2031" id="BitstreamVeraSans-Roman-61"/>
      <path d="
M45.4062 27.9844
Q45.4062 37.75 41.375 43.1094
Q37.3594 48.4844 30.0781 48.4844
Q22.8594 48.4844 18.8281 43.1094
Q14.7969 37.75 14.7969 27.9844
Q14.7969 18.2656 18.8281 12.8906
Q22.8594 7.51562 30.0781 7.51562
Q37.3594 7.51562 41.375 12.8906
Q45.4062 18.2656 45.4062 27.9844
M54.3906 6.78125
Q54.3906 -7.17188 48.1875 -13.9844
Q42 -20.7969 29.2031 -20.7969
Q24.4688 -20.7969 20.2656 -20.0938
Q16.0625 -19.3906 12.1094 -17.9219
L12.1094 -9.1875
Q16.0625 -11.3281 19.9219 -12.3438
Q23.7812 -13.375 27.7812 -13.375
Q36.625 -13.375 41.0156 -8.76562
Q45.4062 -4.15625 45.4062 5.17188
L45.4062 9.625
Q42.625 4.78125 38.2812 2.39062
Q33.9375 0 27.875 0
Q17.8281 0 11.6719 7.65625
Q5.51562 15.3281 5.51562 27.9844
Q5.51562 40.6719 11.6719 48.3281
Q17.8281 56 27.875 56
Q33.9375 56 38.2812 53.6094
Q42.625 51.2188 45.4062 46.3906
L45.4062 54.6875
L54.3906 54.6875
z
" id="BitstreamVeraSans-Roman-67"/>
     </defs>
     <g transform="translate(23.85 161.7065625)rotate(-90.0)scale(0.12 -0.12)">
      <use xlink:href="#BitstreamVeraSans-Roman-50"/>
      <use x="55.802734375" xlink:href="#BitstreamVeraSans-Roman-61"/>
      <use x="117.08203125" xlink:href="#BitstreamVeraSans-Roman-74"/>
      <use x="156.291015625" xlink:href="#BitstreamVeraSans-Roman-68"/>
      <use x="219.669921875" xlink:href="#BitstreamVeraSans-Roman-20"/>
      <use x="251.45703125" xlink:href="#BitstreamVeraSans-Roman-6c"/>
      <use x="279.240234375" xlink:href="#BitstreamVeraSans-Roman-65"/>
      <use x="340.763671875" xlink:href="#BitstreamVeraSans-Roman-6e"/>
      <use x="404.142578125" xlink:href="#BitstreamVeraSans-Roman-67"/>
      <use x="467.619140625" xlink:href="#BitstreamVeraSans-Roman-74"/>
      <use x="506.828125" xlink:href="#BitstreamVeraSans-Roman-68"/>
     </g>
    </g>
   </g>
   <g id="patch_3">
    <path d="
M46.125 26.1
L332.1 26.1" style="fill:none;stroke:#000000;"/>
   </g>
   <g id="patch_4">
    <path d="
M332.1 234.9
L332.1 26.1" style="fill:none;stroke:#000000;"/>
   </g>
   <g id="patch_5">
    <path d="
M46.125 234.9
L332.1 234.9" style="fill:none;stroke:#000000;"/>
   </g>
   <g id="patch_6">
    <path d="
M46.125 234.9
L46.125 26.1" style="fill:none;stroke:#000000;"/>
   </g>
   <g id="legend_1">
    <g id="patch_7">
     <path d="
M207.706 119.773
L326.9 119.773
L326.9 35.3
L207.706 35.3
L207.706 119.773
z
" style="fill:#454545;opacity:0.5;stroke:#454545;"/>
    </g>
    <g id="patch_8">
     <path d="
M205.706 117.773
L324.9 117.773
L324.9 33.3
L205.706 33.3
L205.706 117.773
z
" style="fill:#e6e6e6;stroke:#000000;"/>
    </g>
    <g id="line2d_31">
     <path d="
M215.786 44.1
L235.946 44.1" style="fill:none;stroke:#0000ff;"/>
    </g>
    <g id="line2d_32"/>
    <g id="text_15">
     <!-- PRM* -->
     <defs>
      <path d="
M47.0156 60.8906
L29.5 51.4219
L47.0156 41.8906
L44.1875 37.1094
L27.7812 47.0156
L27.7812 28.6094
L22.2188 28.6094
L22.2188 47.0156
L5.8125 37.1094
L2.98438 41.8906
L20.5156 51.4219
L2.98438 60.8906
L5.8125 65.7188
L22.2188 55.8125
L22.2188 74.2188
L27.7812 74.2188
L27.7812 55.8125
L44.1875 65.7188
z
" id="BitstreamVeraSans-Roman-2a"/>
      <path d="
M44.3906 34.1875
Q47.5625 33.1094 50.5625 29.5938
Q53.5625 26.0781 56.5938 19.9219
L66.6094 0
L56 0
L46.6875 18.7031
Q43.0625 26.0312 39.6719 28.4219
Q36.2812 30.8125 30.4219 30.8125
L19.6719 30.8125
L19.6719 0
L9.8125 0
L9.8125 72.9062
L32.0781 72.9062
Q44.5781 72.9062 50.7344 67.6719
Q56.8906 62.4531 56.8906 51.9062
Q56.8906 45.0156 53.6875 40.4688
Q50.4844 35.9375 44.3906 34.1875
M19.6719 64.7969
L19.6719 38.9219
L32.0781 38.9219
Q39.2031 38.9219 42.8438 42.2188
Q46.4844 45.5156 46.4844 51.9062
Q46.4844 58.2969 42.8438 61.5469
Q39.2031 64.7969 32.0781 64.7969
z
" id="BitstreamVeraSans-Roman-52"/>
      <path d="
M9.8125 72.9062
L24.5156 72.9062
L43.1094 23.2969
L61.8125 72.9062
L76.5156 72.9062
L76.5156 0
L66.8906 0
L66.8906 64.0156
L48.0938 14.0156
L38.1875 14.0156
L19.3906 64.0156
L19.3906 0
L9.8125 0
z
" id="BitstreamVeraSans-Roman-4d"/>
     </defs>
     <g transform="translate(251.7857025 49.14)scale(0.09996 -0.09996)">
      <use xlink:href="#BitstreamVeraSans-Roman-50"/>
      <use x="60.302734375" xlink:href="#BitstreamVeraSans-Roman-52"/>
      <use x="129.78515625" xlink:href="#BitstreamVeraSans-Roman-4d"/>
      <use x="216.064453125" xlink:href="#BitstreamVeraSans-Roman-2a"/>
     </g>
    </g>
    <g id="line2d_33">
     <path d="
M215.786 56.2589
L235.946 56.2589" style="fill:none;stroke:#008000;stroke-dasharray:8.000000,8.000000;stroke-dashoffset:0.0;stroke-linecap:butt;"/>
    </g>
    <g id="line2d_34"/>
    <g id="text_16">
     <!-- RRT* -->
     <g transform="translate(251.7857025 61.298855625)scale(0.09996 -0.09996)">
      <use xlink:href="#BitstreamVeraSans-Roman-52"/>
      <use x="69.482421875" xlink:href="#BitstreamVeraSans-Roman-52"/>
      <use x="131.71484375" xlink:href="#BitstreamVeraSans-Roman-54"/>
      <use x="192.798828125" xlink:href="#BitstreamVeraSans-Roman-2a"/>
     </g>
    </g>
    <g id="line2d_35">
     <path d="
M215.786 68.4177
L235.946 68.4177" style="fill:none;stroke:#ff0000;stroke-dasharray:4.000000,4.000000;stroke-dashoffset:0.0;stroke-linecap:butt;"/>
    </g>
    <g id="line2d_36"/>
    <g id="text_17">
     <!-- LBT-RRT*(0.1) -->
     <defs>
      <path d="
M9.8125 72.9062
L19.6719 72.9062
L19.6719 8.29688
L55.1719 8.29688
L55.1719 0
L9.8125 0
z
" id="BitstreamVeraSans-Roman-4c"/>
      <path d="
M19.6719 34.8125
L19.6719 8.10938
L35.5 8.10938
Q43.4531 8.10938 47.2812 11.4062
Q51.125 14.7031 51.125 21.4844
Q51.125 28.3281 47.2812 31.5625
Q43.4531 34.8125 35.5 34.8125
z

M19.6719 64.7969
L19.6719 42.8281
L34.2812 42.8281
Q41.5 42.8281 45.0312 45.5312
Q48.5781 48.25 48.5781 53.8125
Q48.5781 59.3281 45.0312 62.0625
Q41.5 64.7969 34.2812 64.7969
z

M9.8125 72.9062
L35.0156 72.9062
Q46.2969 72.9062 52.3906 68.2188
Q58.5 63.5312 58.5 54.8906
Q58.5 48.1875 55.375 44.2344
Q52.25 40.2812 46.1875 39.3125
Q53.4688 37.75 57.5 32.7812
Q61.5312 27.8281 61.5312 20.4062
Q61.5312 10.6406 54.8906 5.3125
Q48.25 0 35.9844 0
L9.8125 0
z
" id="BitstreamVeraSans-Roman-42"/>
      <path d="
M4.89062 31.3906
L31.2031 31.3906
L31.2031 23.3906
L4.89062 23.3906
z
" id="BitstreamVeraSans-Roman-2d"/>
     </defs>
     <g transform="translate(251.7857025 73.45771125)scale(0.09996 -0.09996)">
      <use xlink:href="#BitstreamVeraSans-Roman-4c"/>
      <use x="55.712890625" xlink:href="#BitstreamVeraSans-Roman-42"/>
      <use x="124.31640625" xlink:href="#BitstreamVeraSans-Roman-54"/>
      <use x="176.275390625" xlink:href="#BitstreamVeraSans-Roman-2d"/>
      <use x="212.359375" xlink:href="#BitstreamVeraSans-Roman-52"/>
      <use x="281.841796875" xlink:href="#BitstreamVeraSans-Roman-52"/>
      <use x="344.07421875" xlink:href="#BitstreamVeraSans-Roman-54"/>
      <use x="405.158203125" xlink:href="#BitstreamVeraSans-Roman-2a"/>
      <use x="455.158203125" xlink:href="#BitstreamVeraSans-Roman-28"/>
      <use x="494.171875" xlink:href="#BitstreamVeraSans-Roman-30"/>
      <use x="557.794921875" xlink:href="#BitstreamVeraSans-Roman-2e"/>
      <use x="589.58203125" xlink:href="#BitstreamVeraSans-Roman-31"/>
      <use x="653.205078125" xlink:href="#BitstreamVeraSans-Roman-29"/>
     </g>
    </g>
    <g id="line2d_37">
     <path d="
M215.786 80.5766
L235.946 80.5766" style="fill:none;stroke:#00bfbf;stroke-dasharray:2.000000,2.000000;stroke-dashoffset:0.0;stroke-linecap:butt;"/>
    </g>
    <g id="line2d_38"/>
    <g id="text_18">
     <!-- LBT-RRT*(0.2) -->
     <g transform="translate(251.7857025 85.616566875)scale(0.09996 -0.09996)">
      <use xlink:href="#BitstreamVeraSans-Roman-4c"/>
      <use x="55.712890625" xlink:href="#BitstreamVeraSans-Roman-42"/>
      <use x="124.31640625" xlink:href="#BitstreamVeraSans-Roman-54"/>
      <use x="176.275390625" xlink:href="#BitstreamVeraSans-Roman-2d"/>
      <use x="212.359375" xlink:href="#BitstreamVeraSans-Roman-52"/>
      <use x="281.841796875" xlink:href="#BitstreamVeraSans-Roman-52"/>
      <use x="344.07421875" xlink:href="#BitstreamVeraSans-Roman-54"/>
      <use x="405.158203125" xlink:href="#BitstreamVeraSans-Roman-2a"/>
      <use x="455.158203125" xlink:href="#BitstreamVeraSans-Roman-28"/>
      <use x="494.171875" xlink:href="#BitstreamVeraSans-Roman-30"/>
      <use x="557.794921875" xlink:href="#BitstreamVeraSans-Roman-2e"/>
      <use x="589.58203125" xlink:href="#BitstreamVeraSans-Roman-32"/>
      <use x="653.205078125" xlink:href="#BitstreamVeraSans-Roman-29"/>
     </g>
    </g>
    <g id="line2d_39">
     <path d="
M215.786 92.7354
L235.946 92.7354" style="fill:none;stroke:#bf00bf;stroke-dasharray:1.000000,1.000000;stroke-dashoffset:0.0;stroke-linecap:butt;"/>
    </g>
    <g id="line2d_40"/>
    <g id="text_19">
     <!-- Lazy-PRM* -->
     <defs>
      <path d="
M32.1719 -5.07812
Q28.375 -14.8438 24.75 -17.8125
Q21.1406 -20.7969 15.0938 -20.7969
L7.90625 -20.7969
L7.90625 -13.2812
L13.1875 -13.2812
Q16.8906 -13.2812 18.9375 -11.5156
Q21 -9.76562 23.4844 -3.21875
L25.0938 0.875
L2.98438 54.6875
L12.5 54.6875
L29.5938 11.9219
L46.6875 54.6875
L56.2031 54.6875
z
" id="BitstreamVeraSans-Roman-79"/>
      <path d="
M5.51562 54.6875
L48.1875 54.6875
L48.1875 46.4844
L14.4062 7.17188
L48.1875 7.17188
L48.1875 0
L4.29688 0
L4.29688 8.20312
L38.0938 47.5156
L5.51562 47.5156
z
" id="BitstreamVeraSans-Roman-7a"/>
     </defs>
     <g transform="translate(251.7857025 97.7754225)scale(0.09996 -0.09996)">
      <use xlink:href="#BitstreamVeraSans-Roman-4c"/>
      <use x="55.712890625" xlink:href="#BitstreamVeraSans-Roman-61"/>
      <use x="116.9921875" xlink:href="#BitstreamVeraSans-Roman-7a"/>
      <use x="169.482421875" xlink:href="#BitstreamVeraSans-Roman-79"/>
      <use x="226.912109375" xlink:href="#BitstreamVeraSans-Roman-2d"/>
      <use x="262.99609375" xlink:href="#BitstreamVeraSans-Roman-50"/>
      <use x="323.298828125" xlink:href="#BitstreamVeraSans-Roman-52"/>
      <use x="392.78125" xlink:href="#BitstreamVeraSans-Roman-4d"/>
      <use x="479.060546875" xlink:href="#BitstreamVeraSans-Roman-2a"/>
     </g>
    </g>
    <g id="line2d_41">
     <path d="
M215.786 104.894
L235.946 104.894" style="fill:none;stroke:#bfbf00;stroke-dasharray:12.000000,6.000000;stroke-dashoffset:0.0;stroke-linecap:butt;"/>
    </g>
    <g id="line2d_42"/>
    <g id="text_20">
     <!-- Lazy-RRG* -->
     <defs>
      <path d="
M59.5156 10.4062
L59.5156 29.9844
L43.4062 29.9844
L43.4062 38.0938
L69.2812 38.0938
L69.2812 6.78125
Q63.5781 2.73438 56.6875 0.65625
Q49.8125 -1.42188 42 -1.42188
Q24.9062 -1.42188 15.25 8.5625
Q5.60938 18.5625 5.60938 36.375
Q5.60938 54.25 15.25 64.2344
Q24.9062 74.2188 42 74.2188
Q49.125 74.2188 55.5469 72.4531
Q61.9688 70.7031 67.3906 67.2812
L67.3906 56.7812
Q61.9219 61.4219 55.7656 63.7656
Q49.6094 66.1094 42.8281 66.1094
Q29.4375 66.1094 22.7188 58.6406
Q16.0156 51.1719 16.0156 36.375
Q16.0156 21.625 22.7188 14.1562
Q29.4375 6.6875 42.8281 6.6875
Q48.0469 6.6875 52.1406 7.59375
Q56.25 8.5 59.5156 10.4062" id="BitstreamVeraSans-Roman-47"/>
     </defs>
     <g transform="translate(251.7857025 109.934278125)scale(0.09996 -0.09996)">
      <use xlink:href="#BitstreamVeraSans-Roman-4c"/>
      <use x="55.712890625" xlink:href="#BitstreamVeraSans-Roman-61"/>
      <use x="116.9921875" xlink:href="#BitstreamVeraSans-Roman-7a"/>
      <use x="169.482421875" xlink:href="#BitstreamVeraSans-Roman-79"/>
      <use x="226.912109375" xlink:href="#BitstreamVeraSans-Roman-2d"/>
      <use x="262.99609375" xlink:href="#BitstreamVeraSans-Roman-52"/>
      <use x="332.478515625" xlink:href="#BitstreamVeraSans-Roman-52"/>
      <use x="401.9609375" xlink:href="#BitstreamVeraSans-Roman-47"/>
      <use x="479.451171875" xlink:href="#BitstreamVeraSans-Roman-2a"/>
     </g>
    </g>
   </g>
  </g>
 </g>
 <defs>
  <clipPath id="pff6a7181dc">
   <rect height="208.8" width="285.975" x="46.125" y="26.1"/>
  </clipPath>
 </defs>
</svg>
