<?xml version="1.0" ?><!DOCTYPE svg  PUBLIC '-//W3C//DTD SVG 1.1//EN'  'http://www.w3.org/Graphics/SVG/1.1/DTD/svg11.dtd'><svg height="620.000" viewBox="-9.000 -9.000 820.000 620.000" width="820.000" xmlns="http://www.w3.org/2000/svg"><rect fill="#fff" height="598.0" stroke="#000" width="798.0" x="2.0" y="2.0"/><polyline fill="none" points="217.0,300.0 233.0,273.0 248.0,246.0 264.0,219.0 280.0,192.0 295.0,165.0 311.0,138.0 326.0,111.0 342.0,84.0 357.0,57.0 373.0,30.0 388.0,57.0 404.0,84.0 420.0,111.0 435.0,138.0 451.0,165.0 466.0,192.0 482.0,219.0 497.0,246.0 513.0,273.0 528.0,300.0" stroke="#000" stroke-linejoin="round"/><circle cx="217.0" cy="300.0" fill="#f00" r="3.0" stroke="#000"/><circle cx="233.0" cy="273.0" fill="#ffa500" r="3.0" stroke="#000"/><circle cx="248.0" cy="246.0" fill="#ff0" r="3.0" stroke="#000"/><circle cx="264.0" cy="219.0" fill="#0f0" r="3.0" stroke="#000"/><circle cx="280.0" cy="192.0" fill="#00f" r="3.0" stroke="#000"/><circle cx="295.0" cy="165.0" fill="#a020f0" r="3.0" stroke="#000"/><circle cx="311.0" cy="138.0" fill="#a52a2a" r="3.0" stroke="#000"/><circle cx="326.0" cy="111.0" fill="#bebebe" r="3.0" stroke="#000"/><circle cx="342.0" cy="84.0" fill="#f00" r="3.0" stroke="#000"/><circle cx="357.0" cy="57.0" fill="#ffa500" r="3.0" stroke="#000"/><circle cx="373.0" cy="30.0" fill="#ff0" r="3.0" stroke="#000"/><circle cx="388.0" cy="57.0" fill="#0f0" r="3.0" stroke="#000"/><circle cx="404.0" cy="84.0" fill="#00f" r="3.0" stroke="#000"/><circle cx="420.0" cy="111.0" fill="#a020f0" r="3.0" stroke="#000"/><circle cx="435.0" cy="138.0" fill="#a52a2a" r="3.0" stroke="#000"/><circle cx="451.0" cy="165.0" fill="#bebebe" r="3.0" stroke="#000"/><circle cx="466.0" cy="192.0" fill="#f00" r="3.0" stroke="#000"/><circle cx="482.0" cy="219.0" fill="#ffa500" r="3.0" stroke="#000"/><circle cx="497.0" cy="246.0" fill="#ff0" r="3.0" stroke="#000"/><circle cx="513.0" cy="273.0" fill="#0f0" r="3.0" stroke="#000"/><circle cx="528.0" cy="300.0" fill="#00f" r="3.0" stroke="#000"/><polyline fill="none" points="217.0,300.0 224.0,269.0 247.0,248.0 278.0,249.0 309.0,246.0 330.0,269.0 361.0,265.0 382.0,288.0 363.0,313.0 392.0,302.0 419.0,318.0 392.0,334.0 370.0,356.0 396.0,339.0 426.0,332.0 457.0,335.0 479.0,312.0 474.0,343.0 468.0,313.0 497.0,303.0 528.0,300.0" stroke="#000" stroke-linejoin="round"/><circle cx="217.0" cy="300.0" fill="#f00" r="3.0" stroke="#000"/><circle cx="224.0" cy="269.0" fill="#ffa500" r="3.0" stroke="#000"/><circle cx="247.0" cy="248.0" fill="#ff0" r="3.0" stroke="#000"/><circle cx="278.0" cy="249.0" fill="#0f0" r="3.0" stroke="#000"/><circle cx="309.0" cy="246.0" fill="#00f" r="3.0" stroke="#000"/><circle cx="330.0" cy="269.0" fill="#a020f0" r="3.0" stroke="#000"/><circle cx="361.0" cy="265.0" fill="#a52a2a" r="3.0" stroke="#000"/><circle cx="382.0" cy="288.0" fill="#bebebe" r="3.0" stroke="#000"/><circle cx="363.0" cy="313.0" fill="#f00" r="3.0" stroke="#000"/><circle cx="392.0" cy="302.0" fill="#ffa500" r="3.0" stroke="#000"/><circle cx="419.0" cy="318.0" fill="#ff0" r="3.0" stroke="#000"/><circle cx="392.0" cy="334.0" fill="#0f0" r="3.0" stroke="#000"/><circle cx="370.0" cy="356.0" fill="#00f" r="3.0" stroke="#000"/><circle cx="396.0" cy="339.0" fill="#a020f0" r="3.0" stroke="#000"/><circle cx="426.0" cy="332.0" fill="#a52a2a" r="3.0" stroke="#000"/><circle cx="457.0" cy="335.0" fill="#bebebe" r="3.0" stroke="#000"/><circle cx="479.0" cy="312.0" fill="#f00" r="3.0" stroke="#000"/><circle cx="474.0" cy="343.0" fill="#ffa500" r="3.0" stroke="#000"/><circle cx="468.0" cy="313.0" fill="#ff0" r="3.0" stroke="#000"/><circle cx="497.0" cy="303.0" fill="#0f0" r="3.0" stroke="#000"/><circle cx="528.0" cy="300.0" fill="#00f" r="3.0" stroke="#000"/><polyline fill="none" points="217.0,300.0 233.0,273.0 232.0,242.0 223.0,271.0 251.0,259.0 259.0,229.0 273.0,257.0 304.0,262.0 318.0,290.0 330.0,319.0 358.0,305.0 386.0,293.0 402.0,320.0 433.0,323.0 449.0,297.0 448.0,328.0 478.0,335.0 491.0,306.0 484.0,276.0 515.0,272.0 528.0,300.0" stroke="#000" stroke-linejoin="round"/><circle cx="217.0" cy="300.0" fill="#f00" r="3.0" stroke="#000"/><circle cx="233.0" cy="273.0" fill="#ffa500" r="3.0" stroke="#000"/><circle cx="232.0" cy="242.0" fill="#ff0" r="3.0" stroke="#000"/><circle cx="223.0" cy="271.0" fill="#0f0" r="3.0" stroke="#000"/><circle cx="251.0" cy="259.0" fill="#00f" r="3.0" stroke="#000"/><circle cx="259.0" cy="229.0" fill="#a020f0" r="3.0" stroke="#000"/><circle cx="273.0" cy="257.0" fill="#a52a2a" r="3.0" stroke="#000"/><circle cx="304.0" cy="262.0" fill="#bebebe" r="3.0" stroke="#000"/><circle cx="318.0" cy="290.0" fill="#f00" r="3.0" stroke="#000"/><circle cx="330.0" cy="319.0" fill="#ffa500" r="3.0" stroke="#000"/><circle cx="358.0" cy="305.0" fill="#ff0" r="3.0" stroke="#000"/><circle cx="386.0" cy="293.0" fill="#0f0" r="3.0" stroke="#000"/><circle cx="402.0" cy="320.0" fill="#00f" r="3.0" stroke="#000"/><circle cx="433.0" cy="323.0" fill="#a020f0" r="3.0" stroke="#000"/><circle cx="449.0" cy="297.0" fill="#a52a2a" r="3.0" stroke="#000"/><circle cx="448.0" cy="328.0" fill="#bebebe" r="3.0" stroke="#000"/><circle cx="478.0" cy="335.0" fill="#f00" r="3.0" stroke="#000"/><circle cx="491.0" cy="306.0" fill="#ffa500" r="3.0" stroke="#000"/><circle cx="484.0" cy="276.0" fill="#ff0" r="3.0" stroke="#000"/><circle cx="515.0" cy="272.0" fill="#0f0" r="3.0" stroke="#000"/><circle cx="528.0" cy="300.0" fill="#00f" r="3.0" stroke="#000"/><polyline fill="none" points="217.0,300.0 225.0,269.0 194.0,272.0 223.0,282.0 205.0,308.0 215.0,338.0 234.0,362.0 263.0,352.0 294.0,358.0 314.0,334.0 344.0,329.0 374.0,338.0 379.0,369.0 388.0,339.0 399.0,310.0 429.0,317.0 456.0,302.0 483.0,318.0 506.0,297.0 520.0,269.0 528.0,300.0" stroke="#000" stroke-linejoin="round"/><circle cx="217.0" cy="300.0" fill="#f00" r="3.0" stroke="#000"/><circle cx="225.0" cy="269.0" fill="#ffa500" r="3.0" stroke="#000"/><circle cx="194.0" cy="272.0" fill="#ff0" r="3.0" stroke="#000"/><circle cx="223.0" cy="282.0" fill="#0f0" r="3.0" stroke="#000"/><circle cx="205.0" cy="308.0" fill="#00f" r="3.0" stroke="#000"/><circle cx="215.0" cy="338.0" fill="#a020f0" r="3.0" stroke="#000"/><circle cx="234.0" cy="362.0" fill="#a52a2a" r="3.0" stroke="#000"/><circle cx="263.0" cy="352.0" fill="#bebebe" r="3.0" stroke="#000"/><circle cx="294.0" cy="358.0" fill="#f00" r="3.0" stroke="#000"/><circle cx="314.0" cy="334.0" fill="#ffa500" r="3.0" stroke="#000"/><circle cx="344.0" cy="329.0" fill="#ff0" r="3.0" stroke="#000"/><circle cx="374.0" cy="338.0" fill="#0f0" r="3.0" stroke="#000"/><circle cx="379.0" cy="369.0" fill="#00f" r="3.0" stroke="#000"/><circle cx="388.0" cy="339.0" fill="#a020f0" r="3.0" stroke="#000"/><circle cx="399.0" cy="310.0" fill="#a52a2a" r="3.0" stroke="#000"/><circle cx="429.0" cy="317.0" fill="#bebebe" r="3.0" stroke="#000"/><circle cx="456.0" cy="302.0" fill="#f00" r="3.0" stroke="#000"/><circle cx="483.0" cy="318.0" fill="#ffa500" r="3.0" stroke="#000"/><circle cx="506.0" cy="297.0" fill="#ff0" r="3.0" stroke="#000"/><circle cx="520.0" cy="269.0" fill="#0f0" r="3.0" stroke="#000"/><circle cx="528.0" cy="300.0" fill="#00f" r="3.0" stroke="#000"/><polyline fill="none" points="217.0,300.0 235.0,274.0 258.0,253.0 289.0,252.0 263.0,235.0 238.0,252.0 268.0,261.0 295.0,247.0 308.0,275.0 329.0,298.0 357.0,311.0 386.0,323.0 397.0,294.0 425.0,279.0 427.0,310.0 432.0,280.0 457.0,261.0 484.0,276.0 488.0,307.0 512.0,326.0 528.0,300.0" stroke="#000" stroke-linejoin="round"/><circle cx="217.0" cy="300.0" fill="#f00" r="3.0" stroke="#000"/><circle cx="235.0" cy="274.0" fill="#ffa500" r="3.0" stroke="#000"/><circle cx="258.0" cy="253.0" fill="#ff0" r="3.0" stroke="#000"/><circle cx="289.0" cy="252.0" fill="#0f0" r="3.0" stroke="#000"/><circle cx="263.0" cy="235.0" fill="#00f" r="3.0" stroke="#000"/><circle cx="238.0" cy="252.0" fill="#a020f0" r="3.0" stroke="#000"/><circle cx="268.0" cy="261.0" fill="#a52a2a" r="3.0" stroke="#000"/><circle cx="295.0" cy="247.0" fill="#bebebe" r="3.0" stroke="#000"/><circle cx="308.0" cy="275.0" fill="#f00" r="3.0" stroke="#000"/><circle cx="329.0" cy="298.0" fill="#ffa500" r="3.0" stroke="#000"/><circle cx="357.0" cy="311.0" fill="#ff0" r="3.0" stroke="#000"/><circle cx="386.0" cy="323.0" fill="#0f0" r="3.0" stroke="#000"/><circle cx="397.0" cy="294.0" fill="#00f" r="3.0" stroke="#000"/><circle cx="425.0" cy="279.0" fill="#a020f0" r="3.0" stroke="#000"/><circle cx="427.0" cy="310.0" fill="#a52a2a" r="3.0" stroke="#000"/><circle cx="432.0" cy="280.0" fill="#bebebe" r="3.0" stroke="#000"/><circle cx="457.0" cy="261.0" fill="#f00" r="3.0" stroke="#000"/><circle cx="484.0" cy="276.0" fill="#ffa500" r="3.0" stroke="#000"/><circle cx="488.0" cy="307.0" fill="#ff0" r="3.0" stroke="#000"/><circle cx="512.0" cy="326.0" fill="#0f0" r="3.0" stroke="#000"/><circle cx="528.0" cy="300.0" fill="#00f" r="3.0" stroke="#000"/><polyline fill="none" points="217.0,300.0 206.0,329.0 226.0,305.0 223.0,336.0 219.0,366.0 212.0,336.0 229.0,310.0 232.0,279.0 254.0,257.0 283.0,246.0 310.0,260.0 317.0,230.0 338.0,253.0 364.0,270.0 385.0,247.0 416.0,249.0 443.0,264.0 450.0,294.0 476.0,310.0 499.0,289.0 528.0,300.0" stroke="#000" stroke-linejoin="round"/><circle cx="217.0" cy="300.0" fill="#f00" r="3.0" stroke="#000"/><circle cx="206.0" cy="329.0" fill="#ffa500" r="3.0" stroke="#000"/><circle cx="226.0" cy="305.0" fill="#ff0" r="3.0" stroke="#000"/><circle cx="223.0" cy="336.0" fill="#0f0" r="3.0" stroke="#000"/><circle cx="219.0" cy="366.0" fill="#00f" r="3.0" stroke="#000"/><circle cx="212.0" cy="336.0" fill="#a020f0" r="3.0" stroke="#000"/><circle cx="229.0" cy="310.0" fill="#a52a2a" r="3.0" stroke="#000"/><circle cx="232.0" cy="279.0" fill="#bebebe" r="3.0" stroke="#000"/><circle cx="254.0" cy="257.0" fill="#f00" r="3.0" stroke="#000"/><circle cx="283.0" cy="246.0" fill="#ffa500" r="3.0" stroke="#000"/><circle cx="310.0" cy="260.0" fill="#ff0" r="3.0" stroke="#000"/><circle cx="317.0" cy="230.0" fill="#0f0" r="3.0" stroke="#000"/><circle cx="338.0" cy="253.0" fill="#00f" r="3.0" stroke="#000"/><circle cx="364.0" cy="270.0" fill="#a020f0" r="3.0" stroke="#000"/><circle cx="385.0" cy="247.0" fill="#a52a2a" r="3.0" stroke="#000"/><circle cx="416.0" cy="249.0" fill="#bebebe" r="3.0" stroke="#000"/><circle cx="443.0" cy="264.0" fill="#f00" r="3.0" stroke="#000"/><circle cx="450.0" cy="294.0" fill="#ffa500" r="3.0" stroke="#000"/><circle cx="476.0" cy="310.0" fill="#ff0" r="3.0" stroke="#000"/><circle cx="499.0" cy="289.0" fill="#0f0" r="3.0" stroke="#000"/><circle cx="528.0" cy="300.0" fill="#00f" r="3.0" stroke="#000"/><polyline fill="none" points="217.0,300.0 248.0,294.0 278.0,301.0 252.0,318.0 264.0,290.0 234.0,297.0 248.0,270.0 271.0,248.0 302.0,253.0 333.0,254.0 364.0,252.0 386.0,273.0 361.0,292.0 390.0,304.0 406.0,278.0 434.0,291.0 464.0,281.0 475.0,252.0 500.0,270.0 531.0,268.0 528.0,300.0" stroke="#000" stroke-linejoin="round"/><circle cx="217.0" cy="300.0" fill="#f00" r="3.0" stroke="#000"/><circle cx="248.0" cy="294.0" fill="#ffa500" r="3.0" stroke="#000"/><circle cx="278.0" cy="301.0" fill="#ff0" r="3.0" stroke="#000"/><circle cx="252.0" cy="318.0" fill="#0f0" r="3.0" stroke="#000"/><circle cx="264.0" cy="290.0" fill="#00f" r="3.0" stroke="#000"/><circle cx="234.0" cy="297.0" fill="#a020f0" r="3.0" stroke="#000"/><circle cx="248.0" cy="270.0" fill="#a52a2a" r="3.0" stroke="#000"/><circle cx="271.0" cy="248.0" fill="#bebebe" r="3.0" stroke="#000"/><circle cx="302.0" cy="253.0" fill="#f00" r="3.0" stroke="#000"/><circle cx="333.0" cy="254.0" fill="#ffa500" r="3.0" stroke="#000"/><circle cx="364.0" cy="252.0" fill="#ff0" r="3.0" stroke="#000"/><circle cx="386.0" cy="273.0" fill="#0f0" r="3.0" stroke="#000"/><circle cx="361.0" cy="292.0" fill="#00f" r="3.0" stroke="#000"/><circle cx="390.0" cy="304.0" fill="#a020f0" r="3.0" stroke="#000"/><circle cx="406.0" cy="278.0" fill="#a52a2a" r="3.0" stroke="#000"/><circle cx="434.0" cy="291.0" fill="#bebebe" r="3.0" stroke="#000"/><circle cx="464.0" cy="281.0" fill="#f00" r="3.0" stroke="#000"/><circle cx="475.0" cy="252.0" fill="#ffa500" r="3.0" stroke="#000"/><circle cx="500.0" cy="270.0" fill="#ff0" r="3.0" stroke="#000"/><circle cx="531.0" cy="268.0" fill="#0f0" r="3.0" stroke="#000"/><circle cx="528.0" cy="300.0" fill="#00f" r="3.0" stroke="#000"/><polyline fill="none" points="217.0,300.0 246.0,311.0 271.0,292.0 275.0,261.0 301.0,244.0 325.0,265.0 355.0,260.0 363.0,290.0 393.0,281.0 423.0,277.0 438.0,304.0 462.0,285.0 459.0,316.0 480.0,292.0 505.0,310.0 503.0,341.0 532.0,330.0 510.0,308.0 541.0,305.0 547.0,274.0 528.0,300.0" stroke="#000" stroke-linejoin="round"/><circle cx="217.0" cy="300.0" fill="#f00" r="3.0" stroke="#000"/><circle cx="246.0" cy="311.0" fill="#ffa500" r="3.0" stroke="#000"/><circle cx="271.0" cy="292.0" fill="#ff0" r="3.0" stroke="#000"/><circle cx="275.0" cy="261.0" fill="#0f0" r="3.0" stroke="#000"/><circle cx="301.0" cy="244.0" fill="#00f" r="3.0" stroke="#000"/><circle cx="325.0" cy="265.0" fill="#a020f0" r="3.0" stroke="#000"/><circle cx="355.0" cy="260.0" fill="#a52a2a" r="3.0" stroke="#000"/><circle cx="363.0" cy="290.0" fill="#bebebe" r="3.0" stroke="#000"/><circle cx="393.0" cy="281.0" fill="#f00" r="3.0" stroke="#000"/><circle cx="423.0" cy="277.0" fill="#ffa500" r="3.0" stroke="#000"/><circle cx="438.0" cy="304.0" fill="#ff0" r="3.0" stroke="#000"/><circle cx="462.0" cy="285.0" fill="#0f0" r="3.0" stroke="#000"/><circle cx="459.0" cy="316.0" fill="#00f" r="3.0" stroke="#000"/><circle cx="480.0" cy="292.0" fill="#a020f0" r="3.0" stroke="#000"/><circle cx="505.0" cy="310.0" fill="#a52a2a" r="3.0" stroke="#000"/><circle cx="503.0" cy="341.0" fill="#bebebe" r="3.0" stroke="#000"/><circle cx="532.0" cy="330.0" fill="#f00" r="3.0" stroke="#000"/><circle cx="510.0" cy="308.0" fill="#ffa500" r="3.0" stroke="#000"/><circle cx="541.0" cy="305.0" fill="#ff0" r="3.0" stroke="#000"/><circle cx="547.0" cy="274.0" fill="#0f0" r="3.0" stroke="#000"/><circle cx="528.0" cy="300.0" fill="#00f" r="3.0" stroke="#000"/><polyline fill="none" points="217.0,300.0 193.0,280.0 224.0,283.0 255.0,288.0 268.0,260.0 252.0,233.0 282.0,224.0 281.0,255.0 311.0,266.0 336.0,284.0 328.0,314.0 356.0,327.0 366.0,298.0 394.0,284.0 423.0,273.0 454.0,269.0 462.0,299.0 487.0,280.0 518.0,281.0 548.0,276.0 528.0,300.0" stroke="#000" stroke-linejoin="round"/><circle cx="217.0" cy="300.0" fill="#f00" r="3.0" stroke="#000"/><circle cx="193.0" cy="280.0" fill="#ffa500" r="3.0" stroke="#000"/><circle cx="224.0" cy="283.0" fill="#ff0" r="3.0" stroke="#000"/><circle cx="255.0" cy="288.0" fill="#0f0" r="3.0" stroke="#000"/><circle cx="268.0" cy="260.0" fill="#00f" r="3.0" stroke="#000"/><circle cx="252.0" cy="233.0" fill="#a020f0" r="3.0" stroke="#000"/><circle cx="282.0" cy="224.0" fill="#a52a2a" r="3.0" stroke="#000"/><circle cx="281.0" cy="255.0" fill="#bebebe" r="3.0" stroke="#000"/><circle cx="311.0" cy="266.0" fill="#f00" r="3.0" stroke="#000"/><circle cx="336.0" cy="284.0" fill="#ffa500" r="3.0" stroke="#000"/><circle cx="328.0" cy="314.0" fill="#ff0" r="3.0" stroke="#000"/><circle cx="356.0" cy="327.0" fill="#0f0" r="3.0" stroke="#000"/><circle cx="366.0" cy="298.0" fill="#00f" r="3.0" stroke="#000"/><circle cx="394.0" cy="284.0" fill="#a020f0" r="3.0" stroke="#000"/><circle cx="423.0" cy="273.0" fill="#a52a2a" r="3.0" stroke="#000"/><circle cx="454.0" cy="269.0" fill="#bebebe" r="3.0" stroke="#000"/><circle cx="462.0" cy="299.0" fill="#f00" r="3.0" stroke="#000"/><circle cx="487.0" cy="280.0" fill="#ffa500" r="3.0" stroke="#000"/><circle cx="518.0" cy="281.0" fill="#ff0" r="3.0" stroke="#000"/><circle cx="548.0" cy="276.0" fill="#0f0" r="3.0" stroke="#000"/><circle cx="528.0" cy="300.0" fill="#00f" r="3.0" stroke="#000"/><polyline fill="none" points="217.0,300.0 220.0,330.0 250.0,320.0 274.0,340.0 283.0,310.0 294.0,339.0 308.0,311.0 336.0,299.0 359.0,320.0 367.0,350.0 392.0,330.0 420.0,317.0 394.0,300.0 425.0,305.0 442.0,331.0 470.0,346.0 482.0,317.0 504.0,295.0 490.0,323.0 498.0,293.0 528.0,300.0" stroke="#000" stroke-linejoin="round"/><circle cx="217.0" cy="300.0" fill="#f00" r="3.0" stroke="#000"/><circle cx="220.0" cy="330.0" fill="#ffa500" r="3.0" stroke="#000"/><circle cx="250.0" cy="320.0" fill="#ff0" r="3.0" stroke="#000"/><circle cx="274.0" cy="340.0" fill="#0f0" r="3.0" stroke="#000"/><circle cx="283.0" cy="310.0" fill="#00f" r="3.0" stroke="#000"/><circle cx="294.0" cy="339.0" fill="#a020f0" r="3.0" stroke="#000"/><circle cx="308.0" cy="311.0" fill="#a52a2a" r="3.0" stroke="#000"/><circle cx="336.0" cy="299.0" fill="#bebebe" r="3.0" stroke="#000"/><circle cx="359.0" cy="320.0" fill="#f00" r="3.0" stroke="#000"/><circle cx="367.0" cy="350.0" fill="#ffa500" r="3.0" stroke="#000"/><circle cx="392.0" cy="330.0" fill="#ff0" r="3.0" stroke="#000"/><circle cx="420.0" cy="317.0" fill="#0f0" r="3.0" stroke="#000"/><circle cx="394.0" cy="300.0" fill="#00f" r="3.0" stroke="#000"/><circle cx="425.0" cy="305.0" fill="#a020f0" r="3.0" stroke="#000"/><circle cx="442.0" cy="331.0" fill="#a52a2a" r="3.0" stroke="#000"/><circle cx="470.0" cy="346.0" fill="#bebebe" r="3.0" stroke="#000"/><circle cx="482.0" cy="317.0" fill="#f00" r="3.0" stroke="#000"/><circle cx="504.0" cy="295.0" fill="#ffa500" r="3.0" stroke="#000"/><circle cx="490.0" cy="323.0" fill="#ff0" r="3.0" stroke="#000"/><circle cx="498.0" cy="293.0" fill="#0f0" r="3.0" stroke="#000"/><circle cx="528.0" cy="300.0" fill="#00f" r="3.0" stroke="#000"/><polyline fill="none" points="217.0,300.0 238.0,322.0 248.0,352.0 261.0,324.0 285.0,305.0 302.0,331.0 304.0,362.0 309.0,393.0 326.0,367.0 357.0,374.0 383.0,390.0 392.0,360.0 422.0,368.0 440.0,394.0 446.0,363.0 466.0,339.0 496.0,331.0 501.0,301.0 505.0,332.0 536.0,330.0 528.0,300.0" stroke="#000" stroke-linejoin="round"/><circle cx="217.0" cy="300.0" fill="#f00" r="3.0" stroke="#000"/><circle cx="238.0" cy="322.0" fill="#ffa500" r="3.0" stroke="#000"/><circle cx="248.0" cy="352.0" fill="#ff0" r="3.0" stroke="#000"/><circle cx="261.0" cy="324.0" fill="#0f0" r="3.0" stroke="#000"/><circle cx="285.0" cy="305.0" fill="#00f" r="3.0" stroke="#000"/><circle cx="302.0" cy="331.0" fill="#a020f0" r="3.0" stroke="#000"/><circle cx="304.0" cy="362.0" fill="#a52a2a" r="3.0" stroke="#000"/><circle cx="309.0" cy="393.0" fill="#bebebe" r="3.0" stroke="#000"/><circle cx="326.0" cy="367.0" fill="#f00" r="3.0" stroke="#000"/><circle cx="357.0" cy="374.0" fill="#ffa500" r="3.0" stroke="#000"/><circle cx="383.0" cy="390.0" fill="#ff0" r="3.0" stroke="#000"/><circle cx="392.0" cy="360.0" fill="#0f0" r="3.0" stroke="#000"/><circle cx="422.0" cy="368.0" fill="#00f" r="3.0" stroke="#000"/><circle cx="440.0" cy="394.0" fill="#a020f0" r="3.0" stroke="#000"/><circle cx="446.0" cy="363.0" fill="#a52a2a" r="3.0" stroke="#000"/><circle cx="466.0" cy="339.0" fill="#bebebe" r="3.0" stroke="#000"/><circle cx="496.0" cy="331.0" fill="#f00" r="3.0" stroke="#000"/><circle cx="501.0" cy="301.0" fill="#ffa500" r="3.0" stroke="#000"/><circle cx="505.0" cy="332.0" fill="#ff0" r="3.0" stroke="#000"/><circle cx="536.0" cy="330.0" fill="#0f0" r="3.0" stroke="#000"/><circle cx="528.0" cy="300.0" fill="#00f" r="3.0" stroke="#000"/><polyline fill="none" points="217.0,300.0 223.0,269.0 247.0,289.0 278.0,285.0 298.0,308.0 328.0,298.0 315.0,269.0 346.0,267.0 365.0,292.0 395.0,298.0 417.0,321.0 443.0,337.0 448.0,368.0 462.0,340.0 456.0,371.0 425.0,364.0 452.0,381.0 458.0,350.0 489.0,347.0 508.0,323.0 528.0,300.0" stroke="#000" stroke-linejoin="round"/><circle cx="217.0" cy="300.0" fill="#f00" r="3.0" stroke="#000"/><circle cx="223.0" cy="269.0" fill="#ffa500" r="3.0" stroke="#000"/><circle cx="247.0" cy="289.0" fill="#ff0" r="3.0" stroke="#000"/><circle cx="278.0" cy="285.0" fill="#0f0" r="3.0" stroke="#000"/><circle cx="298.0" cy="308.0" fill="#00f" r="3.0" stroke="#000"/><circle cx="328.0" cy="298.0" fill="#a020f0" r="3.0" stroke="#000"/><circle cx="315.0" cy="269.0" fill="#a52a2a" r="3.0" stroke="#000"/><circle cx="346.0" cy="267.0" fill="#bebebe" r="3.0" stroke="#000"/><circle cx="365.0" cy="292.0" fill="#f00" r="3.0" stroke="#000"/><circle cx="395.0" cy="298.0" fill="#ffa500" r="3.0" stroke="#000"/><circle cx="417.0" cy="321.0" fill="#ff0" r="3.0" stroke="#000"/><circle cx="443.0" cy="337.0" fill="#0f0" r="3.0" stroke="#000"/><circle cx="448.0" cy="368.0" fill="#00f" r="3.0" stroke="#000"/><circle cx="462.0" cy="340.0" fill="#a020f0" r="3.0" stroke="#000"/><circle cx="456.0" cy="371.0" fill="#a52a2a" r="3.0" stroke="#000"/><circle cx="425.0" cy="364.0" fill="#bebebe" r="3.0" stroke="#000"/><circle cx="452.0" cy="381.0" fill="#f00" r="3.0" stroke="#000"/><circle cx="458.0" cy="350.0" fill="#ffa500" r="3.0" stroke="#000"/><circle cx="489.0" cy="347.0" fill="#ff0" r="3.0" stroke="#000"/><circle cx="508.0" cy="323.0" fill="#0f0" r="3.0" stroke="#000"/><circle cx="528.0" cy="300.0" fill="#00f" r="3.0" stroke="#000"/><polyline fill="none" points="217.0,300.0 247.0,310.0 226.0,333.0 222.0,364.0 252.0,371.0 255.0,402.0 282.0,385.0 301.0,409.0 308.0,379.0 327.0,354.0 351.0,374.0 382.0,372.0 412.0,366.0 440.0,350.0 411.0,362.0 398.0,334.0 429.0,338.0 441.0,309.0 471.0,300.0 500.0,288.0 528.0,300.0" stroke="#000" stroke-linejoin="round"/><circle cx="217.0" cy="300.0" fill="#f00" r="3.0" stroke="#000"/><circle cx="247.0" cy="310.0" fill="#ffa500" r="3.0" stroke="#000"/><circle cx="226.0" cy="333.0" fill="#ff0" r="3.0" stroke="#000"/><circle cx="222.0" cy="364.0" fill="#0f0" r="3.0" stroke="#000"/><circle cx="252.0" cy="371.0" fill="#00f" r="3.0" stroke="#000"/><circle cx="255.0" cy="402.0" fill="#a020f0" r="3.0" stroke="#000"/><circle cx="282.0" cy="385.0" fill="#a52a2a" r="3.0" stroke="#000"/><circle cx="301.0" cy="409.0" fill="#bebebe" r="3.0" stroke="#000"/><circle cx="308.0" cy="379.0" fill="#f00" r="3.0" stroke="#000"/><circle cx="327.0" cy="354.0" fill="#ffa500" r="3.0" stroke="#000"/><circle cx="351.0" cy="374.0" fill="#ff0" r="3.0" stroke="#000"/><circle cx="382.0" cy="372.0" fill="#0f0" r="3.0" stroke="#000"/><circle cx="412.0" cy="366.0" fill="#00f" r="3.0" stroke="#000"/><circle cx="440.0" cy="350.0" fill="#a020f0" r="3.0" stroke="#000"/><circle cx="411.0" cy="362.0" fill="#a52a2a" r="3.0" stroke="#000"/><circle cx="398.0" cy="334.0" fill="#bebebe" r="3.0" stroke="#000"/><circle cx="429.0" cy="338.0" fill="#f00" r="3.0" stroke="#000"/><circle cx="441.0" cy="309.0" fill="#ffa500" r="3.0" stroke="#000"/><circle cx="471.0" cy="300.0" fill="#ff0" r="3.0" stroke="#000"/><circle cx="500.0" cy="288.0" fill="#0f0" r="3.0" stroke="#000"/><circle cx="528.0" cy="300.0" fill="#00f" r="3.0" stroke="#000"/><polyline fill="none" points="217.0,300.0 246.0,288.0 258.0,260.0 289.0,263.0 310.0,286.0 290.0,310.0 308.0,336.0 337.0,328.0 357.0,303.0 386.0,294.0 389.0,263.0 411.0,285.0 442.0,287.0 459.0,260.0 467.0,230.0 437.0,239.0 434.0,270.0 463.0,282.0 468.0,313.0 498.0,306.0 528.0,300.0" stroke="#000" stroke-linejoin="round"/><circle cx="217.0" cy="300.0" fill="#f00" r="3.0" stroke="#000"/><circle cx="246.0" cy="288.0" fill="#ffa500" r="3.0" stroke="#000"/><circle cx="258.0" cy="260.0" fill="#ff0" r="3.0" stroke="#000"/><circle cx="289.0" cy="263.0" fill="#0f0" r="3.0" stroke="#000"/><circle cx="310.0" cy="286.0" fill="#00f" r="3.0" stroke="#000"/><circle cx="290.0" cy="310.0" fill="#a020f0" r="3.0" stroke="#000"/><circle cx="308.0" cy="336.0" fill="#a52a2a" r="3.0" stroke="#000"/><circle cx="337.0" cy="328.0" fill="#bebebe" r="3.0" stroke="#000"/><circle cx="357.0" cy="303.0" fill="#f00" r="3.0" stroke="#000"/><circle cx="386.0" cy="294.0" fill="#ffa500" r="3.0" stroke="#000"/><circle cx="389.0" cy="263.0" fill="#ff0" r="3.0" stroke="#000"/><circle cx="411.0" cy="285.0" fill="#0f0" r="3.0" stroke="#000"/><circle cx="442.0" cy="287.0" fill="#00f" r="3.0" stroke="#000"/><circle cx="459.0" cy="260.0" fill="#a020f0" r="3.0" stroke="#000"/><circle cx="467.0" cy="230.0" fill="#a52a2a" r="3.0" stroke="#000"/><circle cx="437.0" cy="239.0" fill="#bebebe" r="3.0" stroke="#000"/><circle cx="434.0" cy="270.0" fill="#f00" r="3.0" stroke="#000"/><circle cx="463.0" cy="282.0" fill="#ffa500" r="3.0" stroke="#000"/><circle cx="468.0" cy="313.0" fill="#ff0" r="3.0" stroke="#000"/><circle cx="498.0" cy="306.0" fill="#0f0" r="3.0" stroke="#000"/><circle cx="528.0" cy="300.0" fill="#00f" r="3.0" stroke="#000"/><polyline fill="none" points="217.0,300.0 232.0,327.0 227.0,296.0 256.0,306.0 227.0,317.0 242.0,344.0 274.0,345.0 304.0,349.0 333.0,336.0 357.0,316.0 364.0,286.0 379.0,314.0 409.0,308.0 402.0,278.0 406.0,309.0 436.0,317.0 466.0,308.0 493.0,321.0 478.0,295.0 505.0,279.0 528.0,300.0" stroke="#000" stroke-linejoin="round"/><circle cx="217.0" cy="300.0" fill="#f00" r="3.0" stroke="#000"/><circle cx="232.0" cy="327.0" fill="#ffa500" r="3.0" stroke="#000"/><circle cx="227.0" cy="296.0" fill="#ff0" r="3.0" stroke="#000"/><circle cx="256.0" cy="306.0" fill="#0f0" r="3.0" stroke="#000"/><circle cx="227.0" cy="317.0" fill="#00f" r="3.0" stroke="#000"/><circle cx="242.0" cy="344.0" fill="#a020f0" r="3.0" stroke="#000"/><circle cx="274.0" cy="345.0" fill="#a52a2a" r="3.0" stroke="#000"/><circle cx="304.0" cy="349.0" fill="#bebebe" r="3.0" stroke="#000"/><circle cx="333.0" cy="336.0" fill="#f00" r="3.0" stroke="#000"/><circle cx="357.0" cy="316.0" fill="#ffa500" r="3.0" stroke="#000"/><circle cx="364.0" cy="286.0" fill="#ff0" r="3.0" stroke="#000"/><circle cx="379.0" cy="314.0" fill="#0f0" r="3.0" stroke="#000"/><circle cx="409.0" cy="308.0" fill="#00f" r="3.0" stroke="#000"/><circle cx="402.0" cy="278.0" fill="#a020f0" r="3.0" stroke="#000"/><circle cx="406.0" cy="309.0" fill="#a52a2a" r="3.0" stroke="#000"/><circle cx="436.0" cy="317.0" fill="#bebebe" r="3.0" stroke="#000"/><circle cx="466.0" cy="308.0" fill="#f00" r="3.0" stroke="#000"/><circle cx="493.0" cy="321.0" fill="#ffa500" r="3.0" stroke="#000"/><circle cx="478.0" cy="295.0" fill="#ff0" r="3.0" stroke="#000"/><circle cx="505.0" cy="279.0" fill="#0f0" r="3.0" stroke="#000"/><circle cx="528.0" cy="300.0" fill="#00f" r="3.0" stroke="#000"/><polyline fill="none" points="217.0,300.0 248.0,306.0 235.0,334.0 264.0,344.0 237.0,360.0 250.0,332.0 221.0,321.0 247.0,337.0 276.0,348.0 306.0,357.0 314.0,327.0 337.0,307.0 366.0,318.0 395.0,305.0 367.0,291.0 397.0,301.0 422.0,319.0 448.0,336.0 471.0,315.0 497.0,298.0 528.0,300.0" stroke="#000" stroke-linejoin="round"/><circle cx="217.0" cy="300.0" fill="#f00" r="3.0" stroke="#000"/><circle cx="248.0" cy="306.0" fill="#ffa500" r="3.0" stroke="#000"/><circle cx="235.0" cy="334.0" fill="#ff0" r="3.0" stroke="#000"/><circle cx="264.0" cy="344.0" fill="#0f0" r="3.0" stroke="#000"/><circle cx="237.0" cy="360.0" fill="#00f" r="3.0" stroke="#000"/><circle cx="250.0" cy="332.0" fill="#a020f0" r="3.0" stroke="#000"/><circle cx="221.0" cy="321.0" fill="#a52a2a" r="3.0" stroke="#000"/><circle cx="247.0" cy="337.0" fill="#bebebe" r="3.0" stroke="#000"/><circle cx="276.0" cy="348.0" fill="#f00" r="3.0" stroke="#000"/><circle cx="306.0" cy="357.0" fill="#ffa500" r="3.0" stroke="#000"/><circle cx="314.0" cy="327.0" fill="#ff0" r="3.0" stroke="#000"/><circle cx="337.0" cy="307.0" fill="#0f0" r="3.0" stroke="#000"/><circle cx="366.0" cy="318.0" fill="#00f" r="3.0" stroke="#000"/><circle cx="395.0" cy="305.0" fill="#a020f0" r="3.0" stroke="#000"/><circle cx="367.0" cy="291.0" fill="#a52a2a" r="3.0" stroke="#000"/><circle cx="397.0" cy="301.0" fill="#bebebe" r="3.0" stroke="#000"/><circle cx="422.0" cy="319.0" fill="#f00" r="3.0" stroke="#000"/><circle cx="448.0" cy="336.0" fill="#ffa500" r="3.0" stroke="#000"/><circle cx="471.0" cy="315.0" fill="#ff0" r="3.0" stroke="#000"/><circle cx="497.0" cy="298.0" fill="#0f0" r="3.0" stroke="#000"/><circle cx="528.0" cy="300.0" fill="#00f" r="3.0" stroke="#000"/><polyline fill="none" points="217.0,300.0 248.0,301.0 272.0,281.0 241.0,283.0 271.0,275.0 285.0,247.0 285.0,216.0 310.0,197.0 285.0,215.0 316.0,218.0 330.0,245.0 360.0,241.0 391.0,246.0 368.0,225.0 386.0,251.0 397.0,280.0 427.0,271.0 457.0,278.0 469.0,306.0 500.0,312.0 528.0,300.0" stroke="#000" stroke-linejoin="round"/><circle cx="217.0" cy="300.0" fill="#f00" r="3.0" stroke="#000"/><circle cx="248.0" cy="301.0" fill="#ffa500" r="3.0" stroke="#000"/><circle cx="272.0" cy="281.0" fill="#ff0" r="3.0" stroke="#000"/><circle cx="241.0" cy="283.0" fill="#0f0" r="3.0" stroke="#000"/><circle cx="271.0" cy="275.0" fill="#00f" r="3.0" stroke="#000"/><circle cx="285.0" cy="247.0" fill="#a020f0" r="3.0" stroke="#000"/><circle cx="285.0" cy="216.0" fill="#a52a2a" r="3.0" stroke="#000"/><circle cx="310.0" cy="197.0" fill="#bebebe" r="3.0" stroke="#000"/><circle cx="285.0" cy="215.0" fill="#f00" r="3.0" stroke="#000"/><circle cx="316.0" cy="218.0" fill="#ffa500" r="3.0" stroke="#000"/><circle cx="330.0" cy="245.0" fill="#ff0" r="3.0" stroke="#000"/><circle cx="360.0" cy="241.0" fill="#0f0" r="3.0" stroke="#000"/><circle cx="391.0" cy="246.0" fill="#00f" r="3.0" stroke="#000"/><circle cx="368.0" cy="225.0" fill="#a020f0" r="3.0" stroke="#000"/><circle cx="386.0" cy="251.0" fill="#a52a2a" r="3.0" stroke="#000"/><circle cx="397.0" cy="280.0" fill="#bebebe" r="3.0" stroke="#000"/><circle cx="427.0" cy="271.0" fill="#f00" r="3.0" stroke="#000"/><circle cx="457.0" cy="278.0" fill="#ffa500" r="3.0" stroke="#000"/><circle cx="469.0" cy="306.0" fill="#ff0" r="3.0" stroke="#000"/><circle cx="500.0" cy="312.0" fill="#0f0" r="3.0" stroke="#000"/><circle cx="528.0" cy="300.0" fill="#00f" r="3.0" stroke="#000"/><polyline fill="none" points="217.0,300.0 244.0,283.0 275.0,284.0 259.0,310.0 278.0,286.0 309.0,281.0 304.0,250.0 335.0,251.0 361.0,269.0 378.0,295.0 402.0,314.0 429.0,329.0 435.0,298.0 463.0,312.0 446.0,286.0 466.0,263.0 494.0,278.0 525.0,282.0 540.0,309.0 554.0,281.0 528.0,300.0" stroke="#000" stroke-linejoin="round"/><circle cx="217.0" cy="300.0" fill="#f00" r="3.0" stroke="#000"/><circle cx="244.0" cy="283.0" fill="#ffa500" r="3.0" stroke="#000"/><circle cx="275.0" cy="284.0" fill="#ff0" r="3.0" stroke="#000"/><circle cx="259.0" cy="310.0" fill="#0f0" r="3.0" stroke="#000"/><circle cx="278.0" cy="286.0" fill="#00f" r="3.0" stroke="#000"/><circle cx="309.0" cy="281.0" fill="#a020f0" r="3.0" stroke="#000"/><circle cx="304.0" cy="250.0" fill="#a52a2a" r="3.0" stroke="#000"/><circle cx="335.0" cy="251.0" fill="#bebebe" r="3.0" stroke="#000"/><circle cx="361.0" cy="269.0" fill="#f00" r="3.0" stroke="#000"/><circle cx="378.0" cy="295.0" fill="#ffa500" r="3.0" stroke="#000"/><circle cx="402.0" cy="314.0" fill="#ff0" r="3.0" stroke="#000"/><circle cx="429.0" cy="329.0" fill="#0f0" r="3.0" stroke="#000"/><circle cx="435.0" cy="298.0" fill="#00f" r="3.0" stroke="#000"/><circle cx="463.0" cy="312.0" fill="#a020f0" r="3.0" stroke="#000"/><circle cx="446.0" cy="286.0" fill="#a52a2a" r="3.0" stroke="#000"/><circle cx="466.0" cy="263.0" fill="#bebebe" r="3.0" stroke="#000"/><circle cx="494.0" cy="278.0" fill="#f00" r="3.0" stroke="#000"/><circle cx="525.0" cy="282.0" fill="#ffa500" r="3.0" stroke="#000"/><circle cx="540.0" cy="309.0" fill="#ff0" r="3.0" stroke="#000"/><circle cx="554.0" cy="281.0" fill="#0f0" r="3.0" stroke="#000"/><circle cx="528.0" cy="300.0" fill="#00f" r="3.0" stroke="#000"/><polyline fill="none" points="217.0,300.0 206.0,270.0 215.0,241.0 196.0,265.0 222.0,248.0 192.0,239.0 215.0,261.0 244.0,250.0 273.0,240.0 304.0,237.0 332.0,252.0 351.0,228.0 370.0,253.0 377.0,283.0 403.0,299.0 381.0,277.0 412.0,282.0 441.0,292.0 468.0,309.0 497.0,299.0 528.0,300.0" stroke="#000" stroke-linejoin="round"/><circle cx="217.0" cy="300.0" fill="#f00" r="3.0" stroke="#000"/><circle cx="206.0" cy="270.0" fill="#ffa500" r="3.0" stroke="#000"/><circle cx="215.0" cy="241.0" fill="#ff0" r="3.0" stroke="#000"/><circle cx="196.0" cy="265.0" fill="#0f0" r="3.0" stroke="#000"/><circle cx="222.0" cy="248.0" fill="#00f" r="3.0" stroke="#000"/><circle cx="192.0" cy="239.0" fill="#a020f0" r="3.0" stroke="#000"/><circle cx="215.0" cy="261.0" fill="#a52a2a" r="3.0" stroke="#000"/><circle cx="244.0" cy="250.0" fill="#bebebe" r="3.0" stroke="#000"/><circle cx="273.0" cy="240.0" fill="#f00" r="3.0" stroke="#000"/><circle cx="304.0" cy="237.0" fill="#ffa500" r="3.0" stroke="#000"/><circle cx="332.0" cy="252.0" fill="#ff0" r="3.0" stroke="#000"/><circle cx="351.0" cy="228.0" fill="#0f0" r="3.0" stroke="#000"/><circle cx="370.0" cy="253.0" fill="#00f" r="3.0" stroke="#000"/><circle cx="377.0" cy="283.0" fill="#a020f0" r="3.0" stroke="#000"/><circle cx="403.0" cy="299.0" fill="#a52a2a" r="3.0" stroke="#000"/><circle cx="381.0" cy="277.0" fill="#bebebe" r="3.0" stroke="#000"/><circle cx="412.0" cy="282.0" fill="#f00" r="3.0" stroke="#000"/><circle cx="441.0" cy="292.0" fill="#ffa500" r="3.0" stroke="#000"/><circle cx="468.0" cy="309.0" fill="#ff0" r="3.0" stroke="#000"/><circle cx="497.0" cy="299.0" fill="#0f0" r="3.0" stroke="#000"/><circle cx="528.0" cy="300.0" fill="#00f" r="3.0" stroke="#000"/><polyline fill="none" points="217.0,300.0 211.0,269.0 241.0,276.0 261.0,252.0 292.0,253.0 277.0,280.0 308.0,286.0 332.0,306.0 362.0,301.0 351.0,272.0 371.0,296.0 401.0,302.0 386.0,329.0 411.0,348.0 422.0,377.0 442.0,401.0 438.0,370.0 459.0,347.0 490.0,343.0 501.0,314.0 528.0,300.0" stroke="#000" stroke-linejoin="round"/><circle cx="217.0" cy="300.0" fill="#f00" r="3.0" stroke="#000"/><circle cx="211.0" cy="269.0" fill="#ffa500" r="3.0" stroke="#000"/><circle cx="241.0" cy="276.0" fill="#ff0" r="3.0" stroke="#000"/><circle cx="261.0" cy="252.0" fill="#0f0" r="3.0" stroke="#000"/><circle cx="292.0" cy="253.0" fill="#00f" r="3.0" stroke="#000"/><circle cx="277.0" cy="280.0" fill="#a020f0" r="3.0" stroke="#000"/><circle cx="308.0" cy="286.0" fill="#a52a2a" r="3.0" stroke="#000"/><circle cx="332.0" cy="306.0" fill="#bebebe" r="3.0" stroke="#000"/><circle cx="362.0" cy="301.0" fill="#f00" r="3.0" stroke="#000"/><circle cx="351.0" cy="272.0" fill="#ffa500" r="3.0" stroke="#000"/><circle cx="371.0" cy="296.0" fill="#ff0" r="3.0" stroke="#000"/><circle cx="401.0" cy="302.0" fill="#0f0" r="3.0" stroke="#000"/><circle cx="386.0" cy="329.0" fill="#00f" r="3.0" stroke="#000"/><circle cx="411.0" cy="348.0" fill="#a020f0" r="3.0" stroke="#000"/><circle cx="422.0" cy="377.0" fill="#a52a2a" r="3.0" stroke="#000"/><circle cx="442.0" cy="401.0" fill="#bebebe" r="3.0" stroke="#000"/><circle cx="438.0" cy="370.0" fill="#f00" r="3.0" stroke="#000"/><circle cx="459.0" cy="347.0" fill="#ffa500" r="3.0" stroke="#000"/><circle cx="490.0" cy="343.0" fill="#ff0" r="3.0" stroke="#000"/><circle cx="501.0" cy="314.0" fill="#0f0" r="3.0" stroke="#000"/><circle cx="528.0" cy="300.0" fill="#00f" r="3.0" stroke="#000"/><polyline fill="none" points="217.0,300.0 225.0,269.0 239.0,297.0 269.0,289.0 298.0,280.0 314.0,253.0 334.0,229.0 323.0,258.0 346.0,279.0 377.0,274.0 407.0,268.0 424.0,241.0 455.0,244.0 485.0,237.0 516.0,239.0 512.0,208.0 519.0,238.0 495.0,219.0 519.0,239.0 519.0,270.0 528.0,300.0" stroke="#000" stroke-linejoin="round"/><circle cx="217.0" cy="300.0" fill="#f00" r="3.0" stroke="#000"/><circle cx="225.0" cy="269.0" fill="#ffa500" r="3.0" stroke="#000"/><circle cx="239.0" cy="297.0" fill="#ff0" r="3.0" stroke="#000"/><circle cx="269.0" cy="289.0" fill="#0f0" r="3.0" stroke="#000"/><circle cx="298.0" cy="280.0" fill="#00f" r="3.0" stroke="#000"/><circle cx="314.0" cy="253.0" fill="#a020f0" r="3.0" stroke="#000"/><circle cx="334.0" cy="229.0" fill="#a52a2a" r="3.0" stroke="#000"/><circle cx="323.0" cy="258.0" fill="#bebebe" r="3.0" stroke="#000"/><circle cx="346.0" cy="279.0" fill="#f00" r="3.0" stroke="#000"/><circle cx="377.0" cy="274.0" fill="#ffa500" r="3.0" stroke="#000"/><circle cx="407.0" cy="268.0" fill="#ff0" r="3.0" stroke="#000"/><circle cx="424.0" cy="241.0" fill="#0f0" r="3.0" stroke="#000"/><circle cx="455.0" cy="244.0" fill="#00f" r="3.0" stroke="#000"/><circle cx="485.0" cy="237.0" fill="#a020f0" r="3.0" stroke="#000"/><circle cx="516.0" cy="239.0" fill="#a52a2a" r="3.0" stroke="#000"/><circle cx="512.0" cy="208.0" fill="#bebebe" r="3.0" stroke="#000"/><circle cx="519.0" cy="238.0" fill="#f00" r="3.0" stroke="#000"/><circle cx="495.0" cy="219.0" fill="#ffa500" r="3.0" stroke="#000"/><circle cx="519.0" cy="239.0" fill="#ff0" r="3.0" stroke="#000"/><circle cx="519.0" cy="270.0" fill="#0f0" r="3.0" stroke="#000"/><circle cx="528.0" cy="300.0" fill="#00f" r="3.0" stroke="#000"/></svg>