<?xml version="1.0" ?><!DOCTYPE svg  PUBLIC '-//W3C//DTD SVG 1.1//EN'  'http://www.w3.org/Graphics/SVG/1.1/DTD/svg11.dtd'><svg height="620.000" viewBox="-9.000 -9.000 820.000 620.000" width="820.000" xmlns="http://www.w3.org/2000/svg"><rect fill="#fff" height="598.0" stroke="#000" width="798.0" x="2.0" y="2.0"/><polyline fill="none" points="217.0,300.0 233.0,273.0 248.0,246.0 264.0,219.0 280.0,192.0 295.0,165.0 311.0,138.0 326.0,111.0 342.0,84.0 357.0,57.0 373.0,30.0 388.0,57.0 404.0,84.0 420.0,111.0 435.0,138.0 451.0,165.0 466.0,192.0 482.0,219.0 497.0,246.0 513.0,273.0 528.0,300.0" stroke="#000" stroke-linejoin="round"/><circle cx="217.0" cy="300.0" fill="#f00" r="3.0" stroke="#000"/><circle cx="233.0" cy="273.0" fill="#ffa500" r="3.0" stroke="#000"/><circle cx="248.0" cy="246.0" fill="#ff0" r="3.0" stroke="#000"/><circle cx="264.0" cy="219.0" fill="#0f0" r="3.0" stroke="#000"/><circle cx="280.0" cy="192.0" fill="#00f" r="3.0" stroke="#000"/><circle cx="295.0" cy="165.0" fill="#a020f0" r="3.0" stroke="#000"/><circle cx="311.0" cy="138.0" fill="#a52a2a" r="3.0" stroke="#000"/><circle cx="326.0" cy="111.0" fill="#bebebe" r="3.0" stroke="#000"/><circle cx="342.0" cy="84.0" fill="#f00" r="3.0" stroke="#000"/><circle cx="357.0" cy="57.0" fill="#ffa500" r="3.0" stroke="#000"/><circle cx="373.0" cy="30.0" fill="#ff0" r="3.0" stroke="#000"/><circle cx="388.0" cy="57.0" fill="#0f0" r="3.0" stroke="#000"/><circle cx="404.0" cy="84.0" fill="#00f" r="3.0" stroke="#000"/><circle cx="420.0" cy="111.0" fill="#a020f0" r="3.0" stroke="#000"/><circle cx="435.0" cy="138.0" fill="#a52a2a" r="3.0" stroke="#000"/><circle cx="451.0" cy="165.0" fill="#bebebe" r="3.0" stroke="#000"/><circle cx="466.0" cy="192.0" fill="#f00" r="3.0" stroke="#000"/><circle cx="482.0" cy="219.0" fill="#ffa500" r="3.0" stroke="#000"/><circle cx="497.0" cy="246.0" fill="#ff0" r="3.0" stroke="#000"/><circle cx="513.0" cy="273.0" fill="#0f0" r="3.0" stroke="#000"/><circle cx="528.0" cy="300.0" fill="#00f" r="3.0" stroke="#000"/><polyline fill="none" points="217.0,300.0 233.0,273.0 248.0,246.0 264.0,219.0 280.0,192.0 295.0,165.0 311.0,138.0 326.0,111.0 342.0,84.0 357.0,57.0 373.0,30.0 388.0,57.0 404.0,84.0 420.0,111.0 435.0,138.0 451.0,165.0 466.0,192.0 482.0,219.0 497.0,246.0 513.0,273.0 528.0,299.0" stroke="#000" stroke-linejoin="round"/><circle cx="217.0" cy="300.0" fill="#f00" r="3.0" stroke="#000"/><circle cx="233.0" cy="273.0" fill="#ffa500" r="3.0" stroke="#000"/><circle cx="248.0" cy="246.0" fill="#ff0" r="3.0" stroke="#000"/><circle cx="264.0" cy="219.0" fill="#0f0" r="3.0" stroke="#000"/><circle cx="280.0" cy="192.0" fill="#00f" r="3.0" stroke="#000"/><circle cx="295.0" cy="165.0" fill="#a020f0" r="3.0" stroke="#000"/><circle cx="311.0" cy="138.0" fill="#a52a2a" r="3.0" stroke="#000"/><circle cx="326.0" cy="111.0" fill="#bebebe" r="3.0" stroke="#000"/><circle cx="342.0" cy="84.0" fill="#f00" r="3.0" stroke="#000"/><circle cx="357.0" cy="57.0" fill="#ffa500" r="3.0" stroke="#000"/><circle cx="373.0" cy="30.0" fill="#ff0" r="3.0" stroke="#000"/><circle cx="388.0" cy="57.0" fill="#0f0" r="3.0" stroke="#000"/><circle cx="404.0" cy="84.0" fill="#00f" r="3.0" stroke="#000"/><circle cx="420.0" cy="111.0" fill="#a020f0" r="3.0" stroke="#000"/><circle cx="435.0" cy="138.0" fill="#a52a2a" r="3.0" stroke="#000"/><circle cx="451.0" cy="165.0" fill="#bebebe" r="3.0" stroke="#000"/><circle cx="466.0" cy="192.0" fill="#f00" r="3.0" stroke="#000"/><circle cx="482.0" cy="219.0" fill="#ffa500" r="3.0" stroke="#000"/><circle cx="497.0" cy="246.0" fill="#ff0" r="3.0" stroke="#000"/><circle cx="513.0" cy="273.0" fill="#0f0" r="3.0" stroke="#000"/><circle cx="528.0" cy="299.0" fill="#00f" r="3.0" stroke="#000"/></svg>