<?xml version="1.0" ?><!DOCTYPE svg  PUBLIC '-//W3C//DTD SVG 1.1//EN'  'http://www.w3.org/Graphics/SVG/1.1/DTD/svg11.dtd'><svg height="620.000" viewBox="-9.000 -9.000 820.000 620.000" width="820.000" xmlns="http://www.w3.org/2000/svg"><rect fill="#fff" height="598.0" stroke="#000" width="798.0" x="2.0" y="2.0"/><polyline fill="none" points="217.0,300.0 221.0,269.0 222.0,237.0 224.0,206.0 229.0,176.0 234.0,145.0 243.0,115.0 258.0,88.0 282.0,68.0 312.0,60.0 343.0,61.0 372.0,73.0 399.0,89.0 421.0,111.0 438.0,137.0 456.0,162.0 473.0,188.0 488.0,215.0 501.0,244.0 515.0,271.0 528.0,300.0" stroke="#000" stroke-linejoin="round"/><circle cx="217.0" cy="300.0" fill="#f00" r="3.0" stroke="#000"/><circle cx="221.0" cy="269.0" fill="#ffa500" r="3.0" stroke="#000"/><circle cx="222.0" cy="237.0" fill="#ff0" r="3.0" stroke="#000"/><circle cx="224.0" cy="206.0" fill="#0f0" r="3.0" stroke="#000"/><circle cx="229.0" cy="176.0" fill="#00f" r="3.0" stroke="#000"/><circle cx="234.0" cy="145.0" fill="#a020f0" r="3.0" stroke="#000"/><circle cx="243.0" cy="115.0" fill="#a52a2a" r="3.0" stroke="#000"/><circle cx="258.0" cy="88.0" fill="#bebebe" r="3.0" stroke="#000"/><circle cx="282.0" cy="68.0" fill="#f00" r="3.0" stroke="#000"/><circle cx="312.0" cy="60.0" fill="#ffa500" r="3.0" stroke="#000"/><circle cx="343.0" cy="61.0" fill="#ff0" r="3.0" stroke="#000"/><circle cx="372.0" cy="73.0" fill="#0f0" r="3.0" stroke="#000"/><circle cx="399.0" cy="89.0" fill="#00f" r="3.0" stroke="#000"/><circle cx="421.0" cy="111.0" fill="#a020f0" r="3.0" stroke="#000"/><circle cx="438.0" cy="137.0" fill="#a52a2a" r="3.0" stroke="#000"/><circle cx="456.0" cy="162.0" fill="#bebebe" r="3.0" stroke="#000"/><circle cx="473.0" cy="188.0" fill="#f00" r="3.0" stroke="#000"/><circle cx="488.0" cy="215.0" fill="#ffa500" r="3.0" stroke="#000"/><circle cx="501.0" cy="244.0" fill="#ff0" r="3.0" stroke="#000"/><circle cx="515.0" cy="271.0" fill="#0f0" r="3.0" stroke="#000"/><circle cx="528.0" cy="300.0" fill="#00f" r="3.0" stroke="#000"/><polyline fill="none" points="217.0,300.0 205.0,328.0 197.0,358.0 191.0,389.0 198.0,419.0 208.0,448.0 223.0,476.0 245.0,497.0 272.0,514.0 301.0,524.0 332.0,525.0 363.0,518.0 391.0,504.0 414.0,484.0 432.0,458.0 447.0,431.0 462.0,404.0 477.0,376.0 498.0,354.0 514.0,327.0 528.0,300.0" stroke="#000" stroke-linejoin="round"/><circle cx="217.0" cy="300.0" fill="#f00" r="3.0" stroke="#000"/><circle cx="205.0" cy="328.0" fill="#ffa500" r="3.0" stroke="#000"/><circle cx="197.0" cy="358.0" fill="#ff0" r="3.0" stroke="#000"/><circle cx="191.0" cy="389.0" fill="#0f0" r="3.0" stroke="#000"/><circle cx="198.0" cy="419.0" fill="#00f" r="3.0" stroke="#000"/><circle cx="208.0" cy="448.0" fill="#a020f0" r="3.0" stroke="#000"/><circle cx="223.0" cy="476.0" fill="#a52a2a" r="3.0" stroke="#000"/><circle cx="245.0" cy="497.0" fill="#bebebe" r="3.0" stroke="#000"/><circle cx="272.0" cy="514.0" fill="#f00" r="3.0" stroke="#000"/><circle cx="301.0" cy="524.0" fill="#ffa500" r="3.0" stroke="#000"/><circle cx="332.0" cy="525.0" fill="#ff0" r="3.0" stroke="#000"/><circle cx="363.0" cy="518.0" fill="#0f0" r="3.0" stroke="#000"/><circle cx="391.0" cy="504.0" fill="#00f" r="3.0" stroke="#000"/><circle cx="414.0" cy="484.0" fill="#a020f0" r="3.0" stroke="#000"/><circle cx="432.0" cy="458.0" fill="#a52a2a" r="3.0" stroke="#000"/><circle cx="447.0" cy="431.0" fill="#bebebe" r="3.0" stroke="#000"/><circle cx="462.0" cy="404.0" fill="#f00" r="3.0" stroke="#000"/><circle cx="477.0" cy="376.0" fill="#ffa500" r="3.0" stroke="#000"/><circle cx="498.0" cy="354.0" fill="#ff0" r="3.0" stroke="#000"/><circle cx="514.0" cy="327.0" fill="#0f0" r="3.0" stroke="#000"/><circle cx="528.0" cy="300.0" fill="#00f" r="3.0" stroke="#000"/><polyline fill="none" points="217.0,300.0 230.0,328.0 236.0,359.0 237.0,390.0 239.0,421.0 244.0,451.0 257.0,480.0 276.0,505.0 300.0,524.0 329.0,535.0 360.0,539.0 390.0,531.0 415.0,513.0 437.0,491.0 459.0,469.0 479.0,445.0 493.0,417.0 506.0,389.0 516.0,360.0 527.0,331.0 528.0,300.0" stroke="#000" stroke-linejoin="round"/><circle cx="217.0" cy="300.0" fill="#f00" r="3.0" stroke="#000"/><circle cx="230.0" cy="328.0" fill="#ffa500" r="3.0" stroke="#000"/><circle cx="236.0" cy="359.0" fill="#ff0" r="3.0" stroke="#000"/><circle cx="237.0" cy="390.0" fill="#0f0" r="3.0" stroke="#000"/><circle cx="239.0" cy="421.0" fill="#00f" r="3.0" stroke="#000"/><circle cx="244.0" cy="451.0" fill="#a020f0" r="3.0" stroke="#000"/><circle cx="257.0" cy="480.0" fill="#a52a2a" r="3.0" stroke="#000"/><circle cx="276.0" cy="505.0" fill="#bebebe" r="3.0" stroke="#000"/><circle cx="300.0" cy="524.0" fill="#f00" r="3.0" stroke="#000"/><circle cx="329.0" cy="535.0" fill="#ffa500" r="3.0" stroke="#000"/><circle cx="360.0" cy="539.0" fill="#ff0" r="3.0" stroke="#000"/><circle cx="390.0" cy="531.0" fill="#0f0" r="3.0" stroke="#000"/><circle cx="415.0" cy="513.0" fill="#00f" r="3.0" stroke="#000"/><circle cx="437.0" cy="491.0" fill="#a020f0" r="3.0" stroke="#000"/><circle cx="459.0" cy="469.0" fill="#a52a2a" r="3.0" stroke="#000"/><circle cx="479.0" cy="445.0" fill="#bebebe" r="3.0" stroke="#000"/><circle cx="493.0" cy="417.0" fill="#f00" r="3.0" stroke="#000"/><circle cx="506.0" cy="389.0" fill="#ffa500" r="3.0" stroke="#000"/><circle cx="516.0" cy="360.0" fill="#ff0" r="3.0" stroke="#000"/><circle cx="527.0" cy="331.0" fill="#0f0" r="3.0" stroke="#000"/><circle cx="528.0" cy="300.0" fill="#00f" r="3.0" stroke="#000"/><polyline fill="none" points="217.0,300.0 229.0,329.0 246.0,355.0 259.0,383.0 274.0,410.0 289.0,437.0 307.0,462.0 326.0,487.0 352.0,504.0 380.0,518.0 409.0,529.0 440.0,531.0 468.0,518.0 492.0,498.0 511.0,473.0 526.0,446.0 542.0,419.0 548.0,389.0 550.0,358.0 542.0,328.0 528.0,300.0" stroke="#000" stroke-linejoin="round"/><circle cx="217.0" cy="300.0" fill="#f00" r="3.0" stroke="#000"/><circle cx="229.0" cy="329.0" fill="#ffa500" r="3.0" stroke="#000"/><circle cx="246.0" cy="355.0" fill="#ff0" r="3.0" stroke="#000"/><circle cx="259.0" cy="383.0" fill="#0f0" r="3.0" stroke="#000"/><circle cx="274.0" cy="410.0" fill="#00f" r="3.0" stroke="#000"/><circle cx="289.0" cy="437.0" fill="#a020f0" r="3.0" stroke="#000"/><circle cx="307.0" cy="462.0" fill="#a52a2a" r="3.0" stroke="#000"/><circle cx="326.0" cy="487.0" fill="#bebebe" r="3.0" stroke="#000"/><circle cx="352.0" cy="504.0" fill="#f00" r="3.0" stroke="#000"/><circle cx="380.0" cy="518.0" fill="#ffa500" r="3.0" stroke="#000"/><circle cx="409.0" cy="529.0" fill="#ff0" r="3.0" stroke="#000"/><circle cx="440.0" cy="531.0" fill="#0f0" r="3.0" stroke="#000"/><circle cx="468.0" cy="518.0" fill="#00f" r="3.0" stroke="#000"/><circle cx="492.0" cy="498.0" fill="#a020f0" r="3.0" stroke="#000"/><circle cx="511.0" cy="473.0" fill="#a52a2a" r="3.0" stroke="#000"/><circle cx="526.0" cy="446.0" fill="#bebebe" r="3.0" stroke="#000"/><circle cx="542.0" cy="419.0" fill="#f00" r="3.0" stroke="#000"/><circle cx="548.0" cy="389.0" fill="#ffa500" r="3.0" stroke="#000"/><circle cx="550.0" cy="358.0" fill="#ff0" r="3.0" stroke="#000"/><circle cx="542.0" cy="328.0" fill="#0f0" r="3.0" stroke="#000"/><circle cx="528.0" cy="300.0" fill="#00f" r="3.0" stroke="#000"/><polyline fill="none" points="217.0,300.0 230.0,271.0 236.0,241.0 238.0,210.0 243.0,179.0 250.0,149.0 263.0,120.0 283.0,96.0 310.0,82.0 340.0,72.0 370.0,66.0 401.0,62.0 429.0,75.0 451.0,97.0 468.0,124.0 479.0,153.0 488.0,182.0 502.0,211.0 512.0,240.0 524.0,269.0 528.0,300.0" stroke="#000" stroke-linejoin="round"/><circle cx="217.0" cy="300.0" fill="#f00" r="3.0" stroke="#000"/><circle cx="230.0" cy="271.0" fill="#ffa500" r="3.0" stroke="#000"/><circle cx="236.0" cy="241.0" fill="#ff0" r="3.0" stroke="#000"/><circle cx="238.0" cy="210.0" fill="#0f0" r="3.0" stroke="#000"/><circle cx="243.0" cy="179.0" fill="#00f" r="3.0" stroke="#000"/><circle cx="250.0" cy="149.0" fill="#a020f0" r="3.0" stroke="#000"/><circle cx="263.0" cy="120.0" fill="#a52a2a" r="3.0" stroke="#000"/><circle cx="283.0" cy="96.0" fill="#bebebe" r="3.0" stroke="#000"/><circle cx="310.0" cy="82.0" fill="#f00" r="3.0" stroke="#000"/><circle cx="340.0" cy="72.0" fill="#ffa500" r="3.0" stroke="#000"/><circle cx="370.0" cy="66.0" fill="#ff0" r="3.0" stroke="#000"/><circle cx="401.0" cy="62.0" fill="#0f0" r="3.0" stroke="#000"/><circle cx="429.0" cy="75.0" fill="#00f" r="3.0" stroke="#000"/><circle cx="451.0" cy="97.0" fill="#a020f0" r="3.0" stroke="#000"/><circle cx="468.0" cy="124.0" fill="#a52a2a" r="3.0" stroke="#000"/><circle cx="479.0" cy="153.0" fill="#bebebe" r="3.0" stroke="#000"/><circle cx="488.0" cy="182.0" fill="#f00" r="3.0" stroke="#000"/><circle cx="502.0" cy="211.0" fill="#ffa500" r="3.0" stroke="#000"/><circle cx="512.0" cy="240.0" fill="#ff0" r="3.0" stroke="#000"/><circle cx="524.0" cy="269.0" fill="#0f0" r="3.0" stroke="#000"/><circle cx="528.0" cy="300.0" fill="#00f" r="3.0" stroke="#000"/><polyline fill="none" points="217.0,300.0 200.0,326.0 191.0,355.0 186.0,386.0 188.0,417.0 201.0,445.0 216.0,473.0 239.0,494.0 265.0,511.0 294.0,521.0 325.0,522.0 355.0,513.0 381.0,495.0 405.0,475.0 429.0,455.0 450.0,433.0 463.0,405.0 477.0,377.0 491.0,349.0 512.0,326.0 528.0,300.0" stroke="#000" stroke-linejoin="round"/><circle cx="217.0" cy="300.0" fill="#f00" r="3.0" stroke="#000"/><circle cx="200.0" cy="326.0" fill="#ffa500" r="3.0" stroke="#000"/><circle cx="191.0" cy="355.0" fill="#ff0" r="3.0" stroke="#000"/><circle cx="186.0" cy="386.0" fill="#0f0" r="3.0" stroke="#000"/><circle cx="188.0" cy="417.0" fill="#00f" r="3.0" stroke="#000"/><circle cx="201.0" cy="445.0" fill="#a020f0" r="3.0" stroke="#000"/><circle cx="216.0" cy="473.0" fill="#a52a2a" r="3.0" stroke="#000"/><circle cx="239.0" cy="494.0" fill="#bebebe" r="3.0" stroke="#000"/><circle cx="265.0" cy="511.0" fill="#f00" r="3.0" stroke="#000"/><circle cx="294.0" cy="521.0" fill="#ffa500" r="3.0" stroke="#000"/><circle cx="325.0" cy="522.0" fill="#ff0" r="3.0" stroke="#000"/><circle cx="355.0" cy="513.0" fill="#0f0" r="3.0" stroke="#000"/><circle cx="381.0" cy="495.0" fill="#00f" r="3.0" stroke="#000"/><circle cx="405.0" cy="475.0" fill="#a020f0" r="3.0" stroke="#000"/><circle cx="429.0" cy="455.0" fill="#a52a2a" r="3.0" stroke="#000"/><circle cx="450.0" cy="433.0" fill="#bebebe" r="3.0" stroke="#000"/><circle cx="463.0" cy="405.0" fill="#f00" r="3.0" stroke="#000"/><circle cx="477.0" cy="377.0" fill="#ffa500" r="3.0" stroke="#000"/><circle cx="491.0" cy="349.0" fill="#ff0" r="3.0" stroke="#000"/><circle cx="512.0" cy="326.0" fill="#0f0" r="3.0" stroke="#000"/><circle cx="528.0" cy="300.0" fill="#00f" r="3.0" stroke="#000"/><polyline fill="none" points="217.0,300.0 211.0,269.0 201.0,240.0 199.0,209.0 203.0,178.0 217.0,150.0 237.0,126.0 258.0,103.0 282.0,83.0 312.0,76.0 343.0,79.0 373.0,88.0 403.0,98.0 430.0,112.0 456.0,130.0 475.0,155.0 488.0,183.0 499.0,212.0 516.0,239.0 523.0,269.0 528.0,300.0" stroke="#000" stroke-linejoin="round"/><circle cx="217.0" cy="300.0" fill="#f00" r="3.0" stroke="#000"/><circle cx="211.0" cy="269.0" fill="#ffa500" r="3.0" stroke="#000"/><circle cx="201.0" cy="240.0" fill="#ff0" r="3.0" stroke="#000"/><circle cx="199.0" cy="209.0" fill="#0f0" r="3.0" stroke="#000"/><circle cx="203.0" cy="178.0" fill="#00f" r="3.0" stroke="#000"/><circle cx="217.0" cy="150.0" fill="#a020f0" r="3.0" stroke="#000"/><circle cx="237.0" cy="126.0" fill="#a52a2a" r="3.0" stroke="#000"/><circle cx="258.0" cy="103.0" fill="#bebebe" r="3.0" stroke="#000"/><circle cx="282.0" cy="83.0" fill="#f00" r="3.0" stroke="#000"/><circle cx="312.0" cy="76.0" fill="#ffa500" r="3.0" stroke="#000"/><circle cx="343.0" cy="79.0" fill="#ff0" r="3.0" stroke="#000"/><circle cx="373.0" cy="88.0" fill="#0f0" r="3.0" stroke="#000"/><circle cx="403.0" cy="98.0" fill="#00f" r="3.0" stroke="#000"/><circle cx="430.0" cy="112.0" fill="#a020f0" r="3.0" stroke="#000"/><circle cx="456.0" cy="130.0" fill="#a52a2a" r="3.0" stroke="#000"/><circle cx="475.0" cy="155.0" fill="#bebebe" r="3.0" stroke="#000"/><circle cx="488.0" cy="183.0" fill="#f00" r="3.0" stroke="#000"/><circle cx="499.0" cy="212.0" fill="#ffa500" r="3.0" stroke="#000"/><circle cx="516.0" cy="239.0" fill="#ff0" r="3.0" stroke="#000"/><circle cx="523.0" cy="269.0" fill="#0f0" r="3.0" stroke="#000"/><circle cx="528.0" cy="300.0" fill="#00f" r="3.0" stroke="#000"/><polyline fill="none" points="217.0,300.0 232.0,272.0 251.0,247.0 267.0,221.0 279.0,192.0 294.0,165.0 316.0,143.0 333.0,117.0 353.0,93.0 376.0,72.0 406.0,62.0 437.0,64.0 467.0,73.0 490.0,93.0 506.0,120.0 522.0,146.0 532.0,176.0 537.0,207.0 537.0,238.0 533.0,269.0 528.0,300.0" stroke="#000" stroke-linejoin="round"/><circle cx="217.0" cy="300.0" fill="#f00" r="3.0" stroke="#000"/><circle cx="232.0" cy="272.0" fill="#ffa500" r="3.0" stroke="#000"/><circle cx="251.0" cy="247.0" fill="#ff0" r="3.0" stroke="#000"/><circle cx="267.0" cy="221.0" fill="#0f0" r="3.0" stroke="#000"/><circle cx="279.0" cy="192.0" fill="#00f" r="3.0" stroke="#000"/><circle cx="294.0" cy="165.0" fill="#a020f0" r="3.0" stroke="#000"/><circle cx="316.0" cy="143.0" fill="#a52a2a" r="3.0" stroke="#000"/><circle cx="333.0" cy="117.0" fill="#bebebe" r="3.0" stroke="#000"/><circle cx="353.0" cy="93.0" fill="#f00" r="3.0" stroke="#000"/><circle cx="376.0" cy="72.0" fill="#ffa500" r="3.0" stroke="#000"/><circle cx="406.0" cy="62.0" fill="#ff0" r="3.0" stroke="#000"/><circle cx="437.0" cy="64.0" fill="#0f0" r="3.0" stroke="#000"/><circle cx="467.0" cy="73.0" fill="#00f" r="3.0" stroke="#000"/><circle cx="490.0" cy="93.0" fill="#a020f0" r="3.0" stroke="#000"/><circle cx="506.0" cy="120.0" fill="#a52a2a" r="3.0" stroke="#000"/><circle cx="522.0" cy="146.0" fill="#bebebe" r="3.0" stroke="#000"/><circle cx="532.0" cy="176.0" fill="#f00" r="3.0" stroke="#000"/><circle cx="537.0" cy="207.0" fill="#ffa500" r="3.0" stroke="#000"/><circle cx="537.0" cy="238.0" fill="#ff0" r="3.0" stroke="#000"/><circle cx="533.0" cy="269.0" fill="#0f0" r="3.0" stroke="#000"/><circle cx="528.0" cy="300.0" fill="#00f" r="3.0" stroke="#000"/><polyline fill="none" points="217.0,300.0 221.0,330.0 227.0,361.0 239.0,389.0 255.0,416.0 270.0,444.0 285.0,471.0 306.0,493.0 335.0,507.0 364.0,518.0 395.0,521.0 425.0,514.0 454.0,502.0 481.0,488.0 509.0,475.0 532.0,454.0 538.0,423.0 540.0,392.0 538.0,361.0 534.0,330.0 528.0,300.0" stroke="#000" stroke-linejoin="round"/><circle cx="217.0" cy="300.0" fill="#f00" r="3.0" stroke="#000"/><circle cx="221.0" cy="330.0" fill="#ffa500" r="3.0" stroke="#000"/><circle cx="227.0" cy="361.0" fill="#ff0" r="3.0" stroke="#000"/><circle cx="239.0" cy="389.0" fill="#0f0" r="3.0" stroke="#000"/><circle cx="255.0" cy="416.0" fill="#00f" r="3.0" stroke="#000"/><circle cx="270.0" cy="444.0" fill="#a020f0" r="3.0" stroke="#000"/><circle cx="285.0" cy="471.0" fill="#a52a2a" r="3.0" stroke="#000"/><circle cx="306.0" cy="493.0" fill="#bebebe" r="3.0" stroke="#000"/><circle cx="335.0" cy="507.0" fill="#f00" r="3.0" stroke="#000"/><circle cx="364.0" cy="518.0" fill="#ffa500" r="3.0" stroke="#000"/><circle cx="395.0" cy="521.0" fill="#ff0" r="3.0" stroke="#000"/><circle cx="425.0" cy="514.0" fill="#0f0" r="3.0" stroke="#000"/><circle cx="454.0" cy="502.0" fill="#00f" r="3.0" stroke="#000"/><circle cx="481.0" cy="488.0" fill="#a020f0" r="3.0" stroke="#000"/><circle cx="509.0" cy="475.0" fill="#a52a2a" r="3.0" stroke="#000"/><circle cx="532.0" cy="454.0" fill="#bebebe" r="3.0" stroke="#000"/><circle cx="538.0" cy="423.0" fill="#f00" r="3.0" stroke="#000"/><circle cx="540.0" cy="392.0" fill="#ffa500" r="3.0" stroke="#000"/><circle cx="538.0" cy="361.0" fill="#ff0" r="3.0" stroke="#000"/><circle cx="534.0" cy="330.0" fill="#0f0" r="3.0" stroke="#000"/><circle cx="528.0" cy="300.0" fill="#00f" r="3.0" stroke="#000"/><polyline fill="none" points="217.0,300.0 212.0,330.0 199.0,358.0 188.0,387.0 186.0,418.0 195.0,448.0 214.0,472.0 239.0,491.0 265.0,508.0 296.0,515.0 326.0,519.0 357.0,512.0 384.0,497.0 406.0,476.0 428.0,453.0 450.0,432.0 472.0,409.0 492.0,385.0 506.0,358.0 518.0,329.0 528.0,300.0" stroke="#000" stroke-linejoin="round"/><circle cx="217.0" cy="300.0" fill="#f00" r="3.0" stroke="#000"/><circle cx="212.0" cy="330.0" fill="#ffa500" r="3.0" stroke="#000"/><circle cx="199.0" cy="358.0" fill="#ff0" r="3.0" stroke="#000"/><circle cx="188.0" cy="387.0" fill="#0f0" r="3.0" stroke="#000"/><circle cx="186.0" cy="418.0" fill="#00f" r="3.0" stroke="#000"/><circle cx="195.0" cy="448.0" fill="#a020f0" r="3.0" stroke="#000"/><circle cx="214.0" cy="472.0" fill="#a52a2a" r="3.0" stroke="#000"/><circle cx="239.0" cy="491.0" fill="#bebebe" r="3.0" stroke="#000"/><circle cx="265.0" cy="508.0" fill="#f00" r="3.0" stroke="#000"/><circle cx="296.0" cy="515.0" fill="#ffa500" r="3.0" stroke="#000"/><circle cx="326.0" cy="519.0" fill="#ff0" r="3.0" stroke="#000"/><circle cx="357.0" cy="512.0" fill="#0f0" r="3.0" stroke="#000"/><circle cx="384.0" cy="497.0" fill="#00f" r="3.0" stroke="#000"/><circle cx="406.0" cy="476.0" fill="#a020f0" r="3.0" stroke="#000"/><circle cx="428.0" cy="453.0" fill="#a52a2a" r="3.0" stroke="#000"/><circle cx="450.0" cy="432.0" fill="#bebebe" r="3.0" stroke="#000"/><circle cx="472.0" cy="409.0" fill="#f00" r="3.0" stroke="#000"/><circle cx="492.0" cy="385.0" fill="#ffa500" r="3.0" stroke="#000"/><circle cx="506.0" cy="358.0" fill="#ff0" r="3.0" stroke="#000"/><circle cx="518.0" cy="329.0" fill="#0f0" r="3.0" stroke="#000"/><circle cx="528.0" cy="300.0" fill="#00f" r="3.0" stroke="#000"/><polyline fill="none" points="217.0,300.0 223.0,330.0 234.0,359.0 246.0,388.0 262.0,414.0 279.0,440.0 300.0,464.0 323.0,484.0 347.0,505.0 372.0,522.0 401.0,533.0 432.0,532.0 462.0,522.0 486.0,503.0 510.0,483.0 522.0,454.0 522.0,423.0 522.0,392.0 518.0,361.0 523.0,330.0 528.0,299.0" stroke="#000" stroke-linejoin="round"/><circle cx="217.0" cy="300.0" fill="#f00" r="3.0" stroke="#000"/><circle cx="223.0" cy="330.0" fill="#ffa500" r="3.0" stroke="#000"/><circle cx="234.0" cy="359.0" fill="#ff0" r="3.0" stroke="#000"/><circle cx="246.0" cy="388.0" fill="#0f0" r="3.0" stroke="#000"/><circle cx="262.0" cy="414.0" fill="#00f" r="3.0" stroke="#000"/><circle cx="279.0" cy="440.0" fill="#a020f0" r="3.0" stroke="#000"/><circle cx="300.0" cy="464.0" fill="#a52a2a" r="3.0" stroke="#000"/><circle cx="323.0" cy="484.0" fill="#bebebe" r="3.0" stroke="#000"/><circle cx="347.0" cy="505.0" fill="#f00" r="3.0" stroke="#000"/><circle cx="372.0" cy="522.0" fill="#ffa500" r="3.0" stroke="#000"/><circle cx="401.0" cy="533.0" fill="#ff0" r="3.0" stroke="#000"/><circle cx="432.0" cy="532.0" fill="#0f0" r="3.0" stroke="#000"/><circle cx="462.0" cy="522.0" fill="#00f" r="3.0" stroke="#000"/><circle cx="486.0" cy="503.0" fill="#a020f0" r="3.0" stroke="#000"/><circle cx="510.0" cy="483.0" fill="#a52a2a" r="3.0" stroke="#000"/><circle cx="522.0" cy="454.0" fill="#bebebe" r="3.0" stroke="#000"/><circle cx="522.0" cy="423.0" fill="#f00" r="3.0" stroke="#000"/><circle cx="522.0" cy="392.0" fill="#ffa500" r="3.0" stroke="#000"/><circle cx="518.0" cy="361.0" fill="#ff0" r="3.0" stroke="#000"/><circle cx="523.0" cy="330.0" fill="#0f0" r="3.0" stroke="#000"/><circle cx="528.0" cy="299.0" fill="#00f" r="3.0" stroke="#000"/><polyline fill="none" points="217.0,300.0 223.0,269.0 221.0,238.0 217.0,207.0 217.0,176.0 228.0,147.0 249.0,125.0 276.0,108.0 305.0,97.0 334.0,86.0 364.0,79.0 395.0,82.0 424.0,94.0 450.0,110.0 477.0,127.0 498.0,150.0 511.0,178.0 520.0,208.0 526.0,238.0 532.0,269.0 528.0,300.0" stroke="#000" stroke-linejoin="round"/><circle cx="217.0" cy="300.0" fill="#f00" r="3.0" stroke="#000"/><circle cx="223.0" cy="269.0" fill="#ffa500" r="3.0" stroke="#000"/><circle cx="221.0" cy="238.0" fill="#ff0" r="3.0" stroke="#000"/><circle cx="217.0" cy="207.0" fill="#0f0" r="3.0" stroke="#000"/><circle cx="217.0" cy="176.0" fill="#00f" r="3.0" stroke="#000"/><circle cx="228.0" cy="147.0" fill="#a020f0" r="3.0" stroke="#000"/><circle cx="249.0" cy="125.0" fill="#a52a2a" r="3.0" stroke="#000"/><circle cx="276.0" cy="108.0" fill="#bebebe" r="3.0" stroke="#000"/><circle cx="305.0" cy="97.0" fill="#f00" r="3.0" stroke="#000"/><circle cx="334.0" cy="86.0" fill="#ffa500" r="3.0" stroke="#000"/><circle cx="364.0" cy="79.0" fill="#ff0" r="3.0" stroke="#000"/><circle cx="395.0" cy="82.0" fill="#0f0" r="3.0" stroke="#000"/><circle cx="424.0" cy="94.0" fill="#00f" r="3.0" stroke="#000"/><circle cx="450.0" cy="110.0" fill="#a020f0" r="3.0" stroke="#000"/><circle cx="477.0" cy="127.0" fill="#a52a2a" r="3.0" stroke="#000"/><circle cx="498.0" cy="150.0" fill="#bebebe" r="3.0" stroke="#000"/><circle cx="511.0" cy="178.0" fill="#f00" r="3.0" stroke="#000"/><circle cx="520.0" cy="208.0" fill="#ffa500" r="3.0" stroke="#000"/><circle cx="526.0" cy="238.0" fill="#ff0" r="3.0" stroke="#000"/><circle cx="532.0" cy="269.0" fill="#0f0" r="3.0" stroke="#000"/><circle cx="528.0" cy="300.0" fill="#00f" r="3.0" stroke="#000"/><polyline fill="none" points="217.0,300.0 218.0,268.0 217.0,237.0 217.0,206.0 218.0,175.0 226.0,145.0 248.0,123.0 273.0,105.0 301.0,91.0 329.0,77.0 360.0,73.0 390.0,81.0 420.0,88.0 448.0,102.0 470.0,124.0 486.0,151.0 497.0,180.0 504.0,210.0 512.0,240.0 524.0,269.0 528.0,299.0" stroke="#000" stroke-linejoin="round"/><circle cx="217.0" cy="300.0" fill="#f00" r="3.0" stroke="#000"/><circle cx="218.0" cy="268.0" fill="#ffa500" r="3.0" stroke="#000"/><circle cx="217.0" cy="237.0" fill="#ff0" r="3.0" stroke="#000"/><circle cx="217.0" cy="206.0" fill="#0f0" r="3.0" stroke="#000"/><circle cx="218.0" cy="175.0" fill="#00f" r="3.0" stroke="#000"/><circle cx="226.0" cy="145.0" fill="#a020f0" r="3.0" stroke="#000"/><circle cx="248.0" cy="123.0" fill="#a52a2a" r="3.0" stroke="#000"/><circle cx="273.0" cy="105.0" fill="#bebebe" r="3.0" stroke="#000"/><circle cx="301.0" cy="91.0" fill="#f00" r="3.0" stroke="#000"/><circle cx="329.0" cy="77.0" fill="#ffa500" r="3.0" stroke="#000"/><circle cx="360.0" cy="73.0" fill="#ff0" r="3.0" stroke="#000"/><circle cx="390.0" cy="81.0" fill="#0f0" r="3.0" stroke="#000"/><circle cx="420.0" cy="88.0" fill="#00f" r="3.0" stroke="#000"/><circle cx="448.0" cy="102.0" fill="#a020f0" r="3.0" stroke="#000"/><circle cx="470.0" cy="124.0" fill="#a52a2a" r="3.0" stroke="#000"/><circle cx="486.0" cy="151.0" fill="#bebebe" r="3.0" stroke="#000"/><circle cx="497.0" cy="180.0" fill="#f00" r="3.0" stroke="#000"/><circle cx="504.0" cy="210.0" fill="#ffa500" r="3.0" stroke="#000"/><circle cx="512.0" cy="240.0" fill="#ff0" r="3.0" stroke="#000"/><circle cx="524.0" cy="269.0" fill="#0f0" r="3.0" stroke="#000"/><circle cx="528.0" cy="299.0" fill="#00f" r="3.0" stroke="#000"/><polyline fill="none" points="217.0,300.0 220.0,268.0 213.0,238.0 204.0,208.0 206.0,177.0 216.0,148.0 227.0,119.0 245.0,94.0 272.0,77.0 302.0,71.0 333.0,76.0 362.0,87.0 390.0,101.0 414.0,121.0 435.0,144.0 458.0,164.0 478.0,188.0 496.0,214.0 512.0,240.0 525.0,269.0 528.0,299.0" stroke="#000" stroke-linejoin="round"/><circle cx="217.0" cy="300.0" fill="#f00" r="3.0" stroke="#000"/><circle cx="220.0" cy="268.0" fill="#ffa500" r="3.0" stroke="#000"/><circle cx="213.0" cy="238.0" fill="#ff0" r="3.0" stroke="#000"/><circle cx="204.0" cy="208.0" fill="#0f0" r="3.0" stroke="#000"/><circle cx="206.0" cy="177.0" fill="#00f" r="3.0" stroke="#000"/><circle cx="216.0" cy="148.0" fill="#a020f0" r="3.0" stroke="#000"/><circle cx="227.0" cy="119.0" fill="#a52a2a" r="3.0" stroke="#000"/><circle cx="245.0" cy="94.0" fill="#bebebe" r="3.0" stroke="#000"/><circle cx="272.0" cy="77.0" fill="#f00" r="3.0" stroke="#000"/><circle cx="302.0" cy="71.0" fill="#ffa500" r="3.0" stroke="#000"/><circle cx="333.0" cy="76.0" fill="#ff0" r="3.0" stroke="#000"/><circle cx="362.0" cy="87.0" fill="#0f0" r="3.0" stroke="#000"/><circle cx="390.0" cy="101.0" fill="#00f" r="3.0" stroke="#000"/><circle cx="414.0" cy="121.0" fill="#a020f0" r="3.0" stroke="#000"/><circle cx="435.0" cy="144.0" fill="#a52a2a" r="3.0" stroke="#000"/><circle cx="458.0" cy="164.0" fill="#bebebe" r="3.0" stroke="#000"/><circle cx="478.0" cy="188.0" fill="#f00" r="3.0" stroke="#000"/><circle cx="496.0" cy="214.0" fill="#ffa500" r="3.0" stroke="#000"/><circle cx="512.0" cy="240.0" fill="#ff0" r="3.0" stroke="#000"/><circle cx="525.0" cy="269.0" fill="#0f0" r="3.0" stroke="#000"/><circle cx="528.0" cy="299.0" fill="#00f" r="3.0" stroke="#000"/><polyline fill="none" points="217.0,300.0 225.0,269.0 236.0,240.0 246.0,211.0 250.0,180.0 262.0,151.0 277.0,124.0 296.0,99.0 324.0,85.0 353.0,74.0 383.0,66.0 413.0,73.0 443.0,79.0 471.0,93.0 489.0,119.0 503.0,146.0 510.0,177.0 515.0,207.0 519.0,238.0 521.0,269.0 528.0,299.0" stroke="#000" stroke-linejoin="round"/><circle cx="217.0" cy="300.0" fill="#f00" r="3.0" stroke="#000"/><circle cx="225.0" cy="269.0" fill="#ffa500" r="3.0" stroke="#000"/><circle cx="236.0" cy="240.0" fill="#ff0" r="3.0" stroke="#000"/><circle cx="246.0" cy="211.0" fill="#0f0" r="3.0" stroke="#000"/><circle cx="250.0" cy="180.0" fill="#00f" r="3.0" stroke="#000"/><circle cx="262.0" cy="151.0" fill="#a020f0" r="3.0" stroke="#000"/><circle cx="277.0" cy="124.0" fill="#a52a2a" r="3.0" stroke="#000"/><circle cx="296.0" cy="99.0" fill="#bebebe" r="3.0" stroke="#000"/><circle cx="324.0" cy="85.0" fill="#f00" r="3.0" stroke="#000"/><circle cx="353.0" cy="74.0" fill="#ffa500" r="3.0" stroke="#000"/><circle cx="383.0" cy="66.0" fill="#ff0" r="3.0" stroke="#000"/><circle cx="413.0" cy="73.0" fill="#0f0" r="3.0" stroke="#000"/><circle cx="443.0" cy="79.0" fill="#00f" r="3.0" stroke="#000"/><circle cx="471.0" cy="93.0" fill="#a020f0" r="3.0" stroke="#000"/><circle cx="489.0" cy="119.0" fill="#a52a2a" r="3.0" stroke="#000"/><circle cx="503.0" cy="146.0" fill="#bebebe" r="3.0" stroke="#000"/><circle cx="510.0" cy="177.0" fill="#f00" r="3.0" stroke="#000"/><circle cx="515.0" cy="207.0" fill="#ffa500" r="3.0" stroke="#000"/><circle cx="519.0" cy="238.0" fill="#ff0" r="3.0" stroke="#000"/><circle cx="521.0" cy="269.0" fill="#0f0" r="3.0" stroke="#000"/><circle cx="528.0" cy="299.0" fill="#00f" r="3.0" stroke="#000"/><polyline fill="none" points="217.0,300.0 227.0,270.0 235.0,240.0 239.0,209.0 248.0,179.0 267.0,155.0 289.0,132.0 314.0,114.0 340.0,97.0 367.0,82.0 398.0,75.0 429.0,75.0 460.0,80.0 485.0,98.0 499.0,125.0 513.0,153.0 528.0,180.0 541.0,209.0 544.0,240.0 539.0,270.0 528.0,300.0" stroke="#000" stroke-linejoin="round"/><circle cx="217.0" cy="300.0" fill="#f00" r="3.0" stroke="#000"/><circle cx="227.0" cy="270.0" fill="#ffa500" r="3.0" stroke="#000"/><circle cx="235.0" cy="240.0" fill="#ff0" r="3.0" stroke="#000"/><circle cx="239.0" cy="209.0" fill="#0f0" r="3.0" stroke="#000"/><circle cx="248.0" cy="179.0" fill="#00f" r="3.0" stroke="#000"/><circle cx="267.0" cy="155.0" fill="#a020f0" r="3.0" stroke="#000"/><circle cx="289.0" cy="132.0" fill="#a52a2a" r="3.0" stroke="#000"/><circle cx="314.0" cy="114.0" fill="#bebebe" r="3.0" stroke="#000"/><circle cx="340.0" cy="97.0" fill="#f00" r="3.0" stroke="#000"/><circle cx="367.0" cy="82.0" fill="#ffa500" r="3.0" stroke="#000"/><circle cx="398.0" cy="75.0" fill="#ff0" r="3.0" stroke="#000"/><circle cx="429.0" cy="75.0" fill="#0f0" r="3.0" stroke="#000"/><circle cx="460.0" cy="80.0" fill="#00f" r="3.0" stroke="#000"/><circle cx="485.0" cy="98.0" fill="#a020f0" r="3.0" stroke="#000"/><circle cx="499.0" cy="125.0" fill="#a52a2a" r="3.0" stroke="#000"/><circle cx="513.0" cy="153.0" fill="#bebebe" r="3.0" stroke="#000"/><circle cx="528.0" cy="180.0" fill="#f00" r="3.0" stroke="#000"/><circle cx="541.0" cy="209.0" fill="#ffa500" r="3.0" stroke="#000"/><circle cx="544.0" cy="240.0" fill="#ff0" r="3.0" stroke="#000"/><circle cx="539.0" cy="270.0" fill="#0f0" r="3.0" stroke="#000"/><circle cx="528.0" cy="300.0" fill="#00f" r="3.0" stroke="#000"/><polyline fill="none" points="217.0,300.0 236.0,324.0 255.0,349.0 276.0,372.0 294.0,397.0 310.0,424.0 333.0,445.0 356.0,466.0 380.0,486.0 405.0,505.0 434.0,514.0 465.0,519.0 496.0,517.0 524.0,504.0 542.0,478.0 553.0,449.0 555.0,418.0 553.0,387.0 553.0,356.0 544.0,327.0 528.0,299.0" stroke="#000" stroke-linejoin="round"/><circle cx="217.0" cy="300.0" fill="#f00" r="3.0" stroke="#000"/><circle cx="236.0" cy="324.0" fill="#ffa500" r="3.0" stroke="#000"/><circle cx="255.0" cy="349.0" fill="#ff0" r="3.0" stroke="#000"/><circle cx="276.0" cy="372.0" fill="#0f0" r="3.0" stroke="#000"/><circle cx="294.0" cy="397.0" fill="#00f" r="3.0" stroke="#000"/><circle cx="310.0" cy="424.0" fill="#a020f0" r="3.0" stroke="#000"/><circle cx="333.0" cy="445.0" fill="#a52a2a" r="3.0" stroke="#000"/><circle cx="356.0" cy="466.0" fill="#bebebe" r="3.0" stroke="#000"/><circle cx="380.0" cy="486.0" fill="#f00" r="3.0" stroke="#000"/><circle cx="405.0" cy="505.0" fill="#ffa500" r="3.0" stroke="#000"/><circle cx="434.0" cy="514.0" fill="#ff0" r="3.0" stroke="#000"/><circle cx="465.0" cy="519.0" fill="#0f0" r="3.0" stroke="#000"/><circle cx="496.0" cy="517.0" fill="#00f" r="3.0" stroke="#000"/><circle cx="524.0" cy="504.0" fill="#a020f0" r="3.0" stroke="#000"/><circle cx="542.0" cy="478.0" fill="#a52a2a" r="3.0" stroke="#000"/><circle cx="553.0" cy="449.0" fill="#bebebe" r="3.0" stroke="#000"/><circle cx="555.0" cy="418.0" fill="#f00" r="3.0" stroke="#000"/><circle cx="553.0" cy="387.0" fill="#ffa500" r="3.0" stroke="#000"/><circle cx="553.0" cy="356.0" fill="#ff0" r="3.0" stroke="#000"/><circle cx="544.0" cy="327.0" fill="#0f0" r="3.0" stroke="#000"/><circle cx="528.0" cy="299.0" fill="#00f" r="3.0" stroke="#000"/><polyline fill="none" points="217.0,300.0 219.0,331.0 212.0,361.0 213.0,392.0 223.0,421.0 234.0,450.0 249.0,478.0 268.0,502.0 296.0,516.0 326.0,523.0 357.0,526.0 388.0,526.0 417.0,513.0 443.0,497.0 465.0,475.0 476.0,446.0 486.0,416.0 497.0,387.0 507.0,358.0 515.0,327.0 528.0,299.0" stroke="#000" stroke-linejoin="round"/><circle cx="217.0" cy="300.0" fill="#f00" r="3.0" stroke="#000"/><circle cx="219.0" cy="331.0" fill="#ffa500" r="3.0" stroke="#000"/><circle cx="212.0" cy="361.0" fill="#ff0" r="3.0" stroke="#000"/><circle cx="213.0" cy="392.0" fill="#0f0" r="3.0" stroke="#000"/><circle cx="223.0" cy="421.0" fill="#00f" r="3.0" stroke="#000"/><circle cx="234.0" cy="450.0" fill="#a020f0" r="3.0" stroke="#000"/><circle cx="249.0" cy="478.0" fill="#a52a2a" r="3.0" stroke="#000"/><circle cx="268.0" cy="502.0" fill="#bebebe" r="3.0" stroke="#000"/><circle cx="296.0" cy="516.0" fill="#f00" r="3.0" stroke="#000"/><circle cx="326.0" cy="523.0" fill="#ffa500" r="3.0" stroke="#000"/><circle cx="357.0" cy="526.0" fill="#ff0" r="3.0" stroke="#000"/><circle cx="388.0" cy="526.0" fill="#0f0" r="3.0" stroke="#000"/><circle cx="417.0" cy="513.0" fill="#00f" r="3.0" stroke="#000"/><circle cx="443.0" cy="497.0" fill="#a020f0" r="3.0" stroke="#000"/><circle cx="465.0" cy="475.0" fill="#a52a2a" r="3.0" stroke="#000"/><circle cx="476.0" cy="446.0" fill="#bebebe" r="3.0" stroke="#000"/><circle cx="486.0" cy="416.0" fill="#f00" r="3.0" stroke="#000"/><circle cx="497.0" cy="387.0" fill="#ffa500" r="3.0" stroke="#000"/><circle cx="507.0" cy="358.0" fill="#ff0" r="3.0" stroke="#000"/><circle cx="515.0" cy="327.0" fill="#0f0" r="3.0" stroke="#000"/><circle cx="528.0" cy="299.0" fill="#00f" r="3.0" stroke="#000"/><polyline fill="none" points="217.0,300.0 228.0,270.0 242.0,243.0 255.0,214.0 263.0,184.0 275.0,156.0 291.0,129.0 313.0,106.0 333.0,82.0 361.0,70.0 392.0,74.0 423.0,79.0 451.0,92.0 479.0,106.0 503.0,125.0 520.0,151.0 532.0,180.0 542.0,210.0 547.0,241.0 541.0,271.0 528.0,300.0" stroke="#000" stroke-linejoin="round"/><circle cx="217.0" cy="300.0" fill="#f00" r="3.0" stroke="#000"/><circle cx="228.0" cy="270.0" fill="#ffa500" r="3.0" stroke="#000"/><circle cx="242.0" cy="243.0" fill="#ff0" r="3.0" stroke="#000"/><circle cx="255.0" cy="214.0" fill="#0f0" r="3.0" stroke="#000"/><circle cx="263.0" cy="184.0" fill="#00f" r="3.0" stroke="#000"/><circle cx="275.0" cy="156.0" fill="#a020f0" r="3.0" stroke="#000"/><circle cx="291.0" cy="129.0" fill="#a52a2a" r="3.0" stroke="#000"/><circle cx="313.0" cy="106.0" fill="#bebebe" r="3.0" stroke="#000"/><circle cx="333.0" cy="82.0" fill="#f00" r="3.0" stroke="#000"/><circle cx="361.0" cy="70.0" fill="#ffa500" r="3.0" stroke="#000"/><circle cx="392.0" cy="74.0" fill="#ff0" r="3.0" stroke="#000"/><circle cx="423.0" cy="79.0" fill="#0f0" r="3.0" stroke="#000"/><circle cx="451.0" cy="92.0" fill="#00f" r="3.0" stroke="#000"/><circle cx="479.0" cy="106.0" fill="#a020f0" r="3.0" stroke="#000"/><circle cx="503.0" cy="125.0" fill="#a52a2a" r="3.0" stroke="#000"/><circle cx="520.0" cy="151.0" fill="#bebebe" r="3.0" stroke="#000"/><circle cx="532.0" cy="180.0" fill="#f00" r="3.0" stroke="#000"/><circle cx="542.0" cy="210.0" fill="#ffa500" r="3.0" stroke="#000"/><circle cx="547.0" cy="241.0" fill="#ff0" r="3.0" stroke="#000"/><circle cx="541.0" cy="271.0" fill="#0f0" r="3.0" stroke="#000"/><circle cx="528.0" cy="300.0" fill="#00f" r="3.0" stroke="#000"/><polyline fill="none" points="217.0,300.0 234.0,326.0 246.0,354.0 253.0,385.0 262.0,415.0 282.0,438.0 304.0,460.0 331.0,475.0 357.0,492.0 383.0,511.0 411.0,524.0 442.0,524.0 472.0,518.0 499.0,503.0 518.0,478.0 530.0,449.0 540.0,420.0 548.0,390.0 548.0,359.0 539.0,329.0 528.0,299.0" stroke="#000" stroke-linejoin="round"/><circle cx="217.0" cy="300.0" fill="#f00" r="3.0" stroke="#000"/><circle cx="234.0" cy="326.0" fill="#ffa500" r="3.0" stroke="#000"/><circle cx="246.0" cy="354.0" fill="#ff0" r="3.0" stroke="#000"/><circle cx="253.0" cy="385.0" fill="#0f0" r="3.0" stroke="#000"/><circle cx="262.0" cy="415.0" fill="#00f" r="3.0" stroke="#000"/><circle cx="282.0" cy="438.0" fill="#a020f0" r="3.0" stroke="#000"/><circle cx="304.0" cy="460.0" fill="#a52a2a" r="3.0" stroke="#000"/><circle cx="331.0" cy="475.0" fill="#bebebe" r="3.0" stroke="#000"/><circle cx="357.0" cy="492.0" fill="#f00" r="3.0" stroke="#000"/><circle cx="383.0" cy="511.0" fill="#ffa500" r="3.0" stroke="#000"/><circle cx="411.0" cy="524.0" fill="#ff0" r="3.0" stroke="#000"/><circle cx="442.0" cy="524.0" fill="#0f0" r="3.0" stroke="#000"/><circle cx="472.0" cy="518.0" fill="#00f" r="3.0" stroke="#000"/><circle cx="499.0" cy="503.0" fill="#a020f0" r="3.0" stroke="#000"/><circle cx="518.0" cy="478.0" fill="#a52a2a" r="3.0" stroke="#000"/><circle cx="530.0" cy="449.0" fill="#bebebe" r="3.0" stroke="#000"/><circle cx="540.0" cy="420.0" fill="#f00" r="3.0" stroke="#000"/><circle cx="548.0" cy="390.0" fill="#ffa500" r="3.0" stroke="#000"/><circle cx="548.0" cy="359.0" fill="#ff0" r="3.0" stroke="#000"/><circle cx="539.0" cy="329.0" fill="#0f0" r="3.0" stroke="#000"/><circle cx="528.0" cy="299.0" fill="#00f" r="3.0" stroke="#000"/></svg>