<?xml version="1.0" ?><!DOCTYPE svg  PUBLIC '-//W3C//DTD SVG 1.1//EN'  'http://www.w3.org/Graphics/SVG/1.1/DTD/svg11.dtd'><svg height="620.000" viewBox="-9.000 -9.000 820.000 620.000" width="820.000" xmlns="http://www.w3.org/2000/svg"><rect fill="#fff" height="598.0" stroke="#000" width="798.0" x="2.0" y="2.0"/><polyline fill="none" points="217.0,300.0 233.0,273.0 248.0,246.0 264.0,219.0 280.0,192.0 295.0,165.0 311.0,138.0 326.0,111.0 342.0,84.0 357.0,57.0 373.0,30.0 388.0,57.0 404.0,84.0 420.0,111.0 435.0,138.0 451.0,165.0 466.0,192.0 482.0,219.0 497.0,246.0 513.0,273.0 528.0,300.0" stroke="#000" stroke-linejoin="round"/><circle cx="217.0" cy="300.0" fill="#f00" r="3.0" stroke="#000"/><circle cx="233.0" cy="273.0" fill="#ffa500" r="3.0" stroke="#000"/><circle cx="248.0" cy="246.0" fill="#ff0" r="3.0" stroke="#000"/><circle cx="264.0" cy="219.0" fill="#0f0" r="3.0" stroke="#000"/><circle cx="280.0" cy="192.0" fill="#00f" r="3.0" stroke="#000"/><circle cx="295.0" cy="165.0" fill="#a020f0" r="3.0" stroke="#000"/><circle cx="311.0" cy="138.0" fill="#a52a2a" r="3.0" stroke="#000"/><circle cx="326.0" cy="111.0" fill="#bebebe" r="3.0" stroke="#000"/><circle cx="342.0" cy="84.0" fill="#f00" r="3.0" stroke="#000"/><circle cx="357.0" cy="57.0" fill="#ffa500" r="3.0" stroke="#000"/><circle cx="373.0" cy="30.0" fill="#ff0" r="3.0" stroke="#000"/><circle cx="388.0" cy="57.0" fill="#0f0" r="3.0" stroke="#000"/><circle cx="404.0" cy="84.0" fill="#00f" r="3.0" stroke="#000"/><circle cx="420.0" cy="111.0" fill="#a020f0" r="3.0" stroke="#000"/><circle cx="435.0" cy="138.0" fill="#a52a2a" r="3.0" stroke="#000"/><circle cx="451.0" cy="165.0" fill="#bebebe" r="3.0" stroke="#000"/><circle cx="466.0" cy="192.0" fill="#f00" r="3.0" stroke="#000"/><circle cx="482.0" cy="219.0" fill="#ffa500" r="3.0" stroke="#000"/><circle cx="497.0" cy="246.0" fill="#ff0" r="3.0" stroke="#000"/><circle cx="513.0" cy="273.0" fill="#0f0" r="3.0" stroke="#000"/><circle cx="528.0" cy="300.0" fill="#00f" r="3.0" stroke="#000"/><polyline fill="none" points="217.0,300.0 234.0,273.0 252.0,248.0 269.0,222.0 285.0,195.0 296.0,166.0 308.0,137.0 323.0,110.0 336.0,82.0 359.0,61.0 388.0,50.0 419.0,50.0 441.0,71.0 451.0,101.0 452.0,132.0 457.0,162.0 472.0,190.0 480.0,220.0 497.0,246.0 511.0,274.0 528.0,300.0" stroke="#000" stroke-linejoin="round"/><circle cx="217.0" cy="300.0" fill="#f00" r="3.0" stroke="#000"/><circle cx="234.0" cy="273.0" fill="#ffa500" r="3.0" stroke="#000"/><circle cx="252.0" cy="248.0" fill="#ff0" r="3.0" stroke="#000"/><circle cx="269.0" cy="222.0" fill="#0f0" r="3.0" stroke="#000"/><circle cx="285.0" cy="195.0" fill="#00f" r="3.0" stroke="#000"/><circle cx="296.0" cy="166.0" fill="#a020f0" r="3.0" stroke="#000"/><circle cx="308.0" cy="137.0" fill="#a52a2a" r="3.0" stroke="#000"/><circle cx="323.0" cy="110.0" fill="#bebebe" r="3.0" stroke="#000"/><circle cx="336.0" cy="82.0" fill="#f00" r="3.0" stroke="#000"/><circle cx="359.0" cy="61.0" fill="#ffa500" r="3.0" stroke="#000"/><circle cx="388.0" cy="50.0" fill="#ff0" r="3.0" stroke="#000"/><circle cx="419.0" cy="50.0" fill="#0f0" r="3.0" stroke="#000"/><circle cx="441.0" cy="71.0" fill="#00f" r="3.0" stroke="#000"/><circle cx="451.0" cy="101.0" fill="#a020f0" r="3.0" stroke="#000"/><circle cx="452.0" cy="132.0" fill="#a52a2a" r="3.0" stroke="#000"/><circle cx="457.0" cy="162.0" fill="#bebebe" r="3.0" stroke="#000"/><circle cx="472.0" cy="190.0" fill="#f00" r="3.0" stroke="#000"/><circle cx="480.0" cy="220.0" fill="#ffa500" r="3.0" stroke="#000"/><circle cx="497.0" cy="246.0" fill="#ff0" r="3.0" stroke="#000"/><circle cx="511.0" cy="274.0" fill="#0f0" r="3.0" stroke="#000"/><circle cx="528.0" cy="300.0" fill="#00f" r="3.0" stroke="#000"/><polyline fill="none" points="217.0,300.0 232.0,272.0 248.0,246.0 263.0,218.0 273.0,189.0 291.0,163.0 314.0,143.0 329.0,115.0 345.0,88.0 366.0,66.0 388.0,44.0 418.0,51.0 438.0,75.0 450.0,104.0 457.0,134.0 465.0,164.0 466.0,195.0 474.0,225.0 487.0,253.0 505.0,279.0 528.0,300.0" stroke="#000" stroke-linejoin="round"/><circle cx="217.0" cy="300.0" fill="#f00" r="3.0" stroke="#000"/><circle cx="232.0" cy="272.0" fill="#ffa500" r="3.0" stroke="#000"/><circle cx="248.0" cy="246.0" fill="#ff0" r="3.0" stroke="#000"/><circle cx="263.0" cy="218.0" fill="#0f0" r="3.0" stroke="#000"/><circle cx="273.0" cy="189.0" fill="#00f" r="3.0" stroke="#000"/><circle cx="291.0" cy="163.0" fill="#a020f0" r="3.0" stroke="#000"/><circle cx="314.0" cy="143.0" fill="#a52a2a" r="3.0" stroke="#000"/><circle cx="329.0" cy="115.0" fill="#bebebe" r="3.0" stroke="#000"/><circle cx="345.0" cy="88.0" fill="#f00" r="3.0" stroke="#000"/><circle cx="366.0" cy="66.0" fill="#ffa500" r="3.0" stroke="#000"/><circle cx="388.0" cy="44.0" fill="#ff0" r="3.0" stroke="#000"/><circle cx="418.0" cy="51.0" fill="#0f0" r="3.0" stroke="#000"/><circle cx="438.0" cy="75.0" fill="#00f" r="3.0" stroke="#000"/><circle cx="450.0" cy="104.0" fill="#a020f0" r="3.0" stroke="#000"/><circle cx="457.0" cy="134.0" fill="#a52a2a" r="3.0" stroke="#000"/><circle cx="465.0" cy="164.0" fill="#bebebe" r="3.0" stroke="#000"/><circle cx="466.0" cy="195.0" fill="#f00" r="3.0" stroke="#000"/><circle cx="474.0" cy="225.0" fill="#ffa500" r="3.0" stroke="#000"/><circle cx="487.0" cy="253.0" fill="#ff0" r="3.0" stroke="#000"/><circle cx="505.0" cy="279.0" fill="#0f0" r="3.0" stroke="#000"/><circle cx="528.0" cy="300.0" fill="#00f" r="3.0" stroke="#000"/><polyline fill="none" points="217.0,300.0 230.0,271.0 243.0,243.0 261.0,217.0 277.0,191.0 296.0,166.0 316.0,142.0 328.0,113.0 341.0,85.0 357.0,59.0 383.0,41.0 412.0,53.0 431.0,78.0 442.0,106.0 452.0,136.0 460.0,166.0 464.0,197.0 473.0,227.0 484.0,256.0 507.0,277.0 528.0,300.0" stroke="#000" stroke-linejoin="round"/><circle cx="217.0" cy="300.0" fill="#f00" r="3.0" stroke="#000"/><circle cx="230.0" cy="271.0" fill="#ffa500" r="3.0" stroke="#000"/><circle cx="243.0" cy="243.0" fill="#ff0" r="3.0" stroke="#000"/><circle cx="261.0" cy="217.0" fill="#0f0" r="3.0" stroke="#000"/><circle cx="277.0" cy="191.0" fill="#00f" r="3.0" stroke="#000"/><circle cx="296.0" cy="166.0" fill="#a020f0" r="3.0" stroke="#000"/><circle cx="316.0" cy="142.0" fill="#a52a2a" r="3.0" stroke="#000"/><circle cx="328.0" cy="113.0" fill="#bebebe" r="3.0" stroke="#000"/><circle cx="341.0" cy="85.0" fill="#f00" r="3.0" stroke="#000"/><circle cx="357.0" cy="59.0" fill="#ffa500" r="3.0" stroke="#000"/><circle cx="383.0" cy="41.0" fill="#ff0" r="3.0" stroke="#000"/><circle cx="412.0" cy="53.0" fill="#0f0" r="3.0" stroke="#000"/><circle cx="431.0" cy="78.0" fill="#00f" r="3.0" stroke="#000"/><circle cx="442.0" cy="106.0" fill="#a020f0" r="3.0" stroke="#000"/><circle cx="452.0" cy="136.0" fill="#a52a2a" r="3.0" stroke="#000"/><circle cx="460.0" cy="166.0" fill="#bebebe" r="3.0" stroke="#000"/><circle cx="464.0" cy="197.0" fill="#f00" r="3.0" stroke="#000"/><circle cx="473.0" cy="227.0" fill="#ffa500" r="3.0" stroke="#000"/><circle cx="484.0" cy="256.0" fill="#ff0" r="3.0" stroke="#000"/><circle cx="507.0" cy="277.0" fill="#0f0" r="3.0" stroke="#000"/><circle cx="528.0" cy="300.0" fill="#00f" r="3.0" stroke="#000"/><polyline fill="none" points="217.0,300.0 228.0,270.0 238.0,241.0 253.0,213.0 267.0,186.0 286.0,161.0 304.0,136.0 314.0,106.0 331.0,80.0 349.0,55.0 378.0,42.0 404.0,59.0 427.0,80.0 439.0,109.0 440.0,140.0 454.0,168.0 478.0,187.0 493.0,215.0 509.0,241.0 524.0,269.0 528.0,300.0" stroke="#000" stroke-linejoin="round"/><circle cx="217.0" cy="300.0" fill="#f00" r="3.0" stroke="#000"/><circle cx="228.0" cy="270.0" fill="#ffa500" r="3.0" stroke="#000"/><circle cx="238.0" cy="241.0" fill="#ff0" r="3.0" stroke="#000"/><circle cx="253.0" cy="213.0" fill="#0f0" r="3.0" stroke="#000"/><circle cx="267.0" cy="186.0" fill="#00f" r="3.0" stroke="#000"/><circle cx="286.0" cy="161.0" fill="#a020f0" r="3.0" stroke="#000"/><circle cx="304.0" cy="136.0" fill="#a52a2a" r="3.0" stroke="#000"/><circle cx="314.0" cy="106.0" fill="#bebebe" r="3.0" stroke="#000"/><circle cx="331.0" cy="80.0" fill="#f00" r="3.0" stroke="#000"/><circle cx="349.0" cy="55.0" fill="#ffa500" r="3.0" stroke="#000"/><circle cx="378.0" cy="42.0" fill="#ff0" r="3.0" stroke="#000"/><circle cx="404.0" cy="59.0" fill="#0f0" r="3.0" stroke="#000"/><circle cx="427.0" cy="80.0" fill="#00f" r="3.0" stroke="#000"/><circle cx="439.0" cy="109.0" fill="#a020f0" r="3.0" stroke="#000"/><circle cx="440.0" cy="140.0" fill="#a52a2a" r="3.0" stroke="#000"/><circle cx="454.0" cy="168.0" fill="#bebebe" r="3.0" stroke="#000"/><circle cx="478.0" cy="187.0" fill="#f00" r="3.0" stroke="#000"/><circle cx="493.0" cy="215.0" fill="#ffa500" r="3.0" stroke="#000"/><circle cx="509.0" cy="241.0" fill="#ff0" r="3.0" stroke="#000"/><circle cx="524.0" cy="269.0" fill="#0f0" r="3.0" stroke="#000"/><circle cx="528.0" cy="300.0" fill="#00f" r="3.0" stroke="#000"/><polyline fill="none" points="217.0,300.0 230.0,271.0 239.0,241.0 251.0,213.0 265.0,185.0 279.0,157.0 293.0,129.0 304.0,100.0 322.0,75.0 350.0,61.0 380.0,54.0 411.0,55.0 434.0,76.0 447.0,104.0 463.0,131.0 484.0,154.0 501.0,180.0 507.0,211.0 510.0,242.0 512.0,273.0 528.0,300.0" stroke="#000" stroke-linejoin="round"/><circle cx="217.0" cy="300.0" fill="#f00" r="3.0" stroke="#000"/><circle cx="230.0" cy="271.0" fill="#ffa500" r="3.0" stroke="#000"/><circle cx="239.0" cy="241.0" fill="#ff0" r="3.0" stroke="#000"/><circle cx="251.0" cy="213.0" fill="#0f0" r="3.0" stroke="#000"/><circle cx="265.0" cy="185.0" fill="#00f" r="3.0" stroke="#000"/><circle cx="279.0" cy="157.0" fill="#a020f0" r="3.0" stroke="#000"/><circle cx="293.0" cy="129.0" fill="#a52a2a" r="3.0" stroke="#000"/><circle cx="304.0" cy="100.0" fill="#bebebe" r="3.0" stroke="#000"/><circle cx="322.0" cy="75.0" fill="#f00" r="3.0" stroke="#000"/><circle cx="350.0" cy="61.0" fill="#ffa500" r="3.0" stroke="#000"/><circle cx="380.0" cy="54.0" fill="#ff0" r="3.0" stroke="#000"/><circle cx="411.0" cy="55.0" fill="#0f0" r="3.0" stroke="#000"/><circle cx="434.0" cy="76.0" fill="#00f" r="3.0" stroke="#000"/><circle cx="447.0" cy="104.0" fill="#a020f0" r="3.0" stroke="#000"/><circle cx="463.0" cy="131.0" fill="#a52a2a" r="3.0" stroke="#000"/><circle cx="484.0" cy="154.0" fill="#bebebe" r="3.0" stroke="#000"/><circle cx="501.0" cy="180.0" fill="#f00" r="3.0" stroke="#000"/><circle cx="507.0" cy="211.0" fill="#ffa500" r="3.0" stroke="#000"/><circle cx="510.0" cy="242.0" fill="#ff0" r="3.0" stroke="#000"/><circle cx="512.0" cy="273.0" fill="#0f0" r="3.0" stroke="#000"/><circle cx="528.0" cy="300.0" fill="#00f" r="3.0" stroke="#000"/><polyline fill="none" points="217.0,300.0 232.0,272.0 245.0,244.0 254.0,214.0 265.0,185.0 274.0,155.0 290.0,128.0 307.0,103.0 319.0,74.0 346.0,59.0 377.0,54.0 406.0,65.0 433.0,82.0 456.0,102.0 479.0,123.0 493.0,151.0 504.0,180.0 518.0,208.0 516.0,239.0 519.0,270.0 528.0,300.0" stroke="#000" stroke-linejoin="round"/><circle cx="217.0" cy="300.0" fill="#f00" r="3.0" stroke="#000"/><circle cx="232.0" cy="272.0" fill="#ffa500" r="3.0" stroke="#000"/><circle cx="245.0" cy="244.0" fill="#ff0" r="3.0" stroke="#000"/><circle cx="254.0" cy="214.0" fill="#0f0" r="3.0" stroke="#000"/><circle cx="265.0" cy="185.0" fill="#00f" r="3.0" stroke="#000"/><circle cx="274.0" cy="155.0" fill="#a020f0" r="3.0" stroke="#000"/><circle cx="290.0" cy="128.0" fill="#a52a2a" r="3.0" stroke="#000"/><circle cx="307.0" cy="103.0" fill="#bebebe" r="3.0" stroke="#000"/><circle cx="319.0" cy="74.0" fill="#f00" r="3.0" stroke="#000"/><circle cx="346.0" cy="59.0" fill="#ffa500" r="3.0" stroke="#000"/><circle cx="377.0" cy="54.0" fill="#ff0" r="3.0" stroke="#000"/><circle cx="406.0" cy="65.0" fill="#0f0" r="3.0" stroke="#000"/><circle cx="433.0" cy="82.0" fill="#00f" r="3.0" stroke="#000"/><circle cx="456.0" cy="102.0" fill="#a020f0" r="3.0" stroke="#000"/><circle cx="479.0" cy="123.0" fill="#a52a2a" r="3.0" stroke="#000"/><circle cx="493.0" cy="151.0" fill="#bebebe" r="3.0" stroke="#000"/><circle cx="504.0" cy="180.0" fill="#f00" r="3.0" stroke="#000"/><circle cx="518.0" cy="208.0" fill="#ffa500" r="3.0" stroke="#000"/><circle cx="516.0" cy="239.0" fill="#ff0" r="3.0" stroke="#000"/><circle cx="519.0" cy="270.0" fill="#0f0" r="3.0" stroke="#000"/><circle cx="528.0" cy="300.0" fill="#00f" r="3.0" stroke="#000"/><polyline fill="none" points="217.0,300.0 229.0,270.0 241.0,242.0 257.0,215.0 264.0,185.0 276.0,156.0 286.0,126.0 301.0,100.0 315.0,72.0 343.0,58.0 374.0,57.0 402.0,71.0 430.0,85.0 455.0,102.0 479.0,123.0 487.0,153.0 499.0,182.0 516.0,208.0 525.0,238.0 529.0,268.0 528.0,300.0" stroke="#000" stroke-linejoin="round"/><circle cx="217.0" cy="300.0" fill="#f00" r="3.0" stroke="#000"/><circle cx="229.0" cy="270.0" fill="#ffa500" r="3.0" stroke="#000"/><circle cx="241.0" cy="242.0" fill="#ff0" r="3.0" stroke="#000"/><circle cx="257.0" cy="215.0" fill="#0f0" r="3.0" stroke="#000"/><circle cx="264.0" cy="185.0" fill="#00f" r="3.0" stroke="#000"/><circle cx="276.0" cy="156.0" fill="#a020f0" r="3.0" stroke="#000"/><circle cx="286.0" cy="126.0" fill="#a52a2a" r="3.0" stroke="#000"/><circle cx="301.0" cy="100.0" fill="#bebebe" r="3.0" stroke="#000"/><circle cx="315.0" cy="72.0" fill="#f00" r="3.0" stroke="#000"/><circle cx="343.0" cy="58.0" fill="#ffa500" r="3.0" stroke="#000"/><circle cx="374.0" cy="57.0" fill="#ff0" r="3.0" stroke="#000"/><circle cx="402.0" cy="71.0" fill="#0f0" r="3.0" stroke="#000"/><circle cx="430.0" cy="85.0" fill="#00f" r="3.0" stroke="#000"/><circle cx="455.0" cy="102.0" fill="#a020f0" r="3.0" stroke="#000"/><circle cx="479.0" cy="123.0" fill="#a52a2a" r="3.0" stroke="#000"/><circle cx="487.0" cy="153.0" fill="#bebebe" r="3.0" stroke="#000"/><circle cx="499.0" cy="182.0" fill="#f00" r="3.0" stroke="#000"/><circle cx="516.0" cy="208.0" fill="#ffa500" r="3.0" stroke="#000"/><circle cx="525.0" cy="238.0" fill="#ff0" r="3.0" stroke="#000"/><circle cx="529.0" cy="268.0" fill="#0f0" r="3.0" stroke="#000"/><circle cx="528.0" cy="300.0" fill="#00f" r="3.0" stroke="#000"/><polyline fill="none" points="217.0,300.0 226.0,270.0 233.0,239.0 242.0,209.0 250.0,180.0 263.0,151.0 279.0,125.0 302.0,104.0 320.0,78.0 345.0,60.0 375.0,66.0 406.0,65.0 435.0,78.0 453.0,103.0 474.0,126.0 493.0,151.0 508.0,178.0 520.0,207.0 526.0,237.0 526.0,268.0 528.0,300.0" stroke="#000" stroke-linejoin="round"/><circle cx="217.0" cy="300.0" fill="#f00" r="3.0" stroke="#000"/><circle cx="226.0" cy="270.0" fill="#ffa500" r="3.0" stroke="#000"/><circle cx="233.0" cy="239.0" fill="#ff0" r="3.0" stroke="#000"/><circle cx="242.0" cy="209.0" fill="#0f0" r="3.0" stroke="#000"/><circle cx="250.0" cy="180.0" fill="#00f" r="3.0" stroke="#000"/><circle cx="263.0" cy="151.0" fill="#a020f0" r="3.0" stroke="#000"/><circle cx="279.0" cy="125.0" fill="#a52a2a" r="3.0" stroke="#000"/><circle cx="302.0" cy="104.0" fill="#bebebe" r="3.0" stroke="#000"/><circle cx="320.0" cy="78.0" fill="#f00" r="3.0" stroke="#000"/><circle cx="345.0" cy="60.0" fill="#ffa500" r="3.0" stroke="#000"/><circle cx="375.0" cy="66.0" fill="#ff0" r="3.0" stroke="#000"/><circle cx="406.0" cy="65.0" fill="#0f0" r="3.0" stroke="#000"/><circle cx="435.0" cy="78.0" fill="#00f" r="3.0" stroke="#000"/><circle cx="453.0" cy="103.0" fill="#a020f0" r="3.0" stroke="#000"/><circle cx="474.0" cy="126.0" fill="#a52a2a" r="3.0" stroke="#000"/><circle cx="493.0" cy="151.0" fill="#bebebe" r="3.0" stroke="#000"/><circle cx="508.0" cy="178.0" fill="#f00" r="3.0" stroke="#000"/><circle cx="520.0" cy="207.0" fill="#ffa500" r="3.0" stroke="#000"/><circle cx="526.0" cy="237.0" fill="#ff0" r="3.0" stroke="#000"/><circle cx="526.0" cy="268.0" fill="#0f0" r="3.0" stroke="#000"/><circle cx="528.0" cy="300.0" fill="#00f" r="3.0" stroke="#000"/><polyline fill="none" points="217.0,300.0 226.0,270.0 244.0,244.0 257.0,216.0 275.0,191.0 288.0,163.0 301.0,134.0 309.0,104.0 318.0,75.0 344.0,57.0 375.0,56.0 406.0,63.0 431.0,81.0 446.0,108.0 463.0,134.0 483.0,158.0 505.0,180.0 519.0,208.0 528.0,238.0 524.0,269.0 528.0,300.0" stroke="#000" stroke-linejoin="round"/><circle cx="217.0" cy="300.0" fill="#f00" r="3.0" stroke="#000"/><circle cx="226.0" cy="270.0" fill="#ffa500" r="3.0" stroke="#000"/><circle cx="244.0" cy="244.0" fill="#ff0" r="3.0" stroke="#000"/><circle cx="257.0" cy="216.0" fill="#0f0" r="3.0" stroke="#000"/><circle cx="275.0" cy="191.0" fill="#00f" r="3.0" stroke="#000"/><circle cx="288.0" cy="163.0" fill="#a020f0" r="3.0" stroke="#000"/><circle cx="301.0" cy="134.0" fill="#a52a2a" r="3.0" stroke="#000"/><circle cx="309.0" cy="104.0" fill="#bebebe" r="3.0" stroke="#000"/><circle cx="318.0" cy="75.0" fill="#f00" r="3.0" stroke="#000"/><circle cx="344.0" cy="57.0" fill="#ffa500" r="3.0" stroke="#000"/><circle cx="375.0" cy="56.0" fill="#ff0" r="3.0" stroke="#000"/><circle cx="406.0" cy="63.0" fill="#0f0" r="3.0" stroke="#000"/><circle cx="431.0" cy="81.0" fill="#00f" r="3.0" stroke="#000"/><circle cx="446.0" cy="108.0" fill="#a020f0" r="3.0" stroke="#000"/><circle cx="463.0" cy="134.0" fill="#a52a2a" r="3.0" stroke="#000"/><circle cx="483.0" cy="158.0" fill="#bebebe" r="3.0" stroke="#000"/><circle cx="505.0" cy="180.0" fill="#f00" r="3.0" stroke="#000"/><circle cx="519.0" cy="208.0" fill="#ffa500" r="3.0" stroke="#000"/><circle cx="528.0" cy="238.0" fill="#ff0" r="3.0" stroke="#000"/><circle cx="524.0" cy="269.0" fill="#0f0" r="3.0" stroke="#000"/><circle cx="528.0" cy="300.0" fill="#00f" r="3.0" stroke="#000"/><polyline fill="none" points="217.0,300.0 228.0,270.0 246.0,245.0 257.0,216.0 271.0,188.0 279.0,158.0 288.0,128.0 303.0,101.0 325.0,79.0 348.0,58.0 378.0,48.0 405.0,63.0 424.0,88.0 442.0,113.0 464.0,135.0 483.0,160.0 504.0,183.0 524.0,207.0 528.0,238.0 532.0,269.0 528.0,300.0" stroke="#000" stroke-linejoin="round"/><circle cx="217.0" cy="300.0" fill="#f00" r="3.0" stroke="#000"/><circle cx="228.0" cy="270.0" fill="#ffa500" r="3.0" stroke="#000"/><circle cx="246.0" cy="245.0" fill="#ff0" r="3.0" stroke="#000"/><circle cx="257.0" cy="216.0" fill="#0f0" r="3.0" stroke="#000"/><circle cx="271.0" cy="188.0" fill="#00f" r="3.0" stroke="#000"/><circle cx="279.0" cy="158.0" fill="#a020f0" r="3.0" stroke="#000"/><circle cx="288.0" cy="128.0" fill="#a52a2a" r="3.0" stroke="#000"/><circle cx="303.0" cy="101.0" fill="#bebebe" r="3.0" stroke="#000"/><circle cx="325.0" cy="79.0" fill="#f00" r="3.0" stroke="#000"/><circle cx="348.0" cy="58.0" fill="#ffa500" r="3.0" stroke="#000"/><circle cx="378.0" cy="48.0" fill="#ff0" r="3.0" stroke="#000"/><circle cx="405.0" cy="63.0" fill="#0f0" r="3.0" stroke="#000"/><circle cx="424.0" cy="88.0" fill="#00f" r="3.0" stroke="#000"/><circle cx="442.0" cy="113.0" fill="#a020f0" r="3.0" stroke="#000"/><circle cx="464.0" cy="135.0" fill="#a52a2a" r="3.0" stroke="#000"/><circle cx="483.0" cy="160.0" fill="#bebebe" r="3.0" stroke="#000"/><circle cx="504.0" cy="183.0" fill="#f00" r="3.0" stroke="#000"/><circle cx="524.0" cy="207.0" fill="#ffa500" r="3.0" stroke="#000"/><circle cx="528.0" cy="238.0" fill="#ff0" r="3.0" stroke="#000"/><circle cx="532.0" cy="269.0" fill="#0f0" r="3.0" stroke="#000"/><circle cx="528.0" cy="300.0" fill="#00f" r="3.0" stroke="#000"/><polyline fill="none" points="217.0,300.0 234.0,273.0 244.0,244.0 258.0,216.0 268.0,187.0 276.0,156.0 290.0,129.0 297.0,98.0 313.0,72.0 342.0,60.0 373.0,62.0 403.0,70.0 433.0,80.0 455.0,102.0 477.0,124.0 496.0,149.0 507.0,178.0 513.0,208.0 522.0,238.0 521.0,269.0 528.0,300.0" stroke="#000" stroke-linejoin="round"/><circle cx="217.0" cy="300.0" fill="#f00" r="3.0" stroke="#000"/><circle cx="234.0" cy="273.0" fill="#ffa500" r="3.0" stroke="#000"/><circle cx="244.0" cy="244.0" fill="#ff0" r="3.0" stroke="#000"/><circle cx="258.0" cy="216.0" fill="#0f0" r="3.0" stroke="#000"/><circle cx="268.0" cy="187.0" fill="#00f" r="3.0" stroke="#000"/><circle cx="276.0" cy="156.0" fill="#a020f0" r="3.0" stroke="#000"/><circle cx="290.0" cy="129.0" fill="#a52a2a" r="3.0" stroke="#000"/><circle cx="297.0" cy="98.0" fill="#bebebe" r="3.0" stroke="#000"/><circle cx="313.0" cy="72.0" fill="#f00" r="3.0" stroke="#000"/><circle cx="342.0" cy="60.0" fill="#ffa500" r="3.0" stroke="#000"/><circle cx="373.0" cy="62.0" fill="#ff0" r="3.0" stroke="#000"/><circle cx="403.0" cy="70.0" fill="#0f0" r="3.0" stroke="#000"/><circle cx="433.0" cy="80.0" fill="#00f" r="3.0" stroke="#000"/><circle cx="455.0" cy="102.0" fill="#a020f0" r="3.0" stroke="#000"/><circle cx="477.0" cy="124.0" fill="#a52a2a" r="3.0" stroke="#000"/><circle cx="496.0" cy="149.0" fill="#bebebe" r="3.0" stroke="#000"/><circle cx="507.0" cy="178.0" fill="#f00" r="3.0" stroke="#000"/><circle cx="513.0" cy="208.0" fill="#ffa500" r="3.0" stroke="#000"/><circle cx="522.0" cy="238.0" fill="#ff0" r="3.0" stroke="#000"/><circle cx="521.0" cy="269.0" fill="#0f0" r="3.0" stroke="#000"/><circle cx="528.0" cy="300.0" fill="#00f" r="3.0" stroke="#000"/><polyline fill="none" points="217.0,300.0 231.0,272.0 244.0,243.0 259.0,216.0 272.0,188.0 273.0,157.0 278.0,126.0 293.0,99.0 313.0,75.0 343.0,65.0 374.0,63.0 404.0,70.0 433.0,82.0 454.0,105.0 470.0,132.0 494.0,151.0 507.0,179.0 522.0,207.0 523.0,238.0 528.0,268.0 528.0,300.0" stroke="#000" stroke-linejoin="round"/><circle cx="217.0" cy="300.0" fill="#f00" r="3.0" stroke="#000"/><circle cx="231.0" cy="272.0" fill="#ffa500" r="3.0" stroke="#000"/><circle cx="244.0" cy="243.0" fill="#ff0" r="3.0" stroke="#000"/><circle cx="259.0" cy="216.0" fill="#0f0" r="3.0" stroke="#000"/><circle cx="272.0" cy="188.0" fill="#00f" r="3.0" stroke="#000"/><circle cx="273.0" cy="157.0" fill="#a020f0" r="3.0" stroke="#000"/><circle cx="278.0" cy="126.0" fill="#a52a2a" r="3.0" stroke="#000"/><circle cx="293.0" cy="99.0" fill="#bebebe" r="3.0" stroke="#000"/><circle cx="313.0" cy="75.0" fill="#f00" r="3.0" stroke="#000"/><circle cx="343.0" cy="65.0" fill="#ffa500" r="3.0" stroke="#000"/><circle cx="374.0" cy="63.0" fill="#ff0" r="3.0" stroke="#000"/><circle cx="404.0" cy="70.0" fill="#0f0" r="3.0" stroke="#000"/><circle cx="433.0" cy="82.0" fill="#00f" r="3.0" stroke="#000"/><circle cx="454.0" cy="105.0" fill="#a020f0" r="3.0" stroke="#000"/><circle cx="470.0" cy="132.0" fill="#a52a2a" r="3.0" stroke="#000"/><circle cx="494.0" cy="151.0" fill="#bebebe" r="3.0" stroke="#000"/><circle cx="507.0" cy="179.0" fill="#f00" r="3.0" stroke="#000"/><circle cx="522.0" cy="207.0" fill="#ffa500" r="3.0" stroke="#000"/><circle cx="523.0" cy="238.0" fill="#ff0" r="3.0" stroke="#000"/><circle cx="528.0" cy="268.0" fill="#0f0" r="3.0" stroke="#000"/><circle cx="528.0" cy="300.0" fill="#00f" r="3.0" stroke="#000"/><polyline fill="none" points="217.0,300.0 227.0,270.0 226.0,239.0 233.0,209.0 243.0,179.0 259.0,152.0 272.0,124.0 291.0,99.0 316.0,81.0 343.0,66.0 373.0,59.0 402.0,73.0 428.0,89.0 454.0,106.0 480.0,123.0 497.0,149.0 510.0,177.0 521.0,207.0 526.0,237.0 528.0,268.0 528.0,300.0" stroke="#000" stroke-linejoin="round"/><circle cx="217.0" cy="300.0" fill="#f00" r="3.0" stroke="#000"/><circle cx="227.0" cy="270.0" fill="#ffa500" r="3.0" stroke="#000"/><circle cx="226.0" cy="239.0" fill="#ff0" r="3.0" stroke="#000"/><circle cx="233.0" cy="209.0" fill="#0f0" r="3.0" stroke="#000"/><circle cx="243.0" cy="179.0" fill="#00f" r="3.0" stroke="#000"/><circle cx="259.0" cy="152.0" fill="#a020f0" r="3.0" stroke="#000"/><circle cx="272.0" cy="124.0" fill="#a52a2a" r="3.0" stroke="#000"/><circle cx="291.0" cy="99.0" fill="#bebebe" r="3.0" stroke="#000"/><circle cx="316.0" cy="81.0" fill="#f00" r="3.0" stroke="#000"/><circle cx="343.0" cy="66.0" fill="#ffa500" r="3.0" stroke="#000"/><circle cx="373.0" cy="59.0" fill="#ff0" r="3.0" stroke="#000"/><circle cx="402.0" cy="73.0" fill="#0f0" r="3.0" stroke="#000"/><circle cx="428.0" cy="89.0" fill="#00f" r="3.0" stroke="#000"/><circle cx="454.0" cy="106.0" fill="#a020f0" r="3.0" stroke="#000"/><circle cx="480.0" cy="123.0" fill="#a52a2a" r="3.0" stroke="#000"/><circle cx="497.0" cy="149.0" fill="#bebebe" r="3.0" stroke="#000"/><circle cx="510.0" cy="177.0" fill="#f00" r="3.0" stroke="#000"/><circle cx="521.0" cy="207.0" fill="#ffa500" r="3.0" stroke="#000"/><circle cx="526.0" cy="237.0" fill="#ff0" r="3.0" stroke="#000"/><circle cx="528.0" cy="268.0" fill="#0f0" r="3.0" stroke="#000"/><circle cx="528.0" cy="300.0" fill="#00f" r="3.0" stroke="#000"/><polyline fill="none" points="217.0,300.0 217.0,268.0 236.0,244.0 250.0,216.0 257.0,186.0 268.0,157.0 279.0,128.0 300.0,105.0 315.0,77.0 344.0,66.0 375.0,61.0 403.0,74.0 432.0,85.0 458.0,103.0 482.0,122.0 501.0,147.0 511.0,176.0 515.0,207.0 520.0,238.0 525.0,269.0 528.0,300.0" stroke="#000" stroke-linejoin="round"/><circle cx="217.0" cy="300.0" fill="#f00" r="3.0" stroke="#000"/><circle cx="217.0" cy="268.0" fill="#ffa500" r="3.0" stroke="#000"/><circle cx="236.0" cy="244.0" fill="#ff0" r="3.0" stroke="#000"/><circle cx="250.0" cy="216.0" fill="#0f0" r="3.0" stroke="#000"/><circle cx="257.0" cy="186.0" fill="#00f" r="3.0" stroke="#000"/><circle cx="268.0" cy="157.0" fill="#a020f0" r="3.0" stroke="#000"/><circle cx="279.0" cy="128.0" fill="#a52a2a" r="3.0" stroke="#000"/><circle cx="300.0" cy="105.0" fill="#bebebe" r="3.0" stroke="#000"/><circle cx="315.0" cy="77.0" fill="#f00" r="3.0" stroke="#000"/><circle cx="344.0" cy="66.0" fill="#ffa500" r="3.0" stroke="#000"/><circle cx="375.0" cy="61.0" fill="#ff0" r="3.0" stroke="#000"/><circle cx="403.0" cy="74.0" fill="#0f0" r="3.0" stroke="#000"/><circle cx="432.0" cy="85.0" fill="#00f" r="3.0" stroke="#000"/><circle cx="458.0" cy="103.0" fill="#a020f0" r="3.0" stroke="#000"/><circle cx="482.0" cy="122.0" fill="#a52a2a" r="3.0" stroke="#000"/><circle cx="501.0" cy="147.0" fill="#bebebe" r="3.0" stroke="#000"/><circle cx="511.0" cy="176.0" fill="#f00" r="3.0" stroke="#000"/><circle cx="515.0" cy="207.0" fill="#ffa500" r="3.0" stroke="#000"/><circle cx="520.0" cy="238.0" fill="#ff0" r="3.0" stroke="#000"/><circle cx="525.0" cy="269.0" fill="#0f0" r="3.0" stroke="#000"/><circle cx="528.0" cy="300.0" fill="#00f" r="3.0" stroke="#000"/><polyline fill="none" points="217.0,300.0 222.0,269.0 225.0,238.0 230.0,207.0 240.0,177.0 261.0,155.0 281.0,131.0 296.0,104.0 315.0,79.0 343.0,66.0 374.0,64.0 405.0,70.0 435.0,78.0 459.0,97.0 476.0,123.0 489.0,151.0 502.0,180.0 516.0,207.0 523.0,238.0 528.0,268.0 528.0,300.0" stroke="#000" stroke-linejoin="round"/><circle cx="217.0" cy="300.0" fill="#f00" r="3.0" stroke="#000"/><circle cx="222.0" cy="269.0" fill="#ffa500" r="3.0" stroke="#000"/><circle cx="225.0" cy="238.0" fill="#ff0" r="3.0" stroke="#000"/><circle cx="230.0" cy="207.0" fill="#0f0" r="3.0" stroke="#000"/><circle cx="240.0" cy="177.0" fill="#00f" r="3.0" stroke="#000"/><circle cx="261.0" cy="155.0" fill="#a020f0" r="3.0" stroke="#000"/><circle cx="281.0" cy="131.0" fill="#a52a2a" r="3.0" stroke="#000"/><circle cx="296.0" cy="104.0" fill="#bebebe" r="3.0" stroke="#000"/><circle cx="315.0" cy="79.0" fill="#f00" r="3.0" stroke="#000"/><circle cx="343.0" cy="66.0" fill="#ffa500" r="3.0" stroke="#000"/><circle cx="374.0" cy="64.0" fill="#ff0" r="3.0" stroke="#000"/><circle cx="405.0" cy="70.0" fill="#0f0" r="3.0" stroke="#000"/><circle cx="435.0" cy="78.0" fill="#00f" r="3.0" stroke="#000"/><circle cx="459.0" cy="97.0" fill="#a020f0" r="3.0" stroke="#000"/><circle cx="476.0" cy="123.0" fill="#a52a2a" r="3.0" stroke="#000"/><circle cx="489.0" cy="151.0" fill="#bebebe" r="3.0" stroke="#000"/><circle cx="502.0" cy="180.0" fill="#f00" r="3.0" stroke="#000"/><circle cx="516.0" cy="207.0" fill="#ffa500" r="3.0" stroke="#000"/><circle cx="523.0" cy="238.0" fill="#ff0" r="3.0" stroke="#000"/><circle cx="528.0" cy="268.0" fill="#0f0" r="3.0" stroke="#000"/><circle cx="528.0" cy="300.0" fill="#00f" r="3.0" stroke="#000"/><polyline fill="none" points="217.0,300.0 219.0,268.0 229.0,239.0 246.0,213.0 261.0,186.0 279.0,160.0 279.0,129.0 291.0,101.0 314.0,80.0 342.0,67.0 373.0,64.0 404.0,66.0 432.0,80.0 454.0,102.0 477.0,123.0 494.0,149.0 507.0,177.0 511.0,208.0 517.0,238.0 522.0,269.0 528.0,300.0" stroke="#000" stroke-linejoin="round"/><circle cx="217.0" cy="300.0" fill="#f00" r="3.0" stroke="#000"/><circle cx="219.0" cy="268.0" fill="#ffa500" r="3.0" stroke="#000"/><circle cx="229.0" cy="239.0" fill="#ff0" r="3.0" stroke="#000"/><circle cx="246.0" cy="213.0" fill="#0f0" r="3.0" stroke="#000"/><circle cx="261.0" cy="186.0" fill="#00f" r="3.0" stroke="#000"/><circle cx="279.0" cy="160.0" fill="#a020f0" r="3.0" stroke="#000"/><circle cx="279.0" cy="129.0" fill="#a52a2a" r="3.0" stroke="#000"/><circle cx="291.0" cy="101.0" fill="#bebebe" r="3.0" stroke="#000"/><circle cx="314.0" cy="80.0" fill="#f00" r="3.0" stroke="#000"/><circle cx="342.0" cy="67.0" fill="#ffa500" r="3.0" stroke="#000"/><circle cx="373.0" cy="64.0" fill="#ff0" r="3.0" stroke="#000"/><circle cx="404.0" cy="66.0" fill="#0f0" r="3.0" stroke="#000"/><circle cx="432.0" cy="80.0" fill="#00f" r="3.0" stroke="#000"/><circle cx="454.0" cy="102.0" fill="#a020f0" r="3.0" stroke="#000"/><circle cx="477.0" cy="123.0" fill="#a52a2a" r="3.0" stroke="#000"/><circle cx="494.0" cy="149.0" fill="#bebebe" r="3.0" stroke="#000"/><circle cx="507.0" cy="177.0" fill="#f00" r="3.0" stroke="#000"/><circle cx="511.0" cy="208.0" fill="#ffa500" r="3.0" stroke="#000"/><circle cx="517.0" cy="238.0" fill="#ff0" r="3.0" stroke="#000"/><circle cx="522.0" cy="269.0" fill="#0f0" r="3.0" stroke="#000"/><circle cx="528.0" cy="300.0" fill="#00f" r="3.0" stroke="#000"/><polyline fill="none" points="217.0,300.0 240.0,278.0 249.0,248.0 266.0,222.0 269.0,191.0 280.0,162.0 288.0,132.0 292.0,101.0 314.0,79.0 344.0,73.0 376.0,74.0 406.0,66.0 435.0,76.0 457.0,98.0 476.0,123.0 489.0,151.0 500.0,180.0 515.0,208.0 517.0,239.0 526.0,269.0 528.0,300.0" stroke="#000" stroke-linejoin="round"/><circle cx="217.0" cy="300.0" fill="#f00" r="3.0" stroke="#000"/><circle cx="240.0" cy="278.0" fill="#ffa500" r="3.0" stroke="#000"/><circle cx="249.0" cy="248.0" fill="#ff0" r="3.0" stroke="#000"/><circle cx="266.0" cy="222.0" fill="#0f0" r="3.0" stroke="#000"/><circle cx="269.0" cy="191.0" fill="#00f" r="3.0" stroke="#000"/><circle cx="280.0" cy="162.0" fill="#a020f0" r="3.0" stroke="#000"/><circle cx="288.0" cy="132.0" fill="#a52a2a" r="3.0" stroke="#000"/><circle cx="292.0" cy="101.0" fill="#bebebe" r="3.0" stroke="#000"/><circle cx="314.0" cy="79.0" fill="#f00" r="3.0" stroke="#000"/><circle cx="344.0" cy="73.0" fill="#ffa500" r="3.0" stroke="#000"/><circle cx="376.0" cy="74.0" fill="#ff0" r="3.0" stroke="#000"/><circle cx="406.0" cy="66.0" fill="#0f0" r="3.0" stroke="#000"/><circle cx="435.0" cy="76.0" fill="#00f" r="3.0" stroke="#000"/><circle cx="457.0" cy="98.0" fill="#a020f0" r="3.0" stroke="#000"/><circle cx="476.0" cy="123.0" fill="#a52a2a" r="3.0" stroke="#000"/><circle cx="489.0" cy="151.0" fill="#bebebe" r="3.0" stroke="#000"/><circle cx="500.0" cy="180.0" fill="#f00" r="3.0" stroke="#000"/><circle cx="515.0" cy="208.0" fill="#ffa500" r="3.0" stroke="#000"/><circle cx="517.0" cy="239.0" fill="#ff0" r="3.0" stroke="#000"/><circle cx="526.0" cy="269.0" fill="#0f0" r="3.0" stroke="#000"/><circle cx="528.0" cy="300.0" fill="#00f" r="3.0" stroke="#000"/><polyline fill="none" points="217.0,300.0 235.0,274.0 258.0,253.0 274.0,226.0 282.0,196.0 282.0,165.0 285.0,134.0 297.0,105.0 310.0,77.0 338.0,62.0 369.0,66.0 398.0,77.0 417.0,102.0 446.0,113.0 470.0,133.0 492.0,155.0 513.0,178.0 518.0,208.0 514.0,239.0 523.0,269.0 528.0,300.0" stroke="#000" stroke-linejoin="round"/><circle cx="217.0" cy="300.0" fill="#f00" r="3.0" stroke="#000"/><circle cx="235.0" cy="274.0" fill="#ffa500" r="3.0" stroke="#000"/><circle cx="258.0" cy="253.0" fill="#ff0" r="3.0" stroke="#000"/><circle cx="274.0" cy="226.0" fill="#0f0" r="3.0" stroke="#000"/><circle cx="282.0" cy="196.0" fill="#00f" r="3.0" stroke="#000"/><circle cx="282.0" cy="165.0" fill="#a020f0" r="3.0" stroke="#000"/><circle cx="285.0" cy="134.0" fill="#a52a2a" r="3.0" stroke="#000"/><circle cx="297.0" cy="105.0" fill="#bebebe" r="3.0" stroke="#000"/><circle cx="310.0" cy="77.0" fill="#f00" r="3.0" stroke="#000"/><circle cx="338.0" cy="62.0" fill="#ffa500" r="3.0" stroke="#000"/><circle cx="369.0" cy="66.0" fill="#ff0" r="3.0" stroke="#000"/><circle cx="398.0" cy="77.0" fill="#0f0" r="3.0" stroke="#000"/><circle cx="417.0" cy="102.0" fill="#00f" r="3.0" stroke="#000"/><circle cx="446.0" cy="113.0" fill="#a020f0" r="3.0" stroke="#000"/><circle cx="470.0" cy="133.0" fill="#a52a2a" r="3.0" stroke="#000"/><circle cx="492.0" cy="155.0" fill="#bebebe" r="3.0" stroke="#000"/><circle cx="513.0" cy="178.0" fill="#f00" r="3.0" stroke="#000"/><circle cx="518.0" cy="208.0" fill="#ffa500" r="3.0" stroke="#000"/><circle cx="514.0" cy="239.0" fill="#ff0" r="3.0" stroke="#000"/><circle cx="523.0" cy="269.0" fill="#0f0" r="3.0" stroke="#000"/><circle cx="528.0" cy="300.0" fill="#00f" r="3.0" stroke="#000"/><polyline fill="none" points="217.0,300.0 229.0,271.0 246.0,245.0 269.0,224.0 284.0,196.0 284.0,165.0 292.0,135.0 296.0,104.0 316.0,80.0 342.0,63.0 373.0,62.0 403.0,71.0 429.0,87.0 453.0,108.0 467.0,135.0 482.0,163.0 505.0,184.0 522.0,209.0 535.0,238.0 532.0,269.0 528.0,300.0" stroke="#000" stroke-linejoin="round"/><circle cx="217.0" cy="300.0" fill="#f00" r="3.0" stroke="#000"/><circle cx="229.0" cy="271.0" fill="#ffa500" r="3.0" stroke="#000"/><circle cx="246.0" cy="245.0" fill="#ff0" r="3.0" stroke="#000"/><circle cx="269.0" cy="224.0" fill="#0f0" r="3.0" stroke="#000"/><circle cx="284.0" cy="196.0" fill="#00f" r="3.0" stroke="#000"/><circle cx="284.0" cy="165.0" fill="#a020f0" r="3.0" stroke="#000"/><circle cx="292.0" cy="135.0" fill="#a52a2a" r="3.0" stroke="#000"/><circle cx="296.0" cy="104.0" fill="#bebebe" r="3.0" stroke="#000"/><circle cx="316.0" cy="80.0" fill="#f00" r="3.0" stroke="#000"/><circle cx="342.0" cy="63.0" fill="#ffa500" r="3.0" stroke="#000"/><circle cx="373.0" cy="62.0" fill="#ff0" r="3.0" stroke="#000"/><circle cx="403.0" cy="71.0" fill="#0f0" r="3.0" stroke="#000"/><circle cx="429.0" cy="87.0" fill="#00f" r="3.0" stroke="#000"/><circle cx="453.0" cy="108.0" fill="#a020f0" r="3.0" stroke="#000"/><circle cx="467.0" cy="135.0" fill="#a52a2a" r="3.0" stroke="#000"/><circle cx="482.0" cy="163.0" fill="#bebebe" r="3.0" stroke="#000"/><circle cx="505.0" cy="184.0" fill="#f00" r="3.0" stroke="#000"/><circle cx="522.0" cy="209.0" fill="#ffa500" r="3.0" stroke="#000"/><circle cx="535.0" cy="238.0" fill="#ff0" r="3.0" stroke="#000"/><circle cx="532.0" cy="269.0" fill="#0f0" r="3.0" stroke="#000"/><circle cx="528.0" cy="300.0" fill="#00f" r="3.0" stroke="#000"/><polyline fill="none" points="217.0,300.0 240.0,278.0 254.0,250.0 262.0,220.0 268.0,190.0 271.0,159.0 276.0,128.0 287.0,99.0 311.0,80.0 341.0,70.0 372.0,70.0 402.0,79.0 433.0,83.0 453.0,106.0 455.0,137.0 474.0,162.0 494.0,185.0 512.0,210.0 521.0,240.0 533.0,269.0 528.0,300.0" stroke="#000" stroke-linejoin="round"/><circle cx="217.0" cy="300.0" fill="#f00" r="3.0" stroke="#000"/><circle cx="240.0" cy="278.0" fill="#ffa500" r="3.0" stroke="#000"/><circle cx="254.0" cy="250.0" fill="#ff0" r="3.0" stroke="#000"/><circle cx="262.0" cy="220.0" fill="#0f0" r="3.0" stroke="#000"/><circle cx="268.0" cy="190.0" fill="#00f" r="3.0" stroke="#000"/><circle cx="271.0" cy="159.0" fill="#a020f0" r="3.0" stroke="#000"/><circle cx="276.0" cy="128.0" fill="#a52a2a" r="3.0" stroke="#000"/><circle cx="287.0" cy="99.0" fill="#bebebe" r="3.0" stroke="#000"/><circle cx="311.0" cy="80.0" fill="#f00" r="3.0" stroke="#000"/><circle cx="341.0" cy="70.0" fill="#ffa500" r="3.0" stroke="#000"/><circle cx="372.0" cy="70.0" fill="#ff0" r="3.0" stroke="#000"/><circle cx="402.0" cy="79.0" fill="#0f0" r="3.0" stroke="#000"/><circle cx="433.0" cy="83.0" fill="#00f" r="3.0" stroke="#000"/><circle cx="453.0" cy="106.0" fill="#a020f0" r="3.0" stroke="#000"/><circle cx="455.0" cy="137.0" fill="#a52a2a" r="3.0" stroke="#000"/><circle cx="474.0" cy="162.0" fill="#bebebe" r="3.0" stroke="#000"/><circle cx="494.0" cy="185.0" fill="#f00" r="3.0" stroke="#000"/><circle cx="512.0" cy="210.0" fill="#ffa500" r="3.0" stroke="#000"/><circle cx="521.0" cy="240.0" fill="#ff0" r="3.0" stroke="#000"/><circle cx="533.0" cy="269.0" fill="#0f0" r="3.0" stroke="#000"/><circle cx="528.0" cy="300.0" fill="#00f" r="3.0" stroke="#000"/></svg>