<?xml version="1.0" ?><!DOCTYPE svg  PUBLIC '-//W3C//DTD SVG 1.1//EN'  'http://www.w3.org/Graphics/SVG/1.1/DTD/svg11.dtd'><svg height="620.000" viewBox="-9.000 -9.000 820.000 620.000" width="820.000" xmlns="http://www.w3.org/2000/svg"><rect fill="#fff" height="598.0" stroke="#000" width="798.0" x="2.0" y="2.0"/><polyline fill="none" points="217.0,300.0 189.0,312.0 158.0,316.0 128.0,325.0 106.0,346.0 102.0,377.0 121.0,402.0 151.0,409.0 182.0,407.0 213.0,408.0 229.0,381.0 260.0,380.0 290.0,371.0 321.0,365.0 350.0,356.0 380.0,347.0 410.0,339.0 440.0,329.0 469.0,319.0 499.0,310.0 528.0,300.0" stroke="#000" stroke-linejoin="round"/><circle cx="217.0" cy="300.0" fill="#f00" r="3.0" stroke="#000"/><circle cx="189.0" cy="312.0" fill="#ffa500" r="3.0" stroke="#000"/><circle cx="158.0" cy="316.0" fill="#ff0" r="3.0" stroke="#000"/><circle cx="128.0" cy="325.0" fill="#0f0" r="3.0" stroke="#000"/><circle cx="106.0" cy="346.0" fill="#00f" r="3.0" stroke="#000"/><circle cx="102.0" cy="377.0" fill="#a020f0" r="3.0" stroke="#000"/><circle cx="121.0" cy="402.0" fill="#a52a2a" r="3.0" stroke="#000"/><circle cx="151.0" cy="409.0" fill="#bebebe" r="3.0" stroke="#000"/><circle cx="182.0" cy="407.0" fill="#f00" r="3.0" stroke="#000"/><circle cx="213.0" cy="408.0" fill="#ffa500" r="3.0" stroke="#000"/><circle cx="229.0" cy="381.0" fill="#ff0" r="3.0" stroke="#000"/><circle cx="260.0" cy="380.0" fill="#0f0" r="3.0" stroke="#000"/><circle cx="290.0" cy="371.0" fill="#00f" r="3.0" stroke="#000"/><circle cx="321.0" cy="365.0" fill="#a020f0" r="3.0" stroke="#000"/><circle cx="350.0" cy="356.0" fill="#a52a2a" r="3.0" stroke="#000"/><circle cx="380.0" cy="347.0" fill="#bebebe" r="3.0" stroke="#000"/><circle cx="410.0" cy="339.0" fill="#f00" r="3.0" stroke="#000"/><circle cx="440.0" cy="329.0" fill="#ffa500" r="3.0" stroke="#000"/><circle cx="469.0" cy="319.0" fill="#ff0" r="3.0" stroke="#000"/><circle cx="499.0" cy="310.0" fill="#0f0" r="3.0" stroke="#000"/><circle cx="528.0" cy="300.0" fill="#00f" r="3.0" stroke="#000"/><polyline fill="none" points="217.0,300.0 233.0,273.0 248.0,246.0 264.0,219.0 280.0,192.0 295.0,165.0 311.0,138.0 326.0,111.0 342.0,84.0 357.0,57.0 373.0,30.0 388.0,57.0 404.0,84.0 420.0,111.0 435.0,138.0 451.0,165.0 466.0,192.0 482.0,219.0 497.0,246.0 513.0,273.0 528.0,300.0" stroke="#000" stroke-linejoin="round"/><circle cx="217.0" cy="300.0" fill="#f00" r="3.0" stroke="#000"/><circle cx="233.0" cy="273.0" fill="#ffa500" r="3.0" stroke="#000"/><circle cx="248.0" cy="246.0" fill="#ff0" r="3.0" stroke="#000"/><circle cx="264.0" cy="219.0" fill="#0f0" r="3.0" stroke="#000"/><circle cx="280.0" cy="192.0" fill="#00f" r="3.0" stroke="#000"/><circle cx="295.0" cy="165.0" fill="#a020f0" r="3.0" stroke="#000"/><circle cx="311.0" cy="138.0" fill="#a52a2a" r="3.0" stroke="#000"/><circle cx="326.0" cy="111.0" fill="#bebebe" r="3.0" stroke="#000"/><circle cx="342.0" cy="84.0" fill="#f00" r="3.0" stroke="#000"/><circle cx="357.0" cy="57.0" fill="#ffa500" r="3.0" stroke="#000"/><circle cx="373.0" cy="30.0" fill="#ff0" r="3.0" stroke="#000"/><circle cx="388.0" cy="57.0" fill="#0f0" r="3.0" stroke="#000"/><circle cx="404.0" cy="84.0" fill="#00f" r="3.0" stroke="#000"/><circle cx="420.0" cy="111.0" fill="#a020f0" r="3.0" stroke="#000"/><circle cx="435.0" cy="138.0" fill="#a52a2a" r="3.0" stroke="#000"/><circle cx="451.0" cy="165.0" fill="#bebebe" r="3.0" stroke="#000"/><circle cx="466.0" cy="192.0" fill="#f00" r="3.0" stroke="#000"/><circle cx="482.0" cy="219.0" fill="#ffa500" r="3.0" stroke="#000"/><circle cx="497.0" cy="246.0" fill="#ff0" r="3.0" stroke="#000"/><circle cx="513.0" cy="273.0" fill="#0f0" r="3.0" stroke="#000"/><circle cx="528.0" cy="300.0" fill="#00f" r="3.0" stroke="#000"/><polyline fill="none" points="217.0,300.0 207.0,329.0 195.0,357.0 169.0,375.0 141.0,362.0 121.0,337.0 120.0,306.0 125.0,276.0 156.0,279.0 187.0,284.0 218.0,282.0 249.0,284.0 280.0,287.0 311.0,291.0 342.0,294.0 373.0,295.0 404.0,298.0 435.0,298.0 466.0,298.0 497.0,300.0 528.0,300.0" stroke="#000" stroke-linejoin="round"/><circle cx="217.0" cy="300.0" fill="#f00" r="3.0" stroke="#000"/><circle cx="207.0" cy="329.0" fill="#ffa500" r="3.0" stroke="#000"/><circle cx="195.0" cy="357.0" fill="#ff0" r="3.0" stroke="#000"/><circle cx="169.0" cy="375.0" fill="#0f0" r="3.0" stroke="#000"/><circle cx="141.0" cy="362.0" fill="#00f" r="3.0" stroke="#000"/><circle cx="121.0" cy="337.0" fill="#a020f0" r="3.0" stroke="#000"/><circle cx="120.0" cy="306.0" fill="#a52a2a" r="3.0" stroke="#000"/><circle cx="125.0" cy="276.0" fill="#bebebe" r="3.0" stroke="#000"/><circle cx="156.0" cy="279.0" fill="#f00" r="3.0" stroke="#000"/><circle cx="187.0" cy="284.0" fill="#ffa500" r="3.0" stroke="#000"/><circle cx="218.0" cy="282.0" fill="#ff0" r="3.0" stroke="#000"/><circle cx="249.0" cy="284.0" fill="#0f0" r="3.0" stroke="#000"/><circle cx="280.0" cy="287.0" fill="#00f" r="3.0" stroke="#000"/><circle cx="311.0" cy="291.0" fill="#a020f0" r="3.0" stroke="#000"/><circle cx="342.0" cy="294.0" fill="#a52a2a" r="3.0" stroke="#000"/><circle cx="373.0" cy="295.0" fill="#bebebe" r="3.0" stroke="#000"/><circle cx="404.0" cy="298.0" fill="#f00" r="3.0" stroke="#000"/><circle cx="435.0" cy="298.0" fill="#ffa500" r="3.0" stroke="#000"/><circle cx="466.0" cy="298.0" fill="#ff0" r="3.0" stroke="#000"/><circle cx="497.0" cy="300.0" fill="#0f0" r="3.0" stroke="#000"/><circle cx="528.0" cy="300.0" fill="#00f" r="3.0" stroke="#000"/><polyline fill="none" points="217.0,300.0 187.0,305.0 156.0,305.0 130.0,322.0 108.0,300.0 95.0,271.0 116.0,248.0 141.0,230.0 172.0,234.0 203.0,230.0 233.0,221.0 263.0,212.0 292.0,221.0 322.0,231.0 351.0,241.0 381.0,251.0 410.0,261.0 440.0,270.0 469.0,280.0 499.0,290.0 528.0,300.0" stroke="#000" stroke-linejoin="round"/><circle cx="217.0" cy="300.0" fill="#f00" r="3.0" stroke="#000"/><circle cx="187.0" cy="305.0" fill="#ffa500" r="3.0" stroke="#000"/><circle cx="156.0" cy="305.0" fill="#ff0" r="3.0" stroke="#000"/><circle cx="130.0" cy="322.0" fill="#0f0" r="3.0" stroke="#000"/><circle cx="108.0" cy="300.0" fill="#00f" r="3.0" stroke="#000"/><circle cx="95.0" cy="271.0" fill="#a020f0" r="3.0" stroke="#000"/><circle cx="116.0" cy="248.0" fill="#a52a2a" r="3.0" stroke="#000"/><circle cx="141.0" cy="230.0" fill="#bebebe" r="3.0" stroke="#000"/><circle cx="172.0" cy="234.0" fill="#f00" r="3.0" stroke="#000"/><circle cx="203.0" cy="230.0" fill="#ffa500" r="3.0" stroke="#000"/><circle cx="233.0" cy="221.0" fill="#ff0" r="3.0" stroke="#000"/><circle cx="263.0" cy="212.0" fill="#0f0" r="3.0" stroke="#000"/><circle cx="292.0" cy="221.0" fill="#00f" r="3.0" stroke="#000"/><circle cx="322.0" cy="231.0" fill="#a020f0" r="3.0" stroke="#000"/><circle cx="351.0" cy="241.0" fill="#a52a2a" r="3.0" stroke="#000"/><circle cx="381.0" cy="251.0" fill="#bebebe" r="3.0" stroke="#000"/><circle cx="410.0" cy="261.0" fill="#f00" r="3.0" stroke="#000"/><circle cx="440.0" cy="270.0" fill="#ffa500" r="3.0" stroke="#000"/><circle cx="469.0" cy="280.0" fill="#ff0" r="3.0" stroke="#000"/><circle cx="499.0" cy="290.0" fill="#0f0" r="3.0" stroke="#000"/><circle cx="528.0" cy="300.0" fill="#00f" r="3.0" stroke="#000"/><polyline fill="none" points="217.0,300.0 188.0,309.0 171.0,335.0 155.0,362.0 131.0,382.0 106.0,400.0 116.0,430.0 146.0,420.0 175.0,409.0 203.0,396.0 229.0,378.0 259.0,370.0 290.0,368.0 320.0,360.0 351.0,357.0 381.0,349.0 410.0,338.0 440.0,328.0 469.0,319.0 499.0,309.0 528.0,300.0" stroke="#000" stroke-linejoin="round"/><circle cx="217.0" cy="300.0" fill="#f00" r="3.0" stroke="#000"/><circle cx="188.0" cy="309.0" fill="#ffa500" r="3.0" stroke="#000"/><circle cx="171.0" cy="335.0" fill="#ff0" r="3.0" stroke="#000"/><circle cx="155.0" cy="362.0" fill="#0f0" r="3.0" stroke="#000"/><circle cx="131.0" cy="382.0" fill="#00f" r="3.0" stroke="#000"/><circle cx="106.0" cy="400.0" fill="#a020f0" r="3.0" stroke="#000"/><circle cx="116.0" cy="430.0" fill="#a52a2a" r="3.0" stroke="#000"/><circle cx="146.0" cy="420.0" fill="#bebebe" r="3.0" stroke="#000"/><circle cx="175.0" cy="409.0" fill="#f00" r="3.0" stroke="#000"/><circle cx="203.0" cy="396.0" fill="#ffa500" r="3.0" stroke="#000"/><circle cx="229.0" cy="378.0" fill="#ff0" r="3.0" stroke="#000"/><circle cx="259.0" cy="370.0" fill="#0f0" r="3.0" stroke="#000"/><circle cx="290.0" cy="368.0" fill="#00f" r="3.0" stroke="#000"/><circle cx="320.0" cy="360.0" fill="#a020f0" r="3.0" stroke="#000"/><circle cx="351.0" cy="357.0" fill="#a52a2a" r="3.0" stroke="#000"/><circle cx="381.0" cy="349.0" fill="#bebebe" r="3.0" stroke="#000"/><circle cx="410.0" cy="338.0" fill="#f00" r="3.0" stroke="#000"/><circle cx="440.0" cy="328.0" fill="#ffa500" r="3.0" stroke="#000"/><circle cx="469.0" cy="319.0" fill="#ff0" r="3.0" stroke="#000"/><circle cx="499.0" cy="309.0" fill="#0f0" r="3.0" stroke="#000"/><circle cx="528.0" cy="300.0" fill="#00f" r="3.0" stroke="#000"/><polyline fill="none" points="217.0,300.0 198.0,275.0 167.0,275.0 136.0,279.0 106.0,286.0 93.0,257.0 101.0,227.0 132.0,230.0 163.0,230.0 194.0,230.0 226.0,228.0 256.0,236.0 286.0,243.0 316.0,250.0 347.0,257.0 377.0,264.0 407.0,271.0 438.0,278.0 468.0,285.0 498.0,292.0 528.0,300.0" stroke="#000" stroke-linejoin="round"/><circle cx="217.0" cy="300.0" fill="#f00" r="3.0" stroke="#000"/><circle cx="198.0" cy="275.0" fill="#ffa500" r="3.0" stroke="#000"/><circle cx="167.0" cy="275.0" fill="#ff0" r="3.0" stroke="#000"/><circle cx="136.0" cy="279.0" fill="#0f0" r="3.0" stroke="#000"/><circle cx="106.0" cy="286.0" fill="#00f" r="3.0" stroke="#000"/><circle cx="93.0" cy="257.0" fill="#a020f0" r="3.0" stroke="#000"/><circle cx="101.0" cy="227.0" fill="#a52a2a" r="3.0" stroke="#000"/><circle cx="132.0" cy="230.0" fill="#bebebe" r="3.0" stroke="#000"/><circle cx="163.0" cy="230.0" fill="#f00" r="3.0" stroke="#000"/><circle cx="194.0" cy="230.0" fill="#ffa500" r="3.0" stroke="#000"/><circle cx="226.0" cy="228.0" fill="#ff0" r="3.0" stroke="#000"/><circle cx="256.0" cy="236.0" fill="#0f0" r="3.0" stroke="#000"/><circle cx="286.0" cy="243.0" fill="#00f" r="3.0" stroke="#000"/><circle cx="316.0" cy="250.0" fill="#a020f0" r="3.0" stroke="#000"/><circle cx="347.0" cy="257.0" fill="#a52a2a" r="3.0" stroke="#000"/><circle cx="377.0" cy="264.0" fill="#bebebe" r="3.0" stroke="#000"/><circle cx="407.0" cy="271.0" fill="#f00" r="3.0" stroke="#000"/><circle cx="438.0" cy="278.0" fill="#ffa500" r="3.0" stroke="#000"/><circle cx="468.0" cy="285.0" fill="#ff0" r="3.0" stroke="#000"/><circle cx="498.0" cy="292.0" fill="#0f0" r="3.0" stroke="#000"/><circle cx="528.0" cy="300.0" fill="#00f" r="3.0" stroke="#000"/><polyline fill="none" points="217.0,300.0 223.0,330.0 218.0,361.0 210.0,391.0 222.0,420.0 213.0,450.0 233.0,473.0 228.0,504.0 244.0,530.0 275.0,524.0 304.0,513.0 322.0,488.0 347.0,469.0 370.0,449.0 393.0,427.0 415.0,406.0 438.0,385.0 458.0,361.0 482.0,341.0 506.0,321.0 528.0,300.0" stroke="#000" stroke-linejoin="round"/><circle cx="217.0" cy="300.0" fill="#f00" r="3.0" stroke="#000"/><circle cx="223.0" cy="330.0" fill="#ffa500" r="3.0" stroke="#000"/><circle cx="218.0" cy="361.0" fill="#ff0" r="3.0" stroke="#000"/><circle cx="210.0" cy="391.0" fill="#0f0" r="3.0" stroke="#000"/><circle cx="222.0" cy="420.0" fill="#00f" r="3.0" stroke="#000"/><circle cx="213.0" cy="450.0" fill="#a020f0" r="3.0" stroke="#000"/><circle cx="233.0" cy="473.0" fill="#a52a2a" r="3.0" stroke="#000"/><circle cx="228.0" cy="504.0" fill="#bebebe" r="3.0" stroke="#000"/><circle cx="244.0" cy="530.0" fill="#f00" r="3.0" stroke="#000"/><circle cx="275.0" cy="524.0" fill="#ffa500" r="3.0" stroke="#000"/><circle cx="304.0" cy="513.0" fill="#ff0" r="3.0" stroke="#000"/><circle cx="322.0" cy="488.0" fill="#0f0" r="3.0" stroke="#000"/><circle cx="347.0" cy="469.0" fill="#00f" r="3.0" stroke="#000"/><circle cx="370.0" cy="449.0" fill="#a020f0" r="3.0" stroke="#000"/><circle cx="393.0" cy="427.0" fill="#a52a2a" r="3.0" stroke="#000"/><circle cx="415.0" cy="406.0" fill="#bebebe" r="3.0" stroke="#000"/><circle cx="438.0" cy="385.0" fill="#f00" r="3.0" stroke="#000"/><circle cx="458.0" cy="361.0" fill="#ffa500" r="3.0" stroke="#000"/><circle cx="482.0" cy="341.0" fill="#ff0" r="3.0" stroke="#000"/><circle cx="506.0" cy="321.0" fill="#0f0" r="3.0" stroke="#000"/><circle cx="528.0" cy="300.0" fill="#00f" r="3.0" stroke="#000"/><polyline fill="none" points="217.0,300.0 193.0,318.0 163.0,329.0 136.0,314.0 106.0,309.0 88.0,334.0 98.0,363.0 128.0,354.0 158.0,349.0 189.0,345.0 220.0,343.0 251.0,339.0 282.0,335.0 313.0,330.0 344.0,325.0 374.0,321.0 405.0,317.0 436.0,313.0 467.0,308.0 498.0,304.0 528.0,300.0" stroke="#000" stroke-linejoin="round"/><circle cx="217.0" cy="300.0" fill="#f00" r="3.0" stroke="#000"/><circle cx="193.0" cy="318.0" fill="#ffa500" r="3.0" stroke="#000"/><circle cx="163.0" cy="329.0" fill="#ff0" r="3.0" stroke="#000"/><circle cx="136.0" cy="314.0" fill="#0f0" r="3.0" stroke="#000"/><circle cx="106.0" cy="309.0" fill="#00f" r="3.0" stroke="#000"/><circle cx="88.0" cy="334.0" fill="#a020f0" r="3.0" stroke="#000"/><circle cx="98.0" cy="363.0" fill="#a52a2a" r="3.0" stroke="#000"/><circle cx="128.0" cy="354.0" fill="#bebebe" r="3.0" stroke="#000"/><circle cx="158.0" cy="349.0" fill="#f00" r="3.0" stroke="#000"/><circle cx="189.0" cy="345.0" fill="#ffa500" r="3.0" stroke="#000"/><circle cx="220.0" cy="343.0" fill="#ff0" r="3.0" stroke="#000"/><circle cx="251.0" cy="339.0" fill="#0f0" r="3.0" stroke="#000"/><circle cx="282.0" cy="335.0" fill="#00f" r="3.0" stroke="#000"/><circle cx="313.0" cy="330.0" fill="#a020f0" r="3.0" stroke="#000"/><circle cx="344.0" cy="325.0" fill="#a52a2a" r="3.0" stroke="#000"/><circle cx="374.0" cy="321.0" fill="#bebebe" r="3.0" stroke="#000"/><circle cx="405.0" cy="317.0" fill="#f00" r="3.0" stroke="#000"/><circle cx="436.0" cy="313.0" fill="#ffa500" r="3.0" stroke="#000"/><circle cx="467.0" cy="308.0" fill="#ff0" r="3.0" stroke="#000"/><circle cx="498.0" cy="304.0" fill="#0f0" r="3.0" stroke="#000"/><circle cx="528.0" cy="300.0" fill="#00f" r="3.0" stroke="#000"/><polyline fill="none" points="217.0,300.0 201.0,326.0 169.0,325.0 149.0,348.0 127.0,370.0 116.0,399.0 115.0,430.0 146.0,425.0 176.0,419.0 206.0,412.0 234.0,398.0 265.0,393.0 294.0,383.0 324.0,375.0 355.0,368.0 384.0,357.0 413.0,347.0 442.0,335.0 471.0,324.0 500.0,312.0 528.0,300.0" stroke="#000" stroke-linejoin="round"/><circle cx="217.0" cy="300.0" fill="#f00" r="3.0" stroke="#000"/><circle cx="201.0" cy="326.0" fill="#ffa500" r="3.0" stroke="#000"/><circle cx="169.0" cy="325.0" fill="#ff0" r="3.0" stroke="#000"/><circle cx="149.0" cy="348.0" fill="#0f0" r="3.0" stroke="#000"/><circle cx="127.0" cy="370.0" fill="#00f" r="3.0" stroke="#000"/><circle cx="116.0" cy="399.0" fill="#a020f0" r="3.0" stroke="#000"/><circle cx="115.0" cy="430.0" fill="#a52a2a" r="3.0" stroke="#000"/><circle cx="146.0" cy="425.0" fill="#bebebe" r="3.0" stroke="#000"/><circle cx="176.0" cy="419.0" fill="#f00" r="3.0" stroke="#000"/><circle cx="206.0" cy="412.0" fill="#ffa500" r="3.0" stroke="#000"/><circle cx="234.0" cy="398.0" fill="#ff0" r="3.0" stroke="#000"/><circle cx="265.0" cy="393.0" fill="#0f0" r="3.0" stroke="#000"/><circle cx="294.0" cy="383.0" fill="#00f" r="3.0" stroke="#000"/><circle cx="324.0" cy="375.0" fill="#a020f0" r="3.0" stroke="#000"/><circle cx="355.0" cy="368.0" fill="#a52a2a" r="3.0" stroke="#000"/><circle cx="384.0" cy="357.0" fill="#bebebe" r="3.0" stroke="#000"/><circle cx="413.0" cy="347.0" fill="#f00" r="3.0" stroke="#000"/><circle cx="442.0" cy="335.0" fill="#ffa500" r="3.0" stroke="#000"/><circle cx="471.0" cy="324.0" fill="#ff0" r="3.0" stroke="#000"/><circle cx="500.0" cy="312.0" fill="#0f0" r="3.0" stroke="#000"/><circle cx="528.0" cy="300.0" fill="#00f" r="3.0" stroke="#000"/><polyline fill="none" points="217.0,300.0 187.0,305.0 167.0,329.0 155.0,357.0 126.0,368.0 97.0,380.0 108.0,408.0 139.0,406.0 169.0,397.0 200.0,392.0 227.0,378.0 257.0,369.0 287.0,362.0 318.0,354.0 348.0,346.0 378.0,338.0 408.0,330.0 438.0,322.0 468.0,315.0 498.0,307.0 528.0,300.0" stroke="#000" stroke-linejoin="round"/><circle cx="217.0" cy="300.0" fill="#f00" r="3.0" stroke="#000"/><circle cx="187.0" cy="305.0" fill="#ffa500" r="3.0" stroke="#000"/><circle cx="167.0" cy="329.0" fill="#ff0" r="3.0" stroke="#000"/><circle cx="155.0" cy="357.0" fill="#0f0" r="3.0" stroke="#000"/><circle cx="126.0" cy="368.0" fill="#00f" r="3.0" stroke="#000"/><circle cx="97.0" cy="380.0" fill="#a020f0" r="3.0" stroke="#000"/><circle cx="108.0" cy="408.0" fill="#a52a2a" r="3.0" stroke="#000"/><circle cx="139.0" cy="406.0" fill="#bebebe" r="3.0" stroke="#000"/><circle cx="169.0" cy="397.0" fill="#f00" r="3.0" stroke="#000"/><circle cx="200.0" cy="392.0" fill="#ffa500" r="3.0" stroke="#000"/><circle cx="227.0" cy="378.0" fill="#ff0" r="3.0" stroke="#000"/><circle cx="257.0" cy="369.0" fill="#0f0" r="3.0" stroke="#000"/><circle cx="287.0" cy="362.0" fill="#00f" r="3.0" stroke="#000"/><circle cx="318.0" cy="354.0" fill="#a020f0" r="3.0" stroke="#000"/><circle cx="348.0" cy="346.0" fill="#a52a2a" r="3.0" stroke="#000"/><circle cx="378.0" cy="338.0" fill="#bebebe" r="3.0" stroke="#000"/><circle cx="408.0" cy="330.0" fill="#f00" r="3.0" stroke="#000"/><circle cx="438.0" cy="322.0" fill="#ffa500" r="3.0" stroke="#000"/><circle cx="468.0" cy="315.0" fill="#ff0" r="3.0" stroke="#000"/><circle cx="498.0" cy="307.0" fill="#0f0" r="3.0" stroke="#000"/><circle cx="528.0" cy="300.0" fill="#00f" r="3.0" stroke="#000"/><polyline fill="none" points="217.0,300.0 187.0,307.0 162.0,289.0 132.0,296.0 110.0,274.0 102.0,244.0 103.0,213.0 134.0,214.0 163.0,227.0 193.0,234.0 223.0,242.0 253.0,250.0 284.0,253.0 314.0,260.0 345.0,266.0 376.0,271.0 406.0,276.0 437.0,281.0 467.0,287.0 498.0,295.0 528.0,300.0" stroke="#000" stroke-linejoin="round"/><circle cx="217.0" cy="300.0" fill="#f00" r="3.0" stroke="#000"/><circle cx="187.0" cy="307.0" fill="#ffa500" r="3.0" stroke="#000"/><circle cx="162.0" cy="289.0" fill="#ff0" r="3.0" stroke="#000"/><circle cx="132.0" cy="296.0" fill="#0f0" r="3.0" stroke="#000"/><circle cx="110.0" cy="274.0" fill="#00f" r="3.0" stroke="#000"/><circle cx="102.0" cy="244.0" fill="#a020f0" r="3.0" stroke="#000"/><circle cx="103.0" cy="213.0" fill="#a52a2a" r="3.0" stroke="#000"/><circle cx="134.0" cy="214.0" fill="#bebebe" r="3.0" stroke="#000"/><circle cx="163.0" cy="227.0" fill="#f00" r="3.0" stroke="#000"/><circle cx="193.0" cy="234.0" fill="#ffa500" r="3.0" stroke="#000"/><circle cx="223.0" cy="242.0" fill="#ff0" r="3.0" stroke="#000"/><circle cx="253.0" cy="250.0" fill="#0f0" r="3.0" stroke="#000"/><circle cx="284.0" cy="253.0" fill="#00f" r="3.0" stroke="#000"/><circle cx="314.0" cy="260.0" fill="#a020f0" r="3.0" stroke="#000"/><circle cx="345.0" cy="266.0" fill="#a52a2a" r="3.0" stroke="#000"/><circle cx="376.0" cy="271.0" fill="#bebebe" r="3.0" stroke="#000"/><circle cx="406.0" cy="276.0" fill="#f00" r="3.0" stroke="#000"/><circle cx="437.0" cy="281.0" fill="#ffa500" r="3.0" stroke="#000"/><circle cx="467.0" cy="287.0" fill="#ff0" r="3.0" stroke="#000"/><circle cx="498.0" cy="295.0" fill="#0f0" r="3.0" stroke="#000"/><circle cx="528.0" cy="300.0" fill="#00f" r="3.0" stroke="#000"/><polyline fill="none" points="217.0,300.0 186.0,296.0 161.0,278.0 130.0,283.0 110.0,260.0 90.0,236.0 105.0,208.0 133.0,222.0 163.0,230.0 193.0,238.0 224.0,240.0 254.0,247.0 285.0,249.0 316.0,251.0 346.0,258.0 376.0,266.0 407.0,272.0 438.0,278.0 468.0,286.0 498.0,292.0 528.0,300.0" stroke="#000" stroke-linejoin="round"/><circle cx="217.0" cy="300.0" fill="#f00" r="3.0" stroke="#000"/><circle cx="186.0" cy="296.0" fill="#ffa500" r="3.0" stroke="#000"/><circle cx="161.0" cy="278.0" fill="#ff0" r="3.0" stroke="#000"/><circle cx="130.0" cy="283.0" fill="#0f0" r="3.0" stroke="#000"/><circle cx="110.0" cy="260.0" fill="#00f" r="3.0" stroke="#000"/><circle cx="90.0" cy="236.0" fill="#a020f0" r="3.0" stroke="#000"/><circle cx="105.0" cy="208.0" fill="#a52a2a" r="3.0" stroke="#000"/><circle cx="133.0" cy="222.0" fill="#bebebe" r="3.0" stroke="#000"/><circle cx="163.0" cy="230.0" fill="#f00" r="3.0" stroke="#000"/><circle cx="193.0" cy="238.0" fill="#ffa500" r="3.0" stroke="#000"/><circle cx="224.0" cy="240.0" fill="#ff0" r="3.0" stroke="#000"/><circle cx="254.0" cy="247.0" fill="#0f0" r="3.0" stroke="#000"/><circle cx="285.0" cy="249.0" fill="#00f" r="3.0" stroke="#000"/><circle cx="316.0" cy="251.0" fill="#a020f0" r="3.0" stroke="#000"/><circle cx="346.0" cy="258.0" fill="#a52a2a" r="3.0" stroke="#000"/><circle cx="376.0" cy="266.0" fill="#bebebe" r="3.0" stroke="#000"/><circle cx="407.0" cy="272.0" fill="#f00" r="3.0" stroke="#000"/><circle cx="438.0" cy="278.0" fill="#ffa500" r="3.0" stroke="#000"/><circle cx="468.0" cy="286.0" fill="#ff0" r="3.0" stroke="#000"/><circle cx="498.0" cy="292.0" fill="#0f0" r="3.0" stroke="#000"/><circle cx="528.0" cy="300.0" fill="#00f" r="3.0" stroke="#000"/><polyline fill="none" points="217.0,300.0 186.0,296.0 161.0,314.0 147.0,342.0 117.0,351.0 90.0,367.0 108.0,392.0 139.0,386.0 169.0,379.0 193.0,360.0 221.0,345.0 251.0,340.0 282.0,337.0 313.0,332.0 343.0,325.0 374.0,321.0 405.0,317.0 436.0,312.0 467.0,308.0 498.0,303.0 528.0,300.0" stroke="#000" stroke-linejoin="round"/><circle cx="217.0" cy="300.0" fill="#f00" r="3.0" stroke="#000"/><circle cx="186.0" cy="296.0" fill="#ffa500" r="3.0" stroke="#000"/><circle cx="161.0" cy="314.0" fill="#ff0" r="3.0" stroke="#000"/><circle cx="147.0" cy="342.0" fill="#0f0" r="3.0" stroke="#000"/><circle cx="117.0" cy="351.0" fill="#00f" r="3.0" stroke="#000"/><circle cx="90.0" cy="367.0" fill="#a020f0" r="3.0" stroke="#000"/><circle cx="108.0" cy="392.0" fill="#a52a2a" r="3.0" stroke="#000"/><circle cx="139.0" cy="386.0" fill="#bebebe" r="3.0" stroke="#000"/><circle cx="169.0" cy="379.0" fill="#f00" r="3.0" stroke="#000"/><circle cx="193.0" cy="360.0" fill="#ffa500" r="3.0" stroke="#000"/><circle cx="221.0" cy="345.0" fill="#ff0" r="3.0" stroke="#000"/><circle cx="251.0" cy="340.0" fill="#0f0" r="3.0" stroke="#000"/><circle cx="282.0" cy="337.0" fill="#00f" r="3.0" stroke="#000"/><circle cx="313.0" cy="332.0" fill="#a020f0" r="3.0" stroke="#000"/><circle cx="343.0" cy="325.0" fill="#a52a2a" r="3.0" stroke="#000"/><circle cx="374.0" cy="321.0" fill="#bebebe" r="3.0" stroke="#000"/><circle cx="405.0" cy="317.0" fill="#f00" r="3.0" stroke="#000"/><circle cx="436.0" cy="312.0" fill="#ffa500" r="3.0" stroke="#000"/><circle cx="467.0" cy="308.0" fill="#ff0" r="3.0" stroke="#000"/><circle cx="498.0" cy="303.0" fill="#0f0" r="3.0" stroke="#000"/><circle cx="528.0" cy="300.0" fill="#00f" r="3.0" stroke="#000"/><polyline fill="none" points="217.0,300.0 187.0,308.0 172.0,335.0 141.0,333.0 110.0,338.0 108.0,369.0 110.0,400.0 140.0,408.0 170.0,397.0 200.0,391.0 229.0,379.0 260.0,376.0 289.0,366.0 318.0,354.0 349.0,350.0 379.0,343.0 409.0,334.0 439.0,325.0 469.0,317.0 498.0,308.0 528.0,300.0" stroke="#000" stroke-linejoin="round"/><circle cx="217.0" cy="300.0" fill="#f00" r="3.0" stroke="#000"/><circle cx="187.0" cy="308.0" fill="#ffa500" r="3.0" stroke="#000"/><circle cx="172.0" cy="335.0" fill="#ff0" r="3.0" stroke="#000"/><circle cx="141.0" cy="333.0" fill="#0f0" r="3.0" stroke="#000"/><circle cx="110.0" cy="338.0" fill="#00f" r="3.0" stroke="#000"/><circle cx="108.0" cy="369.0" fill="#a020f0" r="3.0" stroke="#000"/><circle cx="110.0" cy="400.0" fill="#a52a2a" r="3.0" stroke="#000"/><circle cx="140.0" cy="408.0" fill="#bebebe" r="3.0" stroke="#000"/><circle cx="170.0" cy="397.0" fill="#f00" r="3.0" stroke="#000"/><circle cx="200.0" cy="391.0" fill="#ffa500" r="3.0" stroke="#000"/><circle cx="229.0" cy="379.0" fill="#ff0" r="3.0" stroke="#000"/><circle cx="260.0" cy="376.0" fill="#0f0" r="3.0" stroke="#000"/><circle cx="289.0" cy="366.0" fill="#00f" r="3.0" stroke="#000"/><circle cx="318.0" cy="354.0" fill="#a020f0" r="3.0" stroke="#000"/><circle cx="349.0" cy="350.0" fill="#a52a2a" r="3.0" stroke="#000"/><circle cx="379.0" cy="343.0" fill="#bebebe" r="3.0" stroke="#000"/><circle cx="409.0" cy="334.0" fill="#f00" r="3.0" stroke="#000"/><circle cx="439.0" cy="325.0" fill="#ffa500" r="3.0" stroke="#000"/><circle cx="469.0" cy="317.0" fill="#ff0" r="3.0" stroke="#000"/><circle cx="498.0" cy="308.0" fill="#0f0" r="3.0" stroke="#000"/><circle cx="528.0" cy="300.0" fill="#00f" r="3.0" stroke="#000"/><polyline fill="none" points="217.0,300.0 208.0,270.0 203.0,239.0 177.0,222.0 156.0,199.0 125.0,197.0 115.0,227.0 139.0,247.0 159.0,271.0 189.0,261.0 220.0,263.0 250.0,268.0 281.0,275.0 312.0,277.0 343.0,280.0 374.0,283.0 405.0,286.0 436.0,290.0 466.0,293.0 497.0,296.0 528.0,300.0" stroke="#000" stroke-linejoin="round"/><circle cx="217.0" cy="300.0" fill="#f00" r="3.0" stroke="#000"/><circle cx="208.0" cy="270.0" fill="#ffa500" r="3.0" stroke="#000"/><circle cx="203.0" cy="239.0" fill="#ff0" r="3.0" stroke="#000"/><circle cx="177.0" cy="222.0" fill="#0f0" r="3.0" stroke="#000"/><circle cx="156.0" cy="199.0" fill="#00f" r="3.0" stroke="#000"/><circle cx="125.0" cy="197.0" fill="#a020f0" r="3.0" stroke="#000"/><circle cx="115.0" cy="227.0" fill="#a52a2a" r="3.0" stroke="#000"/><circle cx="139.0" cy="247.0" fill="#bebebe" r="3.0" stroke="#000"/><circle cx="159.0" cy="271.0" fill="#f00" r="3.0" stroke="#000"/><circle cx="189.0" cy="261.0" fill="#ffa500" r="3.0" stroke="#000"/><circle cx="220.0" cy="263.0" fill="#ff0" r="3.0" stroke="#000"/><circle cx="250.0" cy="268.0" fill="#0f0" r="3.0" stroke="#000"/><circle cx="281.0" cy="275.0" fill="#00f" r="3.0" stroke="#000"/><circle cx="312.0" cy="277.0" fill="#a020f0" r="3.0" stroke="#000"/><circle cx="343.0" cy="280.0" fill="#a52a2a" r="3.0" stroke="#000"/><circle cx="374.0" cy="283.0" fill="#bebebe" r="3.0" stroke="#000"/><circle cx="405.0" cy="286.0" fill="#f00" r="3.0" stroke="#000"/><circle cx="436.0" cy="290.0" fill="#ffa500" r="3.0" stroke="#000"/><circle cx="466.0" cy="293.0" fill="#ff0" r="3.0" stroke="#000"/><circle cx="497.0" cy="296.0" fill="#0f0" r="3.0" stroke="#000"/><circle cx="528.0" cy="300.0" fill="#00f" r="3.0" stroke="#000"/><polyline fill="none" points="217.0,300.0 189.0,313.0 162.0,298.0 131.0,296.0 100.0,295.0 82.0,321.0 109.0,337.0 140.0,340.0 170.0,346.0 198.0,332.0 229.0,328.0 258.0,338.0 287.0,350.0 318.0,349.0 349.0,346.0 378.0,335.0 408.0,326.0 439.0,324.0 469.0,319.0 499.0,310.0 528.0,300.0" stroke="#000" stroke-linejoin="round"/><circle cx="217.0" cy="300.0" fill="#f00" r="3.0" stroke="#000"/><circle cx="189.0" cy="313.0" fill="#ffa500" r="3.0" stroke="#000"/><circle cx="162.0" cy="298.0" fill="#ff0" r="3.0" stroke="#000"/><circle cx="131.0" cy="296.0" fill="#0f0" r="3.0" stroke="#000"/><circle cx="100.0" cy="295.0" fill="#00f" r="3.0" stroke="#000"/><circle cx="82.0" cy="321.0" fill="#a020f0" r="3.0" stroke="#000"/><circle cx="109.0" cy="337.0" fill="#a52a2a" r="3.0" stroke="#000"/><circle cx="140.0" cy="340.0" fill="#bebebe" r="3.0" stroke="#000"/><circle cx="170.0" cy="346.0" fill="#f00" r="3.0" stroke="#000"/><circle cx="198.0" cy="332.0" fill="#ffa500" r="3.0" stroke="#000"/><circle cx="229.0" cy="328.0" fill="#ff0" r="3.0" stroke="#000"/><circle cx="258.0" cy="338.0" fill="#0f0" r="3.0" stroke="#000"/><circle cx="287.0" cy="350.0" fill="#00f" r="3.0" stroke="#000"/><circle cx="318.0" cy="349.0" fill="#a020f0" r="3.0" stroke="#000"/><circle cx="349.0" cy="346.0" fill="#a52a2a" r="3.0" stroke="#000"/><circle cx="378.0" cy="335.0" fill="#bebebe" r="3.0" stroke="#000"/><circle cx="408.0" cy="326.0" fill="#f00" r="3.0" stroke="#000"/><circle cx="439.0" cy="324.0" fill="#ffa500" r="3.0" stroke="#000"/><circle cx="469.0" cy="319.0" fill="#ff0" r="3.0" stroke="#000"/><circle cx="499.0" cy="310.0" fill="#0f0" r="3.0" stroke="#000"/><circle cx="528.0" cy="300.0" fill="#00f" r="3.0" stroke="#000"/><polyline fill="none" points="217.0,300.0 200.0,274.0 172.0,260.0 141.0,261.0 110.0,265.0 111.0,234.0 115.0,203.0 144.0,192.0 166.0,214.0 195.0,226.0 225.0,233.0 256.0,241.0 286.0,249.0 317.0,250.0 346.0,260.0 376.0,269.0 406.0,275.0 437.0,281.0 468.0,287.0 498.0,292.0 528.0,300.0" stroke="#000" stroke-linejoin="round"/><circle cx="217.0" cy="300.0" fill="#f00" r="3.0" stroke="#000"/><circle cx="200.0" cy="274.0" fill="#ffa500" r="3.0" stroke="#000"/><circle cx="172.0" cy="260.0" fill="#ff0" r="3.0" stroke="#000"/><circle cx="141.0" cy="261.0" fill="#0f0" r="3.0" stroke="#000"/><circle cx="110.0" cy="265.0" fill="#00f" r="3.0" stroke="#000"/><circle cx="111.0" cy="234.0" fill="#a020f0" r="3.0" stroke="#000"/><circle cx="115.0" cy="203.0" fill="#a52a2a" r="3.0" stroke="#000"/><circle cx="144.0" cy="192.0" fill="#bebebe" r="3.0" stroke="#000"/><circle cx="166.0" cy="214.0" fill="#f00" r="3.0" stroke="#000"/><circle cx="195.0" cy="226.0" fill="#ffa500" r="3.0" stroke="#000"/><circle cx="225.0" cy="233.0" fill="#ff0" r="3.0" stroke="#000"/><circle cx="256.0" cy="241.0" fill="#0f0" r="3.0" stroke="#000"/><circle cx="286.0" cy="249.0" fill="#00f" r="3.0" stroke="#000"/><circle cx="317.0" cy="250.0" fill="#a020f0" r="3.0" stroke="#000"/><circle cx="346.0" cy="260.0" fill="#a52a2a" r="3.0" stroke="#000"/><circle cx="376.0" cy="269.0" fill="#bebebe" r="3.0" stroke="#000"/><circle cx="406.0" cy="275.0" fill="#f00" r="3.0" stroke="#000"/><circle cx="437.0" cy="281.0" fill="#ffa500" r="3.0" stroke="#000"/><circle cx="468.0" cy="287.0" fill="#ff0" r="3.0" stroke="#000"/><circle cx="498.0" cy="292.0" fill="#0f0" r="3.0" stroke="#000"/><circle cx="528.0" cy="300.0" fill="#00f" r="3.0" stroke="#000"/><polyline fill="none" points="217.0,300.0 196.0,277.0 165.0,275.0 134.0,271.0 109.0,290.0 97.0,261.0 113.0,234.0 134.0,211.0 165.0,215.0 195.0,222.0 225.0,229.0 255.0,238.0 286.0,244.0 316.0,250.0 347.0,257.0 377.0,265.0 407.0,272.0 437.0,278.0 468.0,286.0 498.0,292.0 528.0,300.0" stroke="#000" stroke-linejoin="round"/><circle cx="217.0" cy="300.0" fill="#f00" r="3.0" stroke="#000"/><circle cx="196.0" cy="277.0" fill="#ffa500" r="3.0" stroke="#000"/><circle cx="165.0" cy="275.0" fill="#ff0" r="3.0" stroke="#000"/><circle cx="134.0" cy="271.0" fill="#0f0" r="3.0" stroke="#000"/><circle cx="109.0" cy="290.0" fill="#00f" r="3.0" stroke="#000"/><circle cx="97.0" cy="261.0" fill="#a020f0" r="3.0" stroke="#000"/><circle cx="113.0" cy="234.0" fill="#a52a2a" r="3.0" stroke="#000"/><circle cx="134.0" cy="211.0" fill="#bebebe" r="3.0" stroke="#000"/><circle cx="165.0" cy="215.0" fill="#f00" r="3.0" stroke="#000"/><circle cx="195.0" cy="222.0" fill="#ffa500" r="3.0" stroke="#000"/><circle cx="225.0" cy="229.0" fill="#ff0" r="3.0" stroke="#000"/><circle cx="255.0" cy="238.0" fill="#0f0" r="3.0" stroke="#000"/><circle cx="286.0" cy="244.0" fill="#00f" r="3.0" stroke="#000"/><circle cx="316.0" cy="250.0" fill="#a020f0" r="3.0" stroke="#000"/><circle cx="347.0" cy="257.0" fill="#a52a2a" r="3.0" stroke="#000"/><circle cx="377.0" cy="265.0" fill="#bebebe" r="3.0" stroke="#000"/><circle cx="407.0" cy="272.0" fill="#f00" r="3.0" stroke="#000"/><circle cx="437.0" cy="278.0" fill="#ffa500" r="3.0" stroke="#000"/><circle cx="468.0" cy="286.0" fill="#ff0" r="3.0" stroke="#000"/><circle cx="498.0" cy="292.0" fill="#0f0" r="3.0" stroke="#000"/><circle cx="528.0" cy="300.0" fill="#00f" r="3.0" stroke="#000"/><polyline fill="none" points="217.0,300.0 189.0,287.0 174.0,260.0 157.0,233.0 126.0,234.0 107.0,210.0 113.0,179.0 142.0,189.0 171.0,200.0 202.0,207.0 231.0,218.0 259.0,231.0 288.0,241.0 316.0,255.0 346.0,265.0 377.0,265.0 407.0,272.0 437.0,280.0 467.0,287.0 498.0,293.0 528.0,300.0" stroke="#000" stroke-linejoin="round"/><circle cx="217.0" cy="300.0" fill="#f00" r="3.0" stroke="#000"/><circle cx="189.0" cy="287.0" fill="#ffa500" r="3.0" stroke="#000"/><circle cx="174.0" cy="260.0" fill="#ff0" r="3.0" stroke="#000"/><circle cx="157.0" cy="233.0" fill="#0f0" r="3.0" stroke="#000"/><circle cx="126.0" cy="234.0" fill="#00f" r="3.0" stroke="#000"/><circle cx="107.0" cy="210.0" fill="#a020f0" r="3.0" stroke="#000"/><circle cx="113.0" cy="179.0" fill="#a52a2a" r="3.0" stroke="#000"/><circle cx="142.0" cy="189.0" fill="#bebebe" r="3.0" stroke="#000"/><circle cx="171.0" cy="200.0" fill="#f00" r="3.0" stroke="#000"/><circle cx="202.0" cy="207.0" fill="#ffa500" r="3.0" stroke="#000"/><circle cx="231.0" cy="218.0" fill="#ff0" r="3.0" stroke="#000"/><circle cx="259.0" cy="231.0" fill="#0f0" r="3.0" stroke="#000"/><circle cx="288.0" cy="241.0" fill="#00f" r="3.0" stroke="#000"/><circle cx="316.0" cy="255.0" fill="#a020f0" r="3.0" stroke="#000"/><circle cx="346.0" cy="265.0" fill="#a52a2a" r="3.0" stroke="#000"/><circle cx="377.0" cy="265.0" fill="#bebebe" r="3.0" stroke="#000"/><circle cx="407.0" cy="272.0" fill="#f00" r="3.0" stroke="#000"/><circle cx="437.0" cy="280.0" fill="#ffa500" r="3.0" stroke="#000"/><circle cx="467.0" cy="287.0" fill="#ff0" r="3.0" stroke="#000"/><circle cx="498.0" cy="293.0" fill="#0f0" r="3.0" stroke="#000"/><circle cx="528.0" cy="300.0" fill="#00f" r="3.0" stroke="#000"/><polyline fill="none" points="217.0,300.0 188.0,311.0 168.0,335.0 165.0,366.0 134.0,367.0 108.0,384.0 112.0,415.0 143.0,415.0 174.0,412.0 204.0,405.0 234.0,398.0 264.0,388.0 294.0,380.0 324.0,372.0 355.0,367.0 384.0,357.0 413.0,345.0 442.0,334.0 471.0,323.0 500.0,312.0 528.0,300.0" stroke="#000" stroke-linejoin="round"/><circle cx="217.0" cy="300.0" fill="#f00" r="3.0" stroke="#000"/><circle cx="188.0" cy="311.0" fill="#ffa500" r="3.0" stroke="#000"/><circle cx="168.0" cy="335.0" fill="#ff0" r="3.0" stroke="#000"/><circle cx="165.0" cy="366.0" fill="#0f0" r="3.0" stroke="#000"/><circle cx="134.0" cy="367.0" fill="#00f" r="3.0" stroke="#000"/><circle cx="108.0" cy="384.0" fill="#a020f0" r="3.0" stroke="#000"/><circle cx="112.0" cy="415.0" fill="#a52a2a" r="3.0" stroke="#000"/><circle cx="143.0" cy="415.0" fill="#bebebe" r="3.0" stroke="#000"/><circle cx="174.0" cy="412.0" fill="#f00" r="3.0" stroke="#000"/><circle cx="204.0" cy="405.0" fill="#ffa500" r="3.0" stroke="#000"/><circle cx="234.0" cy="398.0" fill="#ff0" r="3.0" stroke="#000"/><circle cx="264.0" cy="388.0" fill="#0f0" r="3.0" stroke="#000"/><circle cx="294.0" cy="380.0" fill="#00f" r="3.0" stroke="#000"/><circle cx="324.0" cy="372.0" fill="#a020f0" r="3.0" stroke="#000"/><circle cx="355.0" cy="367.0" fill="#a52a2a" r="3.0" stroke="#000"/><circle cx="384.0" cy="357.0" fill="#bebebe" r="3.0" stroke="#000"/><circle cx="413.0" cy="345.0" fill="#f00" r="3.0" stroke="#000"/><circle cx="442.0" cy="334.0" fill="#ffa500" r="3.0" stroke="#000"/><circle cx="471.0" cy="323.0" fill="#ff0" r="3.0" stroke="#000"/><circle cx="500.0" cy="312.0" fill="#0f0" r="3.0" stroke="#000"/><circle cx="528.0" cy="300.0" fill="#00f" r="3.0" stroke="#000"/></svg>