<?xml version="1.0" ?><!DOCTYPE svg  PUBLIC '-//W3C//DTD SVG 1.1//EN'  'http://www.w3.org/Graphics/SVG/1.1/DTD/svg11.dtd'><svg height="620.000" viewBox="-9.000 -9.000 820.000 620.000" width="820.000" xmlns="http://www.w3.org/2000/svg"><rect fill="#fff" height="598.0" stroke="#000" width="798.0" x="2.0" y="2.0"/><circle cx="220.0" cy="300.0" fill="none" r="18.0" stroke="#000"/><circle cx="235.0" cy="246.0" fill="none" r="9.0" stroke="#000"/><circle cx="278.0" cy="209.0" fill="none" r="6.0" stroke="#000"/><circle cx="333.5" cy="200.5" fill="none" r="4.5" stroke="#000"/><circle cx="384.5" cy="224.5" fill="none" r="3.5" stroke="#000"/><circle cx="415.0" cy="271.0" fill="none" r="3.0" stroke="#000"/><circle cx="414.5" cy="327.5" fill="none" r="2.5" stroke="#000"/><ellipse cx="384.0" cy="374.5" fill="none" rx="2.0" ry="2.5" stroke="#000"/><circle cx="333.0" cy="398.0" fill="none" r="2.0" stroke="#000"/><ellipse cx="277.5" cy="390.0" fill="none" rx="1.5" ry="2.0" stroke="#000"/><circle cx="235.5" cy="353.5" fill="none" r="1.5" stroke="#000"/><polyline fill="none" points="166.0,241.0 216.0,208.0 276.0,207.0 335.0,197.0 392.0,216.0 447.0,239.0 423.0,294.0 363.0,291.0 319.0,331.0 288.0,383.0 234.0,356.0" stroke="#000" stroke-linejoin="round"/><circle cx="166.0" cy="241.0" fill="#f00" r="3.0" stroke="#000"/><circle cx="216.0" cy="208.0" fill="#ffa500" r="3.0" stroke="#000"/><circle cx="276.0" cy="207.0" fill="#ff0" r="3.0" stroke="#000"/><circle cx="335.0" cy="197.0" fill="#0f0" r="3.0" stroke="#000"/><circle cx="392.0" cy="216.0" fill="#00f" r="3.0" stroke="#000"/><circle cx="447.0" cy="239.0" fill="#a020f0" r="3.0" stroke="#000"/><circle cx="423.0" cy="294.0" fill="#a52a2a" r="3.0" stroke="#000"/><circle cx="363.0" cy="291.0" fill="#bebebe" r="3.0" stroke="#000"/><circle cx="319.0" cy="331.0" fill="#f00" r="3.0" stroke="#000"/><circle cx="288.0" cy="383.0" fill="#ffa500" r="3.0" stroke="#000"/><circle cx="234.0" cy="356.0" fill="#ff0" r="3.0" stroke="#000"/><polyline fill="none" points="162.0,247.0 219.0,227.0 278.0,236.0 335.0,217.0 392.0,235.0 442.0,268.0 422.0,325.0 363.0,336.0 316.0,374.0 265.0,405.0 214.0,373.0" stroke="#000" stroke-linejoin="round"/><circle cx="162.0" cy="247.0" fill="#f00" r="3.0" stroke="#000"/><circle cx="219.0" cy="227.0" fill="#ffa500" r="3.0" stroke="#000"/><circle cx="278.0" cy="236.0" fill="#ff0" r="3.0" stroke="#000"/><circle cx="335.0" cy="217.0" fill="#0f0" r="3.0" stroke="#000"/><circle cx="392.0" cy="235.0" fill="#00f" r="3.0" stroke="#000"/><circle cx="442.0" cy="268.0" fill="#a020f0" r="3.0" stroke="#000"/><circle cx="422.0" cy="325.0" fill="#a52a2a" r="3.0" stroke="#000"/><circle cx="363.0" cy="336.0" fill="#bebebe" r="3.0" stroke="#000"/><circle cx="316.0" cy="374.0" fill="#f00" r="3.0" stroke="#000"/><circle cx="265.0" cy="405.0" fill="#ffa500" r="3.0" stroke="#000"/><circle cx="214.0" cy="373.0" fill="#ff0" r="3.0" stroke="#000"/><polyline fill="none" points="162.0,247.0 219.0,227.0 278.0,236.0 335.0,217.0 392.0,235.0 442.0,268.0 422.0,325.0 363.0,336.0 316.0,374.0 265.0,405.0 214.0,373.0" stroke="#000" stroke-linejoin="round"/><circle cx="162.0" cy="247.0" fill="#f00" r="3.0" stroke="#000"/><circle cx="219.0" cy="227.0" fill="#ffa500" r="3.0" stroke="#000"/><circle cx="278.0" cy="236.0" fill="#ff0" r="3.0" stroke="#000"/><circle cx="335.0" cy="217.0" fill="#0f0" r="3.0" stroke="#000"/><circle cx="392.0" cy="235.0" fill="#00f" r="3.0" stroke="#000"/><circle cx="442.0" cy="268.0" fill="#a020f0" r="3.0" stroke="#000"/><circle cx="422.0" cy="325.0" fill="#a52a2a" r="3.0" stroke="#000"/><circle cx="363.0" cy="336.0" fill="#bebebe" r="3.0" stroke="#000"/><circle cx="316.0" cy="374.0" fill="#f00" r="3.0" stroke="#000"/><circle cx="265.0" cy="405.0" fill="#ffa500" r="3.0" stroke="#000"/><circle cx="214.0" cy="373.0" fill="#ff0" r="3.0" stroke="#000"/><polyline fill="none" points="162.0,247.0 219.0,227.0 278.0,236.0 335.0,217.0 392.0,235.0 442.0,268.0 422.0,325.0 363.0,336.0 316.0,374.0 265.0,405.0 214.0,373.0" stroke="#000" stroke-linejoin="round"/><circle cx="162.0" cy="247.0" fill="#f00" r="3.0" stroke="#000"/><circle cx="219.0" cy="227.0" fill="#ffa500" r="3.0" stroke="#000"/><circle cx="278.0" cy="236.0" fill="#ff0" r="3.0" stroke="#000"/><circle cx="335.0" cy="217.0" fill="#0f0" r="3.0" stroke="#000"/><circle cx="392.0" cy="235.0" fill="#00f" r="3.0" stroke="#000"/><circle cx="442.0" cy="268.0" fill="#a020f0" r="3.0" stroke="#000"/><circle cx="422.0" cy="325.0" fill="#a52a2a" r="3.0" stroke="#000"/><circle cx="363.0" cy="336.0" fill="#bebebe" r="3.0" stroke="#000"/><circle cx="316.0" cy="374.0" fill="#f00" r="3.0" stroke="#000"/><circle cx="265.0" cy="405.0" fill="#ffa500" r="3.0" stroke="#000"/><circle cx="214.0" cy="373.0" fill="#ff0" r="3.0" stroke="#000"/><polyline fill="none" points="162.0,247.0 219.0,227.0 278.0,236.0 335.0,217.0 392.0,235.0 442.0,268.0 422.0,325.0 363.0,336.0 316.0,374.0 265.0,405.0 214.0,373.0" stroke="#000" stroke-linejoin="round"/><circle cx="162.0" cy="247.0" fill="#f00" r="3.0" stroke="#000"/><circle cx="219.0" cy="227.0" fill="#ffa500" r="3.0" stroke="#000"/><circle cx="278.0" cy="236.0" fill="#ff0" r="3.0" stroke="#000"/><circle cx="335.0" cy="217.0" fill="#0f0" r="3.0" stroke="#000"/><circle cx="392.0" cy="235.0" fill="#00f" r="3.0" stroke="#000"/><circle cx="442.0" cy="268.0" fill="#a020f0" r="3.0" stroke="#000"/><circle cx="422.0" cy="325.0" fill="#a52a2a" r="3.0" stroke="#000"/><circle cx="363.0" cy="336.0" fill="#bebebe" r="3.0" stroke="#000"/><circle cx="316.0" cy="374.0" fill="#f00" r="3.0" stroke="#000"/><circle cx="265.0" cy="405.0" fill="#ffa500" r="3.0" stroke="#000"/><circle cx="214.0" cy="373.0" fill="#ff0" r="3.0" stroke="#000"/><polyline fill="none" points="162.0,247.0 219.0,227.0 278.0,236.0 335.0,217.0 392.0,235.0 442.0,268.0 422.0,325.0 363.0,336.0 316.0,374.0 265.0,405.0 214.0,373.0" stroke="#000" stroke-linejoin="round"/><circle cx="162.0" cy="247.0" fill="#f00" r="3.0" stroke="#000"/><circle cx="219.0" cy="227.0" fill="#ffa500" r="3.0" stroke="#000"/><circle cx="278.0" cy="236.0" fill="#ff0" r="3.0" stroke="#000"/><circle cx="335.0" cy="217.0" fill="#0f0" r="3.0" stroke="#000"/><circle cx="392.0" cy="235.0" fill="#00f" r="3.0" stroke="#000"/><circle cx="442.0" cy="268.0" fill="#a020f0" r="3.0" stroke="#000"/><circle cx="422.0" cy="325.0" fill="#a52a2a" r="3.0" stroke="#000"/><circle cx="363.0" cy="336.0" fill="#bebebe" r="3.0" stroke="#000"/><circle cx="316.0" cy="374.0" fill="#f00" r="3.0" stroke="#000"/><circle cx="265.0" cy="405.0" fill="#ffa500" r="3.0" stroke="#000"/><circle cx="214.0" cy="373.0" fill="#ff0" r="3.0" stroke="#000"/><polyline fill="none" points="162.0,247.0 219.0,227.0 278.0,236.0 335.0,217.0 392.0,235.0 442.0,268.0 422.0,325.0 363.0,336.0 316.0,374.0 265.0,405.0 214.0,373.0" stroke="#000" stroke-linejoin="round"/><circle cx="162.0" cy="247.0" fill="#f00" r="3.0" stroke="#000"/><circle cx="219.0" cy="227.0" fill="#ffa500" r="3.0" stroke="#000"/><circle cx="278.0" cy="236.0" fill="#ff0" r="3.0" stroke="#000"/><circle cx="335.0" cy="217.0" fill="#0f0" r="3.0" stroke="#000"/><circle cx="392.0" cy="235.0" fill="#00f" r="3.0" stroke="#000"/><circle cx="442.0" cy="268.0" fill="#a020f0" r="3.0" stroke="#000"/><circle cx="422.0" cy="325.0" fill="#a52a2a" r="3.0" stroke="#000"/><circle cx="363.0" cy="336.0" fill="#bebebe" r="3.0" stroke="#000"/><circle cx="316.0" cy="374.0" fill="#f00" r="3.0" stroke="#000"/><circle cx="265.0" cy="405.0" fill="#ffa500" r="3.0" stroke="#000"/><circle cx="214.0" cy="373.0" fill="#ff0" r="3.0" stroke="#000"/><polyline fill="none" points="148.0,247.0 201.0,219.0 260.0,228.0 319.0,216.0 373.0,242.0 422.0,276.0 412.0,335.0 353.0,345.0 311.0,389.0 254.0,406.0 224.0,353.0" stroke="#000" stroke-linejoin="round"/><circle cx="148.0" cy="247.0" fill="#f00" r="3.0" stroke="#000"/><circle cx="201.0" cy="219.0" fill="#ffa500" r="3.0" stroke="#000"/><circle cx="260.0" cy="228.0" fill="#ff0" r="3.0" stroke="#000"/><circle cx="319.0" cy="216.0" fill="#0f0" r="3.0" stroke="#000"/><circle cx="373.0" cy="242.0" fill="#00f" r="3.0" stroke="#000"/><circle cx="422.0" cy="276.0" fill="#a020f0" r="3.0" stroke="#000"/><circle cx="412.0" cy="335.0" fill="#a52a2a" r="3.0" stroke="#000"/><circle cx="353.0" cy="345.0" fill="#bebebe" r="3.0" stroke="#000"/><circle cx="311.0" cy="389.0" fill="#f00" r="3.0" stroke="#000"/><circle cx="254.0" cy="406.0" fill="#ffa500" r="3.0" stroke="#000"/><circle cx="224.0" cy="353.0" fill="#ff0" r="3.0" stroke="#000"/><polyline fill="none" points="148.0,247.0 201.0,219.0 260.0,228.0 319.0,216.0 373.0,242.0 422.0,276.0 412.0,335.0 353.0,345.0 311.0,389.0 254.0,406.0 224.0,353.0" stroke="#000" stroke-linejoin="round"/><circle cx="148.0" cy="247.0" fill="#f00" r="3.0" stroke="#000"/><circle cx="201.0" cy="219.0" fill="#ffa500" r="3.0" stroke="#000"/><circle cx="260.0" cy="228.0" fill="#ff0" r="3.0" stroke="#000"/><circle cx="319.0" cy="216.0" fill="#0f0" r="3.0" stroke="#000"/><circle cx="373.0" cy="242.0" fill="#00f" r="3.0" stroke="#000"/><circle cx="422.0" cy="276.0" fill="#a020f0" r="3.0" stroke="#000"/><circle cx="412.0" cy="335.0" fill="#a52a2a" r="3.0" stroke="#000"/><circle cx="353.0" cy="345.0" fill="#bebebe" r="3.0" stroke="#000"/><circle cx="311.0" cy="389.0" fill="#f00" r="3.0" stroke="#000"/><circle cx="254.0" cy="406.0" fill="#ffa500" r="3.0" stroke="#000"/><circle cx="224.0" cy="353.0" fill="#ff0" r="3.0" stroke="#000"/><polyline fill="none" points="155.0,244.0 209.0,218.0 268.0,222.0 328.0,213.0 380.0,242.0 435.0,267.0 432.0,327.0 373.0,335.0 335.0,381.0 281.0,407.0 234.0,370.0" stroke="#000" stroke-linejoin="round"/><circle cx="155.0" cy="244.0" fill="#f00" r="3.0" stroke="#000"/><circle cx="209.0" cy="218.0" fill="#ffa500" r="3.0" stroke="#000"/><circle cx="268.0" cy="222.0" fill="#ff0" r="3.0" stroke="#000"/><circle cx="328.0" cy="213.0" fill="#0f0" r="3.0" stroke="#000"/><circle cx="380.0" cy="242.0" fill="#00f" r="3.0" stroke="#000"/><circle cx="435.0" cy="267.0" fill="#a020f0" r="3.0" stroke="#000"/><circle cx="432.0" cy="327.0" fill="#a52a2a" r="3.0" stroke="#000"/><circle cx="373.0" cy="335.0" fill="#bebebe" r="3.0" stroke="#000"/><circle cx="335.0" cy="381.0" fill="#f00" r="3.0" stroke="#000"/><circle cx="281.0" cy="407.0" fill="#ffa500" r="3.0" stroke="#000"/><circle cx="234.0" cy="370.0" fill="#ff0" r="3.0" stroke="#000"/><polyline fill="none" points="155.0,244.0 209.0,218.0 268.0,222.0 328.0,213.0 380.0,242.0 435.0,267.0 432.0,327.0 373.0,335.0 335.0,381.0 281.0,407.0 234.0,370.0" stroke="#000" stroke-linejoin="round"/><circle cx="155.0" cy="244.0" fill="#f00" r="3.0" stroke="#000"/><circle cx="209.0" cy="218.0" fill="#ffa500" r="3.0" stroke="#000"/><circle cx="268.0" cy="222.0" fill="#ff0" r="3.0" stroke="#000"/><circle cx="328.0" cy="213.0" fill="#0f0" r="3.0" stroke="#000"/><circle cx="380.0" cy="242.0" fill="#00f" r="3.0" stroke="#000"/><circle cx="435.0" cy="267.0" fill="#a020f0" r="3.0" stroke="#000"/><circle cx="432.0" cy="327.0" fill="#a52a2a" r="3.0" stroke="#000"/><circle cx="373.0" cy="335.0" fill="#bebebe" r="3.0" stroke="#000"/><circle cx="335.0" cy="381.0" fill="#f00" r="3.0" stroke="#000"/><circle cx="281.0" cy="407.0" fill="#ffa500" r="3.0" stroke="#000"/><circle cx="234.0" cy="370.0" fill="#ff0" r="3.0" stroke="#000"/><polyline fill="none" points="155.0,244.0 209.0,218.0 268.0,222.0 328.0,213.0 380.0,242.0 435.0,267.0 432.0,327.0 373.0,335.0 335.0,381.0 281.0,407.0 234.0,370.0" stroke="#000" stroke-linejoin="round"/><circle cx="155.0" cy="244.0" fill="#f00" r="3.0" stroke="#000"/><circle cx="209.0" cy="218.0" fill="#ffa500" r="3.0" stroke="#000"/><circle cx="268.0" cy="222.0" fill="#ff0" r="3.0" stroke="#000"/><circle cx="328.0" cy="213.0" fill="#0f0" r="3.0" stroke="#000"/><circle cx="380.0" cy="242.0" fill="#00f" r="3.0" stroke="#000"/><circle cx="435.0" cy="267.0" fill="#a020f0" r="3.0" stroke="#000"/><circle cx="432.0" cy="327.0" fill="#a52a2a" r="3.0" stroke="#000"/><circle cx="373.0" cy="335.0" fill="#bebebe" r="3.0" stroke="#000"/><circle cx="335.0" cy="381.0" fill="#f00" r="3.0" stroke="#000"/><circle cx="281.0" cy="407.0" fill="#ffa500" r="3.0" stroke="#000"/><circle cx="234.0" cy="370.0" fill="#ff0" r="3.0" stroke="#000"/><polyline fill="none" points="155.0,244.0 209.0,218.0 268.0,222.0 328.0,213.0 380.0,242.0 435.0,267.0 432.0,327.0 373.0,335.0 335.0,381.0 281.0,407.0 234.0,370.0" stroke="#000" stroke-linejoin="round"/><circle cx="155.0" cy="244.0" fill="#f00" r="3.0" stroke="#000"/><circle cx="209.0" cy="218.0" fill="#ffa500" r="3.0" stroke="#000"/><circle cx="268.0" cy="222.0" fill="#ff0" r="3.0" stroke="#000"/><circle cx="328.0" cy="213.0" fill="#0f0" r="3.0" stroke="#000"/><circle cx="380.0" cy="242.0" fill="#00f" r="3.0" stroke="#000"/><circle cx="435.0" cy="267.0" fill="#a020f0" r="3.0" stroke="#000"/><circle cx="432.0" cy="327.0" fill="#a52a2a" r="3.0" stroke="#000"/><circle cx="373.0" cy="335.0" fill="#bebebe" r="3.0" stroke="#000"/><circle cx="335.0" cy="381.0" fill="#f00" r="3.0" stroke="#000"/><circle cx="281.0" cy="407.0" fill="#ffa500" r="3.0" stroke="#000"/><circle cx="234.0" cy="370.0" fill="#ff0" r="3.0" stroke="#000"/><polyline fill="none" points="155.0,244.0 209.0,218.0 268.0,222.0 328.0,213.0 380.0,242.0 435.0,267.0 432.0,327.0 373.0,335.0 335.0,381.0 281.0,407.0 234.0,370.0" stroke="#000" stroke-linejoin="round"/><circle cx="155.0" cy="244.0" fill="#f00" r="3.0" stroke="#000"/><circle cx="209.0" cy="218.0" fill="#ffa500" r="3.0" stroke="#000"/><circle cx="268.0" cy="222.0" fill="#ff0" r="3.0" stroke="#000"/><circle cx="328.0" cy="213.0" fill="#0f0" r="3.0" stroke="#000"/><circle cx="380.0" cy="242.0" fill="#00f" r="3.0" stroke="#000"/><circle cx="435.0" cy="267.0" fill="#a020f0" r="3.0" stroke="#000"/><circle cx="432.0" cy="327.0" fill="#a52a2a" r="3.0" stroke="#000"/><circle cx="373.0" cy="335.0" fill="#bebebe" r="3.0" stroke="#000"/><circle cx="335.0" cy="381.0" fill="#f00" r="3.0" stroke="#000"/><circle cx="281.0" cy="407.0" fill="#ffa500" r="3.0" stroke="#000"/><circle cx="234.0" cy="370.0" fill="#ff0" r="3.0" stroke="#000"/><polyline fill="none" points="155.0,244.0 209.0,218.0 268.0,222.0 328.0,213.0 380.0,242.0 435.0,267.0 432.0,327.0 373.0,335.0 335.0,381.0 281.0,407.0 234.0,370.0" stroke="#000" stroke-linejoin="round"/><circle cx="155.0" cy="244.0" fill="#f00" r="3.0" stroke="#000"/><circle cx="209.0" cy="218.0" fill="#ffa500" r="3.0" stroke="#000"/><circle cx="268.0" cy="222.0" fill="#ff0" r="3.0" stroke="#000"/><circle cx="328.0" cy="213.0" fill="#0f0" r="3.0" stroke="#000"/><circle cx="380.0" cy="242.0" fill="#00f" r="3.0" stroke="#000"/><circle cx="435.0" cy="267.0" fill="#a020f0" r="3.0" stroke="#000"/><circle cx="432.0" cy="327.0" fill="#a52a2a" r="3.0" stroke="#000"/><circle cx="373.0" cy="335.0" fill="#bebebe" r="3.0" stroke="#000"/><circle cx="335.0" cy="381.0" fill="#f00" r="3.0" stroke="#000"/><circle cx="281.0" cy="407.0" fill="#ffa500" r="3.0" stroke="#000"/><circle cx="234.0" cy="370.0" fill="#ff0" r="3.0" stroke="#000"/><polyline fill="none" points="155.0,244.0 209.0,218.0 268.0,222.0 328.0,213.0 380.0,242.0 435.0,267.0 432.0,327.0 373.0,335.0 335.0,381.0 281.0,407.0 234.0,370.0" stroke="#000" stroke-linejoin="round"/><circle cx="155.0" cy="244.0" fill="#f00" r="3.0" stroke="#000"/><circle cx="209.0" cy="218.0" fill="#ffa500" r="3.0" stroke="#000"/><circle cx="268.0" cy="222.0" fill="#ff0" r="3.0" stroke="#000"/><circle cx="328.0" cy="213.0" fill="#0f0" r="3.0" stroke="#000"/><circle cx="380.0" cy="242.0" fill="#00f" r="3.0" stroke="#000"/><circle cx="435.0" cy="267.0" fill="#a020f0" r="3.0" stroke="#000"/><circle cx="432.0" cy="327.0" fill="#a52a2a" r="3.0" stroke="#000"/><circle cx="373.0" cy="335.0" fill="#bebebe" r="3.0" stroke="#000"/><circle cx="335.0" cy="381.0" fill="#f00" r="3.0" stroke="#000"/><circle cx="281.0" cy="407.0" fill="#ffa500" r="3.0" stroke="#000"/><circle cx="234.0" cy="370.0" fill="#ff0" r="3.0" stroke="#000"/><polyline fill="none" points="155.0,244.0 209.0,218.0 268.0,222.0 328.0,213.0 380.0,242.0 435.0,267.0 432.0,327.0 373.0,335.0 335.0,381.0 281.0,407.0 234.0,370.0" stroke="#000" stroke-linejoin="round"/><circle cx="155.0" cy="244.0" fill="#f00" r="3.0" stroke="#000"/><circle cx="209.0" cy="218.0" fill="#ffa500" r="3.0" stroke="#000"/><circle cx="268.0" cy="222.0" fill="#ff0" r="3.0" stroke="#000"/><circle cx="328.0" cy="213.0" fill="#0f0" r="3.0" stroke="#000"/><circle cx="380.0" cy="242.0" fill="#00f" r="3.0" stroke="#000"/><circle cx="435.0" cy="267.0" fill="#a020f0" r="3.0" stroke="#000"/><circle cx="432.0" cy="327.0" fill="#a52a2a" r="3.0" stroke="#000"/><circle cx="373.0" cy="335.0" fill="#bebebe" r="3.0" stroke="#000"/><circle cx="335.0" cy="381.0" fill="#f00" r="3.0" stroke="#000"/><circle cx="281.0" cy="407.0" fill="#ffa500" r="3.0" stroke="#000"/><circle cx="234.0" cy="370.0" fill="#ff0" r="3.0" stroke="#000"/><polyline fill="none" points="155.0,244.0 209.0,218.0 268.0,222.0 328.0,213.0 380.0,242.0 435.0,267.0 432.0,327.0 373.0,335.0 335.0,381.0 281.0,407.0 234.0,370.0" stroke="#000" stroke-linejoin="round"/><circle cx="155.0" cy="244.0" fill="#f00" r="3.0" stroke="#000"/><circle cx="209.0" cy="218.0" fill="#ffa500" r="3.0" stroke="#000"/><circle cx="268.0" cy="222.0" fill="#ff0" r="3.0" stroke="#000"/><circle cx="328.0" cy="213.0" fill="#0f0" r="3.0" stroke="#000"/><circle cx="380.0" cy="242.0" fill="#00f" r="3.0" stroke="#000"/><circle cx="435.0" cy="267.0" fill="#a020f0" r="3.0" stroke="#000"/><circle cx="432.0" cy="327.0" fill="#a52a2a" r="3.0" stroke="#000"/><circle cx="373.0" cy="335.0" fill="#bebebe" r="3.0" stroke="#000"/><circle cx="335.0" cy="381.0" fill="#f00" r="3.0" stroke="#000"/><circle cx="281.0" cy="407.0" fill="#ffa500" r="3.0" stroke="#000"/><circle cx="234.0" cy="370.0" fill="#ff0" r="3.0" stroke="#000"/><polyline fill="none" points="155.0,244.0 209.0,218.0 268.0,222.0 328.0,213.0 380.0,242.0 435.0,267.0 432.0,327.0 373.0,335.0 335.0,381.0 281.0,407.0 234.0,370.0" stroke="#000" stroke-linejoin="round"/><circle cx="155.0" cy="244.0" fill="#f00" r="3.0" stroke="#000"/><circle cx="209.0" cy="218.0" fill="#ffa500" r="3.0" stroke="#000"/><circle cx="268.0" cy="222.0" fill="#ff0" r="3.0" stroke="#000"/><circle cx="328.0" cy="213.0" fill="#0f0" r="3.0" stroke="#000"/><circle cx="380.0" cy="242.0" fill="#00f" r="3.0" stroke="#000"/><circle cx="435.0" cy="267.0" fill="#a020f0" r="3.0" stroke="#000"/><circle cx="432.0" cy="327.0" fill="#a52a2a" r="3.0" stroke="#000"/><circle cx="373.0" cy="335.0" fill="#bebebe" r="3.0" stroke="#000"/><circle cx="335.0" cy="381.0" fill="#f00" r="3.0" stroke="#000"/><circle cx="281.0" cy="407.0" fill="#ffa500" r="3.0" stroke="#000"/><circle cx="234.0" cy="370.0" fill="#ff0" r="3.0" stroke="#000"/><polyline fill="none" points="155.0,244.0 209.0,218.0 268.0,222.0 328.0,213.0 380.0,242.0 435.0,267.0 432.0,327.0 373.0,335.0 335.0,381.0 281.0,407.0 234.0,370.0" stroke="#000" stroke-linejoin="round"/><circle cx="155.0" cy="244.0" fill="#f00" r="3.0" stroke="#000"/><circle cx="209.0" cy="218.0" fill="#ffa500" r="3.0" stroke="#000"/><circle cx="268.0" cy="222.0" fill="#ff0" r="3.0" stroke="#000"/><circle cx="328.0" cy="213.0" fill="#0f0" r="3.0" stroke="#000"/><circle cx="380.0" cy="242.0" fill="#00f" r="3.0" stroke="#000"/><circle cx="435.0" cy="267.0" fill="#a020f0" r="3.0" stroke="#000"/><circle cx="432.0" cy="327.0" fill="#a52a2a" r="3.0" stroke="#000"/><circle cx="373.0" cy="335.0" fill="#bebebe" r="3.0" stroke="#000"/><circle cx="335.0" cy="381.0" fill="#f00" r="3.0" stroke="#000"/><circle cx="281.0" cy="407.0" fill="#ffa500" r="3.0" stroke="#000"/><circle cx="234.0" cy="370.0" fill="#ff0" r="3.0" stroke="#000"/></svg>