<?xml version="1.0" ?><!DOCTYPE svg  PUBLIC '-//W3C//DTD SVG 1.1//EN'  'http://www.w3.org/Graphics/SVG/1.1/DTD/svg11.dtd'><svg height="620.000" viewBox="-9.000 -9.000 820.000 620.000" width="820.000" xmlns="http://www.w3.org/2000/svg"><rect fill="#fff" height="598.0" stroke="#000" width="798.0" x="2.0" y="2.0"/><circle cx="220.0" cy="300.0" fill="none" r="18.0" stroke="#000"/><circle cx="235.0" cy="246.0" fill="none" r="9.0" stroke="#000"/><circle cx="278.0" cy="209.0" fill="none" r="6.0" stroke="#000"/><circle cx="333.5" cy="200.5" fill="none" r="4.5" stroke="#000"/><circle cx="384.5" cy="224.5" fill="none" r="3.5" stroke="#000"/><circle cx="415.0" cy="271.0" fill="none" r="3.0" stroke="#000"/><circle cx="414.5" cy="327.5" fill="none" r="2.5" stroke="#000"/><ellipse cx="384.0" cy="374.5" fill="none" rx="2.0" ry="2.5" stroke="#000"/><circle cx="333.0" cy="398.0" fill="none" r="2.0" stroke="#000"/><ellipse cx="277.5" cy="390.0" fill="none" rx="1.5" ry="2.0" stroke="#000"/><circle cx="235.5" cy="353.5" fill="none" r="1.5" stroke="#000"/><polyline fill="none" points="227.0,309.0 229.0,249.0 270.0,205.0 329.0,195.0 385.0,217.0 419.0,267.0 420.0,327.0 388.0,378.0 334.0,403.0 274.0,394.0 231.0,352.0" stroke="#000" stroke-linejoin="round"/><circle cx="227.0" cy="309.0" fill="#f00" r="3.0" stroke="#000"/><circle cx="229.0" cy="249.0" fill="#ffa500" r="3.0" stroke="#000"/><circle cx="270.0" cy="205.0" fill="#ff0" r="3.0" stroke="#000"/><circle cx="329.0" cy="195.0" fill="#0f0" r="3.0" stroke="#000"/><circle cx="385.0" cy="217.0" fill="#00f" r="3.0" stroke="#000"/><circle cx="419.0" cy="267.0" fill="#a020f0" r="3.0" stroke="#000"/><circle cx="420.0" cy="327.0" fill="#a52a2a" r="3.0" stroke="#000"/><circle cx="388.0" cy="378.0" fill="#bebebe" r="3.0" stroke="#000"/><circle cx="334.0" cy="403.0" fill="#f00" r="3.0" stroke="#000"/><circle cx="274.0" cy="394.0" fill="#ffa500" r="3.0" stroke="#000"/><circle cx="231.0" cy="352.0" fill="#ff0" r="3.0" stroke="#000"/><polyline fill="none" points="234.0,309.0 232.0,249.0 268.0,202.0 328.0,197.0 385.0,217.0 418.0,267.0 421.0,327.0 387.0,376.0 334.0,403.0 274.0,394.0 231.0,352.0" stroke="#000" stroke-linejoin="round"/><circle cx="234.0" cy="309.0" fill="#f00" r="3.0" stroke="#000"/><circle cx="232.0" cy="249.0" fill="#ffa500" r="3.0" stroke="#000"/><circle cx="268.0" cy="202.0" fill="#ff0" r="3.0" stroke="#000"/><circle cx="328.0" cy="197.0" fill="#0f0" r="3.0" stroke="#000"/><circle cx="385.0" cy="217.0" fill="#00f" r="3.0" stroke="#000"/><circle cx="418.0" cy="267.0" fill="#a020f0" r="3.0" stroke="#000"/><circle cx="421.0" cy="327.0" fill="#a52a2a" r="3.0" stroke="#000"/><circle cx="387.0" cy="376.0" fill="#bebebe" r="3.0" stroke="#000"/><circle cx="334.0" cy="403.0" fill="#f00" r="3.0" stroke="#000"/><circle cx="274.0" cy="394.0" fill="#ffa500" r="3.0" stroke="#000"/><circle cx="231.0" cy="352.0" fill="#ff0" r="3.0" stroke="#000"/><polyline fill="none" points="234.0,309.0 226.0,250.0 269.0,209.0 328.0,197.0 385.0,217.0 418.0,266.0 421.0,326.0 388.0,377.0 334.0,403.0 274.0,394.0 231.0,352.0" stroke="#000" stroke-linejoin="round"/><circle cx="234.0" cy="309.0" fill="#f00" r="3.0" stroke="#000"/><circle cx="226.0" cy="250.0" fill="#ffa500" r="3.0" stroke="#000"/><circle cx="269.0" cy="209.0" fill="#ff0" r="3.0" stroke="#000"/><circle cx="328.0" cy="197.0" fill="#0f0" r="3.0" stroke="#000"/><circle cx="385.0" cy="217.0" fill="#00f" r="3.0" stroke="#000"/><circle cx="418.0" cy="266.0" fill="#a020f0" r="3.0" stroke="#000"/><circle cx="421.0" cy="326.0" fill="#a52a2a" r="3.0" stroke="#000"/><circle cx="388.0" cy="377.0" fill="#bebebe" r="3.0" stroke="#000"/><circle cx="334.0" cy="403.0" fill="#f00" r="3.0" stroke="#000"/><circle cx="274.0" cy="394.0" fill="#ffa500" r="3.0" stroke="#000"/><circle cx="231.0" cy="352.0" fill="#ff0" r="3.0" stroke="#000"/><polyline fill="none" points="221.0,307.0 223.0,247.0 269.0,209.0 328.0,195.0 383.0,218.0 418.0,266.0 421.0,326.0 388.0,377.0 334.0,403.0 274.0,394.0 231.0,352.0" stroke="#000" stroke-linejoin="round"/><circle cx="221.0" cy="307.0" fill="#f00" r="3.0" stroke="#000"/><circle cx="223.0" cy="247.0" fill="#ffa500" r="3.0" stroke="#000"/><circle cx="269.0" cy="209.0" fill="#ff0" r="3.0" stroke="#000"/><circle cx="328.0" cy="195.0" fill="#0f0" r="3.0" stroke="#000"/><circle cx="383.0" cy="218.0" fill="#00f" r="3.0" stroke="#000"/><circle cx="418.0" cy="266.0" fill="#a020f0" r="3.0" stroke="#000"/><circle cx="421.0" cy="326.0" fill="#a52a2a" r="3.0" stroke="#000"/><circle cx="388.0" cy="377.0" fill="#bebebe" r="3.0" stroke="#000"/><circle cx="334.0" cy="403.0" fill="#f00" r="3.0" stroke="#000"/><circle cx="274.0" cy="394.0" fill="#ffa500" r="3.0" stroke="#000"/><circle cx="231.0" cy="352.0" fill="#ff0" r="3.0" stroke="#000"/><polyline fill="none" points="221.0,307.0 223.0,247.0 269.0,209.0 328.0,195.0 384.0,217.0 418.0,266.0 420.0,326.0 389.0,378.0 335.0,404.0 276.0,392.0 231.0,352.0" stroke="#000" stroke-linejoin="round"/><circle cx="221.0" cy="307.0" fill="#f00" r="3.0" stroke="#000"/><circle cx="223.0" cy="247.0" fill="#ffa500" r="3.0" stroke="#000"/><circle cx="269.0" cy="209.0" fill="#ff0" r="3.0" stroke="#000"/><circle cx="328.0" cy="195.0" fill="#0f0" r="3.0" stroke="#000"/><circle cx="384.0" cy="217.0" fill="#00f" r="3.0" stroke="#000"/><circle cx="418.0" cy="266.0" fill="#a020f0" r="3.0" stroke="#000"/><circle cx="420.0" cy="326.0" fill="#a52a2a" r="3.0" stroke="#000"/><circle cx="389.0" cy="378.0" fill="#bebebe" r="3.0" stroke="#000"/><circle cx="335.0" cy="404.0" fill="#f00" r="3.0" stroke="#000"/><circle cx="276.0" cy="392.0" fill="#ffa500" r="3.0" stroke="#000"/><circle cx="231.0" cy="352.0" fill="#ff0" r="3.0" stroke="#000"/><polyline fill="none" points="221.0,307.0 223.0,247.0 269.0,209.0 328.0,197.0 385.0,216.0 418.0,266.0 420.0,326.0 389.0,378.0 335.0,403.0 276.0,392.0 231.0,352.0" stroke="#000" stroke-linejoin="round"/><circle cx="221.0" cy="307.0" fill="#f00" r="3.0" stroke="#000"/><circle cx="223.0" cy="247.0" fill="#ffa500" r="3.0" stroke="#000"/><circle cx="269.0" cy="209.0" fill="#ff0" r="3.0" stroke="#000"/><circle cx="328.0" cy="197.0" fill="#0f0" r="3.0" stroke="#000"/><circle cx="385.0" cy="216.0" fill="#00f" r="3.0" stroke="#000"/><circle cx="418.0" cy="266.0" fill="#a020f0" r="3.0" stroke="#000"/><circle cx="420.0" cy="326.0" fill="#a52a2a" r="3.0" stroke="#000"/><circle cx="389.0" cy="378.0" fill="#bebebe" r="3.0" stroke="#000"/><circle cx="335.0" cy="403.0" fill="#f00" r="3.0" stroke="#000"/><circle cx="276.0" cy="392.0" fill="#ffa500" r="3.0" stroke="#000"/><circle cx="231.0" cy="352.0" fill="#ff0" r="3.0" stroke="#000"/><polyline fill="none" points="214.0,309.0 225.0,250.0 270.0,210.0 328.0,196.0 385.0,216.0 418.0,266.0 420.0,326.0 389.0,378.0 335.0,403.0 276.0,392.0 231.0,352.0" stroke="#000" stroke-linejoin="round"/><circle cx="214.0" cy="309.0" fill="#f00" r="3.0" stroke="#000"/><circle cx="225.0" cy="250.0" fill="#ffa500" r="3.0" stroke="#000"/><circle cx="270.0" cy="210.0" fill="#ff0" r="3.0" stroke="#000"/><circle cx="328.0" cy="196.0" fill="#0f0" r="3.0" stroke="#000"/><circle cx="385.0" cy="216.0" fill="#00f" r="3.0" stroke="#000"/><circle cx="418.0" cy="266.0" fill="#a020f0" r="3.0" stroke="#000"/><circle cx="420.0" cy="326.0" fill="#a52a2a" r="3.0" stroke="#000"/><circle cx="389.0" cy="378.0" fill="#bebebe" r="3.0" stroke="#000"/><circle cx="335.0" cy="403.0" fill="#f00" r="3.0" stroke="#000"/><circle cx="276.0" cy="392.0" fill="#ffa500" r="3.0" stroke="#000"/><circle cx="231.0" cy="352.0" fill="#ff0" r="3.0" stroke="#000"/><polyline fill="none" points="204.0,306.0 228.0,251.0 269.0,208.0 328.0,196.0 385.0,216.0 417.0,267.0 421.0,327.0 389.0,378.0 335.0,403.0 276.0,392.0 231.0,352.0" stroke="#000" stroke-linejoin="round"/><circle cx="204.0" cy="306.0" fill="#f00" r="3.0" stroke="#000"/><circle cx="228.0" cy="251.0" fill="#ffa500" r="3.0" stroke="#000"/><circle cx="269.0" cy="208.0" fill="#ff0" r="3.0" stroke="#000"/><circle cx="328.0" cy="196.0" fill="#0f0" r="3.0" stroke="#000"/><circle cx="385.0" cy="216.0" fill="#00f" r="3.0" stroke="#000"/><circle cx="417.0" cy="267.0" fill="#a020f0" r="3.0" stroke="#000"/><circle cx="421.0" cy="327.0" fill="#a52a2a" r="3.0" stroke="#000"/><circle cx="389.0" cy="378.0" fill="#bebebe" r="3.0" stroke="#000"/><circle cx="335.0" cy="403.0" fill="#f00" r="3.0" stroke="#000"/><circle cx="276.0" cy="392.0" fill="#ffa500" r="3.0" stroke="#000"/><circle cx="231.0" cy="352.0" fill="#ff0" r="3.0" stroke="#000"/><polyline fill="none" points="204.0,306.0 228.0,251.0 269.0,207.0 328.0,197.0 384.0,218.0 418.0,267.0 421.0,327.0 389.0,378.0 335.0,403.0 276.0,392.0 231.0,352.0" stroke="#000" stroke-linejoin="round"/><circle cx="204.0" cy="306.0" fill="#f00" r="3.0" stroke="#000"/><circle cx="228.0" cy="251.0" fill="#ffa500" r="3.0" stroke="#000"/><circle cx="269.0" cy="207.0" fill="#ff0" r="3.0" stroke="#000"/><circle cx="328.0" cy="197.0" fill="#0f0" r="3.0" stroke="#000"/><circle cx="384.0" cy="218.0" fill="#00f" r="3.0" stroke="#000"/><circle cx="418.0" cy="267.0" fill="#a020f0" r="3.0" stroke="#000"/><circle cx="421.0" cy="327.0" fill="#a52a2a" r="3.0" stroke="#000"/><circle cx="389.0" cy="378.0" fill="#bebebe" r="3.0" stroke="#000"/><circle cx="335.0" cy="403.0" fill="#f00" r="3.0" stroke="#000"/><circle cx="276.0" cy="392.0" fill="#ffa500" r="3.0" stroke="#000"/><circle cx="231.0" cy="352.0" fill="#ff0" r="3.0" stroke="#000"/><polyline fill="none" points="204.0,306.0 227.0,251.0 269.0,208.0 328.0,198.0 385.0,217.0 417.0,267.0 421.0,327.0 389.0,378.0 335.0,403.0 276.0,392.0 231.0,352.0" stroke="#000" stroke-linejoin="round"/><circle cx="204.0" cy="306.0" fill="#f00" r="3.0" stroke="#000"/><circle cx="227.0" cy="251.0" fill="#ffa500" r="3.0" stroke="#000"/><circle cx="269.0" cy="208.0" fill="#ff0" r="3.0" stroke="#000"/><circle cx="328.0" cy="198.0" fill="#0f0" r="3.0" stroke="#000"/><circle cx="385.0" cy="217.0" fill="#00f" r="3.0" stroke="#000"/><circle cx="417.0" cy="267.0" fill="#a020f0" r="3.0" stroke="#000"/><circle cx="421.0" cy="327.0" fill="#a52a2a" r="3.0" stroke="#000"/><circle cx="389.0" cy="378.0" fill="#bebebe" r="3.0" stroke="#000"/><circle cx="335.0" cy="403.0" fill="#f00" r="3.0" stroke="#000"/><circle cx="276.0" cy="392.0" fill="#ffa500" r="3.0" stroke="#000"/><circle cx="231.0" cy="352.0" fill="#ff0" r="3.0" stroke="#000"/><polyline fill="none" points="204.0,306.0 225.0,250.0 269.0,209.0 328.0,198.0 384.0,217.0 418.0,267.0 421.0,327.0 389.0,378.0 334.0,402.0 275.0,393.0 231.0,352.0" stroke="#000" stroke-linejoin="round"/><circle cx="204.0" cy="306.0" fill="#f00" r="3.0" stroke="#000"/><circle cx="225.0" cy="250.0" fill="#ffa500" r="3.0" stroke="#000"/><circle cx="269.0" cy="209.0" fill="#ff0" r="3.0" stroke="#000"/><circle cx="328.0" cy="198.0" fill="#0f0" r="3.0" stroke="#000"/><circle cx="384.0" cy="217.0" fill="#00f" r="3.0" stroke="#000"/><circle cx="418.0" cy="267.0" fill="#a020f0" r="3.0" stroke="#000"/><circle cx="421.0" cy="327.0" fill="#a52a2a" r="3.0" stroke="#000"/><circle cx="389.0" cy="378.0" fill="#bebebe" r="3.0" stroke="#000"/><circle cx="334.0" cy="402.0" fill="#f00" r="3.0" stroke="#000"/><circle cx="275.0" cy="393.0" fill="#ffa500" r="3.0" stroke="#000"/><circle cx="231.0" cy="352.0" fill="#ff0" r="3.0" stroke="#000"/><polyline fill="none" points="204.0,306.0 222.0,249.0 270.0,213.0 328.0,196.0 383.0,219.0 418.0,267.0 421.0,327.0 389.0,378.0 334.0,402.0 275.0,393.0 231.0,352.0" stroke="#000" stroke-linejoin="round"/><circle cx="204.0" cy="306.0" fill="#f00" r="3.0" stroke="#000"/><circle cx="222.0" cy="249.0" fill="#ffa500" r="3.0" stroke="#000"/><circle cx="270.0" cy="213.0" fill="#ff0" r="3.0" stroke="#000"/><circle cx="328.0" cy="196.0" fill="#0f0" r="3.0" stroke="#000"/><circle cx="383.0" cy="219.0" fill="#00f" r="3.0" stroke="#000"/><circle cx="418.0" cy="267.0" fill="#a020f0" r="3.0" stroke="#000"/><circle cx="421.0" cy="327.0" fill="#a52a2a" r="3.0" stroke="#000"/><circle cx="389.0" cy="378.0" fill="#bebebe" r="3.0" stroke="#000"/><circle cx="334.0" cy="402.0" fill="#f00" r="3.0" stroke="#000"/><circle cx="275.0" cy="393.0" fill="#ffa500" r="3.0" stroke="#000"/><circle cx="231.0" cy="352.0" fill="#ff0" r="3.0" stroke="#000"/><polyline fill="none" points="204.0,306.0 224.0,250.0 269.0,210.0 328.0,196.0 383.0,219.0 418.0,267.0 421.0,327.0 389.0,378.0 334.0,402.0 275.0,393.0 231.0,352.0" stroke="#000" stroke-linejoin="round"/><circle cx="204.0" cy="306.0" fill="#f00" r="3.0" stroke="#000"/><circle cx="224.0" cy="250.0" fill="#ffa500" r="3.0" stroke="#000"/><circle cx="269.0" cy="210.0" fill="#ff0" r="3.0" stroke="#000"/><circle cx="328.0" cy="196.0" fill="#0f0" r="3.0" stroke="#000"/><circle cx="383.0" cy="219.0" fill="#00f" r="3.0" stroke="#000"/><circle cx="418.0" cy="267.0" fill="#a020f0" r="3.0" stroke="#000"/><circle cx="421.0" cy="327.0" fill="#a52a2a" r="3.0" stroke="#000"/><circle cx="389.0" cy="378.0" fill="#bebebe" r="3.0" stroke="#000"/><circle cx="334.0" cy="402.0" fill="#f00" r="3.0" stroke="#000"/><circle cx="275.0" cy="393.0" fill="#ffa500" r="3.0" stroke="#000"/><circle cx="231.0" cy="352.0" fill="#ff0" r="3.0" stroke="#000"/><polyline fill="none" points="204.0,306.0 231.0,253.0 268.0,206.0 328.0,196.0 383.0,219.0 418.0,267.0 421.0,327.0 388.0,377.0 334.0,403.0 275.0,393.0 231.0,352.0" stroke="#000" stroke-linejoin="round"/><circle cx="204.0" cy="306.0" fill="#f00" r="3.0" stroke="#000"/><circle cx="231.0" cy="253.0" fill="#ffa500" r="3.0" stroke="#000"/><circle cx="268.0" cy="206.0" fill="#ff0" r="3.0" stroke="#000"/><circle cx="328.0" cy="196.0" fill="#0f0" r="3.0" stroke="#000"/><circle cx="383.0" cy="219.0" fill="#00f" r="3.0" stroke="#000"/><circle cx="418.0" cy="267.0" fill="#a020f0" r="3.0" stroke="#000"/><circle cx="421.0" cy="327.0" fill="#a52a2a" r="3.0" stroke="#000"/><circle cx="388.0" cy="377.0" fill="#bebebe" r="3.0" stroke="#000"/><circle cx="334.0" cy="403.0" fill="#f00" r="3.0" stroke="#000"/><circle cx="275.0" cy="393.0" fill="#ffa500" r="3.0" stroke="#000"/><circle cx="231.0" cy="352.0" fill="#ff0" r="3.0" stroke="#000"/><polyline fill="none" points="204.0,306.0 231.0,253.0 268.0,206.0 328.0,196.0 383.0,219.0 418.0,267.0 421.0,327.0 388.0,377.0 334.0,403.0 275.0,393.0 231.0,352.0" stroke="#000" stroke-linejoin="round"/><circle cx="204.0" cy="306.0" fill="#f00" r="3.0" stroke="#000"/><circle cx="231.0" cy="253.0" fill="#ffa500" r="3.0" stroke="#000"/><circle cx="268.0" cy="206.0" fill="#ff0" r="3.0" stroke="#000"/><circle cx="328.0" cy="196.0" fill="#0f0" r="3.0" stroke="#000"/><circle cx="383.0" cy="219.0" fill="#00f" r="3.0" stroke="#000"/><circle cx="418.0" cy="267.0" fill="#a020f0" r="3.0" stroke="#000"/><circle cx="421.0" cy="327.0" fill="#a52a2a" r="3.0" stroke="#000"/><circle cx="388.0" cy="377.0" fill="#bebebe" r="3.0" stroke="#000"/><circle cx="334.0" cy="403.0" fill="#f00" r="3.0" stroke="#000"/><circle cx="275.0" cy="393.0" fill="#ffa500" r="3.0" stroke="#000"/><circle cx="231.0" cy="352.0" fill="#ff0" r="3.0" stroke="#000"/><polyline fill="none" points="204.0,306.0 231.0,253.0 268.0,206.0 328.0,196.0 383.0,219.0 419.0,267.0 420.0,327.0 388.0,377.0 334.0,404.0 275.0,393.0 231.0,352.0" stroke="#000" stroke-linejoin="round"/><circle cx="204.0" cy="306.0" fill="#f00" r="3.0" stroke="#000"/><circle cx="231.0" cy="253.0" fill="#ffa500" r="3.0" stroke="#000"/><circle cx="268.0" cy="206.0" fill="#ff0" r="3.0" stroke="#000"/><circle cx="328.0" cy="196.0" fill="#0f0" r="3.0" stroke="#000"/><circle cx="383.0" cy="219.0" fill="#00f" r="3.0" stroke="#000"/><circle cx="419.0" cy="267.0" fill="#a020f0" r="3.0" stroke="#000"/><circle cx="420.0" cy="327.0" fill="#a52a2a" r="3.0" stroke="#000"/><circle cx="388.0" cy="377.0" fill="#bebebe" r="3.0" stroke="#000"/><circle cx="334.0" cy="404.0" fill="#f00" r="3.0" stroke="#000"/><circle cx="275.0" cy="393.0" fill="#ffa500" r="3.0" stroke="#000"/><circle cx="231.0" cy="352.0" fill="#ff0" r="3.0" stroke="#000"/><polyline fill="none" points="204.0,306.0 232.0,253.0 268.0,206.0 328.0,200.0 386.0,217.0 418.0,267.0 421.0,327.0 388.0,377.0 334.0,404.0 275.0,393.0 231.0,352.0" stroke="#000" stroke-linejoin="round"/><circle cx="204.0" cy="306.0" fill="#f00" r="3.0" stroke="#000"/><circle cx="232.0" cy="253.0" fill="#ffa500" r="3.0" stroke="#000"/><circle cx="268.0" cy="206.0" fill="#ff0" r="3.0" stroke="#000"/><circle cx="328.0" cy="200.0" fill="#0f0" r="3.0" stroke="#000"/><circle cx="386.0" cy="217.0" fill="#00f" r="3.0" stroke="#000"/><circle cx="418.0" cy="267.0" fill="#a020f0" r="3.0" stroke="#000"/><circle cx="421.0" cy="327.0" fill="#a52a2a" r="3.0" stroke="#000"/><circle cx="388.0" cy="377.0" fill="#bebebe" r="3.0" stroke="#000"/><circle cx="334.0" cy="404.0" fill="#f00" r="3.0" stroke="#000"/><circle cx="275.0" cy="393.0" fill="#ffa500" r="3.0" stroke="#000"/><circle cx="231.0" cy="352.0" fill="#ff0" r="3.0" stroke="#000"/><polyline fill="none" points="204.0,306.0 227.0,251.0 269.0,208.0 328.0,199.0 385.0,217.0 419.0,267.0 421.0,327.0 388.0,377.0 334.0,404.0 275.0,393.0 231.0,352.0" stroke="#000" stroke-linejoin="round"/><circle cx="204.0" cy="306.0" fill="#f00" r="3.0" stroke="#000"/><circle cx="227.0" cy="251.0" fill="#ffa500" r="3.0" stroke="#000"/><circle cx="269.0" cy="208.0" fill="#ff0" r="3.0" stroke="#000"/><circle cx="328.0" cy="199.0" fill="#0f0" r="3.0" stroke="#000"/><circle cx="385.0" cy="217.0" fill="#00f" r="3.0" stroke="#000"/><circle cx="419.0" cy="267.0" fill="#a020f0" r="3.0" stroke="#000"/><circle cx="421.0" cy="327.0" fill="#a52a2a" r="3.0" stroke="#000"/><circle cx="388.0" cy="377.0" fill="#bebebe" r="3.0" stroke="#000"/><circle cx="334.0" cy="404.0" fill="#f00" r="3.0" stroke="#000"/><circle cx="275.0" cy="393.0" fill="#ffa500" r="3.0" stroke="#000"/><circle cx="231.0" cy="352.0" fill="#ff0" r="3.0" stroke="#000"/><polyline fill="none" points="204.0,306.0 227.0,251.0 269.0,208.0 328.0,199.0 386.0,216.0 417.0,267.0 420.0,327.0 389.0,378.0 334.0,404.0 275.0,393.0 231.0,352.0" stroke="#000" stroke-linejoin="round"/><circle cx="204.0" cy="306.0" fill="#f00" r="3.0" stroke="#000"/><circle cx="227.0" cy="251.0" fill="#ffa500" r="3.0" stroke="#000"/><circle cx="269.0" cy="208.0" fill="#ff0" r="3.0" stroke="#000"/><circle cx="328.0" cy="199.0" fill="#0f0" r="3.0" stroke="#000"/><circle cx="386.0" cy="216.0" fill="#00f" r="3.0" stroke="#000"/><circle cx="417.0" cy="267.0" fill="#a020f0" r="3.0" stroke="#000"/><circle cx="420.0" cy="327.0" fill="#a52a2a" r="3.0" stroke="#000"/><circle cx="389.0" cy="378.0" fill="#bebebe" r="3.0" stroke="#000"/><circle cx="334.0" cy="404.0" fill="#f00" r="3.0" stroke="#000"/><circle cx="275.0" cy="393.0" fill="#ffa500" r="3.0" stroke="#000"/><circle cx="231.0" cy="352.0" fill="#ff0" r="3.0" stroke="#000"/><polyline fill="none" points="204.0,306.0 229.0,252.0 268.0,207.0 327.0,195.0 383.0,217.0 416.0,267.0 420.0,327.0 389.0,378.0 334.0,404.0 275.0,393.0 231.0,352.0" stroke="#000" stroke-linejoin="round"/><circle cx="204.0" cy="306.0" fill="#f00" r="3.0" stroke="#000"/><circle cx="229.0" cy="252.0" fill="#ffa500" r="3.0" stroke="#000"/><circle cx="268.0" cy="207.0" fill="#ff0" r="3.0" stroke="#000"/><circle cx="327.0" cy="195.0" fill="#0f0" r="3.0" stroke="#000"/><circle cx="383.0" cy="217.0" fill="#00f" r="3.0" stroke="#000"/><circle cx="416.0" cy="267.0" fill="#a020f0" r="3.0" stroke="#000"/><circle cx="420.0" cy="327.0" fill="#a52a2a" r="3.0" stroke="#000"/><circle cx="389.0" cy="378.0" fill="#bebebe" r="3.0" stroke="#000"/><circle cx="334.0" cy="404.0" fill="#f00" r="3.0" stroke="#000"/><circle cx="275.0" cy="393.0" fill="#ffa500" r="3.0" stroke="#000"/><circle cx="231.0" cy="352.0" fill="#ff0" r="3.0" stroke="#000"/></svg>