<?xml version="1.0" ?><!DOCTYPE svg  PUBLIC '-//W3C//DTD SVG 1.1//EN'  'http://www.w3.org/Graphics/SVG/1.1/DTD/svg11.dtd'><svg height="620.000" viewBox="-9.000 -9.000 820.000 620.000" width="820.000" xmlns="http://www.w3.org/2000/svg"><rect fill="#fff" height="598.0" stroke="#000" width="798.0" x="2.0" y="2.0"/><circle cx="220.0" cy="300.0" fill="none" r="18.0" stroke="#000"/><circle cx="235.0" cy="246.0" fill="none" r="9.0" stroke="#000"/><circle cx="278.0" cy="209.0" fill="none" r="6.0" stroke="#000"/><circle cx="333.5" cy="200.5" fill="none" r="4.5" stroke="#000"/><circle cx="384.5" cy="224.5" fill="none" r="3.5" stroke="#000"/><circle cx="415.0" cy="271.0" fill="none" r="3.0" stroke="#000"/><circle cx="414.5" cy="327.5" fill="none" r="2.5" stroke="#000"/><ellipse cx="384.0" cy="374.5" fill="none" rx="2.0" ry="2.5" stroke="#000"/><circle cx="333.0" cy="398.0" fill="none" r="2.0" stroke="#000"/><ellipse cx="277.5" cy="390.0" fill="none" rx="1.5" ry="2.0" stroke="#000"/><circle cx="235.5" cy="353.5" fill="none" r="1.5" stroke="#000"/><polyline fill="none" points="204.0,310.0 241.0,263.0 294.0,235.0 354.0,244.0 412.0,259.0 470.0,272.0 428.0,314.0 388.0,359.0 335.0,388.0 276.0,389.0 221.0,364.0" stroke="#000" stroke-linejoin="round"/><circle cx="204.0" cy="310.0" fill="#f00" r="3.0" stroke="#000"/><circle cx="241.0" cy="263.0" fill="#ffa500" r="3.0" stroke="#000"/><circle cx="294.0" cy="235.0" fill="#ff0" r="3.0" stroke="#000"/><circle cx="354.0" cy="244.0" fill="#0f0" r="3.0" stroke="#000"/><circle cx="412.0" cy="259.0" fill="#00f" r="3.0" stroke="#000"/><circle cx="470.0" cy="272.0" fill="#a020f0" r="3.0" stroke="#000"/><circle cx="428.0" cy="314.0" fill="#a52a2a" r="3.0" stroke="#000"/><circle cx="388.0" cy="359.0" fill="#bebebe" r="3.0" stroke="#000"/><circle cx="335.0" cy="388.0" fill="#f00" r="3.0" stroke="#000"/><circle cx="276.0" cy="389.0" fill="#ffa500" r="3.0" stroke="#000"/><circle cx="221.0" cy="364.0" fill="#ff0" r="3.0" stroke="#000"/><polyline fill="none" points="202.0,310.0 238.0,262.0 291.0,235.0 351.0,243.0 409.0,257.0 468.0,268.0 429.0,313.0 390.0,359.0 340.0,392.0 280.0,394.0 226.0,366.0" stroke="#000" stroke-linejoin="round"/><circle cx="202.0" cy="310.0" fill="#f00" r="3.0" stroke="#000"/><circle cx="238.0" cy="262.0" fill="#ffa500" r="3.0" stroke="#000"/><circle cx="291.0" cy="235.0" fill="#ff0" r="3.0" stroke="#000"/><circle cx="351.0" cy="243.0" fill="#0f0" r="3.0" stroke="#000"/><circle cx="409.0" cy="257.0" fill="#00f" r="3.0" stroke="#000"/><circle cx="468.0" cy="268.0" fill="#a020f0" r="3.0" stroke="#000"/><circle cx="429.0" cy="313.0" fill="#a52a2a" r="3.0" stroke="#000"/><circle cx="390.0" cy="359.0" fill="#bebebe" r="3.0" stroke="#000"/><circle cx="340.0" cy="392.0" fill="#f00" r="3.0" stroke="#000"/><circle cx="280.0" cy="394.0" fill="#ffa500" r="3.0" stroke="#000"/><circle cx="226.0" cy="366.0" fill="#ff0" r="3.0" stroke="#000"/><polyline fill="none" points="201.0,313.0 233.0,262.0 287.0,236.0 347.0,241.0 404.0,257.0 463.0,271.0 424.0,316.0 387.0,363.0 335.0,393.0 275.0,392.0 223.0,362.0" stroke="#000" stroke-linejoin="round"/><circle cx="201.0" cy="313.0" fill="#f00" r="3.0" stroke="#000"/><circle cx="233.0" cy="262.0" fill="#ffa500" r="3.0" stroke="#000"/><circle cx="287.0" cy="236.0" fill="#ff0" r="3.0" stroke="#000"/><circle cx="347.0" cy="241.0" fill="#0f0" r="3.0" stroke="#000"/><circle cx="404.0" cy="257.0" fill="#00f" r="3.0" stroke="#000"/><circle cx="463.0" cy="271.0" fill="#a020f0" r="3.0" stroke="#000"/><circle cx="424.0" cy="316.0" fill="#a52a2a" r="3.0" stroke="#000"/><circle cx="387.0" cy="363.0" fill="#bebebe" r="3.0" stroke="#000"/><circle cx="335.0" cy="393.0" fill="#f00" r="3.0" stroke="#000"/><circle cx="275.0" cy="392.0" fill="#ffa500" r="3.0" stroke="#000"/><circle cx="223.0" cy="362.0" fill="#ff0" r="3.0" stroke="#000"/><polyline fill="none" points="199.0,315.0 230.0,264.0 282.0,234.0 342.0,238.0 401.0,250.0 459.0,265.0 421.0,312.0 387.0,361.0 336.0,392.0 276.0,390.0 225.0,359.0" stroke="#000" stroke-linejoin="round"/><circle cx="199.0" cy="315.0" fill="#f00" r="3.0" stroke="#000"/><circle cx="230.0" cy="264.0" fill="#ffa500" r="3.0" stroke="#000"/><circle cx="282.0" cy="234.0" fill="#ff0" r="3.0" stroke="#000"/><circle cx="342.0" cy="238.0" fill="#0f0" r="3.0" stroke="#000"/><circle cx="401.0" cy="250.0" fill="#00f" r="3.0" stroke="#000"/><circle cx="459.0" cy="265.0" fill="#a020f0" r="3.0" stroke="#000"/><circle cx="421.0" cy="312.0" fill="#a52a2a" r="3.0" stroke="#000"/><circle cx="387.0" cy="361.0" fill="#bebebe" r="3.0" stroke="#000"/><circle cx="336.0" cy="392.0" fill="#f00" r="3.0" stroke="#000"/><circle cx="276.0" cy="390.0" fill="#ffa500" r="3.0" stroke="#000"/><circle cx="225.0" cy="359.0" fill="#ff0" r="3.0" stroke="#000"/><polyline fill="none" points="199.0,315.0 229.0,263.0 281.0,233.0 341.0,237.0 400.0,251.0 457.0,266.0 421.0,314.0 386.0,363.0 335.0,394.0 275.0,389.0 225.0,356.0" stroke="#000" stroke-linejoin="round"/><circle cx="199.0" cy="315.0" fill="#f00" r="3.0" stroke="#000"/><circle cx="229.0" cy="263.0" fill="#ffa500" r="3.0" stroke="#000"/><circle cx="281.0" cy="233.0" fill="#ff0" r="3.0" stroke="#000"/><circle cx="341.0" cy="237.0" fill="#0f0" r="3.0" stroke="#000"/><circle cx="400.0" cy="251.0" fill="#00f" r="3.0" stroke="#000"/><circle cx="457.0" cy="266.0" fill="#a020f0" r="3.0" stroke="#000"/><circle cx="421.0" cy="314.0" fill="#a52a2a" r="3.0" stroke="#000"/><circle cx="386.0" cy="363.0" fill="#bebebe" r="3.0" stroke="#000"/><circle cx="335.0" cy="394.0" fill="#f00" r="3.0" stroke="#000"/><circle cx="275.0" cy="389.0" fill="#ffa500" r="3.0" stroke="#000"/><circle cx="225.0" cy="356.0" fill="#ff0" r="3.0" stroke="#000"/><polyline fill="none" points="199.0,315.0 229.0,263.0 281.0,233.0 341.0,237.0 400.0,251.0 457.0,266.0 421.0,314.0 386.0,363.0 335.0,394.0 275.0,389.0 225.0,356.0" stroke="#000" stroke-linejoin="round"/><circle cx="199.0" cy="315.0" fill="#f00" r="3.0" stroke="#000"/><circle cx="229.0" cy="263.0" fill="#ffa500" r="3.0" stroke="#000"/><circle cx="281.0" cy="233.0" fill="#ff0" r="3.0" stroke="#000"/><circle cx="341.0" cy="237.0" fill="#0f0" r="3.0" stroke="#000"/><circle cx="400.0" cy="251.0" fill="#00f" r="3.0" stroke="#000"/><circle cx="457.0" cy="266.0" fill="#a020f0" r="3.0" stroke="#000"/><circle cx="421.0" cy="314.0" fill="#a52a2a" r="3.0" stroke="#000"/><circle cx="386.0" cy="363.0" fill="#bebebe" r="3.0" stroke="#000"/><circle cx="335.0" cy="394.0" fill="#f00" r="3.0" stroke="#000"/><circle cx="275.0" cy="389.0" fill="#ffa500" r="3.0" stroke="#000"/><circle cx="225.0" cy="356.0" fill="#ff0" r="3.0" stroke="#000"/><polyline fill="none" points="197.0,315.0 227.0,263.0 279.0,232.0 338.0,237.0 397.0,251.0 455.0,267.0 418.0,314.0 385.0,365.0 334.0,396.0 274.0,392.0 223.0,361.0" stroke="#000" stroke-linejoin="round"/><circle cx="197.0" cy="315.0" fill="#f00" r="3.0" stroke="#000"/><circle cx="227.0" cy="263.0" fill="#ffa500" r="3.0" stroke="#000"/><circle cx="279.0" cy="232.0" fill="#ff0" r="3.0" stroke="#000"/><circle cx="338.0" cy="237.0" fill="#0f0" r="3.0" stroke="#000"/><circle cx="397.0" cy="251.0" fill="#00f" r="3.0" stroke="#000"/><circle cx="455.0" cy="267.0" fill="#a020f0" r="3.0" stroke="#000"/><circle cx="418.0" cy="314.0" fill="#a52a2a" r="3.0" stroke="#000"/><circle cx="385.0" cy="365.0" fill="#bebebe" r="3.0" stroke="#000"/><circle cx="334.0" cy="396.0" fill="#f00" r="3.0" stroke="#000"/><circle cx="274.0" cy="392.0" fill="#ffa500" r="3.0" stroke="#000"/><circle cx="223.0" cy="361.0" fill="#ff0" r="3.0" stroke="#000"/><polyline fill="none" points="194.0,314.0 225.0,263.0 277.0,232.0 337.0,236.0 395.0,250.0 453.0,264.0 419.0,314.0 389.0,366.0 337.0,396.0 277.0,391.0 229.0,354.0" stroke="#000" stroke-linejoin="round"/><circle cx="194.0" cy="314.0" fill="#f00" r="3.0" stroke="#000"/><circle cx="225.0" cy="263.0" fill="#ffa500" r="3.0" stroke="#000"/><circle cx="277.0" cy="232.0" fill="#ff0" r="3.0" stroke="#000"/><circle cx="337.0" cy="236.0" fill="#0f0" r="3.0" stroke="#000"/><circle cx="395.0" cy="250.0" fill="#00f" r="3.0" stroke="#000"/><circle cx="453.0" cy="264.0" fill="#a020f0" r="3.0" stroke="#000"/><circle cx="419.0" cy="314.0" fill="#a52a2a" r="3.0" stroke="#000"/><circle cx="389.0" cy="366.0" fill="#bebebe" r="3.0" stroke="#000"/><circle cx="337.0" cy="396.0" fill="#f00" r="3.0" stroke="#000"/><circle cx="277.0" cy="391.0" fill="#ffa500" r="3.0" stroke="#000"/><circle cx="229.0" cy="354.0" fill="#ff0" r="3.0" stroke="#000"/><polyline fill="none" points="195.0,313.0 227.0,263.0 279.0,232.0 339.0,236.0 397.0,251.0 455.0,267.0 420.0,316.0 389.0,368.0 336.0,397.0 277.0,391.0 230.0,353.0" stroke="#000" stroke-linejoin="round"/><circle cx="195.0" cy="313.0" fill="#f00" r="3.0" stroke="#000"/><circle cx="227.0" cy="263.0" fill="#ffa500" r="3.0" stroke="#000"/><circle cx="279.0" cy="232.0" fill="#ff0" r="3.0" stroke="#000"/><circle cx="339.0" cy="236.0" fill="#0f0" r="3.0" stroke="#000"/><circle cx="397.0" cy="251.0" fill="#00f" r="3.0" stroke="#000"/><circle cx="455.0" cy="267.0" fill="#a020f0" r="3.0" stroke="#000"/><circle cx="420.0" cy="316.0" fill="#a52a2a" r="3.0" stroke="#000"/><circle cx="389.0" cy="368.0" fill="#bebebe" r="3.0" stroke="#000"/><circle cx="336.0" cy="397.0" fill="#f00" r="3.0" stroke="#000"/><circle cx="277.0" cy="391.0" fill="#ffa500" r="3.0" stroke="#000"/><circle cx="230.0" cy="353.0" fill="#ff0" r="3.0" stroke="#000"/><polyline fill="none" points="195.0,313.0 227.0,263.0 279.0,232.0 339.0,236.0 397.0,251.0 455.0,267.0 420.0,316.0 389.0,368.0 336.0,397.0 277.0,391.0 230.0,353.0" stroke="#000" stroke-linejoin="round"/><circle cx="195.0" cy="313.0" fill="#f00" r="3.0" stroke="#000"/><circle cx="227.0" cy="263.0" fill="#ffa500" r="3.0" stroke="#000"/><circle cx="279.0" cy="232.0" fill="#ff0" r="3.0" stroke="#000"/><circle cx="339.0" cy="236.0" fill="#0f0" r="3.0" stroke="#000"/><circle cx="397.0" cy="251.0" fill="#00f" r="3.0" stroke="#000"/><circle cx="455.0" cy="267.0" fill="#a020f0" r="3.0" stroke="#000"/><circle cx="420.0" cy="316.0" fill="#a52a2a" r="3.0" stroke="#000"/><circle cx="389.0" cy="368.0" fill="#bebebe" r="3.0" stroke="#000"/><circle cx="336.0" cy="397.0" fill="#f00" r="3.0" stroke="#000"/><circle cx="277.0" cy="391.0" fill="#ffa500" r="3.0" stroke="#000"/><circle cx="230.0" cy="353.0" fill="#ff0" r="3.0" stroke="#000"/><polyline fill="none" points="196.0,313.0 226.0,261.0 278.0,230.0 337.0,235.0 395.0,252.0 452.0,270.0 416.0,318.0 387.0,371.0 334.0,399.0 275.0,392.0 229.0,353.0" stroke="#000" stroke-linejoin="round"/><circle cx="196.0" cy="313.0" fill="#f00" r="3.0" stroke="#000"/><circle cx="226.0" cy="261.0" fill="#ffa500" r="3.0" stroke="#000"/><circle cx="278.0" cy="230.0" fill="#ff0" r="3.0" stroke="#000"/><circle cx="337.0" cy="235.0" fill="#0f0" r="3.0" stroke="#000"/><circle cx="395.0" cy="252.0" fill="#00f" r="3.0" stroke="#000"/><circle cx="452.0" cy="270.0" fill="#a020f0" r="3.0" stroke="#000"/><circle cx="416.0" cy="318.0" fill="#a52a2a" r="3.0" stroke="#000"/><circle cx="387.0" cy="371.0" fill="#bebebe" r="3.0" stroke="#000"/><circle cx="334.0" cy="399.0" fill="#f00" r="3.0" stroke="#000"/><circle cx="275.0" cy="392.0" fill="#ffa500" r="3.0" stroke="#000"/><circle cx="229.0" cy="353.0" fill="#ff0" r="3.0" stroke="#000"/><polyline fill="none" points="196.0,313.0 226.0,261.0 278.0,230.0 337.0,235.0 395.0,252.0 452.0,270.0 416.0,318.0 387.0,371.0 334.0,399.0 275.0,392.0 229.0,353.0" stroke="#000" stroke-linejoin="round"/><circle cx="196.0" cy="313.0" fill="#f00" r="3.0" stroke="#000"/><circle cx="226.0" cy="261.0" fill="#ffa500" r="3.0" stroke="#000"/><circle cx="278.0" cy="230.0" fill="#ff0" r="3.0" stroke="#000"/><circle cx="337.0" cy="235.0" fill="#0f0" r="3.0" stroke="#000"/><circle cx="395.0" cy="252.0" fill="#00f" r="3.0" stroke="#000"/><circle cx="452.0" cy="270.0" fill="#a020f0" r="3.0" stroke="#000"/><circle cx="416.0" cy="318.0" fill="#a52a2a" r="3.0" stroke="#000"/><circle cx="387.0" cy="371.0" fill="#bebebe" r="3.0" stroke="#000"/><circle cx="334.0" cy="399.0" fill="#f00" r="3.0" stroke="#000"/><circle cx="275.0" cy="392.0" fill="#ffa500" r="3.0" stroke="#000"/><circle cx="229.0" cy="353.0" fill="#ff0" r="3.0" stroke="#000"/><polyline fill="none" points="196.0,312.0 225.0,259.0 276.0,228.0 336.0,231.0 393.0,248.0 451.0,267.0 415.0,315.0 386.0,368.0 333.0,396.0 274.0,388.0 227.0,351.0" stroke="#000" stroke-linejoin="round"/><circle cx="196.0" cy="312.0" fill="#f00" r="3.0" stroke="#000"/><circle cx="225.0" cy="259.0" fill="#ffa500" r="3.0" stroke="#000"/><circle cx="276.0" cy="228.0" fill="#ff0" r="3.0" stroke="#000"/><circle cx="336.0" cy="231.0" fill="#0f0" r="3.0" stroke="#000"/><circle cx="393.0" cy="248.0" fill="#00f" r="3.0" stroke="#000"/><circle cx="451.0" cy="267.0" fill="#a020f0" r="3.0" stroke="#000"/><circle cx="415.0" cy="315.0" fill="#a52a2a" r="3.0" stroke="#000"/><circle cx="386.0" cy="368.0" fill="#bebebe" r="3.0" stroke="#000"/><circle cx="333.0" cy="396.0" fill="#f00" r="3.0" stroke="#000"/><circle cx="274.0" cy="388.0" fill="#ffa500" r="3.0" stroke="#000"/><circle cx="227.0" cy="351.0" fill="#ff0" r="3.0" stroke="#000"/><polyline fill="none" points="196.0,310.0 223.0,257.0 274.0,225.0 334.0,228.0 391.0,247.0 448.0,266.0 412.0,314.0 385.0,368.0 332.0,396.0 273.0,388.0 227.0,349.0" stroke="#000" stroke-linejoin="round"/><circle cx="196.0" cy="310.0" fill="#f00" r="3.0" stroke="#000"/><circle cx="223.0" cy="257.0" fill="#ffa500" r="3.0" stroke="#000"/><circle cx="274.0" cy="225.0" fill="#ff0" r="3.0" stroke="#000"/><circle cx="334.0" cy="228.0" fill="#0f0" r="3.0" stroke="#000"/><circle cx="391.0" cy="247.0" fill="#00f" r="3.0" stroke="#000"/><circle cx="448.0" cy="266.0" fill="#a020f0" r="3.0" stroke="#000"/><circle cx="412.0" cy="314.0" fill="#a52a2a" r="3.0" stroke="#000"/><circle cx="385.0" cy="368.0" fill="#bebebe" r="3.0" stroke="#000"/><circle cx="332.0" cy="396.0" fill="#f00" r="3.0" stroke="#000"/><circle cx="273.0" cy="388.0" fill="#ffa500" r="3.0" stroke="#000"/><circle cx="227.0" cy="349.0" fill="#ff0" r="3.0" stroke="#000"/><polyline fill="none" points="195.0,310.0 223.0,257.0 273.0,224.0 333.0,225.0 390.0,243.0 448.0,261.0 414.0,310.0 390.0,365.0 338.0,396.0 278.0,391.0 231.0,355.0" stroke="#000" stroke-linejoin="round"/><circle cx="195.0" cy="310.0" fill="#f00" r="3.0" stroke="#000"/><circle cx="223.0" cy="257.0" fill="#ffa500" r="3.0" stroke="#000"/><circle cx="273.0" cy="224.0" fill="#ff0" r="3.0" stroke="#000"/><circle cx="333.0" cy="225.0" fill="#0f0" r="3.0" stroke="#000"/><circle cx="390.0" cy="243.0" fill="#00f" r="3.0" stroke="#000"/><circle cx="448.0" cy="261.0" fill="#a020f0" r="3.0" stroke="#000"/><circle cx="414.0" cy="310.0" fill="#a52a2a" r="3.0" stroke="#000"/><circle cx="390.0" cy="365.0" fill="#bebebe" r="3.0" stroke="#000"/><circle cx="338.0" cy="396.0" fill="#f00" r="3.0" stroke="#000"/><circle cx="278.0" cy="391.0" fill="#ffa500" r="3.0" stroke="#000"/><circle cx="231.0" cy="355.0" fill="#ff0" r="3.0" stroke="#000"/><polyline fill="none" points="196.0,311.0 224.0,258.0 275.0,226.0 335.0,229.0 391.0,248.0 448.0,267.0 413.0,316.0 386.0,369.0 333.0,398.0 274.0,390.0 227.0,352.0" stroke="#000" stroke-linejoin="round"/><circle cx="196.0" cy="311.0" fill="#f00" r="3.0" stroke="#000"/><circle cx="224.0" cy="258.0" fill="#ffa500" r="3.0" stroke="#000"/><circle cx="275.0" cy="226.0" fill="#ff0" r="3.0" stroke="#000"/><circle cx="335.0" cy="229.0" fill="#0f0" r="3.0" stroke="#000"/><circle cx="391.0" cy="248.0" fill="#00f" r="3.0" stroke="#000"/><circle cx="448.0" cy="267.0" fill="#a020f0" r="3.0" stroke="#000"/><circle cx="413.0" cy="316.0" fill="#a52a2a" r="3.0" stroke="#000"/><circle cx="386.0" cy="369.0" fill="#bebebe" r="3.0" stroke="#000"/><circle cx="333.0" cy="398.0" fill="#f00" r="3.0" stroke="#000"/><circle cx="274.0" cy="390.0" fill="#ffa500" r="3.0" stroke="#000"/><circle cx="227.0" cy="352.0" fill="#ff0" r="3.0" stroke="#000"/><polyline fill="none" points="196.0,311.0 224.0,258.0 275.0,226.0 335.0,229.0 391.0,248.0 448.0,267.0 413.0,316.0 386.0,369.0 333.0,398.0 274.0,390.0 227.0,352.0" stroke="#000" stroke-linejoin="round"/><circle cx="196.0" cy="311.0" fill="#f00" r="3.0" stroke="#000"/><circle cx="224.0" cy="258.0" fill="#ffa500" r="3.0" stroke="#000"/><circle cx="275.0" cy="226.0" fill="#ff0" r="3.0" stroke="#000"/><circle cx="335.0" cy="229.0" fill="#0f0" r="3.0" stroke="#000"/><circle cx="391.0" cy="248.0" fill="#00f" r="3.0" stroke="#000"/><circle cx="448.0" cy="267.0" fill="#a020f0" r="3.0" stroke="#000"/><circle cx="413.0" cy="316.0" fill="#a52a2a" r="3.0" stroke="#000"/><circle cx="386.0" cy="369.0" fill="#bebebe" r="3.0" stroke="#000"/><circle cx="333.0" cy="398.0" fill="#f00" r="3.0" stroke="#000"/><circle cx="274.0" cy="390.0" fill="#ffa500" r="3.0" stroke="#000"/><circle cx="227.0" cy="352.0" fill="#ff0" r="3.0" stroke="#000"/><polyline fill="none" points="196.0,310.0 223.0,257.0 275.0,227.0 335.0,228.0 391.0,249.0 448.0,268.0 413.0,316.0 387.0,371.0 335.0,399.0 275.0,393.0 228.0,356.0" stroke="#000" stroke-linejoin="round"/><circle cx="196.0" cy="310.0" fill="#f00" r="3.0" stroke="#000"/><circle cx="223.0" cy="257.0" fill="#ffa500" r="3.0" stroke="#000"/><circle cx="275.0" cy="227.0" fill="#ff0" r="3.0" stroke="#000"/><circle cx="335.0" cy="228.0" fill="#0f0" r="3.0" stroke="#000"/><circle cx="391.0" cy="249.0" fill="#00f" r="3.0" stroke="#000"/><circle cx="448.0" cy="268.0" fill="#a020f0" r="3.0" stroke="#000"/><circle cx="413.0" cy="316.0" fill="#a52a2a" r="3.0" stroke="#000"/><circle cx="387.0" cy="371.0" fill="#bebebe" r="3.0" stroke="#000"/><circle cx="335.0" cy="399.0" fill="#f00" r="3.0" stroke="#000"/><circle cx="275.0" cy="393.0" fill="#ffa500" r="3.0" stroke="#000"/><circle cx="228.0" cy="356.0" fill="#ff0" r="3.0" stroke="#000"/><polyline fill="none" points="196.0,310.0 223.0,257.0 275.0,227.0 335.0,228.0 391.0,249.0 448.0,268.0 413.0,316.0 387.0,371.0 335.0,399.0 275.0,393.0 228.0,356.0" stroke="#000" stroke-linejoin="round"/><circle cx="196.0" cy="310.0" fill="#f00" r="3.0" stroke="#000"/><circle cx="223.0" cy="257.0" fill="#ffa500" r="3.0" stroke="#000"/><circle cx="275.0" cy="227.0" fill="#ff0" r="3.0" stroke="#000"/><circle cx="335.0" cy="228.0" fill="#0f0" r="3.0" stroke="#000"/><circle cx="391.0" cy="249.0" fill="#00f" r="3.0" stroke="#000"/><circle cx="448.0" cy="268.0" fill="#a020f0" r="3.0" stroke="#000"/><circle cx="413.0" cy="316.0" fill="#a52a2a" r="3.0" stroke="#000"/><circle cx="387.0" cy="371.0" fill="#bebebe" r="3.0" stroke="#000"/><circle cx="335.0" cy="399.0" fill="#f00" r="3.0" stroke="#000"/><circle cx="275.0" cy="393.0" fill="#ffa500" r="3.0" stroke="#000"/><circle cx="228.0" cy="356.0" fill="#ff0" r="3.0" stroke="#000"/><polyline fill="none" points="195.0,310.0 222.0,256.0 273.0,226.0 333.0,227.0 390.0,247.0 446.0,267.0 410.0,315.0 386.0,370.0 333.0,399.0 274.0,392.0 227.0,354.0" stroke="#000" stroke-linejoin="round"/><circle cx="195.0" cy="310.0" fill="#f00" r="3.0" stroke="#000"/><circle cx="222.0" cy="256.0" fill="#ffa500" r="3.0" stroke="#000"/><circle cx="273.0" cy="226.0" fill="#ff0" r="3.0" stroke="#000"/><circle cx="333.0" cy="227.0" fill="#0f0" r="3.0" stroke="#000"/><circle cx="390.0" cy="247.0" fill="#00f" r="3.0" stroke="#000"/><circle cx="446.0" cy="267.0" fill="#a020f0" r="3.0" stroke="#000"/><circle cx="410.0" cy="315.0" fill="#a52a2a" r="3.0" stroke="#000"/><circle cx="386.0" cy="370.0" fill="#bebebe" r="3.0" stroke="#000"/><circle cx="333.0" cy="399.0" fill="#f00" r="3.0" stroke="#000"/><circle cx="274.0" cy="392.0" fill="#ffa500" r="3.0" stroke="#000"/><circle cx="227.0" cy="354.0" fill="#ff0" r="3.0" stroke="#000"/></svg>