<?xml version="1.0" ?><!DOCTYPE svg  PUBLIC '-//W3C//DTD SVG 1.1//EN'  'http://www.w3.org/Graphics/SVG/1.1/DTD/svg11.dtd'><svg height="620.000" viewBox="-9.000 -9.000 820.000 620.000" width="820.000" xmlns="http://www.w3.org/2000/svg"><rect fill="#fff" height="598.0" stroke="#000" width="798.0" x="2.0" y="2.0"/><circle cx="217.5" cy="299.5" fill="none" r="23.5" stroke="#000"/><ellipse cx="233.0" cy="272.5" fill="none" rx="23.0" ry="23.5" stroke="#000"/><circle cx="248.5" cy="245.5" fill="none" r="23.5" stroke="#000"/><ellipse cx="264.0" cy="218.5" fill="none" rx="23.0" ry="23.5" stroke="#000"/><circle cx="279.5" cy="191.5" fill="none" r="23.5" stroke="#000"/><ellipse cx="295.0" cy="164.5" fill="none" rx="23.0" ry="23.5" stroke="#000"/><ellipse cx="310.5" cy="138.0" fill="none" rx="23.5" ry="23.0" stroke="#000"/><ellipse cx="326.5" cy="111.0" fill="none" rx="23.5" ry="23.0" stroke="#000"/><ellipse cx="341.5" cy="84.0" fill="none" rx="23.5" ry="23.0" stroke="#000"/><ellipse cx="357.5" cy="57.0" fill="none" rx="23.5" ry="23.0" stroke="#000"/><circle cx="373.0" cy="30.0" fill="none" r="23.0" stroke="#000"/><ellipse cx="388.5" cy="57.0" fill="none" rx="23.5" ry="23.0" stroke="#000"/><circle cx="404.0" cy="84.0" fill="none" r="23.0" stroke="#000"/><ellipse cx="419.5" cy="111.0" fill="none" rx="23.5" ry="23.0" stroke="#000"/><circle cx="435.0" cy="138.0" fill="none" r="23.0" stroke="#000"/><circle cx="450.5" cy="164.5" fill="none" r="23.5" stroke="#000"/><circle cx="466.5" cy="191.5" fill="none" r="23.5" stroke="#000"/><circle cx="481.5" cy="218.5" fill="none" r="23.5" stroke="#000"/><circle cx="497.5" cy="245.5" fill="none" r="23.5" stroke="#000"/><ellipse cx="513.0" cy="272.5" fill="none" rx="23.0" ry="23.5" stroke="#000"/><circle cx="528.5" cy="299.5" fill="none" r="23.5" stroke="#000"/><polyline fill="none" points="217.0,300.0 233.0,273.0 248.0,246.0 264.0,219.0 280.0,192.0 295.0,165.0 311.0,138.0 326.0,111.0 342.0,84.0 357.0,57.0 373.0,30.0 388.0,57.0 404.0,84.0 420.0,111.0 435.0,138.0 451.0,165.0 466.0,192.0 482.0,219.0 497.0,246.0 513.0,273.0 528.0,300.0" stroke="#000" stroke-linejoin="round"/><circle cx="217.0" cy="300.0" fill="#f00" r="3.0" stroke="#000"/><circle cx="233.0" cy="273.0" fill="#ffa500" r="3.0" stroke="#000"/><circle cx="248.0" cy="246.0" fill="#ff0" r="3.0" stroke="#000"/><circle cx="264.0" cy="219.0" fill="#0f0" r="3.0" stroke="#000"/><circle cx="280.0" cy="192.0" fill="#00f" r="3.0" stroke="#000"/><circle cx="295.0" cy="165.0" fill="#a020f0" r="3.0" stroke="#000"/><circle cx="311.0" cy="138.0" fill="#a52a2a" r="3.0" stroke="#000"/><circle cx="326.0" cy="111.0" fill="#bebebe" r="3.0" stroke="#000"/><circle cx="342.0" cy="84.0" fill="#f00" r="3.0" stroke="#000"/><circle cx="357.0" cy="57.0" fill="#ffa500" r="3.0" stroke="#000"/><circle cx="373.0" cy="30.0" fill="#ff0" r="3.0" stroke="#000"/><circle cx="388.0" cy="57.0" fill="#0f0" r="3.0" stroke="#000"/><circle cx="404.0" cy="84.0" fill="#00f" r="3.0" stroke="#000"/><circle cx="420.0" cy="111.0" fill="#a020f0" r="3.0" stroke="#000"/><circle cx="435.0" cy="138.0" fill="#a52a2a" r="3.0" stroke="#000"/><circle cx="451.0" cy="165.0" fill="#bebebe" r="3.0" stroke="#000"/><circle cx="466.0" cy="192.0" fill="#f00" r="3.0" stroke="#000"/><circle cx="482.0" cy="219.0" fill="#ffa500" r="3.0" stroke="#000"/><circle cx="497.0" cy="246.0" fill="#ff0" r="3.0" stroke="#000"/><circle cx="513.0" cy="273.0" fill="#0f0" r="3.0" stroke="#000"/><circle cx="528.0" cy="300.0" fill="#00f" r="3.0" stroke="#000"/><polyline fill="none" points="217.0,300.0 236.0,275.0 253.0,249.0 234.0,224.0 260.0,207.0 267.0,177.0 280.0,148.0 290.0,119.0 318.0,132.0 344.0,115.0 314.0,110.0 341.0,96.0 354.0,125.0 377.0,145.0 405.0,160.0 426.0,183.0 446.0,206.0 465.0,231.0 486.0,254.0 507.0,277.0 528.0,300.0" stroke="#000" stroke-linejoin="round"/><circle cx="217.0" cy="300.0" fill="#f00" r="3.0" stroke="#000"/><circle cx="236.0" cy="275.0" fill="#ffa500" r="3.0" stroke="#000"/><circle cx="253.0" cy="249.0" fill="#ff0" r="3.0" stroke="#000"/><circle cx="234.0" cy="224.0" fill="#0f0" r="3.0" stroke="#000"/><circle cx="260.0" cy="207.0" fill="#00f" r="3.0" stroke="#000"/><circle cx="267.0" cy="177.0" fill="#a020f0" r="3.0" stroke="#000"/><circle cx="280.0" cy="148.0" fill="#a52a2a" r="3.0" stroke="#000"/><circle cx="290.0" cy="119.0" fill="#bebebe" r="3.0" stroke="#000"/><circle cx="318.0" cy="132.0" fill="#f00" r="3.0" stroke="#000"/><circle cx="344.0" cy="115.0" fill="#ffa500" r="3.0" stroke="#000"/><circle cx="314.0" cy="110.0" fill="#ff0" r="3.0" stroke="#000"/><circle cx="341.0" cy="96.0" fill="#0f0" r="3.0" stroke="#000"/><circle cx="354.0" cy="125.0" fill="#00f" r="3.0" stroke="#000"/><circle cx="377.0" cy="145.0" fill="#a020f0" r="3.0" stroke="#000"/><circle cx="405.0" cy="160.0" fill="#a52a2a" r="3.0" stroke="#000"/><circle cx="426.0" cy="183.0" fill="#bebebe" r="3.0" stroke="#000"/><circle cx="446.0" cy="206.0" fill="#f00" r="3.0" stroke="#000"/><circle cx="465.0" cy="231.0" fill="#ffa500" r="3.0" stroke="#000"/><circle cx="486.0" cy="254.0" fill="#ff0" r="3.0" stroke="#000"/><circle cx="507.0" cy="277.0" fill="#0f0" r="3.0" stroke="#000"/><circle cx="528.0" cy="300.0" fill="#00f" r="3.0" stroke="#000"/><polyline fill="none" points="217.0,300.0 228.0,270.0 244.0,244.0 248.0,213.0 253.0,182.0 269.0,155.0 250.0,131.0 263.0,103.0 269.0,72.0 300.0,78.0 329.0,89.0 360.0,88.0 360.0,119.0 377.0,145.0 401.0,166.0 418.0,191.0 441.0,212.0 460.0,237.0 483.0,258.0 503.0,282.0 528.0,300.0" stroke="#000" stroke-linejoin="round"/><circle cx="217.0" cy="300.0" fill="#f00" r="3.0" stroke="#000"/><circle cx="228.0" cy="270.0" fill="#ffa500" r="3.0" stroke="#000"/><circle cx="244.0" cy="244.0" fill="#ff0" r="3.0" stroke="#000"/><circle cx="248.0" cy="213.0" fill="#0f0" r="3.0" stroke="#000"/><circle cx="253.0" cy="182.0" fill="#00f" r="3.0" stroke="#000"/><circle cx="269.0" cy="155.0" fill="#a020f0" r="3.0" stroke="#000"/><circle cx="250.0" cy="131.0" fill="#a52a2a" r="3.0" stroke="#000"/><circle cx="263.0" cy="103.0" fill="#bebebe" r="3.0" stroke="#000"/><circle cx="269.0" cy="72.0" fill="#f00" r="3.0" stroke="#000"/><circle cx="300.0" cy="78.0" fill="#ffa500" r="3.0" stroke="#000"/><circle cx="329.0" cy="89.0" fill="#ff0" r="3.0" stroke="#000"/><circle cx="360.0" cy="88.0" fill="#0f0" r="3.0" stroke="#000"/><circle cx="360.0" cy="119.0" fill="#00f" r="3.0" stroke="#000"/><circle cx="377.0" cy="145.0" fill="#a020f0" r="3.0" stroke="#000"/><circle cx="401.0" cy="166.0" fill="#a52a2a" r="3.0" stroke="#000"/><circle cx="418.0" cy="191.0" fill="#bebebe" r="3.0" stroke="#000"/><circle cx="441.0" cy="212.0" fill="#f00" r="3.0" stroke="#000"/><circle cx="460.0" cy="237.0" fill="#ffa500" r="3.0" stroke="#000"/><circle cx="483.0" cy="258.0" fill="#ff0" r="3.0" stroke="#000"/><circle cx="503.0" cy="282.0" fill="#0f0" r="3.0" stroke="#000"/><circle cx="528.0" cy="300.0" fill="#00f" r="3.0" stroke="#000"/><polyline fill="none" points="217.0,300.0 219.0,268.0 216.0,237.0 247.0,241.0 278.0,243.0 264.0,215.0 281.0,189.0 305.0,170.0 324.0,146.0 335.0,116.0 332.0,85.0 360.0,99.0 355.0,130.0 382.0,145.0 401.0,170.0 428.0,186.0 451.0,207.0 473.0,229.0 493.0,252.0 503.0,282.0 528.0,300.0" stroke="#000" stroke-linejoin="round"/><circle cx="217.0" cy="300.0" fill="#f00" r="3.0" stroke="#000"/><circle cx="219.0" cy="268.0" fill="#ffa500" r="3.0" stroke="#000"/><circle cx="216.0" cy="237.0" fill="#ff0" r="3.0" stroke="#000"/><circle cx="247.0" cy="241.0" fill="#0f0" r="3.0" stroke="#000"/><circle cx="278.0" cy="243.0" fill="#00f" r="3.0" stroke="#000"/><circle cx="264.0" cy="215.0" fill="#a020f0" r="3.0" stroke="#000"/><circle cx="281.0" cy="189.0" fill="#a52a2a" r="3.0" stroke="#000"/><circle cx="305.0" cy="170.0" fill="#bebebe" r="3.0" stroke="#000"/><circle cx="324.0" cy="146.0" fill="#f00" r="3.0" stroke="#000"/><circle cx="335.0" cy="116.0" fill="#ffa500" r="3.0" stroke="#000"/><circle cx="332.0" cy="85.0" fill="#ff0" r="3.0" stroke="#000"/><circle cx="360.0" cy="99.0" fill="#0f0" r="3.0" stroke="#000"/><circle cx="355.0" cy="130.0" fill="#00f" r="3.0" stroke="#000"/><circle cx="382.0" cy="145.0" fill="#a020f0" r="3.0" stroke="#000"/><circle cx="401.0" cy="170.0" fill="#a52a2a" r="3.0" stroke="#000"/><circle cx="428.0" cy="186.0" fill="#bebebe" r="3.0" stroke="#000"/><circle cx="451.0" cy="207.0" fill="#f00" r="3.0" stroke="#000"/><circle cx="473.0" cy="229.0" fill="#ffa500" r="3.0" stroke="#000"/><circle cx="493.0" cy="252.0" fill="#ff0" r="3.0" stroke="#000"/><circle cx="503.0" cy="282.0" fill="#0f0" r="3.0" stroke="#000"/><circle cx="528.0" cy="300.0" fill="#00f" r="3.0" stroke="#000"/><polyline fill="none" points="217.0,300.0 195.0,278.0 222.0,262.0 230.0,232.0 251.0,209.0 273.0,187.0 292.0,162.0 284.0,132.0 266.0,107.0 288.0,128.0 318.0,121.0 340.0,98.0 362.0,120.0 391.0,133.0 416.0,151.0 437.0,174.0 455.0,199.0 473.0,225.0 491.0,250.0 511.0,274.0 528.0,300.0" stroke="#000" stroke-linejoin="round"/><circle cx="217.0" cy="300.0" fill="#f00" r="3.0" stroke="#000"/><circle cx="195.0" cy="278.0" fill="#ffa500" r="3.0" stroke="#000"/><circle cx="222.0" cy="262.0" fill="#ff0" r="3.0" stroke="#000"/><circle cx="230.0" cy="232.0" fill="#0f0" r="3.0" stroke="#000"/><circle cx="251.0" cy="209.0" fill="#00f" r="3.0" stroke="#000"/><circle cx="273.0" cy="187.0" fill="#a020f0" r="3.0" stroke="#000"/><circle cx="292.0" cy="162.0" fill="#a52a2a" r="3.0" stroke="#000"/><circle cx="284.0" cy="132.0" fill="#bebebe" r="3.0" stroke="#000"/><circle cx="266.0" cy="107.0" fill="#f00" r="3.0" stroke="#000"/><circle cx="288.0" cy="128.0" fill="#ffa500" r="3.0" stroke="#000"/><circle cx="318.0" cy="121.0" fill="#ff0" r="3.0" stroke="#000"/><circle cx="340.0" cy="98.0" fill="#0f0" r="3.0" stroke="#000"/><circle cx="362.0" cy="120.0" fill="#00f" r="3.0" stroke="#000"/><circle cx="391.0" cy="133.0" fill="#a020f0" r="3.0" stroke="#000"/><circle cx="416.0" cy="151.0" fill="#a52a2a" r="3.0" stroke="#000"/><circle cx="437.0" cy="174.0" fill="#bebebe" r="3.0" stroke="#000"/><circle cx="455.0" cy="199.0" fill="#f00" r="3.0" stroke="#000"/><circle cx="473.0" cy="225.0" fill="#ffa500" r="3.0" stroke="#000"/><circle cx="491.0" cy="250.0" fill="#ff0" r="3.0" stroke="#000"/><circle cx="511.0" cy="274.0" fill="#0f0" r="3.0" stroke="#000"/><circle cx="528.0" cy="300.0" fill="#00f" r="3.0" stroke="#000"/><polyline fill="none" points="217.0,300.0 225.0,269.0 239.0,241.0 255.0,215.0 265.0,186.0 272.0,155.0 291.0,130.0 295.0,161.0 322.0,145.0 345.0,125.0 317.0,113.0 343.0,130.0 371.0,142.0 363.0,172.0 394.0,174.0 421.0,190.0 438.0,216.0 461.0,237.0 479.0,262.0 503.0,282.0 528.0,300.0" stroke="#000" stroke-linejoin="round"/><circle cx="217.0" cy="300.0" fill="#f00" r="3.0" stroke="#000"/><circle cx="225.0" cy="269.0" fill="#ffa500" r="3.0" stroke="#000"/><circle cx="239.0" cy="241.0" fill="#ff0" r="3.0" stroke="#000"/><circle cx="255.0" cy="215.0" fill="#0f0" r="3.0" stroke="#000"/><circle cx="265.0" cy="186.0" fill="#00f" r="3.0" stroke="#000"/><circle cx="272.0" cy="155.0" fill="#a020f0" r="3.0" stroke="#000"/><circle cx="291.0" cy="130.0" fill="#a52a2a" r="3.0" stroke="#000"/><circle cx="295.0" cy="161.0" fill="#bebebe" r="3.0" stroke="#000"/><circle cx="322.0" cy="145.0" fill="#f00" r="3.0" stroke="#000"/><circle cx="345.0" cy="125.0" fill="#ffa500" r="3.0" stroke="#000"/><circle cx="317.0" cy="113.0" fill="#ff0" r="3.0" stroke="#000"/><circle cx="343.0" cy="130.0" fill="#0f0" r="3.0" stroke="#000"/><circle cx="371.0" cy="142.0" fill="#00f" r="3.0" stroke="#000"/><circle cx="363.0" cy="172.0" fill="#a020f0" r="3.0" stroke="#000"/><circle cx="394.0" cy="174.0" fill="#a52a2a" r="3.0" stroke="#000"/><circle cx="421.0" cy="190.0" fill="#bebebe" r="3.0" stroke="#000"/><circle cx="438.0" cy="216.0" fill="#f00" r="3.0" stroke="#000"/><circle cx="461.0" cy="237.0" fill="#ffa500" r="3.0" stroke="#000"/><circle cx="479.0" cy="262.0" fill="#ff0" r="3.0" stroke="#000"/><circle cx="503.0" cy="282.0" fill="#0f0" r="3.0" stroke="#000"/><circle cx="528.0" cy="300.0" fill="#00f" r="3.0" stroke="#000"/><polyline fill="none" points="217.0,300.0 244.0,284.0 262.0,258.0 253.0,229.0 273.0,205.0 288.0,178.0 319.0,171.0 291.0,157.0 270.0,134.0 297.0,118.0 314.0,144.0 326.0,116.0 356.0,124.0 384.0,137.0 407.0,158.0 424.0,184.0 444.0,208.0 466.0,231.0 486.0,254.0 507.0,276.0 528.0,300.0" stroke="#000" stroke-linejoin="round"/><circle cx="217.0" cy="300.0" fill="#f00" r="3.0" stroke="#000"/><circle cx="244.0" cy="284.0" fill="#ffa500" r="3.0" stroke="#000"/><circle cx="262.0" cy="258.0" fill="#ff0" r="3.0" stroke="#000"/><circle cx="253.0" cy="229.0" fill="#0f0" r="3.0" stroke="#000"/><circle cx="273.0" cy="205.0" fill="#00f" r="3.0" stroke="#000"/><circle cx="288.0" cy="178.0" fill="#a020f0" r="3.0" stroke="#000"/><circle cx="319.0" cy="171.0" fill="#a52a2a" r="3.0" stroke="#000"/><circle cx="291.0" cy="157.0" fill="#bebebe" r="3.0" stroke="#000"/><circle cx="270.0" cy="134.0" fill="#f00" r="3.0" stroke="#000"/><circle cx="297.0" cy="118.0" fill="#ffa500" r="3.0" stroke="#000"/><circle cx="314.0" cy="144.0" fill="#ff0" r="3.0" stroke="#000"/><circle cx="326.0" cy="116.0" fill="#0f0" r="3.0" stroke="#000"/><circle cx="356.0" cy="124.0" fill="#00f" r="3.0" stroke="#000"/><circle cx="384.0" cy="137.0" fill="#a020f0" r="3.0" stroke="#000"/><circle cx="407.0" cy="158.0" fill="#a52a2a" r="3.0" stroke="#000"/><circle cx="424.0" cy="184.0" fill="#bebebe" r="3.0" stroke="#000"/><circle cx="444.0" cy="208.0" fill="#f00" r="3.0" stroke="#000"/><circle cx="466.0" cy="231.0" fill="#ffa500" r="3.0" stroke="#000"/><circle cx="486.0" cy="254.0" fill="#ff0" r="3.0" stroke="#000"/><circle cx="507.0" cy="276.0" fill="#0f0" r="3.0" stroke="#000"/><circle cx="528.0" cy="300.0" fill="#00f" r="3.0" stroke="#000"/><polyline fill="none" points="217.0,300.0 234.0,273.0 257.0,252.0 273.0,226.0 271.0,194.0 292.0,171.0 320.0,157.0 305.0,184.0 335.0,177.0 315.0,152.0 317.0,121.0 348.0,125.0 357.0,155.0 387.0,149.0 414.0,164.0 444.0,173.0 452.0,203.0 467.0,231.0 489.0,252.0 513.0,273.0 528.0,300.0" stroke="#000" stroke-linejoin="round"/><circle cx="217.0" cy="300.0" fill="#f00" r="3.0" stroke="#000"/><circle cx="234.0" cy="273.0" fill="#ffa500" r="3.0" stroke="#000"/><circle cx="257.0" cy="252.0" fill="#ff0" r="3.0" stroke="#000"/><circle cx="273.0" cy="226.0" fill="#0f0" r="3.0" stroke="#000"/><circle cx="271.0" cy="194.0" fill="#00f" r="3.0" stroke="#000"/><circle cx="292.0" cy="171.0" fill="#a020f0" r="3.0" stroke="#000"/><circle cx="320.0" cy="157.0" fill="#a52a2a" r="3.0" stroke="#000"/><circle cx="305.0" cy="184.0" fill="#bebebe" r="3.0" stroke="#000"/><circle cx="335.0" cy="177.0" fill="#f00" r="3.0" stroke="#000"/><circle cx="315.0" cy="152.0" fill="#ffa500" r="3.0" stroke="#000"/><circle cx="317.0" cy="121.0" fill="#ff0" r="3.0" stroke="#000"/><circle cx="348.0" cy="125.0" fill="#0f0" r="3.0" stroke="#000"/><circle cx="357.0" cy="155.0" fill="#00f" r="3.0" stroke="#000"/><circle cx="387.0" cy="149.0" fill="#a020f0" r="3.0" stroke="#000"/><circle cx="414.0" cy="164.0" fill="#a52a2a" r="3.0" stroke="#000"/><circle cx="444.0" cy="173.0" fill="#bebebe" r="3.0" stroke="#000"/><circle cx="452.0" cy="203.0" fill="#f00" r="3.0" stroke="#000"/><circle cx="467.0" cy="231.0" fill="#ffa500" r="3.0" stroke="#000"/><circle cx="489.0" cy="252.0" fill="#ff0" r="3.0" stroke="#000"/><circle cx="513.0" cy="273.0" fill="#0f0" r="3.0" stroke="#000"/><circle cx="528.0" cy="300.0" fill="#00f" r="3.0" stroke="#000"/><polyline fill="none" points="217.0,300.0 218.0,268.0 211.0,238.0 192.0,213.0 223.0,211.0 219.0,181.0 241.0,159.0 266.0,140.0 296.0,148.0 327.0,146.0 327.0,115.0 350.0,95.0 378.0,109.0 404.0,125.0 411.0,156.0 435.0,176.0 455.0,200.0 469.0,227.0 489.0,251.0 511.0,274.0 528.0,300.0" stroke="#000" stroke-linejoin="round"/><circle cx="217.0" cy="300.0" fill="#f00" r="3.0" stroke="#000"/><circle cx="218.0" cy="268.0" fill="#ffa500" r="3.0" stroke="#000"/><circle cx="211.0" cy="238.0" fill="#ff0" r="3.0" stroke="#000"/><circle cx="192.0" cy="213.0" fill="#0f0" r="3.0" stroke="#000"/><circle cx="223.0" cy="211.0" fill="#00f" r="3.0" stroke="#000"/><circle cx="219.0" cy="181.0" fill="#a020f0" r="3.0" stroke="#000"/><circle cx="241.0" cy="159.0" fill="#a52a2a" r="3.0" stroke="#000"/><circle cx="266.0" cy="140.0" fill="#bebebe" r="3.0" stroke="#000"/><circle cx="296.0" cy="148.0" fill="#f00" r="3.0" stroke="#000"/><circle cx="327.0" cy="146.0" fill="#ffa500" r="3.0" stroke="#000"/><circle cx="327.0" cy="115.0" fill="#ff0" r="3.0" stroke="#000"/><circle cx="350.0" cy="95.0" fill="#0f0" r="3.0" stroke="#000"/><circle cx="378.0" cy="109.0" fill="#00f" r="3.0" stroke="#000"/><circle cx="404.0" cy="125.0" fill="#a020f0" r="3.0" stroke="#000"/><circle cx="411.0" cy="156.0" fill="#a52a2a" r="3.0" stroke="#000"/><circle cx="435.0" cy="176.0" fill="#bebebe" r="3.0" stroke="#000"/><circle cx="455.0" cy="200.0" fill="#f00" r="3.0" stroke="#000"/><circle cx="469.0" cy="227.0" fill="#ffa500" r="3.0" stroke="#000"/><circle cx="489.0" cy="251.0" fill="#ff0" r="3.0" stroke="#000"/><circle cx="511.0" cy="274.0" fill="#0f0" r="3.0" stroke="#000"/><circle cx="528.0" cy="300.0" fill="#00f" r="3.0" stroke="#000"/><polyline fill="none" points="217.0,300.0 233.0,273.0 245.0,244.0 248.0,213.0 219.0,200.0 219.0,169.0 250.0,164.0 249.0,133.0 276.0,149.0 301.0,130.0 328.0,116.0 359.0,111.0 371.0,139.0 402.0,143.0 418.0,170.0 417.0,201.0 444.0,216.0 474.0,225.0 491.0,251.0 514.0,272.0 528.0,300.0" stroke="#000" stroke-linejoin="round"/><circle cx="217.0" cy="300.0" fill="#f00" r="3.0" stroke="#000"/><circle cx="233.0" cy="273.0" fill="#ffa500" r="3.0" stroke="#000"/><circle cx="245.0" cy="244.0" fill="#ff0" r="3.0" stroke="#000"/><circle cx="248.0" cy="213.0" fill="#0f0" r="3.0" stroke="#000"/><circle cx="219.0" cy="200.0" fill="#00f" r="3.0" stroke="#000"/><circle cx="219.0" cy="169.0" fill="#a020f0" r="3.0" stroke="#000"/><circle cx="250.0" cy="164.0" fill="#a52a2a" r="3.0" stroke="#000"/><circle cx="249.0" cy="133.0" fill="#bebebe" r="3.0" stroke="#000"/><circle cx="276.0" cy="149.0" fill="#f00" r="3.0" stroke="#000"/><circle cx="301.0" cy="130.0" fill="#ffa500" r="3.0" stroke="#000"/><circle cx="328.0" cy="116.0" fill="#ff0" r="3.0" stroke="#000"/><circle cx="359.0" cy="111.0" fill="#0f0" r="3.0" stroke="#000"/><circle cx="371.0" cy="139.0" fill="#00f" r="3.0" stroke="#000"/><circle cx="402.0" cy="143.0" fill="#a020f0" r="3.0" stroke="#000"/><circle cx="418.0" cy="170.0" fill="#a52a2a" r="3.0" stroke="#000"/><circle cx="417.0" cy="201.0" fill="#bebebe" r="3.0" stroke="#000"/><circle cx="444.0" cy="216.0" fill="#f00" r="3.0" stroke="#000"/><circle cx="474.0" cy="225.0" fill="#ffa500" r="3.0" stroke="#000"/><circle cx="491.0" cy="251.0" fill="#ff0" r="3.0" stroke="#000"/><circle cx="514.0" cy="272.0" fill="#0f0" r="3.0" stroke="#000"/><circle cx="528.0" cy="300.0" fill="#00f" r="3.0" stroke="#000"/><polyline fill="none" points="217.0,300.0 236.0,275.0 248.0,246.0 279.0,241.0 304.0,224.0 316.0,195.0 312.0,164.0 315.0,133.0 325.0,162.0 349.0,143.0 341.0,113.0 312.0,125.0 330.0,151.0 357.0,165.0 381.0,185.0 406.0,204.0 429.0,225.0 454.0,243.0 479.0,262.0 503.0,282.0 528.0,300.0" stroke="#000" stroke-linejoin="round"/><circle cx="217.0" cy="300.0" fill="#f00" r="3.0" stroke="#000"/><circle cx="236.0" cy="275.0" fill="#ffa500" r="3.0" stroke="#000"/><circle cx="248.0" cy="246.0" fill="#ff0" r="3.0" stroke="#000"/><circle cx="279.0" cy="241.0" fill="#0f0" r="3.0" stroke="#000"/><circle cx="304.0" cy="224.0" fill="#00f" r="3.0" stroke="#000"/><circle cx="316.0" cy="195.0" fill="#a020f0" r="3.0" stroke="#000"/><circle cx="312.0" cy="164.0" fill="#a52a2a" r="3.0" stroke="#000"/><circle cx="315.0" cy="133.0" fill="#bebebe" r="3.0" stroke="#000"/><circle cx="325.0" cy="162.0" fill="#f00" r="3.0" stroke="#000"/><circle cx="349.0" cy="143.0" fill="#ffa500" r="3.0" stroke="#000"/><circle cx="341.0" cy="113.0" fill="#ff0" r="3.0" stroke="#000"/><circle cx="312.0" cy="125.0" fill="#0f0" r="3.0" stroke="#000"/><circle cx="330.0" cy="151.0" fill="#00f" r="3.0" stroke="#000"/><circle cx="357.0" cy="165.0" fill="#a020f0" r="3.0" stroke="#000"/><circle cx="381.0" cy="185.0" fill="#a52a2a" r="3.0" stroke="#000"/><circle cx="406.0" cy="204.0" fill="#bebebe" r="3.0" stroke="#000"/><circle cx="429.0" cy="225.0" fill="#f00" r="3.0" stroke="#000"/><circle cx="454.0" cy="243.0" fill="#ffa500" r="3.0" stroke="#000"/><circle cx="479.0" cy="262.0" fill="#ff0" r="3.0" stroke="#000"/><circle cx="503.0" cy="282.0" fill="#0f0" r="3.0" stroke="#000"/><circle cx="528.0" cy="300.0" fill="#00f" r="3.0" stroke="#000"/><polyline fill="none" points="217.0,300.0 242.0,281.0 246.0,250.0 260.0,222.0 281.0,200.0 312.0,200.0 287.0,182.0 309.0,161.0 339.0,152.0 370.0,158.0 388.0,183.0 379.0,153.0 407.0,167.0 386.0,190.0 411.0,171.0 421.0,201.0 452.0,201.0 473.0,224.0 491.0,250.0 510.0,275.0 528.0,300.0" stroke="#000" stroke-linejoin="round"/><circle cx="217.0" cy="300.0" fill="#f00" r="3.0" stroke="#000"/><circle cx="242.0" cy="281.0" fill="#ffa500" r="3.0" stroke="#000"/><circle cx="246.0" cy="250.0" fill="#ff0" r="3.0" stroke="#000"/><circle cx="260.0" cy="222.0" fill="#0f0" r="3.0" stroke="#000"/><circle cx="281.0" cy="200.0" fill="#00f" r="3.0" stroke="#000"/><circle cx="312.0" cy="200.0" fill="#a020f0" r="3.0" stroke="#000"/><circle cx="287.0" cy="182.0" fill="#a52a2a" r="3.0" stroke="#000"/><circle cx="309.0" cy="161.0" fill="#bebebe" r="3.0" stroke="#000"/><circle cx="339.0" cy="152.0" fill="#f00" r="3.0" stroke="#000"/><circle cx="370.0" cy="158.0" fill="#ffa500" r="3.0" stroke="#000"/><circle cx="388.0" cy="183.0" fill="#ff0" r="3.0" stroke="#000"/><circle cx="379.0" cy="153.0" fill="#0f0" r="3.0" stroke="#000"/><circle cx="407.0" cy="167.0" fill="#00f" r="3.0" stroke="#000"/><circle cx="386.0" cy="190.0" fill="#a020f0" r="3.0" stroke="#000"/><circle cx="411.0" cy="171.0" fill="#a52a2a" r="3.0" stroke="#000"/><circle cx="421.0" cy="201.0" fill="#bebebe" r="3.0" stroke="#000"/><circle cx="452.0" cy="201.0" fill="#f00" r="3.0" stroke="#000"/><circle cx="473.0" cy="224.0" fill="#ffa500" r="3.0" stroke="#000"/><circle cx="491.0" cy="250.0" fill="#ff0" r="3.0" stroke="#000"/><circle cx="510.0" cy="275.0" fill="#0f0" r="3.0" stroke="#000"/><circle cx="528.0" cy="300.0" fill="#00f" r="3.0" stroke="#000"/><polyline fill="none" points="217.0,300.0 224.0,269.0 219.0,238.0 219.0,207.0 228.0,178.0 222.0,147.0 248.0,129.0 275.0,114.0 253.0,136.0 274.0,113.0 300.0,130.0 330.0,120.0 352.0,141.0 384.0,141.0 401.0,167.0 427.0,184.0 443.0,211.0 464.0,233.0 482.0,259.0 508.0,276.0 528.0,300.0" stroke="#000" stroke-linejoin="round"/><circle cx="217.0" cy="300.0" fill="#f00" r="3.0" stroke="#000"/><circle cx="224.0" cy="269.0" fill="#ffa500" r="3.0" stroke="#000"/><circle cx="219.0" cy="238.0" fill="#ff0" r="3.0" stroke="#000"/><circle cx="219.0" cy="207.0" fill="#0f0" r="3.0" stroke="#000"/><circle cx="228.0" cy="178.0" fill="#00f" r="3.0" stroke="#000"/><circle cx="222.0" cy="147.0" fill="#a020f0" r="3.0" stroke="#000"/><circle cx="248.0" cy="129.0" fill="#a52a2a" r="3.0" stroke="#000"/><circle cx="275.0" cy="114.0" fill="#bebebe" r="3.0" stroke="#000"/><circle cx="253.0" cy="136.0" fill="#f00" r="3.0" stroke="#000"/><circle cx="274.0" cy="113.0" fill="#ffa500" r="3.0" stroke="#000"/><circle cx="300.0" cy="130.0" fill="#ff0" r="3.0" stroke="#000"/><circle cx="330.0" cy="120.0" fill="#0f0" r="3.0" stroke="#000"/><circle cx="352.0" cy="141.0" fill="#00f" r="3.0" stroke="#000"/><circle cx="384.0" cy="141.0" fill="#a020f0" r="3.0" stroke="#000"/><circle cx="401.0" cy="167.0" fill="#a52a2a" r="3.0" stroke="#000"/><circle cx="427.0" cy="184.0" fill="#bebebe" r="3.0" stroke="#000"/><circle cx="443.0" cy="211.0" fill="#f00" r="3.0" stroke="#000"/><circle cx="464.0" cy="233.0" fill="#ffa500" r="3.0" stroke="#000"/><circle cx="482.0" cy="259.0" fill="#ff0" r="3.0" stroke="#000"/><circle cx="508.0" cy="276.0" fill="#0f0" r="3.0" stroke="#000"/><circle cx="528.0" cy="300.0" fill="#00f" r="3.0" stroke="#000"/><polyline fill="none" points="217.0,300.0 226.0,270.0 242.0,243.0 267.0,224.0 271.0,254.0 300.0,241.0 284.0,215.0 309.0,197.0 316.0,167.0 343.0,151.0 314.0,140.0 343.0,150.0 371.0,136.0 386.0,163.0 416.0,155.0 442.0,172.0 456.0,200.0 475.0,224.0 488.0,252.0 507.0,277.0 528.0,300.0" stroke="#000" stroke-linejoin="round"/><circle cx="217.0" cy="300.0" fill="#f00" r="3.0" stroke="#000"/><circle cx="226.0" cy="270.0" fill="#ffa500" r="3.0" stroke="#000"/><circle cx="242.0" cy="243.0" fill="#ff0" r="3.0" stroke="#000"/><circle cx="267.0" cy="224.0" fill="#0f0" r="3.0" stroke="#000"/><circle cx="271.0" cy="254.0" fill="#00f" r="3.0" stroke="#000"/><circle cx="300.0" cy="241.0" fill="#a020f0" r="3.0" stroke="#000"/><circle cx="284.0" cy="215.0" fill="#a52a2a" r="3.0" stroke="#000"/><circle cx="309.0" cy="197.0" fill="#bebebe" r="3.0" stroke="#000"/><circle cx="316.0" cy="167.0" fill="#f00" r="3.0" stroke="#000"/><circle cx="343.0" cy="151.0" fill="#ffa500" r="3.0" stroke="#000"/><circle cx="314.0" cy="140.0" fill="#ff0" r="3.0" stroke="#000"/><circle cx="343.0" cy="150.0" fill="#0f0" r="3.0" stroke="#000"/><circle cx="371.0" cy="136.0" fill="#00f" r="3.0" stroke="#000"/><circle cx="386.0" cy="163.0" fill="#a020f0" r="3.0" stroke="#000"/><circle cx="416.0" cy="155.0" fill="#a52a2a" r="3.0" stroke="#000"/><circle cx="442.0" cy="172.0" fill="#bebebe" r="3.0" stroke="#000"/><circle cx="456.0" cy="200.0" fill="#f00" r="3.0" stroke="#000"/><circle cx="475.0" cy="224.0" fill="#ffa500" r="3.0" stroke="#000"/><circle cx="488.0" cy="252.0" fill="#ff0" r="3.0" stroke="#000"/><circle cx="507.0" cy="277.0" fill="#0f0" r="3.0" stroke="#000"/><circle cx="528.0" cy="300.0" fill="#00f" r="3.0" stroke="#000"/><polyline fill="none" points="217.0,300.0 234.0,273.0 262.0,259.0 285.0,280.0 305.0,257.0 306.0,226.0 301.0,195.0 322.0,172.0 333.0,143.0 346.0,171.0 337.0,141.0 327.0,112.0 353.0,129.0 369.0,156.0 390.0,179.0 414.0,199.0 435.0,221.0 460.0,240.0 486.0,257.0 501.0,285.0 528.0,300.0" stroke="#000" stroke-linejoin="round"/><circle cx="217.0" cy="300.0" fill="#f00" r="3.0" stroke="#000"/><circle cx="234.0" cy="273.0" fill="#ffa500" r="3.0" stroke="#000"/><circle cx="262.0" cy="259.0" fill="#ff0" r="3.0" stroke="#000"/><circle cx="285.0" cy="280.0" fill="#0f0" r="3.0" stroke="#000"/><circle cx="305.0" cy="257.0" fill="#00f" r="3.0" stroke="#000"/><circle cx="306.0" cy="226.0" fill="#a020f0" r="3.0" stroke="#000"/><circle cx="301.0" cy="195.0" fill="#a52a2a" r="3.0" stroke="#000"/><circle cx="322.0" cy="172.0" fill="#bebebe" r="3.0" stroke="#000"/><circle cx="333.0" cy="143.0" fill="#f00" r="3.0" stroke="#000"/><circle cx="346.0" cy="171.0" fill="#ffa500" r="3.0" stroke="#000"/><circle cx="337.0" cy="141.0" fill="#ff0" r="3.0" stroke="#000"/><circle cx="327.0" cy="112.0" fill="#0f0" r="3.0" stroke="#000"/><circle cx="353.0" cy="129.0" fill="#00f" r="3.0" stroke="#000"/><circle cx="369.0" cy="156.0" fill="#a020f0" r="3.0" stroke="#000"/><circle cx="390.0" cy="179.0" fill="#a52a2a" r="3.0" stroke="#000"/><circle cx="414.0" cy="199.0" fill="#bebebe" r="3.0" stroke="#000"/><circle cx="435.0" cy="221.0" fill="#f00" r="3.0" stroke="#000"/><circle cx="460.0" cy="240.0" fill="#ffa500" r="3.0" stroke="#000"/><circle cx="486.0" cy="257.0" fill="#ff0" r="3.0" stroke="#000"/><circle cx="501.0" cy="285.0" fill="#0f0" r="3.0" stroke="#000"/><circle cx="528.0" cy="300.0" fill="#00f" r="3.0" stroke="#000"/><polyline fill="none" points="217.0,300.0 229.0,271.0 239.0,241.0 240.0,210.0 224.0,184.0 254.0,178.0 224.0,170.0 252.0,155.0 245.0,125.0 273.0,110.0 304.0,114.0 327.0,135.0 357.0,139.0 388.0,145.0 407.0,169.0 435.0,184.0 438.0,215.0 461.0,236.0 482.0,259.0 508.0,276.0 528.0,300.0" stroke="#000" stroke-linejoin="round"/><circle cx="217.0" cy="300.0" fill="#f00" r="3.0" stroke="#000"/><circle cx="229.0" cy="271.0" fill="#ffa500" r="3.0" stroke="#000"/><circle cx="239.0" cy="241.0" fill="#ff0" r="3.0" stroke="#000"/><circle cx="240.0" cy="210.0" fill="#0f0" r="3.0" stroke="#000"/><circle cx="224.0" cy="184.0" fill="#00f" r="3.0" stroke="#000"/><circle cx="254.0" cy="178.0" fill="#a020f0" r="3.0" stroke="#000"/><circle cx="224.0" cy="170.0" fill="#a52a2a" r="3.0" stroke="#000"/><circle cx="252.0" cy="155.0" fill="#bebebe" r="3.0" stroke="#000"/><circle cx="245.0" cy="125.0" fill="#f00" r="3.0" stroke="#000"/><circle cx="273.0" cy="110.0" fill="#ffa500" r="3.0" stroke="#000"/><circle cx="304.0" cy="114.0" fill="#ff0" r="3.0" stroke="#000"/><circle cx="327.0" cy="135.0" fill="#0f0" r="3.0" stroke="#000"/><circle cx="357.0" cy="139.0" fill="#00f" r="3.0" stroke="#000"/><circle cx="388.0" cy="145.0" fill="#a020f0" r="3.0" stroke="#000"/><circle cx="407.0" cy="169.0" fill="#a52a2a" r="3.0" stroke="#000"/><circle cx="435.0" cy="184.0" fill="#bebebe" r="3.0" stroke="#000"/><circle cx="438.0" cy="215.0" fill="#f00" r="3.0" stroke="#000"/><circle cx="461.0" cy="236.0" fill="#ffa500" r="3.0" stroke="#000"/><circle cx="482.0" cy="259.0" fill="#ff0" r="3.0" stroke="#000"/><circle cx="508.0" cy="276.0" fill="#0f0" r="3.0" stroke="#000"/><circle cx="528.0" cy="300.0" fill="#00f" r="3.0" stroke="#000"/><polyline fill="none" points="217.0,300.0 238.0,276.0 259.0,254.0 256.0,223.0 273.0,196.0 294.0,174.0 264.0,182.0 295.0,188.0 316.0,165.0 290.0,149.0 321.0,153.0 332.0,124.0 363.0,126.0 374.0,155.0 381.0,185.0 404.0,206.0 429.0,225.0 454.0,243.0 479.0,262.0 505.0,279.0 528.0,300.0" stroke="#000" stroke-linejoin="round"/><circle cx="217.0" cy="300.0" fill="#f00" r="3.0" stroke="#000"/><circle cx="238.0" cy="276.0" fill="#ffa500" r="3.0" stroke="#000"/><circle cx="259.0" cy="254.0" fill="#ff0" r="3.0" stroke="#000"/><circle cx="256.0" cy="223.0" fill="#0f0" r="3.0" stroke="#000"/><circle cx="273.0" cy="196.0" fill="#00f" r="3.0" stroke="#000"/><circle cx="294.0" cy="174.0" fill="#a020f0" r="3.0" stroke="#000"/><circle cx="264.0" cy="182.0" fill="#a52a2a" r="3.0" stroke="#000"/><circle cx="295.0" cy="188.0" fill="#bebebe" r="3.0" stroke="#000"/><circle cx="316.0" cy="165.0" fill="#f00" r="3.0" stroke="#000"/><circle cx="290.0" cy="149.0" fill="#ffa500" r="3.0" stroke="#000"/><circle cx="321.0" cy="153.0" fill="#ff0" r="3.0" stroke="#000"/><circle cx="332.0" cy="124.0" fill="#0f0" r="3.0" stroke="#000"/><circle cx="363.0" cy="126.0" fill="#00f" r="3.0" stroke="#000"/><circle cx="374.0" cy="155.0" fill="#a020f0" r="3.0" stroke="#000"/><circle cx="381.0" cy="185.0" fill="#a52a2a" r="3.0" stroke="#000"/><circle cx="404.0" cy="206.0" fill="#bebebe" r="3.0" stroke="#000"/><circle cx="429.0" cy="225.0" fill="#f00" r="3.0" stroke="#000"/><circle cx="454.0" cy="243.0" fill="#ffa500" r="3.0" stroke="#000"/><circle cx="479.0" cy="262.0" fill="#ff0" r="3.0" stroke="#000"/><circle cx="505.0" cy="279.0" fill="#0f0" r="3.0" stroke="#000"/><circle cx="528.0" cy="300.0" fill="#00f" r="3.0" stroke="#000"/><polyline fill="none" points="217.0,300.0 246.0,313.0 270.0,293.0 289.0,269.0 308.0,244.0 310.0,213.0 341.0,215.0 361.0,192.0 357.0,161.0 387.0,150.0 418.0,151.0 409.0,121.0 386.0,142.0 383.0,173.0 413.0,166.0 426.0,194.0 439.0,223.0 459.0,246.0 481.0,268.0 512.0,273.0 528.0,300.0" stroke="#000" stroke-linejoin="round"/><circle cx="217.0" cy="300.0" fill="#f00" r="3.0" stroke="#000"/><circle cx="246.0" cy="313.0" fill="#ffa500" r="3.0" stroke="#000"/><circle cx="270.0" cy="293.0" fill="#ff0" r="3.0" stroke="#000"/><circle cx="289.0" cy="269.0" fill="#0f0" r="3.0" stroke="#000"/><circle cx="308.0" cy="244.0" fill="#00f" r="3.0" stroke="#000"/><circle cx="310.0" cy="213.0" fill="#a020f0" r="3.0" stroke="#000"/><circle cx="341.0" cy="215.0" fill="#a52a2a" r="3.0" stroke="#000"/><circle cx="361.0" cy="192.0" fill="#bebebe" r="3.0" stroke="#000"/><circle cx="357.0" cy="161.0" fill="#f00" r="3.0" stroke="#000"/><circle cx="387.0" cy="150.0" fill="#ffa500" r="3.0" stroke="#000"/><circle cx="418.0" cy="151.0" fill="#ff0" r="3.0" stroke="#000"/><circle cx="409.0" cy="121.0" fill="#0f0" r="3.0" stroke="#000"/><circle cx="386.0" cy="142.0" fill="#00f" r="3.0" stroke="#000"/><circle cx="383.0" cy="173.0" fill="#a020f0" r="3.0" stroke="#000"/><circle cx="413.0" cy="166.0" fill="#a52a2a" r="3.0" stroke="#000"/><circle cx="426.0" cy="194.0" fill="#bebebe" r="3.0" stroke="#000"/><circle cx="439.0" cy="223.0" fill="#f00" r="3.0" stroke="#000"/><circle cx="459.0" cy="246.0" fill="#ffa500" r="3.0" stroke="#000"/><circle cx="481.0" cy="268.0" fill="#ff0" r="3.0" stroke="#000"/><circle cx="512.0" cy="273.0" fill="#0f0" r="3.0" stroke="#000"/><circle cx="528.0" cy="300.0" fill="#00f" r="3.0" stroke="#000"/><polyline fill="none" points="217.0,300.0 245.0,285.0 235.0,256.0 263.0,243.0 279.0,216.0 274.0,186.0 245.0,196.0 275.0,205.0 304.0,195.0 306.0,164.0 325.0,140.0 356.0,148.0 385.0,158.0 416.0,155.0 441.0,137.0 457.0,163.0 466.0,193.0 479.0,221.0 493.0,249.0 507.0,277.0 528.0,300.0" stroke="#000" stroke-linejoin="round"/><circle cx="217.0" cy="300.0" fill="#f00" r="3.0" stroke="#000"/><circle cx="245.0" cy="285.0" fill="#ffa500" r="3.0" stroke="#000"/><circle cx="235.0" cy="256.0" fill="#ff0" r="3.0" stroke="#000"/><circle cx="263.0" cy="243.0" fill="#0f0" r="3.0" stroke="#000"/><circle cx="279.0" cy="216.0" fill="#00f" r="3.0" stroke="#000"/><circle cx="274.0" cy="186.0" fill="#a020f0" r="3.0" stroke="#000"/><circle cx="245.0" cy="196.0" fill="#a52a2a" r="3.0" stroke="#000"/><circle cx="275.0" cy="205.0" fill="#bebebe" r="3.0" stroke="#000"/><circle cx="304.0" cy="195.0" fill="#f00" r="3.0" stroke="#000"/><circle cx="306.0" cy="164.0" fill="#ffa500" r="3.0" stroke="#000"/><circle cx="325.0" cy="140.0" fill="#ff0" r="3.0" stroke="#000"/><circle cx="356.0" cy="148.0" fill="#0f0" r="3.0" stroke="#000"/><circle cx="385.0" cy="158.0" fill="#00f" r="3.0" stroke="#000"/><circle cx="416.0" cy="155.0" fill="#a020f0" r="3.0" stroke="#000"/><circle cx="441.0" cy="137.0" fill="#a52a2a" r="3.0" stroke="#000"/><circle cx="457.0" cy="163.0" fill="#bebebe" r="3.0" stroke="#000"/><circle cx="466.0" cy="193.0" fill="#f00" r="3.0" stroke="#000"/><circle cx="479.0" cy="221.0" fill="#ffa500" r="3.0" stroke="#000"/><circle cx="493.0" cy="249.0" fill="#ff0" r="3.0" stroke="#000"/><circle cx="507.0" cy="277.0" fill="#0f0" r="3.0" stroke="#000"/><circle cx="528.0" cy="300.0" fill="#00f" r="3.0" stroke="#000"/><polyline fill="none" points="217.0,300.0 216.0,268.0 223.0,238.0 240.0,212.0 266.0,195.0 285.0,220.0 282.0,189.0 280.0,158.0 253.0,142.0 279.0,160.0 304.0,142.0 323.0,117.0 350.0,133.0 379.0,145.0 392.0,173.0 415.0,195.0 437.0,216.0 457.0,240.0 482.0,259.0 508.0,276.0 528.0,300.0" stroke="#000" stroke-linejoin="round"/><circle cx="217.0" cy="300.0" fill="#f00" r="3.0" stroke="#000"/><circle cx="216.0" cy="268.0" fill="#ffa500" r="3.0" stroke="#000"/><circle cx="223.0" cy="238.0" fill="#ff0" r="3.0" stroke="#000"/><circle cx="240.0" cy="212.0" fill="#0f0" r="3.0" stroke="#000"/><circle cx="266.0" cy="195.0" fill="#00f" r="3.0" stroke="#000"/><circle cx="285.0" cy="220.0" fill="#a020f0" r="3.0" stroke="#000"/><circle cx="282.0" cy="189.0" fill="#a52a2a" r="3.0" stroke="#000"/><circle cx="280.0" cy="158.0" fill="#bebebe" r="3.0" stroke="#000"/><circle cx="253.0" cy="142.0" fill="#f00" r="3.0" stroke="#000"/><circle cx="279.0" cy="160.0" fill="#ffa500" r="3.0" stroke="#000"/><circle cx="304.0" cy="142.0" fill="#ff0" r="3.0" stroke="#000"/><circle cx="323.0" cy="117.0" fill="#0f0" r="3.0" stroke="#000"/><circle cx="350.0" cy="133.0" fill="#00f" r="3.0" stroke="#000"/><circle cx="379.0" cy="145.0" fill="#a020f0" r="3.0" stroke="#000"/><circle cx="392.0" cy="173.0" fill="#a52a2a" r="3.0" stroke="#000"/><circle cx="415.0" cy="195.0" fill="#bebebe" r="3.0" stroke="#000"/><circle cx="437.0" cy="216.0" fill="#f00" r="3.0" stroke="#000"/><circle cx="457.0" cy="240.0" fill="#ffa500" r="3.0" stroke="#000"/><circle cx="482.0" cy="259.0" fill="#ff0" r="3.0" stroke="#000"/><circle cx="508.0" cy="276.0" fill="#0f0" r="3.0" stroke="#000"/><circle cx="528.0" cy="300.0" fill="#00f" r="3.0" stroke="#000"/></svg>