<?xml version="1.0" ?><!DOCTYPE svg  PUBLIC '-//W3C//DTD SVG 1.1//EN'  'http://www.w3.org/Graphics/SVG/1.1/DTD/svg11.dtd'><svg height="620.000" viewBox="-9.000 -9.000 820.000 620.000" width="820.000" xmlns="http://www.w3.org/2000/svg"><rect fill="#fff" height="598.0" stroke="#000" width="798.0" x="2.0" y="2.0"/><circle cx="217.5" cy="299.5" fill="none" r="23.5" stroke="#000"/><ellipse cx="233.0" cy="272.5" fill="none" rx="23.0" ry="23.5" stroke="#000"/><circle cx="248.5" cy="245.5" fill="none" r="23.5" stroke="#000"/><ellipse cx="264.0" cy="218.5" fill="none" rx="23.0" ry="23.5" stroke="#000"/><circle cx="279.5" cy="191.5" fill="none" r="23.5" stroke="#000"/><ellipse cx="295.0" cy="164.5" fill="none" rx="23.0" ry="23.5" stroke="#000"/><ellipse cx="310.5" cy="138.0" fill="none" rx="23.5" ry="23.0" stroke="#000"/><ellipse cx="326.5" cy="111.0" fill="none" rx="23.5" ry="23.0" stroke="#000"/><ellipse cx="341.5" cy="84.0" fill="none" rx="23.5" ry="23.0" stroke="#000"/><ellipse cx="357.5" cy="57.0" fill="none" rx="23.5" ry="23.0" stroke="#000"/><circle cx="373.0" cy="30.0" fill="none" r="23.0" stroke="#000"/><ellipse cx="388.5" cy="57.0" fill="none" rx="23.5" ry="23.0" stroke="#000"/><circle cx="404.0" cy="84.0" fill="none" r="23.0" stroke="#000"/><ellipse cx="419.5" cy="111.0" fill="none" rx="23.5" ry="23.0" stroke="#000"/><circle cx="435.0" cy="138.0" fill="none" r="23.0" stroke="#000"/><circle cx="450.5" cy="164.5" fill="none" r="23.5" stroke="#000"/><circle cx="466.5" cy="191.5" fill="none" r="23.5" stroke="#000"/><circle cx="481.5" cy="218.5" fill="none" r="23.5" stroke="#000"/><circle cx="497.5" cy="245.5" fill="none" r="23.5" stroke="#000"/><ellipse cx="513.0" cy="272.5" fill="none" rx="23.0" ry="23.5" stroke="#000"/><circle cx="528.5" cy="299.5" fill="none" r="23.5" stroke="#000"/><polyline fill="none" points="217.0,300.0 233.0,273.0 248.0,246.0 264.0,219.0 280.0,192.0 295.0,165.0 311.0,138.0 326.0,111.0 342.0,84.0 357.0,57.0 373.0,30.0 388.0,57.0 404.0,84.0 420.0,111.0 435.0,138.0 451.0,165.0 466.0,192.0 482.0,219.0 497.0,246.0 513.0,273.0 528.0,300.0" stroke="#000" stroke-linejoin="round"/><circle cx="217.0" cy="300.0" fill="#f00" r="3.0" stroke="#000"/><circle cx="233.0" cy="273.0" fill="#ffa500" r="3.0" stroke="#000"/><circle cx="248.0" cy="246.0" fill="#ff0" r="3.0" stroke="#000"/><circle cx="264.0" cy="219.0" fill="#0f0" r="3.0" stroke="#000"/><circle cx="280.0" cy="192.0" fill="#00f" r="3.0" stroke="#000"/><circle cx="295.0" cy="165.0" fill="#a020f0" r="3.0" stroke="#000"/><circle cx="311.0" cy="138.0" fill="#a52a2a" r="3.0" stroke="#000"/><circle cx="326.0" cy="111.0" fill="#bebebe" r="3.0" stroke="#000"/><circle cx="342.0" cy="84.0" fill="#f00" r="3.0" stroke="#000"/><circle cx="357.0" cy="57.0" fill="#ffa500" r="3.0" stroke="#000"/><circle cx="373.0" cy="30.0" fill="#ff0" r="3.0" stroke="#000"/><circle cx="388.0" cy="57.0" fill="#0f0" r="3.0" stroke="#000"/><circle cx="404.0" cy="84.0" fill="#00f" r="3.0" stroke="#000"/><circle cx="420.0" cy="111.0" fill="#a020f0" r="3.0" stroke="#000"/><circle cx="435.0" cy="138.0" fill="#a52a2a" r="3.0" stroke="#000"/><circle cx="451.0" cy="165.0" fill="#bebebe" r="3.0" stroke="#000"/><circle cx="466.0" cy="192.0" fill="#f00" r="3.0" stroke="#000"/><circle cx="482.0" cy="219.0" fill="#ffa500" r="3.0" stroke="#000"/><circle cx="497.0" cy="246.0" fill="#ff0" r="3.0" stroke="#000"/><circle cx="513.0" cy="273.0" fill="#0f0" r="3.0" stroke="#000"/><circle cx="528.0" cy="300.0" fill="#00f" r="3.0" stroke="#000"/><polyline fill="none" points="217.0,300.0 227.0,270.0 243.0,244.0 265.0,221.0 278.0,193.0 294.0,166.0 315.0,143.0 330.0,116.0 343.0,88.0 349.0,57.0 369.0,33.0 388.0,57.0 404.0,84.0 420.0,111.0 435.0,138.0 451.0,165.0 466.0,192.0 482.0,219.0 497.0,246.0 513.0,273.0 528.0,300.0" stroke="#000" stroke-linejoin="round"/><circle cx="217.0" cy="300.0" fill="#f00" r="3.0" stroke="#000"/><circle cx="227.0" cy="270.0" fill="#ffa500" r="3.0" stroke="#000"/><circle cx="243.0" cy="244.0" fill="#ff0" r="3.0" stroke="#000"/><circle cx="265.0" cy="221.0" fill="#0f0" r="3.0" stroke="#000"/><circle cx="278.0" cy="193.0" fill="#00f" r="3.0" stroke="#000"/><circle cx="294.0" cy="166.0" fill="#a020f0" r="3.0" stroke="#000"/><circle cx="315.0" cy="143.0" fill="#a52a2a" r="3.0" stroke="#000"/><circle cx="330.0" cy="116.0" fill="#bebebe" r="3.0" stroke="#000"/><circle cx="343.0" cy="88.0" fill="#f00" r="3.0" stroke="#000"/><circle cx="349.0" cy="57.0" fill="#ffa500" r="3.0" stroke="#000"/><circle cx="369.0" cy="33.0" fill="#ff0" r="3.0" stroke="#000"/><circle cx="388.0" cy="57.0" fill="#0f0" r="3.0" stroke="#000"/><circle cx="404.0" cy="84.0" fill="#00f" r="3.0" stroke="#000"/><circle cx="420.0" cy="111.0" fill="#a020f0" r="3.0" stroke="#000"/><circle cx="435.0" cy="138.0" fill="#a52a2a" r="3.0" stroke="#000"/><circle cx="451.0" cy="165.0" fill="#bebebe" r="3.0" stroke="#000"/><circle cx="466.0" cy="192.0" fill="#f00" r="3.0" stroke="#000"/><circle cx="482.0" cy="219.0" fill="#ffa500" r="3.0" stroke="#000"/><circle cx="497.0" cy="246.0" fill="#ff0" r="3.0" stroke="#000"/><circle cx="513.0" cy="273.0" fill="#0f0" r="3.0" stroke="#000"/><circle cx="528.0" cy="300.0" fill="#00f" r="3.0" stroke="#000"/><polyline fill="none" points="217.0,300.0 232.0,272.0 249.0,246.0 258.0,216.0 276.0,191.0 288.0,162.0 311.0,142.0 328.0,116.0 345.0,89.0 355.0,60.0 370.0,32.0 388.0,57.0 404.0,84.0 420.0,111.0 435.0,138.0 451.0,165.0 466.0,192.0 482.0,219.0 497.0,246.0 513.0,273.0 528.0,300.0" stroke="#000" stroke-linejoin="round"/><circle cx="217.0" cy="300.0" fill="#f00" r="3.0" stroke="#000"/><circle cx="232.0" cy="272.0" fill="#ffa500" r="3.0" stroke="#000"/><circle cx="249.0" cy="246.0" fill="#ff0" r="3.0" stroke="#000"/><circle cx="258.0" cy="216.0" fill="#0f0" r="3.0" stroke="#000"/><circle cx="276.0" cy="191.0" fill="#00f" r="3.0" stroke="#000"/><circle cx="288.0" cy="162.0" fill="#a020f0" r="3.0" stroke="#000"/><circle cx="311.0" cy="142.0" fill="#a52a2a" r="3.0" stroke="#000"/><circle cx="328.0" cy="116.0" fill="#bebebe" r="3.0" stroke="#000"/><circle cx="345.0" cy="89.0" fill="#f00" r="3.0" stroke="#000"/><circle cx="355.0" cy="60.0" fill="#ffa500" r="3.0" stroke="#000"/><circle cx="370.0" cy="32.0" fill="#ff0" r="3.0" stroke="#000"/><circle cx="388.0" cy="57.0" fill="#0f0" r="3.0" stroke="#000"/><circle cx="404.0" cy="84.0" fill="#00f" r="3.0" stroke="#000"/><circle cx="420.0" cy="111.0" fill="#a020f0" r="3.0" stroke="#000"/><circle cx="435.0" cy="138.0" fill="#a52a2a" r="3.0" stroke="#000"/><circle cx="451.0" cy="165.0" fill="#bebebe" r="3.0" stroke="#000"/><circle cx="466.0" cy="192.0" fill="#f00" r="3.0" stroke="#000"/><circle cx="482.0" cy="219.0" fill="#ffa500" r="3.0" stroke="#000"/><circle cx="497.0" cy="246.0" fill="#ff0" r="3.0" stroke="#000"/><circle cx="513.0" cy="273.0" fill="#0f0" r="3.0" stroke="#000"/><circle cx="528.0" cy="300.0" fill="#00f" r="3.0" stroke="#000"/><polyline fill="none" points="217.0,300.0 229.0,271.0 242.0,242.0 254.0,214.0 279.0,195.0 293.0,167.0 312.0,143.0 323.0,113.0 338.0,86.0 358.0,62.0 369.0,33.0 386.0,59.0 403.0,85.0 421.0,111.0 436.0,138.0 451.0,165.0 467.0,192.0 478.0,221.0 494.0,247.0 512.0,273.0 528.0,300.0" stroke="#000" stroke-linejoin="round"/><circle cx="217.0" cy="300.0" fill="#f00" r="3.0" stroke="#000"/><circle cx="229.0" cy="271.0" fill="#ffa500" r="3.0" stroke="#000"/><circle cx="242.0" cy="242.0" fill="#ff0" r="3.0" stroke="#000"/><circle cx="254.0" cy="214.0" fill="#0f0" r="3.0" stroke="#000"/><circle cx="279.0" cy="195.0" fill="#00f" r="3.0" stroke="#000"/><circle cx="293.0" cy="167.0" fill="#a020f0" r="3.0" stroke="#000"/><circle cx="312.0" cy="143.0" fill="#a52a2a" r="3.0" stroke="#000"/><circle cx="323.0" cy="113.0" fill="#bebebe" r="3.0" stroke="#000"/><circle cx="338.0" cy="86.0" fill="#f00" r="3.0" stroke="#000"/><circle cx="358.0" cy="62.0" fill="#ffa500" r="3.0" stroke="#000"/><circle cx="369.0" cy="33.0" fill="#ff0" r="3.0" stroke="#000"/><circle cx="386.0" cy="59.0" fill="#0f0" r="3.0" stroke="#000"/><circle cx="403.0" cy="85.0" fill="#00f" r="3.0" stroke="#000"/><circle cx="421.0" cy="111.0" fill="#a020f0" r="3.0" stroke="#000"/><circle cx="436.0" cy="138.0" fill="#a52a2a" r="3.0" stroke="#000"/><circle cx="451.0" cy="165.0" fill="#bebebe" r="3.0" stroke="#000"/><circle cx="467.0" cy="192.0" fill="#f00" r="3.0" stroke="#000"/><circle cx="478.0" cy="221.0" fill="#ffa500" r="3.0" stroke="#000"/><circle cx="494.0" cy="247.0" fill="#ff0" r="3.0" stroke="#000"/><circle cx="512.0" cy="273.0" fill="#0f0" r="3.0" stroke="#000"/><circle cx="528.0" cy="300.0" fill="#00f" r="3.0" stroke="#000"/><polyline fill="none" points="217.0,300.0 235.0,274.0 252.0,248.0 270.0,223.0 277.0,193.0 289.0,164.0 305.0,137.0 323.0,111.0 343.0,88.0 357.0,60.0 373.0,34.0 391.0,59.0 406.0,86.0 421.0,114.0 441.0,138.0 449.0,168.0 459.0,197.0 481.0,219.0 495.0,247.0 514.0,272.0 528.0,300.0" stroke="#000" stroke-linejoin="round"/><circle cx="217.0" cy="300.0" fill="#f00" r="3.0" stroke="#000"/><circle cx="235.0" cy="274.0" fill="#ffa500" r="3.0" stroke="#000"/><circle cx="252.0" cy="248.0" fill="#ff0" r="3.0" stroke="#000"/><circle cx="270.0" cy="223.0" fill="#0f0" r="3.0" stroke="#000"/><circle cx="277.0" cy="193.0" fill="#00f" r="3.0" stroke="#000"/><circle cx="289.0" cy="164.0" fill="#a020f0" r="3.0" stroke="#000"/><circle cx="305.0" cy="137.0" fill="#a52a2a" r="3.0" stroke="#000"/><circle cx="323.0" cy="111.0" fill="#bebebe" r="3.0" stroke="#000"/><circle cx="343.0" cy="88.0" fill="#f00" r="3.0" stroke="#000"/><circle cx="357.0" cy="60.0" fill="#ffa500" r="3.0" stroke="#000"/><circle cx="373.0" cy="34.0" fill="#ff0" r="3.0" stroke="#000"/><circle cx="391.0" cy="59.0" fill="#0f0" r="3.0" stroke="#000"/><circle cx="406.0" cy="86.0" fill="#00f" r="3.0" stroke="#000"/><circle cx="421.0" cy="114.0" fill="#a020f0" r="3.0" stroke="#000"/><circle cx="441.0" cy="138.0" fill="#a52a2a" r="3.0" stroke="#000"/><circle cx="449.0" cy="168.0" fill="#bebebe" r="3.0" stroke="#000"/><circle cx="459.0" cy="197.0" fill="#f00" r="3.0" stroke="#000"/><circle cx="481.0" cy="219.0" fill="#ffa500" r="3.0" stroke="#000"/><circle cx="495.0" cy="247.0" fill="#ff0" r="3.0" stroke="#000"/><circle cx="514.0" cy="272.0" fill="#0f0" r="3.0" stroke="#000"/><circle cx="528.0" cy="300.0" fill="#00f" r="3.0" stroke="#000"/><polyline fill="none" points="217.0,300.0 237.0,275.0 256.0,251.0 267.0,222.0 284.0,196.0 292.0,166.0 312.0,141.0 328.0,115.0 353.0,96.0 368.0,69.0 365.0,38.0 384.0,63.0 406.0,85.0 419.0,113.0 432.0,141.0 449.0,167.0 462.0,196.0 482.0,220.0 496.0,247.0 516.0,271.0 528.0,300.0" stroke="#000" stroke-linejoin="round"/><circle cx="217.0" cy="300.0" fill="#f00" r="3.0" stroke="#000"/><circle cx="237.0" cy="275.0" fill="#ffa500" r="3.0" stroke="#000"/><circle cx="256.0" cy="251.0" fill="#ff0" r="3.0" stroke="#000"/><circle cx="267.0" cy="222.0" fill="#0f0" r="3.0" stroke="#000"/><circle cx="284.0" cy="196.0" fill="#00f" r="3.0" stroke="#000"/><circle cx="292.0" cy="166.0" fill="#a020f0" r="3.0" stroke="#000"/><circle cx="312.0" cy="141.0" fill="#a52a2a" r="3.0" stroke="#000"/><circle cx="328.0" cy="115.0" fill="#bebebe" r="3.0" stroke="#000"/><circle cx="353.0" cy="96.0" fill="#f00" r="3.0" stroke="#000"/><circle cx="368.0" cy="69.0" fill="#ffa500" r="3.0" stroke="#000"/><circle cx="365.0" cy="38.0" fill="#ff0" r="3.0" stroke="#000"/><circle cx="384.0" cy="63.0" fill="#0f0" r="3.0" stroke="#000"/><circle cx="406.0" cy="85.0" fill="#00f" r="3.0" stroke="#000"/><circle cx="419.0" cy="113.0" fill="#a020f0" r="3.0" stroke="#000"/><circle cx="432.0" cy="141.0" fill="#a52a2a" r="3.0" stroke="#000"/><circle cx="449.0" cy="167.0" fill="#bebebe" r="3.0" stroke="#000"/><circle cx="462.0" cy="196.0" fill="#f00" r="3.0" stroke="#000"/><circle cx="482.0" cy="220.0" fill="#ffa500" r="3.0" stroke="#000"/><circle cx="496.0" cy="247.0" fill="#ff0" r="3.0" stroke="#000"/><circle cx="516.0" cy="271.0" fill="#0f0" r="3.0" stroke="#000"/><circle cx="528.0" cy="300.0" fill="#00f" r="3.0" stroke="#000"/><polyline fill="none" points="217.0,300.0 238.0,276.0 252.0,249.0 267.0,221.0 285.0,196.0 289.0,165.0 300.0,136.0 326.0,119.0 349.0,98.0 352.0,67.0 365.0,39.0 387.0,60.0 407.0,84.0 418.0,113.0 426.0,143.0 443.0,170.0 459.0,196.0 478.0,221.0 496.0,246.0 513.0,272.0 528.0,300.0" stroke="#000" stroke-linejoin="round"/><circle cx="217.0" cy="300.0" fill="#f00" r="3.0" stroke="#000"/><circle cx="238.0" cy="276.0" fill="#ffa500" r="3.0" stroke="#000"/><circle cx="252.0" cy="249.0" fill="#ff0" r="3.0" stroke="#000"/><circle cx="267.0" cy="221.0" fill="#0f0" r="3.0" stroke="#000"/><circle cx="285.0" cy="196.0" fill="#00f" r="3.0" stroke="#000"/><circle cx="289.0" cy="165.0" fill="#a020f0" r="3.0" stroke="#000"/><circle cx="300.0" cy="136.0" fill="#a52a2a" r="3.0" stroke="#000"/><circle cx="326.0" cy="119.0" fill="#bebebe" r="3.0" stroke="#000"/><circle cx="349.0" cy="98.0" fill="#f00" r="3.0" stroke="#000"/><circle cx="352.0" cy="67.0" fill="#ffa500" r="3.0" stroke="#000"/><circle cx="365.0" cy="39.0" fill="#ff0" r="3.0" stroke="#000"/><circle cx="387.0" cy="60.0" fill="#0f0" r="3.0" stroke="#000"/><circle cx="407.0" cy="84.0" fill="#00f" r="3.0" stroke="#000"/><circle cx="418.0" cy="113.0" fill="#a020f0" r="3.0" stroke="#000"/><circle cx="426.0" cy="143.0" fill="#a52a2a" r="3.0" stroke="#000"/><circle cx="443.0" cy="170.0" fill="#bebebe" r="3.0" stroke="#000"/><circle cx="459.0" cy="196.0" fill="#f00" r="3.0" stroke="#000"/><circle cx="478.0" cy="221.0" fill="#ffa500" r="3.0" stroke="#000"/><circle cx="496.0" cy="246.0" fill="#ff0" r="3.0" stroke="#000"/><circle cx="513.0" cy="272.0" fill="#0f0" r="3.0" stroke="#000"/><circle cx="528.0" cy="300.0" fill="#00f" r="3.0" stroke="#000"/><polyline fill="none" points="217.0,300.0 229.0,271.0 247.0,245.0 259.0,216.0 275.0,190.0 288.0,162.0 310.0,139.0 331.0,117.0 349.0,91.0 352.0,60.0 372.0,37.0 390.0,62.0 410.0,86.0 423.0,114.0 430.0,145.0 448.0,169.0 459.0,199.0 484.0,218.0 502.0,243.0 517.0,271.0 528.0,300.0" stroke="#000" stroke-linejoin="round"/><circle cx="217.0" cy="300.0" fill="#f00" r="3.0" stroke="#000"/><circle cx="229.0" cy="271.0" fill="#ffa500" r="3.0" stroke="#000"/><circle cx="247.0" cy="245.0" fill="#ff0" r="3.0" stroke="#000"/><circle cx="259.0" cy="216.0" fill="#0f0" r="3.0" stroke="#000"/><circle cx="275.0" cy="190.0" fill="#00f" r="3.0" stroke="#000"/><circle cx="288.0" cy="162.0" fill="#a020f0" r="3.0" stroke="#000"/><circle cx="310.0" cy="139.0" fill="#a52a2a" r="3.0" stroke="#000"/><circle cx="331.0" cy="117.0" fill="#bebebe" r="3.0" stroke="#000"/><circle cx="349.0" cy="91.0" fill="#f00" r="3.0" stroke="#000"/><circle cx="352.0" cy="60.0" fill="#ffa500" r="3.0" stroke="#000"/><circle cx="372.0" cy="37.0" fill="#ff0" r="3.0" stroke="#000"/><circle cx="390.0" cy="62.0" fill="#0f0" r="3.0" stroke="#000"/><circle cx="410.0" cy="86.0" fill="#00f" r="3.0" stroke="#000"/><circle cx="423.0" cy="114.0" fill="#a020f0" r="3.0" stroke="#000"/><circle cx="430.0" cy="145.0" fill="#a52a2a" r="3.0" stroke="#000"/><circle cx="448.0" cy="169.0" fill="#bebebe" r="3.0" stroke="#000"/><circle cx="459.0" cy="199.0" fill="#f00" r="3.0" stroke="#000"/><circle cx="484.0" cy="218.0" fill="#ffa500" r="3.0" stroke="#000"/><circle cx="502.0" cy="243.0" fill="#ff0" r="3.0" stroke="#000"/><circle cx="517.0" cy="271.0" fill="#0f0" r="3.0" stroke="#000"/><circle cx="528.0" cy="300.0" fill="#00f" r="3.0" stroke="#000"/><polyline fill="none" points="217.0,300.0 233.0,273.0 252.0,248.0 267.0,221.0 279.0,192.0 291.0,163.0 309.0,138.0 333.0,118.0 344.0,89.0 355.0,60.0 372.0,34.0 390.0,60.0 402.0,89.0 416.0,116.0 433.0,142.0 455.0,165.0 466.0,194.0 482.0,220.0 502.0,244.0 511.0,274.0 528.0,300.0" stroke="#000" stroke-linejoin="round"/><circle cx="217.0" cy="300.0" fill="#f00" r="3.0" stroke="#000"/><circle cx="233.0" cy="273.0" fill="#ffa500" r="3.0" stroke="#000"/><circle cx="252.0" cy="248.0" fill="#ff0" r="3.0" stroke="#000"/><circle cx="267.0" cy="221.0" fill="#0f0" r="3.0" stroke="#000"/><circle cx="279.0" cy="192.0" fill="#00f" r="3.0" stroke="#000"/><circle cx="291.0" cy="163.0" fill="#a020f0" r="3.0" stroke="#000"/><circle cx="309.0" cy="138.0" fill="#a52a2a" r="3.0" stroke="#000"/><circle cx="333.0" cy="118.0" fill="#bebebe" r="3.0" stroke="#000"/><circle cx="344.0" cy="89.0" fill="#f00" r="3.0" stroke="#000"/><circle cx="355.0" cy="60.0" fill="#ffa500" r="3.0" stroke="#000"/><circle cx="372.0" cy="34.0" fill="#ff0" r="3.0" stroke="#000"/><circle cx="390.0" cy="60.0" fill="#0f0" r="3.0" stroke="#000"/><circle cx="402.0" cy="89.0" fill="#00f" r="3.0" stroke="#000"/><circle cx="416.0" cy="116.0" fill="#a020f0" r="3.0" stroke="#000"/><circle cx="433.0" cy="142.0" fill="#a52a2a" r="3.0" stroke="#000"/><circle cx="455.0" cy="165.0" fill="#bebebe" r="3.0" stroke="#000"/><circle cx="466.0" cy="194.0" fill="#f00" r="3.0" stroke="#000"/><circle cx="482.0" cy="220.0" fill="#ffa500" r="3.0" stroke="#000"/><circle cx="502.0" cy="244.0" fill="#ff0" r="3.0" stroke="#000"/><circle cx="511.0" cy="274.0" fill="#0f0" r="3.0" stroke="#000"/><circle cx="528.0" cy="300.0" fill="#00f" r="3.0" stroke="#000"/><polyline fill="none" points="217.0,300.0 236.0,275.0 249.0,247.0 265.0,219.0 287.0,198.0 297.0,169.0 301.0,138.0 321.0,114.0 339.0,89.0 360.0,65.0 370.0,36.0 385.0,63.0 408.0,84.0 422.0,112.0 438.0,139.0 451.0,167.0 462.0,196.0 484.0,217.0 501.0,244.0 516.0,271.0 528.0,300.0" stroke="#000" stroke-linejoin="round"/><circle cx="217.0" cy="300.0" fill="#f00" r="3.0" stroke="#000"/><circle cx="236.0" cy="275.0" fill="#ffa500" r="3.0" stroke="#000"/><circle cx="249.0" cy="247.0" fill="#ff0" r="3.0" stroke="#000"/><circle cx="265.0" cy="219.0" fill="#0f0" r="3.0" stroke="#000"/><circle cx="287.0" cy="198.0" fill="#00f" r="3.0" stroke="#000"/><circle cx="297.0" cy="169.0" fill="#a020f0" r="3.0" stroke="#000"/><circle cx="301.0" cy="138.0" fill="#a52a2a" r="3.0" stroke="#000"/><circle cx="321.0" cy="114.0" fill="#bebebe" r="3.0" stroke="#000"/><circle cx="339.0" cy="89.0" fill="#f00" r="3.0" stroke="#000"/><circle cx="360.0" cy="65.0" fill="#ffa500" r="3.0" stroke="#000"/><circle cx="370.0" cy="36.0" fill="#ff0" r="3.0" stroke="#000"/><circle cx="385.0" cy="63.0" fill="#0f0" r="3.0" stroke="#000"/><circle cx="408.0" cy="84.0" fill="#00f" r="3.0" stroke="#000"/><circle cx="422.0" cy="112.0" fill="#a020f0" r="3.0" stroke="#000"/><circle cx="438.0" cy="139.0" fill="#a52a2a" r="3.0" stroke="#000"/><circle cx="451.0" cy="167.0" fill="#bebebe" r="3.0" stroke="#000"/><circle cx="462.0" cy="196.0" fill="#f00" r="3.0" stroke="#000"/><circle cx="484.0" cy="217.0" fill="#ffa500" r="3.0" stroke="#000"/><circle cx="501.0" cy="244.0" fill="#ff0" r="3.0" stroke="#000"/><circle cx="516.0" cy="271.0" fill="#0f0" r="3.0" stroke="#000"/><circle cx="528.0" cy="300.0" fill="#00f" r="3.0" stroke="#000"/><polyline fill="none" points="217.0,300.0 227.0,270.0 249.0,248.0 260.0,219.0 278.0,193.0 295.0,167.0 313.0,142.0 333.0,118.0 347.0,90.0 362.0,63.0 373.0,34.0 392.0,58.0 405.0,86.0 420.0,114.0 438.0,138.0 450.0,167.0 466.0,194.0 480.0,222.0 503.0,243.0 514.0,272.0 528.0,300.0" stroke="#000" stroke-linejoin="round"/><circle cx="217.0" cy="300.0" fill="#f00" r="3.0" stroke="#000"/><circle cx="227.0" cy="270.0" fill="#ffa500" r="3.0" stroke="#000"/><circle cx="249.0" cy="248.0" fill="#ff0" r="3.0" stroke="#000"/><circle cx="260.0" cy="219.0" fill="#0f0" r="3.0" stroke="#000"/><circle cx="278.0" cy="193.0" fill="#00f" r="3.0" stroke="#000"/><circle cx="295.0" cy="167.0" fill="#a020f0" r="3.0" stroke="#000"/><circle cx="313.0" cy="142.0" fill="#a52a2a" r="3.0" stroke="#000"/><circle cx="333.0" cy="118.0" fill="#bebebe" r="3.0" stroke="#000"/><circle cx="347.0" cy="90.0" fill="#f00" r="3.0" stroke="#000"/><circle cx="362.0" cy="63.0" fill="#ffa500" r="3.0" stroke="#000"/><circle cx="373.0" cy="34.0" fill="#ff0" r="3.0" stroke="#000"/><circle cx="392.0" cy="58.0" fill="#0f0" r="3.0" stroke="#000"/><circle cx="405.0" cy="86.0" fill="#00f" r="3.0" stroke="#000"/><circle cx="420.0" cy="114.0" fill="#a020f0" r="3.0" stroke="#000"/><circle cx="438.0" cy="138.0" fill="#a52a2a" r="3.0" stroke="#000"/><circle cx="450.0" cy="167.0" fill="#bebebe" r="3.0" stroke="#000"/><circle cx="466.0" cy="194.0" fill="#f00" r="3.0" stroke="#000"/><circle cx="480.0" cy="222.0" fill="#ffa500" r="3.0" stroke="#000"/><circle cx="503.0" cy="243.0" fill="#ff0" r="3.0" stroke="#000"/><circle cx="514.0" cy="272.0" fill="#0f0" r="3.0" stroke="#000"/><circle cx="528.0" cy="300.0" fill="#00f" r="3.0" stroke="#000"/><polyline fill="none" points="217.0,300.0 237.0,275.0 253.0,248.0 265.0,220.0 273.0,190.0 286.0,162.0 304.0,136.0 321.0,110.0 344.0,90.0 358.0,62.0 380.0,40.0 379.0,71.0 407.0,85.0 422.0,112.0 441.0,136.0 449.0,166.0 469.0,191.0 487.0,216.0 502.0,243.0 513.0,272.0 528.0,300.0" stroke="#000" stroke-linejoin="round"/><circle cx="217.0" cy="300.0" fill="#f00" r="3.0" stroke="#000"/><circle cx="237.0" cy="275.0" fill="#ffa500" r="3.0" stroke="#000"/><circle cx="253.0" cy="248.0" fill="#ff0" r="3.0" stroke="#000"/><circle cx="265.0" cy="220.0" fill="#0f0" r="3.0" stroke="#000"/><circle cx="273.0" cy="190.0" fill="#00f" r="3.0" stroke="#000"/><circle cx="286.0" cy="162.0" fill="#a020f0" r="3.0" stroke="#000"/><circle cx="304.0" cy="136.0" fill="#a52a2a" r="3.0" stroke="#000"/><circle cx="321.0" cy="110.0" fill="#bebebe" r="3.0" stroke="#000"/><circle cx="344.0" cy="90.0" fill="#f00" r="3.0" stroke="#000"/><circle cx="358.0" cy="62.0" fill="#ffa500" r="3.0" stroke="#000"/><circle cx="380.0" cy="40.0" fill="#ff0" r="3.0" stroke="#000"/><circle cx="379.0" cy="71.0" fill="#0f0" r="3.0" stroke="#000"/><circle cx="407.0" cy="85.0" fill="#00f" r="3.0" stroke="#000"/><circle cx="422.0" cy="112.0" fill="#a020f0" r="3.0" stroke="#000"/><circle cx="441.0" cy="136.0" fill="#a52a2a" r="3.0" stroke="#000"/><circle cx="449.0" cy="166.0" fill="#bebebe" r="3.0" stroke="#000"/><circle cx="469.0" cy="191.0" fill="#f00" r="3.0" stroke="#000"/><circle cx="487.0" cy="216.0" fill="#ffa500" r="3.0" stroke="#000"/><circle cx="502.0" cy="243.0" fill="#ff0" r="3.0" stroke="#000"/><circle cx="513.0" cy="272.0" fill="#0f0" r="3.0" stroke="#000"/><circle cx="528.0" cy="300.0" fill="#00f" r="3.0" stroke="#000"/><polyline fill="none" points="217.0,300.0 229.0,271.0 251.0,248.0 267.0,222.0 276.0,192.0 298.0,169.0 306.0,139.0 324.0,114.0 337.0,86.0 354.0,60.0 376.0,38.0 400.0,58.0 406.0,89.0 426.0,112.0 432.0,143.0 449.0,169.0 465.0,195.0 477.0,224.0 501.0,244.0 517.0,271.0 528.0,300.0" stroke="#000" stroke-linejoin="round"/><circle cx="217.0" cy="300.0" fill="#f00" r="3.0" stroke="#000"/><circle cx="229.0" cy="271.0" fill="#ffa500" r="3.0" stroke="#000"/><circle cx="251.0" cy="248.0" fill="#ff0" r="3.0" stroke="#000"/><circle cx="267.0" cy="222.0" fill="#0f0" r="3.0" stroke="#000"/><circle cx="276.0" cy="192.0" fill="#00f" r="3.0" stroke="#000"/><circle cx="298.0" cy="169.0" fill="#a020f0" r="3.0" stroke="#000"/><circle cx="306.0" cy="139.0" fill="#a52a2a" r="3.0" stroke="#000"/><circle cx="324.0" cy="114.0" fill="#bebebe" r="3.0" stroke="#000"/><circle cx="337.0" cy="86.0" fill="#f00" r="3.0" stroke="#000"/><circle cx="354.0" cy="60.0" fill="#ffa500" r="3.0" stroke="#000"/><circle cx="376.0" cy="38.0" fill="#ff0" r="3.0" stroke="#000"/><circle cx="400.0" cy="58.0" fill="#0f0" r="3.0" stroke="#000"/><circle cx="406.0" cy="89.0" fill="#00f" r="3.0" stroke="#000"/><circle cx="426.0" cy="112.0" fill="#a020f0" r="3.0" stroke="#000"/><circle cx="432.0" cy="143.0" fill="#a52a2a" r="3.0" stroke="#000"/><circle cx="449.0" cy="169.0" fill="#bebebe" r="3.0" stroke="#000"/><circle cx="465.0" cy="195.0" fill="#f00" r="3.0" stroke="#000"/><circle cx="477.0" cy="224.0" fill="#ffa500" r="3.0" stroke="#000"/><circle cx="501.0" cy="244.0" fill="#ff0" r="3.0" stroke="#000"/><circle cx="517.0" cy="271.0" fill="#0f0" r="3.0" stroke="#000"/><circle cx="528.0" cy="300.0" fill="#00f" r="3.0" stroke="#000"/><polyline fill="none" points="217.0,300.0 237.0,276.0 251.0,248.0 261.0,218.0 273.0,190.0 295.0,167.0 311.0,141.0 322.0,112.0 338.0,85.0 361.0,65.0 377.0,38.0 397.0,61.0 401.0,92.0 410.0,121.0 435.0,141.0 441.0,171.0 459.0,196.0 479.0,221.0 496.0,246.0 510.0,275.0 528.0,300.0" stroke="#000" stroke-linejoin="round"/><circle cx="217.0" cy="300.0" fill="#f00" r="3.0" stroke="#000"/><circle cx="237.0" cy="276.0" fill="#ffa500" r="3.0" stroke="#000"/><circle cx="251.0" cy="248.0" fill="#ff0" r="3.0" stroke="#000"/><circle cx="261.0" cy="218.0" fill="#0f0" r="3.0" stroke="#000"/><circle cx="273.0" cy="190.0" fill="#00f" r="3.0" stroke="#000"/><circle cx="295.0" cy="167.0" fill="#a020f0" r="3.0" stroke="#000"/><circle cx="311.0" cy="141.0" fill="#a52a2a" r="3.0" stroke="#000"/><circle cx="322.0" cy="112.0" fill="#bebebe" r="3.0" stroke="#000"/><circle cx="338.0" cy="85.0" fill="#f00" r="3.0" stroke="#000"/><circle cx="361.0" cy="65.0" fill="#ffa500" r="3.0" stroke="#000"/><circle cx="377.0" cy="38.0" fill="#ff0" r="3.0" stroke="#000"/><circle cx="397.0" cy="61.0" fill="#0f0" r="3.0" stroke="#000"/><circle cx="401.0" cy="92.0" fill="#00f" r="3.0" stroke="#000"/><circle cx="410.0" cy="121.0" fill="#a020f0" r="3.0" stroke="#000"/><circle cx="435.0" cy="141.0" fill="#a52a2a" r="3.0" stroke="#000"/><circle cx="441.0" cy="171.0" fill="#bebebe" r="3.0" stroke="#000"/><circle cx="459.0" cy="196.0" fill="#f00" r="3.0" stroke="#000"/><circle cx="479.0" cy="221.0" fill="#ffa500" r="3.0" stroke="#000"/><circle cx="496.0" cy="246.0" fill="#ff0" r="3.0" stroke="#000"/><circle cx="510.0" cy="275.0" fill="#0f0" r="3.0" stroke="#000"/><circle cx="528.0" cy="300.0" fill="#00f" r="3.0" stroke="#000"/><polyline fill="none" points="217.0,300.0 233.0,273.0 255.0,251.0 263.0,221.0 275.0,192.0 289.0,164.0 311.0,142.0 327.0,115.0 335.0,85.0 358.0,64.0 375.0,38.0 391.0,65.0 406.0,92.0 418.0,121.0 437.0,146.0 457.0,170.0 460.0,201.0 479.0,225.0 505.0,243.0 522.0,269.0 528.0,300.0" stroke="#000" stroke-linejoin="round"/><circle cx="217.0" cy="300.0" fill="#f00" r="3.0" stroke="#000"/><circle cx="233.0" cy="273.0" fill="#ffa500" r="3.0" stroke="#000"/><circle cx="255.0" cy="251.0" fill="#ff0" r="3.0" stroke="#000"/><circle cx="263.0" cy="221.0" fill="#0f0" r="3.0" stroke="#000"/><circle cx="275.0" cy="192.0" fill="#00f" r="3.0" stroke="#000"/><circle cx="289.0" cy="164.0" fill="#a020f0" r="3.0" stroke="#000"/><circle cx="311.0" cy="142.0" fill="#a52a2a" r="3.0" stroke="#000"/><circle cx="327.0" cy="115.0" fill="#bebebe" r="3.0" stroke="#000"/><circle cx="335.0" cy="85.0" fill="#f00" r="3.0" stroke="#000"/><circle cx="358.0" cy="64.0" fill="#ffa500" r="3.0" stroke="#000"/><circle cx="375.0" cy="38.0" fill="#ff0" r="3.0" stroke="#000"/><circle cx="391.0" cy="65.0" fill="#0f0" r="3.0" stroke="#000"/><circle cx="406.0" cy="92.0" fill="#00f" r="3.0" stroke="#000"/><circle cx="418.0" cy="121.0" fill="#a020f0" r="3.0" stroke="#000"/><circle cx="437.0" cy="146.0" fill="#a52a2a" r="3.0" stroke="#000"/><circle cx="457.0" cy="170.0" fill="#bebebe" r="3.0" stroke="#000"/><circle cx="460.0" cy="201.0" fill="#f00" r="3.0" stroke="#000"/><circle cx="479.0" cy="225.0" fill="#ffa500" r="3.0" stroke="#000"/><circle cx="505.0" cy="243.0" fill="#ff0" r="3.0" stroke="#000"/><circle cx="522.0" cy="269.0" fill="#0f0" r="3.0" stroke="#000"/><circle cx="528.0" cy="300.0" fill="#00f" r="3.0" stroke="#000"/><polyline fill="none" points="217.0,300.0 226.0,270.0 240.0,242.0 252.0,213.0 268.0,187.0 289.0,163.0 309.0,139.0 324.0,112.0 330.0,82.0 350.0,58.0 372.0,36.0 381.0,66.0 398.0,92.0 419.0,115.0 440.0,138.0 449.0,168.0 460.0,197.0 481.0,221.0 502.0,243.0 514.0,272.0 528.0,300.0" stroke="#000" stroke-linejoin="round"/><circle cx="217.0" cy="300.0" fill="#f00" r="3.0" stroke="#000"/><circle cx="226.0" cy="270.0" fill="#ffa500" r="3.0" stroke="#000"/><circle cx="240.0" cy="242.0" fill="#ff0" r="3.0" stroke="#000"/><circle cx="252.0" cy="213.0" fill="#0f0" r="3.0" stroke="#000"/><circle cx="268.0" cy="187.0" fill="#00f" r="3.0" stroke="#000"/><circle cx="289.0" cy="163.0" fill="#a020f0" r="3.0" stroke="#000"/><circle cx="309.0" cy="139.0" fill="#a52a2a" r="3.0" stroke="#000"/><circle cx="324.0" cy="112.0" fill="#bebebe" r="3.0" stroke="#000"/><circle cx="330.0" cy="82.0" fill="#f00" r="3.0" stroke="#000"/><circle cx="350.0" cy="58.0" fill="#ffa500" r="3.0" stroke="#000"/><circle cx="372.0" cy="36.0" fill="#ff0" r="3.0" stroke="#000"/><circle cx="381.0" cy="66.0" fill="#0f0" r="3.0" stroke="#000"/><circle cx="398.0" cy="92.0" fill="#00f" r="3.0" stroke="#000"/><circle cx="419.0" cy="115.0" fill="#a020f0" r="3.0" stroke="#000"/><circle cx="440.0" cy="138.0" fill="#a52a2a" r="3.0" stroke="#000"/><circle cx="449.0" cy="168.0" fill="#bebebe" r="3.0" stroke="#000"/><circle cx="460.0" cy="197.0" fill="#f00" r="3.0" stroke="#000"/><circle cx="481.0" cy="221.0" fill="#ffa500" r="3.0" stroke="#000"/><circle cx="502.0" cy="243.0" fill="#ff0" r="3.0" stroke="#000"/><circle cx="514.0" cy="272.0" fill="#0f0" r="3.0" stroke="#000"/><circle cx="528.0" cy="300.0" fill="#00f" r="3.0" stroke="#000"/><polyline fill="none" points="217.0,300.0 233.0,273.0 253.0,249.0 268.0,222.0 283.0,194.0 295.0,166.0 316.0,143.0 335.0,118.0 345.0,89.0 358.0,60.0 376.0,35.0 386.0,65.0 407.0,88.0 414.0,118.0 435.0,141.0 453.0,167.0 474.0,189.0 481.0,220.0 500.0,245.0 511.0,274.0 528.0,300.0" stroke="#000" stroke-linejoin="round"/><circle cx="217.0" cy="300.0" fill="#f00" r="3.0" stroke="#000"/><circle cx="233.0" cy="273.0" fill="#ffa500" r="3.0" stroke="#000"/><circle cx="253.0" cy="249.0" fill="#ff0" r="3.0" stroke="#000"/><circle cx="268.0" cy="222.0" fill="#0f0" r="3.0" stroke="#000"/><circle cx="283.0" cy="194.0" fill="#00f" r="3.0" stroke="#000"/><circle cx="295.0" cy="166.0" fill="#a020f0" r="3.0" stroke="#000"/><circle cx="316.0" cy="143.0" fill="#a52a2a" r="3.0" stroke="#000"/><circle cx="335.0" cy="118.0" fill="#bebebe" r="3.0" stroke="#000"/><circle cx="345.0" cy="89.0" fill="#f00" r="3.0" stroke="#000"/><circle cx="358.0" cy="60.0" fill="#ffa500" r="3.0" stroke="#000"/><circle cx="376.0" cy="35.0" fill="#ff0" r="3.0" stroke="#000"/><circle cx="386.0" cy="65.0" fill="#0f0" r="3.0" stroke="#000"/><circle cx="407.0" cy="88.0" fill="#00f" r="3.0" stroke="#000"/><circle cx="414.0" cy="118.0" fill="#a020f0" r="3.0" stroke="#000"/><circle cx="435.0" cy="141.0" fill="#a52a2a" r="3.0" stroke="#000"/><circle cx="453.0" cy="167.0" fill="#bebebe" r="3.0" stroke="#000"/><circle cx="474.0" cy="189.0" fill="#f00" r="3.0" stroke="#000"/><circle cx="481.0" cy="220.0" fill="#ffa500" r="3.0" stroke="#000"/><circle cx="500.0" cy="245.0" fill="#ff0" r="3.0" stroke="#000"/><circle cx="511.0" cy="274.0" fill="#0f0" r="3.0" stroke="#000"/><circle cx="528.0" cy="300.0" fill="#00f" r="3.0" stroke="#000"/><polyline fill="none" points="217.0,300.0 230.0,271.0 248.0,245.0 258.0,216.0 275.0,190.0 301.0,172.0 306.0,142.0 322.0,115.0 345.0,94.0 353.0,64.0 370.0,38.0 392.0,61.0 398.0,91.0 418.0,115.0 440.0,138.0 451.0,167.0 460.0,197.0 480.0,220.0 496.0,247.0 509.0,275.0 528.0,300.0" stroke="#000" stroke-linejoin="round"/><circle cx="217.0" cy="300.0" fill="#f00" r="3.0" stroke="#000"/><circle cx="230.0" cy="271.0" fill="#ffa500" r="3.0" stroke="#000"/><circle cx="248.0" cy="245.0" fill="#ff0" r="3.0" stroke="#000"/><circle cx="258.0" cy="216.0" fill="#0f0" r="3.0" stroke="#000"/><circle cx="275.0" cy="190.0" fill="#00f" r="3.0" stroke="#000"/><circle cx="301.0" cy="172.0" fill="#a020f0" r="3.0" stroke="#000"/><circle cx="306.0" cy="142.0" fill="#a52a2a" r="3.0" stroke="#000"/><circle cx="322.0" cy="115.0" fill="#bebebe" r="3.0" stroke="#000"/><circle cx="345.0" cy="94.0" fill="#f00" r="3.0" stroke="#000"/><circle cx="353.0" cy="64.0" fill="#ffa500" r="3.0" stroke="#000"/><circle cx="370.0" cy="38.0" fill="#ff0" r="3.0" stroke="#000"/><circle cx="392.0" cy="61.0" fill="#0f0" r="3.0" stroke="#000"/><circle cx="398.0" cy="91.0" fill="#00f" r="3.0" stroke="#000"/><circle cx="418.0" cy="115.0" fill="#a020f0" r="3.0" stroke="#000"/><circle cx="440.0" cy="138.0" fill="#a52a2a" r="3.0" stroke="#000"/><circle cx="451.0" cy="167.0" fill="#bebebe" r="3.0" stroke="#000"/><circle cx="460.0" cy="197.0" fill="#f00" r="3.0" stroke="#000"/><circle cx="480.0" cy="220.0" fill="#ffa500" r="3.0" stroke="#000"/><circle cx="496.0" cy="247.0" fill="#ff0" r="3.0" stroke="#000"/><circle cx="509.0" cy="275.0" fill="#0f0" r="3.0" stroke="#000"/><circle cx="528.0" cy="300.0" fill="#00f" r="3.0" stroke="#000"/><polyline fill="none" points="217.0,300.0 224.0,269.0 244.0,246.0 257.0,217.0 276.0,193.0 294.0,167.0 307.0,139.0 329.0,117.0 334.0,86.0 342.0,56.0 371.0,44.0 383.0,73.0 412.0,85.0 418.0,115.0 432.0,143.0 442.0,172.0 456.0,200.0 477.0,223.0 490.0,251.0 505.0,279.0 528.0,300.0" stroke="#000" stroke-linejoin="round"/><circle cx="217.0" cy="300.0" fill="#f00" r="3.0" stroke="#000"/><circle cx="224.0" cy="269.0" fill="#ffa500" r="3.0" stroke="#000"/><circle cx="244.0" cy="246.0" fill="#ff0" r="3.0" stroke="#000"/><circle cx="257.0" cy="217.0" fill="#0f0" r="3.0" stroke="#000"/><circle cx="276.0" cy="193.0" fill="#00f" r="3.0" stroke="#000"/><circle cx="294.0" cy="167.0" fill="#a020f0" r="3.0" stroke="#000"/><circle cx="307.0" cy="139.0" fill="#a52a2a" r="3.0" stroke="#000"/><circle cx="329.0" cy="117.0" fill="#bebebe" r="3.0" stroke="#000"/><circle cx="334.0" cy="86.0" fill="#f00" r="3.0" stroke="#000"/><circle cx="342.0" cy="56.0" fill="#ffa500" r="3.0" stroke="#000"/><circle cx="371.0" cy="44.0" fill="#ff0" r="3.0" stroke="#000"/><circle cx="383.0" cy="73.0" fill="#0f0" r="3.0" stroke="#000"/><circle cx="412.0" cy="85.0" fill="#00f" r="3.0" stroke="#000"/><circle cx="418.0" cy="115.0" fill="#a020f0" r="3.0" stroke="#000"/><circle cx="432.0" cy="143.0" fill="#a52a2a" r="3.0" stroke="#000"/><circle cx="442.0" cy="172.0" fill="#bebebe" r="3.0" stroke="#000"/><circle cx="456.0" cy="200.0" fill="#f00" r="3.0" stroke="#000"/><circle cx="477.0" cy="223.0" fill="#ffa500" r="3.0" stroke="#000"/><circle cx="490.0" cy="251.0" fill="#ff0" r="3.0" stroke="#000"/><circle cx="505.0" cy="279.0" fill="#0f0" r="3.0" stroke="#000"/><circle cx="528.0" cy="300.0" fill="#00f" r="3.0" stroke="#000"/><polyline fill="none" points="217.0,300.0 235.0,274.0 257.0,252.0 266.0,222.0 276.0,193.0 293.0,167.0 308.0,139.0 328.0,116.0 334.0,85.0 352.0,60.0 373.0,37.0 393.0,61.0 408.0,88.0 420.0,116.0 436.0,143.0 444.0,173.0 458.0,201.0 480.0,223.0 500.0,247.0 522.0,269.0 528.0,300.0" stroke="#000" stroke-linejoin="round"/><circle cx="217.0" cy="300.0" fill="#f00" r="3.0" stroke="#000"/><circle cx="235.0" cy="274.0" fill="#ffa500" r="3.0" stroke="#000"/><circle cx="257.0" cy="252.0" fill="#ff0" r="3.0" stroke="#000"/><circle cx="266.0" cy="222.0" fill="#0f0" r="3.0" stroke="#000"/><circle cx="276.0" cy="193.0" fill="#00f" r="3.0" stroke="#000"/><circle cx="293.0" cy="167.0" fill="#a020f0" r="3.0" stroke="#000"/><circle cx="308.0" cy="139.0" fill="#a52a2a" r="3.0" stroke="#000"/><circle cx="328.0" cy="116.0" fill="#bebebe" r="3.0" stroke="#000"/><circle cx="334.0" cy="85.0" fill="#f00" r="3.0" stroke="#000"/><circle cx="352.0" cy="60.0" fill="#ffa500" r="3.0" stroke="#000"/><circle cx="373.0" cy="37.0" fill="#ff0" r="3.0" stroke="#000"/><circle cx="393.0" cy="61.0" fill="#0f0" r="3.0" stroke="#000"/><circle cx="408.0" cy="88.0" fill="#00f" r="3.0" stroke="#000"/><circle cx="420.0" cy="116.0" fill="#a020f0" r="3.0" stroke="#000"/><circle cx="436.0" cy="143.0" fill="#a52a2a" r="3.0" stroke="#000"/><circle cx="444.0" cy="173.0" fill="#bebebe" r="3.0" stroke="#000"/><circle cx="458.0" cy="201.0" fill="#f00" r="3.0" stroke="#000"/><circle cx="480.0" cy="223.0" fill="#ffa500" r="3.0" stroke="#000"/><circle cx="500.0" cy="247.0" fill="#ff0" r="3.0" stroke="#000"/><circle cx="522.0" cy="269.0" fill="#0f0" r="3.0" stroke="#000"/><circle cx="528.0" cy="300.0" fill="#00f" r="3.0" stroke="#000"/><polyline fill="none" points="217.0,300.0 232.0,272.0 253.0,249.0 266.0,221.0 285.0,196.0 302.0,170.0 305.0,139.0 321.0,112.0 346.0,95.0 359.0,66.0 373.0,39.0 389.0,65.0 415.0,83.0 425.0,112.0 435.0,142.0 455.0,165.0 465.0,194.0 482.0,221.0 504.0,242.0 515.0,271.0 528.0,300.0" stroke="#000" stroke-linejoin="round"/><circle cx="217.0" cy="300.0" fill="#f00" r="3.0" stroke="#000"/><circle cx="232.0" cy="272.0" fill="#ffa500" r="3.0" stroke="#000"/><circle cx="253.0" cy="249.0" fill="#ff0" r="3.0" stroke="#000"/><circle cx="266.0" cy="221.0" fill="#0f0" r="3.0" stroke="#000"/><circle cx="285.0" cy="196.0" fill="#00f" r="3.0" stroke="#000"/><circle cx="302.0" cy="170.0" fill="#a020f0" r="3.0" stroke="#000"/><circle cx="305.0" cy="139.0" fill="#a52a2a" r="3.0" stroke="#000"/><circle cx="321.0" cy="112.0" fill="#bebebe" r="3.0" stroke="#000"/><circle cx="346.0" cy="95.0" fill="#f00" r="3.0" stroke="#000"/><circle cx="359.0" cy="66.0" fill="#ffa500" r="3.0" stroke="#000"/><circle cx="373.0" cy="39.0" fill="#ff0" r="3.0" stroke="#000"/><circle cx="389.0" cy="65.0" fill="#0f0" r="3.0" stroke="#000"/><circle cx="415.0" cy="83.0" fill="#00f" r="3.0" stroke="#000"/><circle cx="425.0" cy="112.0" fill="#a020f0" r="3.0" stroke="#000"/><circle cx="435.0" cy="142.0" fill="#a52a2a" r="3.0" stroke="#000"/><circle cx="455.0" cy="165.0" fill="#bebebe" r="3.0" stroke="#000"/><circle cx="465.0" cy="194.0" fill="#f00" r="3.0" stroke="#000"/><circle cx="482.0" cy="221.0" fill="#ffa500" r="3.0" stroke="#000"/><circle cx="504.0" cy="242.0" fill="#ff0" r="3.0" stroke="#000"/><circle cx="515.0" cy="271.0" fill="#0f0" r="3.0" stroke="#000"/><circle cx="528.0" cy="300.0" fill="#00f" r="3.0" stroke="#000"/></svg>