<?xml version="1.0" ?><!DOCTYPE svg  PUBLIC '-//W3C//DTD SVG 1.1//EN'  'http://www.w3.org/Graphics/SVG/1.1/DTD/svg11.dtd'><svg height="620.000" viewBox="-9.000 -9.000 820.000 620.000" width="820.000" xmlns="http://www.w3.org/2000/svg"><rect fill="#fff" height="598.0" stroke="#000" width="798.0" x="2.0" y="2.0"/><circle cx="217.5" cy="299.5" fill="none" r="23.5" stroke="#000"/><ellipse cx="233.0" cy="272.5" fill="none" rx="23.0" ry="23.5" stroke="#000"/><circle cx="248.5" cy="245.5" fill="none" r="23.5" stroke="#000"/><ellipse cx="264.0" cy="218.5" fill="none" rx="23.0" ry="23.5" stroke="#000"/><circle cx="279.5" cy="191.5" fill="none" r="23.5" stroke="#000"/><ellipse cx="295.0" cy="164.5" fill="none" rx="23.0" ry="23.5" stroke="#000"/><ellipse cx="310.5" cy="138.0" fill="none" rx="23.5" ry="23.0" stroke="#000"/><ellipse cx="326.5" cy="111.0" fill="none" rx="23.5" ry="23.0" stroke="#000"/><ellipse cx="341.5" cy="84.0" fill="none" rx="23.5" ry="23.0" stroke="#000"/><ellipse cx="357.5" cy="57.0" fill="none" rx="23.5" ry="23.0" stroke="#000"/><circle cx="373.0" cy="30.0" fill="none" r="23.0" stroke="#000"/><ellipse cx="388.5" cy="57.0" fill="none" rx="23.5" ry="23.0" stroke="#000"/><circle cx="404.0" cy="84.0" fill="none" r="23.0" stroke="#000"/><ellipse cx="419.5" cy="111.0" fill="none" rx="23.5" ry="23.0" stroke="#000"/><circle cx="435.0" cy="138.0" fill="none" r="23.0" stroke="#000"/><circle cx="450.5" cy="164.5" fill="none" r="23.5" stroke="#000"/><circle cx="466.5" cy="191.5" fill="none" r="23.5" stroke="#000"/><circle cx="481.5" cy="218.5" fill="none" r="23.5" stroke="#000"/><circle cx="497.5" cy="245.5" fill="none" r="23.5" stroke="#000"/><ellipse cx="513.0" cy="272.5" fill="none" rx="23.0" ry="23.5" stroke="#000"/><circle cx="528.5" cy="299.5" fill="none" r="23.5" stroke="#000"/><polyline fill="none" points="217.0,300.0 233.0,273.0 248.0,246.0 264.0,219.0 280.0,192.0 295.0,165.0 311.0,138.0 326.0,111.0 342.0,84.0 357.0,57.0 373.0,30.0 388.0,57.0 404.0,84.0 420.0,111.0 435.0,138.0 451.0,165.0 466.0,192.0 482.0,219.0 497.0,246.0 513.0,273.0 528.0,300.0" stroke="#000" stroke-linejoin="round"/><circle cx="217.0" cy="300.0" fill="#f00" r="3.0" stroke="#000"/><circle cx="233.0" cy="273.0" fill="#ffa500" r="3.0" stroke="#000"/><circle cx="248.0" cy="246.0" fill="#ff0" r="3.0" stroke="#000"/><circle cx="264.0" cy="219.0" fill="#0f0" r="3.0" stroke="#000"/><circle cx="280.0" cy="192.0" fill="#00f" r="3.0" stroke="#000"/><circle cx="295.0" cy="165.0" fill="#a020f0" r="3.0" stroke="#000"/><circle cx="311.0" cy="138.0" fill="#a52a2a" r="3.0" stroke="#000"/><circle cx="326.0" cy="111.0" fill="#bebebe" r="3.0" stroke="#000"/><circle cx="342.0" cy="84.0" fill="#f00" r="3.0" stroke="#000"/><circle cx="357.0" cy="57.0" fill="#ffa500" r="3.0" stroke="#000"/><circle cx="373.0" cy="30.0" fill="#ff0" r="3.0" stroke="#000"/><circle cx="388.0" cy="57.0" fill="#0f0" r="3.0" stroke="#000"/><circle cx="404.0" cy="84.0" fill="#00f" r="3.0" stroke="#000"/><circle cx="420.0" cy="111.0" fill="#a020f0" r="3.0" stroke="#000"/><circle cx="435.0" cy="138.0" fill="#a52a2a" r="3.0" stroke="#000"/><circle cx="451.0" cy="165.0" fill="#bebebe" r="3.0" stroke="#000"/><circle cx="466.0" cy="192.0" fill="#f00" r="3.0" stroke="#000"/><circle cx="482.0" cy="219.0" fill="#ffa500" r="3.0" stroke="#000"/><circle cx="497.0" cy="246.0" fill="#ff0" r="3.0" stroke="#000"/><circle cx="513.0" cy="273.0" fill="#0f0" r="3.0" stroke="#000"/><circle cx="528.0" cy="300.0" fill="#00f" r="3.0" stroke="#000"/><polyline fill="none" points="217.0,300.0 223.0,269.0 234.0,298.0 254.0,274.0 266.0,246.0 276.0,216.0 292.0,189.0 323.0,190.0 309.0,218.0 311.0,187.0 342.0,193.0 368.0,176.0 399.0,182.0 411.0,153.0 442.0,155.0 464.0,178.0 486.0,199.0 499.0,228.0 502.0,259.0 531.0,269.0 528.0,299.0" stroke="#000" stroke-linejoin="round"/><circle cx="217.0" cy="300.0" fill="#f00" r="3.0" stroke="#000"/><circle cx="223.0" cy="269.0" fill="#ffa500" r="3.0" stroke="#000"/><circle cx="234.0" cy="298.0" fill="#ff0" r="3.0" stroke="#000"/><circle cx="254.0" cy="274.0" fill="#0f0" r="3.0" stroke="#000"/><circle cx="266.0" cy="246.0" fill="#00f" r="3.0" stroke="#000"/><circle cx="276.0" cy="216.0" fill="#a020f0" r="3.0" stroke="#000"/><circle cx="292.0" cy="189.0" fill="#a52a2a" r="3.0" stroke="#000"/><circle cx="323.0" cy="190.0" fill="#bebebe" r="3.0" stroke="#000"/><circle cx="309.0" cy="218.0" fill="#f00" r="3.0" stroke="#000"/><circle cx="311.0" cy="187.0" fill="#ffa500" r="3.0" stroke="#000"/><circle cx="342.0" cy="193.0" fill="#ff0" r="3.0" stroke="#000"/><circle cx="368.0" cy="176.0" fill="#0f0" r="3.0" stroke="#000"/><circle cx="399.0" cy="182.0" fill="#00f" r="3.0" stroke="#000"/><circle cx="411.0" cy="153.0" fill="#a020f0" r="3.0" stroke="#000"/><circle cx="442.0" cy="155.0" fill="#a52a2a" r="3.0" stroke="#000"/><circle cx="464.0" cy="178.0" fill="#bebebe" r="3.0" stroke="#000"/><circle cx="486.0" cy="199.0" fill="#f00" r="3.0" stroke="#000"/><circle cx="499.0" cy="228.0" fill="#ffa500" r="3.0" stroke="#000"/><circle cx="502.0" cy="259.0" fill="#ff0" r="3.0" stroke="#000"/><circle cx="531.0" cy="269.0" fill="#0f0" r="3.0" stroke="#000"/><circle cx="528.0" cy="299.0" fill="#00f" r="3.0" stroke="#000"/><polyline fill="none" points="217.0,300.0 234.0,273.0 258.0,253.0 257.0,222.0 265.0,192.0 296.0,186.0 320.0,166.0 344.0,186.0 329.0,213.0 359.0,204.0 331.0,218.0 327.0,187.0 353.0,171.0 384.0,177.0 394.0,206.0 423.0,194.0 447.0,213.0 476.0,224.0 492.0,250.0 506.0,278.0 528.0,300.0" stroke="#000" stroke-linejoin="round"/><circle cx="217.0" cy="300.0" fill="#f00" r="3.0" stroke="#000"/><circle cx="234.0" cy="273.0" fill="#ffa500" r="3.0" stroke="#000"/><circle cx="258.0" cy="253.0" fill="#ff0" r="3.0" stroke="#000"/><circle cx="257.0" cy="222.0" fill="#0f0" r="3.0" stroke="#000"/><circle cx="265.0" cy="192.0" fill="#00f" r="3.0" stroke="#000"/><circle cx="296.0" cy="186.0" fill="#a020f0" r="3.0" stroke="#000"/><circle cx="320.0" cy="166.0" fill="#a52a2a" r="3.0" stroke="#000"/><circle cx="344.0" cy="186.0" fill="#bebebe" r="3.0" stroke="#000"/><circle cx="329.0" cy="213.0" fill="#f00" r="3.0" stroke="#000"/><circle cx="359.0" cy="204.0" fill="#ffa500" r="3.0" stroke="#000"/><circle cx="331.0" cy="218.0" fill="#ff0" r="3.0" stroke="#000"/><circle cx="327.0" cy="187.0" fill="#0f0" r="3.0" stroke="#000"/><circle cx="353.0" cy="171.0" fill="#00f" r="3.0" stroke="#000"/><circle cx="384.0" cy="177.0" fill="#a020f0" r="3.0" stroke="#000"/><circle cx="394.0" cy="206.0" fill="#a52a2a" r="3.0" stroke="#000"/><circle cx="423.0" cy="194.0" fill="#bebebe" r="3.0" stroke="#000"/><circle cx="447.0" cy="213.0" fill="#f00" r="3.0" stroke="#000"/><circle cx="476.0" cy="224.0" fill="#ffa500" r="3.0" stroke="#000"/><circle cx="492.0" cy="250.0" fill="#ff0" r="3.0" stroke="#000"/><circle cx="506.0" cy="278.0" fill="#0f0" r="3.0" stroke="#000"/><circle cx="528.0" cy="300.0" fill="#00f" r="3.0" stroke="#000"/><polyline fill="none" points="217.0,300.0 247.0,307.0 271.0,286.0 299.0,274.0 301.0,243.0 297.0,212.0 320.0,192.0 339.0,166.0 352.0,194.0 375.0,173.0 401.0,192.0 408.0,161.0 434.0,179.0 444.0,208.0 424.0,232.0 441.0,259.0 469.0,273.0 496.0,259.0 527.0,251.0 508.0,276.0 528.0,300.0" stroke="#000" stroke-linejoin="round"/><circle cx="217.0" cy="300.0" fill="#f00" r="3.0" stroke="#000"/><circle cx="247.0" cy="307.0" fill="#ffa500" r="3.0" stroke="#000"/><circle cx="271.0" cy="286.0" fill="#ff0" r="3.0" stroke="#000"/><circle cx="299.0" cy="274.0" fill="#0f0" r="3.0" stroke="#000"/><circle cx="301.0" cy="243.0" fill="#00f" r="3.0" stroke="#000"/><circle cx="297.0" cy="212.0" fill="#a020f0" r="3.0" stroke="#000"/><circle cx="320.0" cy="192.0" fill="#a52a2a" r="3.0" stroke="#000"/><circle cx="339.0" cy="166.0" fill="#bebebe" r="3.0" stroke="#000"/><circle cx="352.0" cy="194.0" fill="#f00" r="3.0" stroke="#000"/><circle cx="375.0" cy="173.0" fill="#ffa500" r="3.0" stroke="#000"/><circle cx="401.0" cy="192.0" fill="#ff0" r="3.0" stroke="#000"/><circle cx="408.0" cy="161.0" fill="#0f0" r="3.0" stroke="#000"/><circle cx="434.0" cy="179.0" fill="#00f" r="3.0" stroke="#000"/><circle cx="444.0" cy="208.0" fill="#a020f0" r="3.0" stroke="#000"/><circle cx="424.0" cy="232.0" fill="#a52a2a" r="3.0" stroke="#000"/><circle cx="441.0" cy="259.0" fill="#bebebe" r="3.0" stroke="#000"/><circle cx="469.0" cy="273.0" fill="#f00" r="3.0" stroke="#000"/><circle cx="496.0" cy="259.0" fill="#ffa500" r="3.0" stroke="#000"/><circle cx="527.0" cy="251.0" fill="#ff0" r="3.0" stroke="#000"/><circle cx="508.0" cy="276.0" fill="#0f0" r="3.0" stroke="#000"/><circle cx="528.0" cy="300.0" fill="#00f" r="3.0" stroke="#000"/><polyline fill="none" points="217.0,300.0 236.0,275.0 266.0,267.0 282.0,241.0 308.0,224.0 333.0,205.0 348.0,178.0 331.0,204.0 312.0,179.0 320.0,209.0 307.0,181.0 337.0,190.0 361.0,171.0 382.0,194.0 369.0,222.0 396.0,237.0 411.0,264.0 440.0,275.0 471.0,277.0 498.0,293.0 528.0,300.0" stroke="#000" stroke-linejoin="round"/><circle cx="217.0" cy="300.0" fill="#f00" r="3.0" stroke="#000"/><circle cx="236.0" cy="275.0" fill="#ffa500" r="3.0" stroke="#000"/><circle cx="266.0" cy="267.0" fill="#ff0" r="3.0" stroke="#000"/><circle cx="282.0" cy="241.0" fill="#0f0" r="3.0" stroke="#000"/><circle cx="308.0" cy="224.0" fill="#00f" r="3.0" stroke="#000"/><circle cx="333.0" cy="205.0" fill="#a020f0" r="3.0" stroke="#000"/><circle cx="348.0" cy="178.0" fill="#a52a2a" r="3.0" stroke="#000"/><circle cx="331.0" cy="204.0" fill="#bebebe" r="3.0" stroke="#000"/><circle cx="312.0" cy="179.0" fill="#f00" r="3.0" stroke="#000"/><circle cx="320.0" cy="209.0" fill="#ffa500" r="3.0" stroke="#000"/><circle cx="307.0" cy="181.0" fill="#ff0" r="3.0" stroke="#000"/><circle cx="337.0" cy="190.0" fill="#0f0" r="3.0" stroke="#000"/><circle cx="361.0" cy="171.0" fill="#00f" r="3.0" stroke="#000"/><circle cx="382.0" cy="194.0" fill="#a020f0" r="3.0" stroke="#000"/><circle cx="369.0" cy="222.0" fill="#a52a2a" r="3.0" stroke="#000"/><circle cx="396.0" cy="237.0" fill="#bebebe" r="3.0" stroke="#000"/><circle cx="411.0" cy="264.0" fill="#f00" r="3.0" stroke="#000"/><circle cx="440.0" cy="275.0" fill="#ffa500" r="3.0" stroke="#000"/><circle cx="471.0" cy="277.0" fill="#ff0" r="3.0" stroke="#000"/><circle cx="498.0" cy="293.0" fill="#0f0" r="3.0" stroke="#000"/><circle cx="528.0" cy="300.0" fill="#00f" r="3.0" stroke="#000"/><polyline fill="none" points="217.0,300.0 235.0,274.0 260.0,256.0 284.0,236.0 309.0,218.0 296.0,190.0 319.0,212.0 348.0,201.0 373.0,220.0 395.0,242.0 404.0,212.0 403.0,181.0 434.0,179.0 455.0,202.0 485.0,209.0 484.0,240.0 514.0,233.0 487.0,248.0 511.0,268.0 498.0,296.0 528.0,300.0" stroke="#000" stroke-linejoin="round"/><circle cx="217.0" cy="300.0" fill="#f00" r="3.0" stroke="#000"/><circle cx="235.0" cy="274.0" fill="#ffa500" r="3.0" stroke="#000"/><circle cx="260.0" cy="256.0" fill="#ff0" r="3.0" stroke="#000"/><circle cx="284.0" cy="236.0" fill="#0f0" r="3.0" stroke="#000"/><circle cx="309.0" cy="218.0" fill="#00f" r="3.0" stroke="#000"/><circle cx="296.0" cy="190.0" fill="#a020f0" r="3.0" stroke="#000"/><circle cx="319.0" cy="212.0" fill="#a52a2a" r="3.0" stroke="#000"/><circle cx="348.0" cy="201.0" fill="#bebebe" r="3.0" stroke="#000"/><circle cx="373.0" cy="220.0" fill="#f00" r="3.0" stroke="#000"/><circle cx="395.0" cy="242.0" fill="#ffa500" r="3.0" stroke="#000"/><circle cx="404.0" cy="212.0" fill="#ff0" r="3.0" stroke="#000"/><circle cx="403.0" cy="181.0" fill="#0f0" r="3.0" stroke="#000"/><circle cx="434.0" cy="179.0" fill="#00f" r="3.0" stroke="#000"/><circle cx="455.0" cy="202.0" fill="#a020f0" r="3.0" stroke="#000"/><circle cx="485.0" cy="209.0" fill="#a52a2a" r="3.0" stroke="#000"/><circle cx="484.0" cy="240.0" fill="#bebebe" r="3.0" stroke="#000"/><circle cx="514.0" cy="233.0" fill="#f00" r="3.0" stroke="#000"/><circle cx="487.0" cy="248.0" fill="#ffa500" r="3.0" stroke="#000"/><circle cx="511.0" cy="268.0" fill="#ff0" r="3.0" stroke="#000"/><circle cx="498.0" cy="296.0" fill="#0f0" r="3.0" stroke="#000"/><circle cx="528.0" cy="300.0" fill="#00f" r="3.0" stroke="#000"/><polyline fill="none" points="217.0,300.0 216.0,268.0 238.0,247.0 259.0,224.0 278.0,249.0 308.0,242.0 339.0,243.0 370.0,242.0 388.0,217.0 369.0,192.0 362.0,223.0 393.0,224.0 398.0,193.0 429.0,187.0 456.0,202.0 425.0,205.0 453.0,218.0 452.0,249.0 475.0,270.0 499.0,289.0 528.0,299.0" stroke="#000" stroke-linejoin="round"/><circle cx="217.0" cy="300.0" fill="#f00" r="3.0" stroke="#000"/><circle cx="216.0" cy="268.0" fill="#ffa500" r="3.0" stroke="#000"/><circle cx="238.0" cy="247.0" fill="#ff0" r="3.0" stroke="#000"/><circle cx="259.0" cy="224.0" fill="#0f0" r="3.0" stroke="#000"/><circle cx="278.0" cy="249.0" fill="#00f" r="3.0" stroke="#000"/><circle cx="308.0" cy="242.0" fill="#a020f0" r="3.0" stroke="#000"/><circle cx="339.0" cy="243.0" fill="#a52a2a" r="3.0" stroke="#000"/><circle cx="370.0" cy="242.0" fill="#bebebe" r="3.0" stroke="#000"/><circle cx="388.0" cy="217.0" fill="#f00" r="3.0" stroke="#000"/><circle cx="369.0" cy="192.0" fill="#ffa500" r="3.0" stroke="#000"/><circle cx="362.0" cy="223.0" fill="#ff0" r="3.0" stroke="#000"/><circle cx="393.0" cy="224.0" fill="#0f0" r="3.0" stroke="#000"/><circle cx="398.0" cy="193.0" fill="#00f" r="3.0" stroke="#000"/><circle cx="429.0" cy="187.0" fill="#a020f0" r="3.0" stroke="#000"/><circle cx="456.0" cy="202.0" fill="#a52a2a" r="3.0" stroke="#000"/><circle cx="425.0" cy="205.0" fill="#bebebe" r="3.0" stroke="#000"/><circle cx="453.0" cy="218.0" fill="#f00" r="3.0" stroke="#000"/><circle cx="452.0" cy="249.0" fill="#ffa500" r="3.0" stroke="#000"/><circle cx="475.0" cy="270.0" fill="#ff0" r="3.0" stroke="#000"/><circle cx="499.0" cy="289.0" fill="#0f0" r="3.0" stroke="#000"/><circle cx="528.0" cy="299.0" fill="#00f" r="3.0" stroke="#000"/><polyline fill="none" points="217.0,300.0 248.0,306.0 270.0,285.0 293.0,263.0 306.0,235.0 335.0,224.0 366.0,227.0 381.0,199.0 387.0,230.0 396.0,200.0 427.0,200.0 446.0,175.0 464.0,200.0 488.0,180.0 493.0,211.0 463.0,220.0 491.0,235.0 520.0,246.0 490.0,256.0 501.0,286.0 528.0,300.0" stroke="#000" stroke-linejoin="round"/><circle cx="217.0" cy="300.0" fill="#f00" r="3.0" stroke="#000"/><circle cx="248.0" cy="306.0" fill="#ffa500" r="3.0" stroke="#000"/><circle cx="270.0" cy="285.0" fill="#ff0" r="3.0" stroke="#000"/><circle cx="293.0" cy="263.0" fill="#0f0" r="3.0" stroke="#000"/><circle cx="306.0" cy="235.0" fill="#00f" r="3.0" stroke="#000"/><circle cx="335.0" cy="224.0" fill="#a020f0" r="3.0" stroke="#000"/><circle cx="366.0" cy="227.0" fill="#a52a2a" r="3.0" stroke="#000"/><circle cx="381.0" cy="199.0" fill="#bebebe" r="3.0" stroke="#000"/><circle cx="387.0" cy="230.0" fill="#f00" r="3.0" stroke="#000"/><circle cx="396.0" cy="200.0" fill="#ffa500" r="3.0" stroke="#000"/><circle cx="427.0" cy="200.0" fill="#ff0" r="3.0" stroke="#000"/><circle cx="446.0" cy="175.0" fill="#0f0" r="3.0" stroke="#000"/><circle cx="464.0" cy="200.0" fill="#00f" r="3.0" stroke="#000"/><circle cx="488.0" cy="180.0" fill="#a020f0" r="3.0" stroke="#000"/><circle cx="493.0" cy="211.0" fill="#a52a2a" r="3.0" stroke="#000"/><circle cx="463.0" cy="220.0" fill="#bebebe" r="3.0" stroke="#000"/><circle cx="491.0" cy="235.0" fill="#f00" r="3.0" stroke="#000"/><circle cx="520.0" cy="246.0" fill="#ffa500" r="3.0" stroke="#000"/><circle cx="490.0" cy="256.0" fill="#ff0" r="3.0" stroke="#000"/><circle cx="501.0" cy="286.0" fill="#0f0" r="3.0" stroke="#000"/><circle cx="528.0" cy="300.0" fill="#00f" r="3.0" stroke="#000"/><polyline fill="none" points="217.0,300.0 227.0,270.0 231.0,239.0 261.0,231.0 290.0,220.0 321.0,221.0 345.0,202.0 315.0,209.0 345.0,217.0 373.0,230.0 395.0,207.0 426.0,206.0 427.0,237.0 458.0,231.0 427.0,228.0 456.0,237.0 482.0,219.0 513.0,216.0 500.0,244.0 514.0,272.0 528.0,299.0" stroke="#000" stroke-linejoin="round"/><circle cx="217.0" cy="300.0" fill="#f00" r="3.0" stroke="#000"/><circle cx="227.0" cy="270.0" fill="#ffa500" r="3.0" stroke="#000"/><circle cx="231.0" cy="239.0" fill="#ff0" r="3.0" stroke="#000"/><circle cx="261.0" cy="231.0" fill="#0f0" r="3.0" stroke="#000"/><circle cx="290.0" cy="220.0" fill="#00f" r="3.0" stroke="#000"/><circle cx="321.0" cy="221.0" fill="#a020f0" r="3.0" stroke="#000"/><circle cx="345.0" cy="202.0" fill="#a52a2a" r="3.0" stroke="#000"/><circle cx="315.0" cy="209.0" fill="#bebebe" r="3.0" stroke="#000"/><circle cx="345.0" cy="217.0" fill="#f00" r="3.0" stroke="#000"/><circle cx="373.0" cy="230.0" fill="#ffa500" r="3.0" stroke="#000"/><circle cx="395.0" cy="207.0" fill="#ff0" r="3.0" stroke="#000"/><circle cx="426.0" cy="206.0" fill="#0f0" r="3.0" stroke="#000"/><circle cx="427.0" cy="237.0" fill="#00f" r="3.0" stroke="#000"/><circle cx="458.0" cy="231.0" fill="#a020f0" r="3.0" stroke="#000"/><circle cx="427.0" cy="228.0" fill="#a52a2a" r="3.0" stroke="#000"/><circle cx="456.0" cy="237.0" fill="#bebebe" r="3.0" stroke="#000"/><circle cx="482.0" cy="219.0" fill="#f00" r="3.0" stroke="#000"/><circle cx="513.0" cy="216.0" fill="#ffa500" r="3.0" stroke="#000"/><circle cx="500.0" cy="244.0" fill="#ff0" r="3.0" stroke="#000"/><circle cx="514.0" cy="272.0" fill="#0f0" r="3.0" stroke="#000"/><circle cx="528.0" cy="299.0" fill="#00f" r="3.0" stroke="#000"/><polyline fill="none" points="217.0,300.0 188.0,290.0 216.0,278.0 217.0,247.0 233.0,220.0 263.0,212.0 252.0,183.0 281.0,191.0 272.0,221.0 302.0,211.0 327.0,228.0 358.0,223.0 386.0,210.0 413.0,226.0 433.0,201.0 457.0,221.0 443.0,248.0 474.0,249.0 503.0,261.0 533.0,269.0 528.0,300.0" stroke="#000" stroke-linejoin="round"/><circle cx="217.0" cy="300.0" fill="#f00" r="3.0" stroke="#000"/><circle cx="188.0" cy="290.0" fill="#ffa500" r="3.0" stroke="#000"/><circle cx="216.0" cy="278.0" fill="#ff0" r="3.0" stroke="#000"/><circle cx="217.0" cy="247.0" fill="#0f0" r="3.0" stroke="#000"/><circle cx="233.0" cy="220.0" fill="#00f" r="3.0" stroke="#000"/><circle cx="263.0" cy="212.0" fill="#a020f0" r="3.0" stroke="#000"/><circle cx="252.0" cy="183.0" fill="#a52a2a" r="3.0" stroke="#000"/><circle cx="281.0" cy="191.0" fill="#bebebe" r="3.0" stroke="#000"/><circle cx="272.0" cy="221.0" fill="#f00" r="3.0" stroke="#000"/><circle cx="302.0" cy="211.0" fill="#ffa500" r="3.0" stroke="#000"/><circle cx="327.0" cy="228.0" fill="#ff0" r="3.0" stroke="#000"/><circle cx="358.0" cy="223.0" fill="#0f0" r="3.0" stroke="#000"/><circle cx="386.0" cy="210.0" fill="#00f" r="3.0" stroke="#000"/><circle cx="413.0" cy="226.0" fill="#a020f0" r="3.0" stroke="#000"/><circle cx="433.0" cy="201.0" fill="#a52a2a" r="3.0" stroke="#000"/><circle cx="457.0" cy="221.0" fill="#bebebe" r="3.0" stroke="#000"/><circle cx="443.0" cy="248.0" fill="#f00" r="3.0" stroke="#000"/><circle cx="474.0" cy="249.0" fill="#ffa500" r="3.0" stroke="#000"/><circle cx="503.0" cy="261.0" fill="#ff0" r="3.0" stroke="#000"/><circle cx="533.0" cy="269.0" fill="#0f0" r="3.0" stroke="#000"/><circle cx="528.0" cy="300.0" fill="#00f" r="3.0" stroke="#000"/><polyline fill="none" points="217.0,300.0 243.0,282.0 246.0,251.0 218.0,236.0 245.0,220.0 269.0,201.0 286.0,227.0 301.0,255.0 331.0,245.0 332.0,214.0 357.0,196.0 348.0,226.0 379.0,219.0 408.0,210.0 435.0,227.0 415.0,250.0 441.0,233.0 471.0,226.0 489.0,251.0 508.0,276.0 528.0,299.0" stroke="#000" stroke-linejoin="round"/><circle cx="217.0" cy="300.0" fill="#f00" r="3.0" stroke="#000"/><circle cx="243.0" cy="282.0" fill="#ffa500" r="3.0" stroke="#000"/><circle cx="246.0" cy="251.0" fill="#ff0" r="3.0" stroke="#000"/><circle cx="218.0" cy="236.0" fill="#0f0" r="3.0" stroke="#000"/><circle cx="245.0" cy="220.0" fill="#00f" r="3.0" stroke="#000"/><circle cx="269.0" cy="201.0" fill="#a020f0" r="3.0" stroke="#000"/><circle cx="286.0" cy="227.0" fill="#a52a2a" r="3.0" stroke="#000"/><circle cx="301.0" cy="255.0" fill="#bebebe" r="3.0" stroke="#000"/><circle cx="331.0" cy="245.0" fill="#f00" r="3.0" stroke="#000"/><circle cx="332.0" cy="214.0" fill="#ffa500" r="3.0" stroke="#000"/><circle cx="357.0" cy="196.0" fill="#ff0" r="3.0" stroke="#000"/><circle cx="348.0" cy="226.0" fill="#0f0" r="3.0" stroke="#000"/><circle cx="379.0" cy="219.0" fill="#00f" r="3.0" stroke="#000"/><circle cx="408.0" cy="210.0" fill="#a020f0" r="3.0" stroke="#000"/><circle cx="435.0" cy="227.0" fill="#a52a2a" r="3.0" stroke="#000"/><circle cx="415.0" cy="250.0" fill="#bebebe" r="3.0" stroke="#000"/><circle cx="441.0" cy="233.0" fill="#f00" r="3.0" stroke="#000"/><circle cx="471.0" cy="226.0" fill="#ffa500" r="3.0" stroke="#000"/><circle cx="489.0" cy="251.0" fill="#ff0" r="3.0" stroke="#000"/><circle cx="508.0" cy="276.0" fill="#0f0" r="3.0" stroke="#000"/><circle cx="528.0" cy="299.0" fill="#00f" r="3.0" stroke="#000"/><polyline fill="none" points="217.0,300.0 240.0,279.0 232.0,249.0 240.0,219.0 263.0,197.0 288.0,179.0 318.0,171.0 292.0,153.0 305.0,182.0 334.0,192.0 321.0,220.0 338.0,246.0 369.0,245.0 396.0,230.0 407.0,259.0 438.0,257.0 461.0,278.0 492.0,282.0 523.0,287.0 553.0,281.0 528.0,299.0" stroke="#000" stroke-linejoin="round"/><circle cx="217.0" cy="300.0" fill="#f00" r="3.0" stroke="#000"/><circle cx="240.0" cy="279.0" fill="#ffa500" r="3.0" stroke="#000"/><circle cx="232.0" cy="249.0" fill="#ff0" r="3.0" stroke="#000"/><circle cx="240.0" cy="219.0" fill="#0f0" r="3.0" stroke="#000"/><circle cx="263.0" cy="197.0" fill="#00f" r="3.0" stroke="#000"/><circle cx="288.0" cy="179.0" fill="#a020f0" r="3.0" stroke="#000"/><circle cx="318.0" cy="171.0" fill="#a52a2a" r="3.0" stroke="#000"/><circle cx="292.0" cy="153.0" fill="#bebebe" r="3.0" stroke="#000"/><circle cx="305.0" cy="182.0" fill="#f00" r="3.0" stroke="#000"/><circle cx="334.0" cy="192.0" fill="#ffa500" r="3.0" stroke="#000"/><circle cx="321.0" cy="220.0" fill="#ff0" r="3.0" stroke="#000"/><circle cx="338.0" cy="246.0" fill="#0f0" r="3.0" stroke="#000"/><circle cx="369.0" cy="245.0" fill="#00f" r="3.0" stroke="#000"/><circle cx="396.0" cy="230.0" fill="#a020f0" r="3.0" stroke="#000"/><circle cx="407.0" cy="259.0" fill="#a52a2a" r="3.0" stroke="#000"/><circle cx="438.0" cy="257.0" fill="#bebebe" r="3.0" stroke="#000"/><circle cx="461.0" cy="278.0" fill="#f00" r="3.0" stroke="#000"/><circle cx="492.0" cy="282.0" fill="#ffa500" r="3.0" stroke="#000"/><circle cx="523.0" cy="287.0" fill="#ff0" r="3.0" stroke="#000"/><circle cx="553.0" cy="281.0" fill="#0f0" r="3.0" stroke="#000"/><circle cx="528.0" cy="299.0" fill="#00f" r="3.0" stroke="#000"/><polyline fill="none" points="217.0,300.0 245.0,313.0 241.0,282.0 264.0,261.0 294.0,256.0 304.0,227.0 333.0,216.0 364.0,211.0 384.0,187.0 358.0,171.0 370.0,199.0 356.0,227.0 376.0,251.0 395.0,227.0 425.0,233.0 426.0,264.0 450.0,284.0 445.0,315.0 476.0,311.0 499.0,290.0 528.0,299.0" stroke="#000" stroke-linejoin="round"/><circle cx="217.0" cy="300.0" fill="#f00" r="3.0" stroke="#000"/><circle cx="245.0" cy="313.0" fill="#ffa500" r="3.0" stroke="#000"/><circle cx="241.0" cy="282.0" fill="#ff0" r="3.0" stroke="#000"/><circle cx="264.0" cy="261.0" fill="#0f0" r="3.0" stroke="#000"/><circle cx="294.0" cy="256.0" fill="#00f" r="3.0" stroke="#000"/><circle cx="304.0" cy="227.0" fill="#a020f0" r="3.0" stroke="#000"/><circle cx="333.0" cy="216.0" fill="#a52a2a" r="3.0" stroke="#000"/><circle cx="364.0" cy="211.0" fill="#bebebe" r="3.0" stroke="#000"/><circle cx="384.0" cy="187.0" fill="#f00" r="3.0" stroke="#000"/><circle cx="358.0" cy="171.0" fill="#ffa500" r="3.0" stroke="#000"/><circle cx="370.0" cy="199.0" fill="#ff0" r="3.0" stroke="#000"/><circle cx="356.0" cy="227.0" fill="#0f0" r="3.0" stroke="#000"/><circle cx="376.0" cy="251.0" fill="#00f" r="3.0" stroke="#000"/><circle cx="395.0" cy="227.0" fill="#a020f0" r="3.0" stroke="#000"/><circle cx="425.0" cy="233.0" fill="#a52a2a" r="3.0" stroke="#000"/><circle cx="426.0" cy="264.0" fill="#bebebe" r="3.0" stroke="#000"/><circle cx="450.0" cy="284.0" fill="#f00" r="3.0" stroke="#000"/><circle cx="445.0" cy="315.0" fill="#ffa500" r="3.0" stroke="#000"/><circle cx="476.0" cy="311.0" fill="#ff0" r="3.0" stroke="#000"/><circle cx="499.0" cy="290.0" fill="#0f0" r="3.0" stroke="#000"/><circle cx="528.0" cy="299.0" fill="#00f" r="3.0" stroke="#000"/><polyline fill="none" points="217.0,300.0 243.0,282.0 253.0,252.0 275.0,230.0 279.0,200.0 280.0,231.0 310.0,234.0 338.0,220.0 354.0,247.0 384.0,238.0 398.0,211.0 413.0,183.0 407.0,214.0 428.0,237.0 397.0,238.0 406.0,268.0 437.0,266.0 457.0,290.0 477.0,265.0 503.0,281.0 528.0,299.0" stroke="#000" stroke-linejoin="round"/><circle cx="217.0" cy="300.0" fill="#f00" r="3.0" stroke="#000"/><circle cx="243.0" cy="282.0" fill="#ffa500" r="3.0" stroke="#000"/><circle cx="253.0" cy="252.0" fill="#ff0" r="3.0" stroke="#000"/><circle cx="275.0" cy="230.0" fill="#0f0" r="3.0" stroke="#000"/><circle cx="279.0" cy="200.0" fill="#00f" r="3.0" stroke="#000"/><circle cx="280.0" cy="231.0" fill="#a020f0" r="3.0" stroke="#000"/><circle cx="310.0" cy="234.0" fill="#a52a2a" r="3.0" stroke="#000"/><circle cx="338.0" cy="220.0" fill="#bebebe" r="3.0" stroke="#000"/><circle cx="354.0" cy="247.0" fill="#f00" r="3.0" stroke="#000"/><circle cx="384.0" cy="238.0" fill="#ffa500" r="3.0" stroke="#000"/><circle cx="398.0" cy="211.0" fill="#ff0" r="3.0" stroke="#000"/><circle cx="413.0" cy="183.0" fill="#0f0" r="3.0" stroke="#000"/><circle cx="407.0" cy="214.0" fill="#00f" r="3.0" stroke="#000"/><circle cx="428.0" cy="237.0" fill="#a020f0" r="3.0" stroke="#000"/><circle cx="397.0" cy="238.0" fill="#a52a2a" r="3.0" stroke="#000"/><circle cx="406.0" cy="268.0" fill="#bebebe" r="3.0" stroke="#000"/><circle cx="437.0" cy="266.0" fill="#f00" r="3.0" stroke="#000"/><circle cx="457.0" cy="290.0" fill="#ffa500" r="3.0" stroke="#000"/><circle cx="477.0" cy="265.0" fill="#ff0" r="3.0" stroke="#000"/><circle cx="503.0" cy="281.0" fill="#0f0" r="3.0" stroke="#000"/><circle cx="528.0" cy="299.0" fill="#00f" r="3.0" stroke="#000"/><polyline fill="none" points="217.0,300.0 237.0,275.0 265.0,288.0 252.0,259.0 243.0,230.0 271.0,216.0 292.0,193.0 280.0,222.0 309.0,234.0 315.0,203.0 343.0,189.0 374.0,192.0 390.0,219.0 411.0,242.0 438.0,257.0 469.0,256.0 464.0,287.0 474.0,316.0 489.0,344.0 501.0,315.0 528.0,299.0" stroke="#000" stroke-linejoin="round"/><circle cx="217.0" cy="300.0" fill="#f00" r="3.0" stroke="#000"/><circle cx="237.0" cy="275.0" fill="#ffa500" r="3.0" stroke="#000"/><circle cx="265.0" cy="288.0" fill="#ff0" r="3.0" stroke="#000"/><circle cx="252.0" cy="259.0" fill="#0f0" r="3.0" stroke="#000"/><circle cx="243.0" cy="230.0" fill="#00f" r="3.0" stroke="#000"/><circle cx="271.0" cy="216.0" fill="#a020f0" r="3.0" stroke="#000"/><circle cx="292.0" cy="193.0" fill="#a52a2a" r="3.0" stroke="#000"/><circle cx="280.0" cy="222.0" fill="#bebebe" r="3.0" stroke="#000"/><circle cx="309.0" cy="234.0" fill="#f00" r="3.0" stroke="#000"/><circle cx="315.0" cy="203.0" fill="#ffa500" r="3.0" stroke="#000"/><circle cx="343.0" cy="189.0" fill="#ff0" r="3.0" stroke="#000"/><circle cx="374.0" cy="192.0" fill="#0f0" r="3.0" stroke="#000"/><circle cx="390.0" cy="219.0" fill="#00f" r="3.0" stroke="#000"/><circle cx="411.0" cy="242.0" fill="#a020f0" r="3.0" stroke="#000"/><circle cx="438.0" cy="257.0" fill="#a52a2a" r="3.0" stroke="#000"/><circle cx="469.0" cy="256.0" fill="#bebebe" r="3.0" stroke="#000"/><circle cx="464.0" cy="287.0" fill="#f00" r="3.0" stroke="#000"/><circle cx="474.0" cy="316.0" fill="#ffa500" r="3.0" stroke="#000"/><circle cx="489.0" cy="344.0" fill="#ff0" r="3.0" stroke="#000"/><circle cx="501.0" cy="315.0" fill="#0f0" r="3.0" stroke="#000"/><circle cx="528.0" cy="299.0" fill="#00f" r="3.0" stroke="#000"/><polyline fill="none" points="217.0,300.0 232.0,272.0 241.0,242.0 231.0,213.0 204.0,197.0 224.0,174.0 251.0,189.0 282.0,188.0 313.0,184.0 313.0,216.0 338.0,235.0 324.0,207.0 349.0,226.0 375.0,242.0 406.0,247.0 434.0,233.0 423.0,262.0 449.0,278.0 469.0,302.0 499.0,291.0 528.0,299.0" stroke="#000" stroke-linejoin="round"/><circle cx="217.0" cy="300.0" fill="#f00" r="3.0" stroke="#000"/><circle cx="232.0" cy="272.0" fill="#ffa500" r="3.0" stroke="#000"/><circle cx="241.0" cy="242.0" fill="#ff0" r="3.0" stroke="#000"/><circle cx="231.0" cy="213.0" fill="#0f0" r="3.0" stroke="#000"/><circle cx="204.0" cy="197.0" fill="#00f" r="3.0" stroke="#000"/><circle cx="224.0" cy="174.0" fill="#a020f0" r="3.0" stroke="#000"/><circle cx="251.0" cy="189.0" fill="#a52a2a" r="3.0" stroke="#000"/><circle cx="282.0" cy="188.0" fill="#bebebe" r="3.0" stroke="#000"/><circle cx="313.0" cy="184.0" fill="#f00" r="3.0" stroke="#000"/><circle cx="313.0" cy="216.0" fill="#ffa500" r="3.0" stroke="#000"/><circle cx="338.0" cy="235.0" fill="#ff0" r="3.0" stroke="#000"/><circle cx="324.0" cy="207.0" fill="#0f0" r="3.0" stroke="#000"/><circle cx="349.0" cy="226.0" fill="#00f" r="3.0" stroke="#000"/><circle cx="375.0" cy="242.0" fill="#a020f0" r="3.0" stroke="#000"/><circle cx="406.0" cy="247.0" fill="#a52a2a" r="3.0" stroke="#000"/><circle cx="434.0" cy="233.0" fill="#bebebe" r="3.0" stroke="#000"/><circle cx="423.0" cy="262.0" fill="#f00" r="3.0" stroke="#000"/><circle cx="449.0" cy="278.0" fill="#ffa500" r="3.0" stroke="#000"/><circle cx="469.0" cy="302.0" fill="#ff0" r="3.0" stroke="#000"/><circle cx="499.0" cy="291.0" fill="#0f0" r="3.0" stroke="#000"/><circle cx="528.0" cy="299.0" fill="#00f" r="3.0" stroke="#000"/><polyline fill="none" points="217.0,300.0 248.0,293.0 241.0,263.0 272.0,266.0 283.0,237.0 314.0,243.0 330.0,217.0 357.0,202.0 381.0,222.0 409.0,235.0 418.0,205.0 447.0,216.0 474.0,231.0 487.0,203.0 508.0,180.0 519.0,209.0 520.0,240.0 548.0,253.0 527.0,277.0 499.0,290.0 528.0,300.0" stroke="#000" stroke-linejoin="round"/><circle cx="217.0" cy="300.0" fill="#f00" r="3.0" stroke="#000"/><circle cx="248.0" cy="293.0" fill="#ffa500" r="3.0" stroke="#000"/><circle cx="241.0" cy="263.0" fill="#ff0" r="3.0" stroke="#000"/><circle cx="272.0" cy="266.0" fill="#0f0" r="3.0" stroke="#000"/><circle cx="283.0" cy="237.0" fill="#00f" r="3.0" stroke="#000"/><circle cx="314.0" cy="243.0" fill="#a020f0" r="3.0" stroke="#000"/><circle cx="330.0" cy="217.0" fill="#a52a2a" r="3.0" stroke="#000"/><circle cx="357.0" cy="202.0" fill="#bebebe" r="3.0" stroke="#000"/><circle cx="381.0" cy="222.0" fill="#f00" r="3.0" stroke="#000"/><circle cx="409.0" cy="235.0" fill="#ffa500" r="3.0" stroke="#000"/><circle cx="418.0" cy="205.0" fill="#ff0" r="3.0" stroke="#000"/><circle cx="447.0" cy="216.0" fill="#0f0" r="3.0" stroke="#000"/><circle cx="474.0" cy="231.0" fill="#00f" r="3.0" stroke="#000"/><circle cx="487.0" cy="203.0" fill="#a020f0" r="3.0" stroke="#000"/><circle cx="508.0" cy="180.0" fill="#a52a2a" r="3.0" stroke="#000"/><circle cx="519.0" cy="209.0" fill="#bebebe" r="3.0" stroke="#000"/><circle cx="520.0" cy="240.0" fill="#f00" r="3.0" stroke="#000"/><circle cx="548.0" cy="253.0" fill="#ffa500" r="3.0" stroke="#000"/><circle cx="527.0" cy="277.0" fill="#ff0" r="3.0" stroke="#000"/><circle cx="499.0" cy="290.0" fill="#0f0" r="3.0" stroke="#000"/><circle cx="528.0" cy="300.0" fill="#00f" r="3.0" stroke="#000"/><polyline fill="none" points="217.0,300.0 239.0,278.0 234.0,247.0 264.0,236.0 253.0,265.0 269.0,239.0 294.0,257.0 265.0,247.0 284.0,222.0 312.0,210.0 340.0,225.0 363.0,205.0 393.0,196.0 418.0,215.0 447.0,226.0 464.0,252.0 484.0,276.0 514.0,284.0 544.0,293.0 525.0,269.0 528.0,299.0" stroke="#000" stroke-linejoin="round"/><circle cx="217.0" cy="300.0" fill="#f00" r="3.0" stroke="#000"/><circle cx="239.0" cy="278.0" fill="#ffa500" r="3.0" stroke="#000"/><circle cx="234.0" cy="247.0" fill="#ff0" r="3.0" stroke="#000"/><circle cx="264.0" cy="236.0" fill="#0f0" r="3.0" stroke="#000"/><circle cx="253.0" cy="265.0" fill="#00f" r="3.0" stroke="#000"/><circle cx="269.0" cy="239.0" fill="#a020f0" r="3.0" stroke="#000"/><circle cx="294.0" cy="257.0" fill="#a52a2a" r="3.0" stroke="#000"/><circle cx="265.0" cy="247.0" fill="#bebebe" r="3.0" stroke="#000"/><circle cx="284.0" cy="222.0" fill="#f00" r="3.0" stroke="#000"/><circle cx="312.0" cy="210.0" fill="#ffa500" r="3.0" stroke="#000"/><circle cx="340.0" cy="225.0" fill="#ff0" r="3.0" stroke="#000"/><circle cx="363.0" cy="205.0" fill="#0f0" r="3.0" stroke="#000"/><circle cx="393.0" cy="196.0" fill="#00f" r="3.0" stroke="#000"/><circle cx="418.0" cy="215.0" fill="#a020f0" r="3.0" stroke="#000"/><circle cx="447.0" cy="226.0" fill="#a52a2a" r="3.0" stroke="#000"/><circle cx="464.0" cy="252.0" fill="#bebebe" r="3.0" stroke="#000"/><circle cx="484.0" cy="276.0" fill="#f00" r="3.0" stroke="#000"/><circle cx="514.0" cy="284.0" fill="#ffa500" r="3.0" stroke="#000"/><circle cx="544.0" cy="293.0" fill="#ff0" r="3.0" stroke="#000"/><circle cx="525.0" cy="269.0" fill="#0f0" r="3.0" stroke="#000"/><circle cx="528.0" cy="299.0" fill="#00f" r="3.0" stroke="#000"/><polyline fill="none" points="217.0,300.0 227.0,270.0 256.0,260.0 259.0,229.0 259.0,198.0 250.0,168.0 247.0,138.0 274.0,152.0 297.0,173.0 299.0,204.0 314.0,231.0 326.0,260.0 354.0,246.0 385.0,251.0 410.0,233.0 415.0,264.0 446.0,261.0 477.0,259.0 469.0,289.0 497.0,302.0 528.0,300.0" stroke="#000" stroke-linejoin="round"/><circle cx="217.0" cy="300.0" fill="#f00" r="3.0" stroke="#000"/><circle cx="227.0" cy="270.0" fill="#ffa500" r="3.0" stroke="#000"/><circle cx="256.0" cy="260.0" fill="#ff0" r="3.0" stroke="#000"/><circle cx="259.0" cy="229.0" fill="#0f0" r="3.0" stroke="#000"/><circle cx="259.0" cy="198.0" fill="#00f" r="3.0" stroke="#000"/><circle cx="250.0" cy="168.0" fill="#a020f0" r="3.0" stroke="#000"/><circle cx="247.0" cy="138.0" fill="#a52a2a" r="3.0" stroke="#000"/><circle cx="274.0" cy="152.0" fill="#bebebe" r="3.0" stroke="#000"/><circle cx="297.0" cy="173.0" fill="#f00" r="3.0" stroke="#000"/><circle cx="299.0" cy="204.0" fill="#ffa500" r="3.0" stroke="#000"/><circle cx="314.0" cy="231.0" fill="#ff0" r="3.0" stroke="#000"/><circle cx="326.0" cy="260.0" fill="#0f0" r="3.0" stroke="#000"/><circle cx="354.0" cy="246.0" fill="#00f" r="3.0" stroke="#000"/><circle cx="385.0" cy="251.0" fill="#a020f0" r="3.0" stroke="#000"/><circle cx="410.0" cy="233.0" fill="#a52a2a" r="3.0" stroke="#000"/><circle cx="415.0" cy="264.0" fill="#bebebe" r="3.0" stroke="#000"/><circle cx="446.0" cy="261.0" fill="#f00" r="3.0" stroke="#000"/><circle cx="477.0" cy="259.0" fill="#ffa500" r="3.0" stroke="#000"/><circle cx="469.0" cy="289.0" fill="#ff0" r="3.0" stroke="#000"/><circle cx="497.0" cy="302.0" fill="#0f0" r="3.0" stroke="#000"/><circle cx="528.0" cy="300.0" fill="#00f" r="3.0" stroke="#000"/><polyline fill="none" points="217.0,300.0 225.0,269.0 253.0,257.0 237.0,230.0 240.0,199.0 264.0,179.0 282.0,204.0 313.0,204.0 334.0,182.0 365.0,188.0 395.0,196.0 419.0,216.0 425.0,246.0 455.0,251.0 442.0,279.0 425.0,305.0 447.0,327.0 461.0,299.0 484.0,321.0 498.0,293.0 528.0,300.0" stroke="#000" stroke-linejoin="round"/><circle cx="217.0" cy="300.0" fill="#f00" r="3.0" stroke="#000"/><circle cx="225.0" cy="269.0" fill="#ffa500" r="3.0" stroke="#000"/><circle cx="253.0" cy="257.0" fill="#ff0" r="3.0" stroke="#000"/><circle cx="237.0" cy="230.0" fill="#0f0" r="3.0" stroke="#000"/><circle cx="240.0" cy="199.0" fill="#00f" r="3.0" stroke="#000"/><circle cx="264.0" cy="179.0" fill="#a020f0" r="3.0" stroke="#000"/><circle cx="282.0" cy="204.0" fill="#a52a2a" r="3.0" stroke="#000"/><circle cx="313.0" cy="204.0" fill="#bebebe" r="3.0" stroke="#000"/><circle cx="334.0" cy="182.0" fill="#f00" r="3.0" stroke="#000"/><circle cx="365.0" cy="188.0" fill="#ffa500" r="3.0" stroke="#000"/><circle cx="395.0" cy="196.0" fill="#ff0" r="3.0" stroke="#000"/><circle cx="419.0" cy="216.0" fill="#0f0" r="3.0" stroke="#000"/><circle cx="425.0" cy="246.0" fill="#00f" r="3.0" stroke="#000"/><circle cx="455.0" cy="251.0" fill="#a020f0" r="3.0" stroke="#000"/><circle cx="442.0" cy="279.0" fill="#a52a2a" r="3.0" stroke="#000"/><circle cx="425.0" cy="305.0" fill="#bebebe" r="3.0" stroke="#000"/><circle cx="447.0" cy="327.0" fill="#f00" r="3.0" stroke="#000"/><circle cx="461.0" cy="299.0" fill="#ffa500" r="3.0" stroke="#000"/><circle cx="484.0" cy="321.0" fill="#ff0" r="3.0" stroke="#000"/><circle cx="498.0" cy="293.0" fill="#0f0" r="3.0" stroke="#000"/><circle cx="528.0" cy="300.0" fill="#00f" r="3.0" stroke="#000"/></svg>